<svg width="751" height="706" viewBox="0 0 751 706" fill="none" xmlns="http://www.w3.org/2000/svg">
<rect x="129" width="578" height="706" rx="16" fill="#0A2149"/>
<g clip-path="url(#clip0_2070_2017)">
<path fill-rule="evenodd" clip-rule="evenodd" d="M471.692 656.995C465.593 656.995 461.072 651.987 461.072 646.553V535.875C461.072 530.442 465.592 525.433 471.692 525.433H581.09C587.189 525.433 591.71 530.442 591.71 535.875V646.553C591.71 651.987 587.189 656.995 581.09 656.995H471.692ZM471.692 662.429C463.069 662.429 456 655.277 456 646.553V535.875C456 527.152 463.069 520 471.692 520H581.09C589.712 520 596.781 527.152 596.781 535.875V646.553C596.781 655.277 589.712 662.429 581.09 662.429H471.692Z" fill="#061C42"/>
<path fill-rule="evenodd" clip-rule="evenodd" d="M613.823 798.57C607.641 798.57 603.066 793.504 603.066 788.013V676.525C603.066 671.035 607.642 665.968 613.823 665.968H724.172C730.353 665.968 734.929 671.035 734.929 676.525V788.013C734.929 793.504 730.353 798.57 724.172 798.57H613.823ZM613.823 804.004C605.125 804.004 597.995 796.801 597.995 788.013V676.525C597.995 667.739 605.125 660.535 613.823 660.535H724.172C732.87 660.535 740 667.739 740 676.525V788.013C740 796.801 732.87 804.004 724.172 804.004H613.823Z" fill="#061C42"/>
</g>
<g clip-path="url(#clip1_2070_2017)">
<path fill-rule="evenodd" clip-rule="evenodd" d="M101.692 46.9913C95.5926 46.9913 91.0718 41.9832 91.0718 36.5493V-74.129C91.0718 -79.5624 95.5925 -84.5705 101.692 -84.5705H211.09C217.189 -84.5705 221.71 -79.5624 221.71 -74.129V36.5493C221.71 41.9832 217.189 46.9913 211.09 46.9913H101.692ZM101.692 52.4246C93.0694 52.4246 86.0003 45.273 86.0003 36.5493V-74.129C86.0003 -82.8524 93.0694 -90.0039 101.692 -90.0039H211.09C219.712 -90.0039 226.781 -82.8524 226.781 -74.129V36.5493C226.781 45.273 219.712 52.4246 211.09 52.4246H101.692Z" fill="#01112D"/>
<path fill-rule="evenodd" clip-rule="evenodd" d="M243.823 188.566C237.641 188.566 233.066 183.5 233.066 178.009V66.5213C233.066 61.0315 237.642 55.9641 243.823 55.9641H354.172C360.353 55.9641 364.929 61.0315 364.929 66.5213V178.009C364.929 183.5 360.353 188.566 354.172 188.566H243.823ZM243.823 194C235.125 194 227.995 186.797 227.995 178.009V66.5213C227.995 57.7346 235.125 50.5308 243.823 50.5308H354.172C362.87 50.5308 370 57.7346 370 66.5213V178.009C370 186.797 362.87 194 354.172 194H243.823Z" fill="#01112D"/>
</g>
<g clip-path="url(#clip2_2070_2017)">
<g clip-path="url(#clip3_2070_2017)">
<g filter="url(#filter0_d_2070_2017)">
<g clip-path="url(#clip4_2070_2017)">
<g filter="url(#filter1_d_2070_2017)">
<path d="M97 161H812V586C812 590.418 808.418 594 804 594H105C100.582 594 97 590.418 97 586V161Z" fill="white"/>
</g>
<g filter="url(#filter2_d_2070_2017)">
<rect x="133.5" y="186.5" width="548" height="181" rx="7.5" stroke="#D3E4F1" stroke-dasharray="24 24" shape-rendering="crispEdges"/>
</g>
<g filter="url(#filter3_d_2070_2017)">
<rect x="107.5" y="419.5" width="420" height="89" rx="7.5" stroke="#D3E4F1" stroke-dasharray="24 24" shape-rendering="crispEdges"/>
</g>
<g filter="url(#filter4_di_2070_2017)">
<path d="M97 120C97 115.582 100.582 112 105 112H1036.99C1041.41 112 1044.99 115.582 1044.99 120V160.698H97V120Z" fill="#01112D"/>
<path fill-rule="evenodd" clip-rule="evenodd" d="M121.843 141.445C124.892 141.445 127.364 138.973 127.364 135.924C127.364 132.875 124.892 130.403 121.843 130.403C118.794 130.403 116.322 132.875 116.322 135.924C116.322 138.973 118.794 141.445 121.843 141.445Z" fill="#4582F7"/>
<path fill-rule="evenodd" clip-rule="evenodd" d="M140.245 141.445C143.295 141.445 145.766 138.973 145.766 135.924C145.766 132.875 143.295 130.403 140.245 130.403C137.196 130.403 134.725 132.875 134.725 135.924C134.725 138.973 137.196 141.445 140.245 141.445Z" fill="#19418D"/>
<path fill-rule="evenodd" clip-rule="evenodd" d="M158.648 141.445C161.697 141.445 164.169 138.973 164.169 135.924C164.169 132.875 161.697 130.403 158.648 130.403C155.599 130.403 153.127 132.875 153.127 135.924C153.127 138.973 155.599 141.445 158.648 141.445Z" fill="#041C4A"/>
</g>
</g>
</g>
</g>
</g>
<g filter="url(#filter5_d_2070_2017)">
<rect x="71" y="220" width="580" height="185.417" rx="8" fill="white" shape-rendering="crispEdges"/>
<rect x="71.5" y="220.5" width="579" height="184.417" rx="7.5" stroke="#DDF0FF" shape-rendering="crispEdges"/>
<path d="M104.723 272.885C104.298 272.885 103.968 272.767 103.733 272.533C103.513 272.298 103.403 271.961 103.403 271.521V258.431C103.403 257.976 103.513 257.631 103.733 257.397C103.968 257.147 104.268 257.023 104.635 257.023C104.972 257.023 105.222 257.089 105.383 257.221C105.559 257.338 105.764 257.543 105.999 257.837L114.425 268.771H113.853V258.365C113.853 257.939 113.963 257.609 114.183 257.375C114.418 257.14 114.748 257.023 115.173 257.023C115.598 257.023 115.921 257.14 116.141 257.375C116.361 257.609 116.471 257.939 116.471 258.365V271.565C116.471 271.975 116.368 272.298 116.163 272.533C115.958 272.767 115.679 272.885 115.327 272.885C114.99 272.885 114.718 272.819 114.513 272.687C114.322 272.555 114.11 272.342 113.875 272.049L105.471 261.115H106.021V271.521C106.021 271.961 105.911 272.298 105.691 272.533C105.471 272.767 105.148 272.885 104.723 272.885ZM124.502 272.929C123.387 272.929 122.419 272.701 121.598 272.247C120.777 271.792 120.139 271.147 119.684 270.311C119.229 269.46 119.002 268.463 119.002 267.319C119.002 266.453 119.127 265.683 119.376 265.009C119.64 264.319 120.014 263.733 120.498 263.249C120.982 262.75 121.561 262.376 122.236 262.127C122.911 261.863 123.666 261.731 124.502 261.731C125.617 261.731 126.585 261.958 127.406 262.413C128.227 262.867 128.865 263.513 129.32 264.349C129.775 265.185 130.002 266.175 130.002 267.319C130.002 268.184 129.87 268.961 129.606 269.651C129.357 270.34 128.99 270.934 128.506 271.433C128.022 271.917 127.443 272.291 126.768 272.555C126.093 272.804 125.338 272.929 124.502 272.929ZM124.502 270.839C125.045 270.839 125.521 270.707 125.932 270.443C126.343 270.179 126.658 269.79 126.878 269.277C127.113 268.749 127.23 268.096 127.23 267.319C127.23 266.145 126.981 265.273 126.482 264.701C125.983 264.114 125.323 263.821 124.502 263.821C123.959 263.821 123.483 263.953 123.072 264.217C122.661 264.466 122.339 264.855 122.104 265.383C121.884 265.896 121.774 266.541 121.774 267.319C121.774 268.477 122.023 269.357 122.522 269.959C123.021 270.545 123.681 270.839 124.502 270.839ZM133.636 272.885C133.196 272.885 132.858 272.767 132.624 272.533C132.389 272.283 132.272 271.931 132.272 271.477V263.161C132.272 262.706 132.389 262.361 132.624 262.127C132.858 261.892 133.188 261.775 133.614 261.775C134.039 261.775 134.369 261.892 134.604 262.127C134.838 262.361 134.956 262.706 134.956 263.161V264.657L134.714 264.107C135.036 263.329 135.535 262.743 136.21 262.347C136.899 261.936 137.676 261.731 138.542 261.731C139.407 261.731 140.118 261.892 140.676 262.215C141.233 262.537 141.651 263.029 141.93 263.689C142.208 264.334 142.348 265.155 142.348 266.153V271.477C142.348 271.931 142.23 272.283 141.996 272.533C141.761 272.767 141.424 272.885 140.984 272.885C140.544 272.885 140.199 272.767 139.95 272.533C139.715 272.283 139.598 271.931 139.598 271.477V266.285C139.598 265.449 139.436 264.84 139.114 264.459C138.806 264.077 138.322 263.887 137.662 263.887C136.855 263.887 136.21 264.143 135.726 264.657C135.256 265.155 135.022 265.823 135.022 266.659V271.477C135.022 272.415 134.56 272.885 133.636 272.885ZM146.153 267.913C145.83 267.913 145.559 267.81 145.339 267.605C145.134 267.385 145.031 267.121 145.031 266.813C145.031 266.49 145.134 266.226 145.339 266.021C145.559 265.815 145.83 265.713 146.153 265.713H150.839C151.147 265.713 151.404 265.815 151.609 266.021C151.829 266.226 151.939 266.49 151.939 266.813C151.939 267.121 151.829 267.385 151.609 267.605C151.404 267.81 151.147 267.913 150.839 267.913H146.153ZM156.044 272.885C155.604 272.885 155.267 272.767 155.032 272.533C154.797 272.283 154.68 271.931 154.68 271.477V263.161C154.68 262.706 154.797 262.361 155.032 262.127C155.267 261.892 155.597 261.775 156.022 261.775C156.447 261.775 156.777 261.892 157.012 262.127C157.247 262.361 157.364 262.706 157.364 263.161V264.657L157.122 264.107C157.445 263.329 157.943 262.743 158.618 262.347C159.307 261.936 160.085 261.731 160.95 261.731C161.815 261.731 162.527 261.892 163.084 262.215C163.641 262.537 164.059 263.029 164.338 263.689C164.617 264.334 164.756 265.155 164.756 266.153V271.477C164.756 271.931 164.639 272.283 164.404 272.533C164.169 272.767 163.832 272.885 163.392 272.885C162.952 272.885 162.607 272.767 162.358 272.533C162.123 272.283 162.006 271.931 162.006 271.477V266.285C162.006 265.449 161.845 264.84 161.522 264.459C161.214 264.077 160.73 263.887 160.07 263.887C159.263 263.887 158.618 264.143 158.134 264.657C157.665 265.155 157.43 265.823 157.43 266.659V271.477C157.43 272.415 156.968 272.885 156.044 272.885ZM172.851 272.929C171.634 272.929 170.585 272.701 169.705 272.247C168.825 271.792 168.143 271.147 167.659 270.311C167.19 269.475 166.955 268.485 166.955 267.341C166.955 266.226 167.182 265.251 167.637 264.415C168.106 263.579 168.744 262.926 169.551 262.457C170.372 261.973 171.304 261.731 172.345 261.731C173.108 261.731 173.79 261.855 174.391 262.105C175.007 262.354 175.528 262.713 175.953 263.183C176.393 263.652 176.723 264.224 176.943 264.899C177.178 265.559 177.295 266.307 177.295 267.143C177.295 267.407 177.2 267.612 177.009 267.759C176.833 267.891 176.576 267.957 176.239 267.957H169.177V266.373H175.359L175.007 266.703C175.007 266.028 174.904 265.463 174.699 265.009C174.508 264.554 174.222 264.209 173.841 263.975C173.474 263.725 173.012 263.601 172.455 263.601C171.839 263.601 171.311 263.747 170.871 264.041C170.446 264.319 170.116 264.723 169.881 265.251C169.661 265.764 169.551 266.38 169.551 267.099V267.253C169.551 268.455 169.83 269.357 170.387 269.959C170.959 270.545 171.795 270.839 172.895 270.839C173.276 270.839 173.702 270.795 174.171 270.707C174.655 270.604 175.11 270.435 175.535 270.201C175.843 270.025 176.114 269.951 176.349 269.981C176.584 269.995 176.767 270.076 176.899 270.223C177.046 270.369 177.134 270.553 177.163 270.773C177.192 270.978 177.148 271.191 177.031 271.411C176.928 271.631 176.745 271.821 176.481 271.983C175.968 272.305 175.374 272.547 174.699 272.709C174.039 272.855 173.423 272.929 172.851 272.929ZM184.445 272.929C183.316 272.929 182.333 272.701 181.497 272.247C180.661 271.777 180.016 271.117 179.561 270.267C179.106 269.416 178.879 268.419 178.879 267.275C178.879 266.409 179.004 265.639 179.253 264.965C179.517 264.275 179.891 263.696 180.375 263.227C180.859 262.743 181.446 262.376 182.135 262.127C182.824 261.863 183.594 261.731 184.445 261.731C184.929 261.731 185.45 261.797 186.007 261.929C186.579 262.061 187.114 262.281 187.613 262.589C187.848 262.735 188.002 262.911 188.075 263.117C188.148 263.322 188.163 263.535 188.119 263.755C188.075 263.96 187.98 264.143 187.833 264.305C187.701 264.451 187.532 264.547 187.327 264.591C187.122 264.62 186.894 264.569 186.645 264.437C186.322 264.246 185.992 264.107 185.655 264.019C185.318 263.916 184.995 263.865 184.687 263.865C184.203 263.865 183.778 263.945 183.411 264.107C183.044 264.253 182.729 264.473 182.465 264.767C182.216 265.045 182.025 265.397 181.893 265.823C181.761 266.248 181.695 266.739 181.695 267.297C181.695 268.382 181.952 269.24 182.465 269.871C182.993 270.487 183.734 270.795 184.687 270.795C184.995 270.795 185.31 270.751 185.633 270.663C185.97 270.575 186.308 270.435 186.645 270.245C186.894 270.113 187.114 270.069 187.305 270.113C187.51 270.157 187.679 270.259 187.811 270.421C187.943 270.567 188.024 270.751 188.053 270.971C188.082 271.176 188.053 271.381 187.965 271.587C187.892 271.792 187.745 271.961 187.525 272.093C187.041 272.386 186.528 272.599 185.985 272.731C185.442 272.863 184.929 272.929 184.445 272.929ZM194.937 272.929C193.72 272.929 192.671 272.701 191.791 272.247C190.911 271.792 190.229 271.147 189.745 270.311C189.276 269.475 189.041 268.485 189.041 267.341C189.041 266.226 189.268 265.251 189.723 264.415C190.192 263.579 190.83 262.926 191.637 262.457C192.458 261.973 193.39 261.731 194.431 261.731C195.194 261.731 195.876 261.855 196.477 262.105C197.093 262.354 197.614 262.713 198.039 263.183C198.479 263.652 198.809 264.224 199.029 264.899C199.264 265.559 199.381 266.307 199.381 267.143C199.381 267.407 199.286 267.612 199.095 267.759C198.919 267.891 198.662 267.957 198.325 267.957H191.263V266.373H197.445L197.093 266.703C197.093 266.028 196.99 265.463 196.785 265.009C196.594 264.554 196.308 264.209 195.927 263.975C195.56 263.725 195.098 263.601 194.541 263.601C193.925 263.601 193.397 263.747 192.957 264.041C192.532 264.319 192.202 264.723 191.967 265.251C191.747 265.764 191.637 266.38 191.637 267.099V267.253C191.637 268.455 191.916 269.357 192.473 269.959C193.045 270.545 193.881 270.839 194.981 270.839C195.362 270.839 195.788 270.795 196.257 270.707C196.741 270.604 197.196 270.435 197.621 270.201C197.929 270.025 198.2 269.951 198.435 269.981C198.67 269.995 198.853 270.076 198.985 270.223C199.132 270.369 199.22 270.553 199.249 270.773C199.278 270.978 199.234 271.191 199.117 271.411C199.014 271.631 198.831 271.821 198.567 271.983C198.054 272.305 197.46 272.547 196.785 272.709C196.125 272.855 195.509 272.929 194.937 272.929ZM205.497 272.929C204.866 272.929 204.199 272.863 203.495 272.731C202.791 272.599 202.16 272.371 201.603 272.049C201.368 271.902 201.2 271.733 201.097 271.543C201.009 271.337 200.972 271.139 200.987 270.949C201.016 270.743 201.09 270.567 201.207 270.421C201.339 270.274 201.5 270.179 201.691 270.135C201.896 270.091 202.116 270.127 202.351 270.245C202.938 270.523 203.488 270.721 204.001 270.839C204.514 270.941 205.02 270.993 205.519 270.993C206.223 270.993 206.744 270.875 207.081 270.641C207.433 270.391 207.609 270.069 207.609 269.673C207.609 269.335 207.492 269.079 207.257 268.903C207.037 268.712 206.7 268.573 206.245 268.485L204.045 268.067C203.136 267.891 202.439 267.561 201.955 267.077C201.486 266.578 201.251 265.94 201.251 265.163C201.251 264.459 201.442 263.85 201.823 263.337C202.219 262.823 202.762 262.427 203.451 262.149C204.14 261.87 204.932 261.731 205.827 261.731C206.472 261.731 207.074 261.804 207.631 261.951C208.203 262.083 208.753 262.295 209.281 262.589C209.501 262.706 209.648 262.86 209.721 263.051C209.809 263.241 209.831 263.439 209.787 263.645C209.743 263.835 209.655 264.011 209.523 264.173C209.391 264.319 209.222 264.415 209.017 264.459C208.826 264.488 208.606 264.444 208.357 264.327C207.902 264.092 207.462 263.923 207.037 263.821C206.626 263.718 206.23 263.667 205.849 263.667C205.13 263.667 204.595 263.791 204.243 264.041C203.906 264.29 203.737 264.62 203.737 265.031C203.737 265.339 203.84 265.595 204.045 265.801C204.25 266.006 204.566 266.145 204.991 266.219L207.191 266.637C208.144 266.813 208.863 267.135 209.347 267.605C209.846 268.074 210.095 268.705 210.095 269.497C210.095 270.567 209.677 271.411 208.841 272.027C208.005 272.628 206.89 272.929 205.497 272.929ZM216.239 272.929C215.608 272.929 214.941 272.863 214.237 272.731C213.533 272.599 212.902 272.371 212.345 272.049C212.11 271.902 211.942 271.733 211.839 271.543C211.751 271.337 211.714 271.139 211.729 270.949C211.758 270.743 211.832 270.567 211.949 270.421C212.081 270.274 212.242 270.179 212.433 270.135C212.638 270.091 212.858 270.127 213.093 270.245C213.68 270.523 214.23 270.721 214.743 270.839C215.256 270.941 215.762 270.993 216.261 270.993C216.965 270.993 217.486 270.875 217.823 270.641C218.175 270.391 218.351 270.069 218.351 269.673C218.351 269.335 218.234 269.079 217.999 268.903C217.779 268.712 217.442 268.573 216.987 268.485L214.787 268.067C213.878 267.891 213.181 267.561 212.697 267.077C212.228 266.578 211.993 265.94 211.993 265.163C211.993 264.459 212.184 263.85 212.565 263.337C212.961 262.823 213.504 262.427 214.193 262.149C214.882 261.87 215.674 261.731 216.569 261.731C217.214 261.731 217.816 261.804 218.373 261.951C218.945 262.083 219.495 262.295 220.023 262.589C220.243 262.706 220.39 262.86 220.463 263.051C220.551 263.241 220.573 263.439 220.529 263.645C220.485 263.835 220.397 264.011 220.265 264.173C220.133 264.319 219.964 264.415 219.759 264.459C219.568 264.488 219.348 264.444 219.099 264.327C218.644 264.092 218.204 263.923 217.779 263.821C217.368 263.718 216.972 263.667 216.591 263.667C215.872 263.667 215.337 263.791 214.985 264.041C214.648 264.29 214.479 264.62 214.479 265.031C214.479 265.339 214.582 265.595 214.787 265.801C214.992 266.006 215.308 266.145 215.733 266.219L217.933 266.637C218.886 266.813 219.605 267.135 220.089 267.605C220.588 268.074 220.837 268.705 220.837 269.497C220.837 270.567 220.419 271.411 219.583 272.027C218.747 272.628 217.632 272.929 216.239 272.929ZM226.585 272.929C225.808 272.929 225.111 272.782 224.495 272.489C223.894 272.181 223.417 271.77 223.065 271.257C222.728 270.743 222.559 270.164 222.559 269.519C222.559 268.727 222.765 268.103 223.175 267.649C223.586 267.179 224.253 266.842 225.177 266.637C226.101 266.431 227.341 266.329 228.895 266.329H229.995V267.913H228.917C228.008 267.913 227.282 267.957 226.739 268.045C226.197 268.133 225.808 268.287 225.573 268.507C225.353 268.712 225.243 269.005 225.243 269.387C225.243 269.871 225.412 270.267 225.749 270.575C226.087 270.883 226.556 271.037 227.157 271.037C227.641 271.037 228.067 270.927 228.433 270.707C228.815 270.472 229.115 270.157 229.335 269.761C229.555 269.365 229.665 268.91 229.665 268.397V265.867C229.665 265.133 229.504 264.605 229.181 264.283C228.859 263.96 228.316 263.799 227.553 263.799C227.128 263.799 226.666 263.85 226.167 263.953C225.683 264.055 225.17 264.231 224.627 264.481C224.349 264.613 224.099 264.649 223.879 264.591C223.674 264.532 223.513 264.415 223.395 264.239C223.278 264.048 223.219 263.843 223.219 263.623C223.219 263.403 223.278 263.19 223.395 262.985C223.513 262.765 223.711 262.603 223.989 262.501C224.664 262.222 225.309 262.024 225.925 261.907C226.556 261.789 227.128 261.731 227.641 261.731C228.697 261.731 229.563 261.892 230.237 262.215C230.927 262.537 231.44 263.029 231.777 263.689C232.115 264.334 232.283 265.17 232.283 266.197V271.477C232.283 271.931 232.173 272.283 231.953 272.533C231.733 272.767 231.418 272.885 231.007 272.885C230.597 272.885 230.274 272.767 230.039 272.533C229.819 272.283 229.709 271.931 229.709 271.477V270.421H229.885C229.783 270.934 229.577 271.381 229.269 271.763C228.976 272.129 228.602 272.415 228.147 272.621C227.693 272.826 227.172 272.929 226.585 272.929ZM236.483 272.885C236.028 272.885 235.676 272.767 235.427 272.533C235.192 272.283 235.075 271.931 235.075 271.477V263.161C235.075 262.706 235.192 262.361 235.427 262.127C235.661 261.892 235.991 261.775 236.417 261.775C236.842 261.775 237.172 261.892 237.407 262.127C237.641 262.361 237.759 262.706 237.759 263.161V264.547H237.539C237.744 263.667 238.147 262.999 238.749 262.545C239.35 262.09 240.149 261.819 241.147 261.731C241.455 261.701 241.697 261.782 241.873 261.973C242.063 262.149 242.173 262.427 242.203 262.809C242.232 263.175 242.144 263.476 241.939 263.711C241.748 263.931 241.455 264.063 241.059 264.107L240.575 264.151C239.68 264.239 239.005 264.517 238.551 264.987C238.096 265.441 237.869 266.087 237.869 266.923V271.477C237.869 271.931 237.751 272.283 237.517 272.533C237.282 272.767 236.937 272.885 236.483 272.885ZM247.084 276.845C246.761 276.845 246.497 276.757 246.292 276.581C246.086 276.419 245.962 276.199 245.918 275.921C245.888 275.642 245.94 275.349 246.072 275.041L247.568 271.719V272.863L243.564 263.601C243.432 263.278 243.388 262.977 243.432 262.699C243.476 262.42 243.608 262.2 243.828 262.039C244.062 261.863 244.378 261.775 244.774 261.775C245.111 261.775 245.382 261.855 245.588 262.017C245.793 262.163 245.976 262.449 246.138 262.875L249.108 270.289H248.448L251.484 262.853C251.645 262.442 251.836 262.163 252.056 262.017C252.276 261.855 252.569 261.775 252.936 261.775C253.258 261.775 253.515 261.863 253.706 262.039C253.896 262.2 254.014 262.42 254.058 262.699C254.102 262.963 254.05 263.256 253.904 263.579L248.558 275.789C248.367 276.199 248.162 276.478 247.942 276.625C247.722 276.771 247.436 276.845 247.084 276.845ZM265.847 272.929C265.216 272.929 264.549 272.863 263.845 272.731C263.141 272.599 262.51 272.371 261.953 272.049C261.718 271.902 261.549 271.733 261.447 271.543C261.359 271.337 261.322 271.139 261.337 270.949C261.366 270.743 261.439 270.567 261.557 270.421C261.689 270.274 261.85 270.179 262.041 270.135C262.246 270.091 262.466 270.127 262.701 270.245C263.287 270.523 263.837 270.721 264.351 270.839C264.864 270.941 265.37 270.993 265.869 270.993C266.573 270.993 267.093 270.875 267.431 270.641C267.783 270.391 267.959 270.069 267.959 269.673C267.959 269.335 267.841 269.079 267.607 268.903C267.387 268.712 267.049 268.573 266.595 268.485L264.395 268.067C263.485 267.891 262.789 267.561 262.305 267.077C261.835 266.578 261.601 265.94 261.601 265.163C261.601 264.459 261.791 263.85 262.173 263.337C262.569 262.823 263.111 262.427 263.801 262.149C264.49 261.87 265.282 261.731 266.177 261.731C266.822 261.731 267.423 261.804 267.981 261.951C268.553 262.083 269.103 262.295 269.631 262.589C269.851 262.706 269.997 262.86 270.071 263.051C270.159 263.241 270.181 263.439 270.137 263.645C270.093 263.835 270.005 264.011 269.873 264.173C269.741 264.319 269.572 264.415 269.367 264.459C269.176 264.488 268.956 264.444 268.707 264.327C268.252 264.092 267.812 263.923 267.387 263.821C266.976 263.718 266.58 263.667 266.199 263.667C265.48 263.667 264.945 263.791 264.593 264.041C264.255 264.29 264.087 264.62 264.087 265.031C264.087 265.339 264.189 265.595 264.395 265.801C264.6 266.006 264.915 266.145 265.341 266.219L267.541 266.637C268.494 266.813 269.213 267.135 269.697 267.605C270.195 268.074 270.445 268.705 270.445 269.497C270.445 270.567 270.027 271.411 269.191 272.027C268.355 272.628 267.24 272.929 265.847 272.929ZM277.623 272.929C276.493 272.929 275.511 272.701 274.675 272.247C273.839 271.777 273.193 271.117 272.739 270.267C272.284 269.416 272.057 268.419 272.057 267.275C272.057 266.409 272.181 265.639 272.431 264.965C272.695 264.275 273.069 263.696 273.553 263.227C274.037 262.743 274.623 262.376 275.313 262.127C276.002 261.863 276.772 261.731 277.623 261.731C278.107 261.731 278.627 261.797 279.185 261.929C279.757 262.061 280.292 262.281 280.791 262.589C281.025 262.735 281.179 262.911 281.253 263.117C281.326 263.322 281.341 263.535 281.297 263.755C281.253 263.96 281.157 264.143 281.011 264.305C280.879 264.451 280.71 264.547 280.505 264.591C280.299 264.62 280.072 264.569 279.823 264.437C279.5 264.246 279.17 264.107 278.833 264.019C278.495 263.916 278.173 263.865 277.865 263.865C277.381 263.865 276.955 263.945 276.589 264.107C276.222 264.253 275.907 264.473 275.643 264.767C275.393 265.045 275.203 265.397 275.071 265.823C274.939 266.248 274.873 266.739 274.873 267.297C274.873 268.382 275.129 269.24 275.643 269.871C276.171 270.487 276.911 270.795 277.865 270.795C278.173 270.795 278.488 270.751 278.811 270.663C279.148 270.575 279.485 270.435 279.823 270.245C280.072 270.113 280.292 270.069 280.483 270.113C280.688 270.157 280.857 270.259 280.989 270.421C281.121 270.567 281.201 270.751 281.231 270.971C281.26 271.176 281.231 271.381 281.143 271.587C281.069 271.792 280.923 271.961 280.703 272.093C280.219 272.386 279.705 272.599 279.163 272.731C278.62 272.863 278.107 272.929 277.623 272.929ZM284.436 272.885C283.981 272.885 283.629 272.767 283.38 272.533C283.145 272.283 283.028 271.931 283.028 271.477V263.161C283.028 262.706 283.145 262.361 283.38 262.127C283.614 261.892 283.944 261.775 284.37 261.775C284.795 261.775 285.125 261.892 285.36 262.127C285.594 262.361 285.712 262.706 285.712 263.161V264.547H285.492C285.697 263.667 286.1 262.999 286.702 262.545C287.303 262.09 288.102 261.819 289.1 261.731C289.408 261.701 289.65 261.782 289.826 261.973C290.016 262.149 290.126 262.427 290.156 262.809C290.185 263.175 290.097 263.476 289.892 263.711C289.701 263.931 289.408 264.063 289.012 264.107L288.528 264.151C287.633 264.239 286.958 264.517 286.504 264.987C286.049 265.441 285.822 266.087 285.822 266.923V271.477C285.822 271.931 285.704 272.283 285.47 272.533C285.235 272.767 284.89 272.885 284.436 272.885ZM293.007 272.863C292.567 272.863 292.23 272.731 291.995 272.467C291.76 272.203 291.643 271.836 291.643 271.367V263.293C291.643 262.809 291.76 262.442 291.995 262.193C292.23 261.929 292.567 261.797 293.007 261.797C293.447 261.797 293.784 261.929 294.019 262.193C294.268 262.442 294.393 262.809 294.393 263.293V271.367C294.393 271.836 294.276 272.203 294.041 272.467C293.806 272.731 293.462 272.863 293.007 272.863ZM293.007 259.751C292.494 259.751 292.09 259.626 291.797 259.377C291.518 259.113 291.379 258.753 291.379 258.299C291.379 257.829 291.518 257.47 291.797 257.221C292.09 256.971 292.494 256.847 293.007 256.847C293.535 256.847 293.938 256.971 294.217 257.221C294.496 257.47 294.635 257.829 294.635 258.299C294.635 258.753 294.496 259.113 294.217 259.377C293.938 259.626 293.535 259.751 293.007 259.751ZM298.614 276.845C298.174 276.845 297.837 276.727 297.602 276.493C297.368 276.258 297.25 275.913 297.25 275.459V263.161C297.25 262.706 297.368 262.361 297.602 262.127C297.837 261.892 298.167 261.775 298.592 261.775C299.032 261.775 299.37 261.892 299.604 262.127C299.839 262.361 299.956 262.706 299.956 263.161V264.877L299.714 264.217C299.934 263.469 300.382 262.867 301.056 262.413C301.746 261.958 302.545 261.731 303.454 261.731C304.393 261.731 305.214 261.958 305.918 262.413C306.637 262.867 307.194 263.513 307.59 264.349C307.986 265.17 308.184 266.16 308.184 267.319C308.184 268.463 307.986 269.46 307.59 270.311C307.194 271.147 306.644 271.792 305.94 272.247C305.236 272.701 304.408 272.929 303.454 272.929C302.56 272.929 301.775 272.709 301.1 272.269C300.426 271.814 299.971 271.227 299.736 270.509H300V275.459C300 275.913 299.876 276.258 299.626 276.493C299.392 276.727 299.054 276.845 298.614 276.845ZM302.684 270.839C303.227 270.839 303.704 270.707 304.114 270.443C304.525 270.179 304.84 269.79 305.06 269.277C305.295 268.749 305.412 268.096 305.412 267.319C305.412 266.145 305.163 265.273 304.664 264.701C304.166 264.114 303.506 263.821 302.684 263.821C302.142 263.821 301.665 263.953 301.254 264.217C300.844 264.466 300.521 264.855 300.286 265.383C300.066 265.896 299.956 266.541 299.956 267.319C299.956 268.477 300.206 269.357 300.704 269.959C301.203 270.545 301.863 270.839 302.684 270.839ZM315.262 272.929C314.309 272.929 313.51 272.767 312.864 272.445C312.234 272.122 311.764 271.653 311.456 271.037C311.148 270.406 310.994 269.629 310.994 268.705V264.019H309.85C309.498 264.019 309.227 263.931 309.036 263.755C308.846 263.564 308.75 263.307 308.75 262.985C308.75 262.647 308.846 262.391 309.036 262.215C309.227 262.039 309.498 261.951 309.85 261.951H310.994V259.949C310.994 259.494 311.112 259.149 311.346 258.915C311.596 258.68 311.94 258.563 312.38 258.563C312.82 258.563 313.158 258.68 313.392 258.915C313.627 259.149 313.744 259.494 313.744 259.949V261.951H316.076C316.428 261.951 316.7 262.039 316.89 262.215C317.081 262.391 317.176 262.647 317.176 262.985C317.176 263.307 317.081 263.564 316.89 263.755C316.7 263.931 316.428 264.019 316.076 264.019H313.744V268.551C313.744 269.255 313.898 269.783 314.206 270.135C314.514 270.487 315.013 270.663 315.702 270.663C315.952 270.663 316.172 270.641 316.362 270.597C316.553 270.553 316.722 270.523 316.868 270.509C317.044 270.494 317.191 270.553 317.308 270.685C317.426 270.802 317.484 271.051 317.484 271.433C317.484 271.726 317.433 271.99 317.33 272.225C317.242 272.445 317.074 272.599 316.824 272.687C316.634 272.745 316.384 272.797 316.076 272.841C315.768 272.899 315.497 272.929 315.262 272.929ZM322.716 272.929C322.085 272.929 321.418 272.863 320.714 272.731C320.01 272.599 319.379 272.371 318.822 272.049C318.587 271.902 318.418 271.733 318.316 271.543C318.228 271.337 318.191 271.139 318.206 270.949C318.235 270.743 318.308 270.567 318.426 270.421C318.558 270.274 318.719 270.179 318.91 270.135C319.115 270.091 319.335 270.127 319.57 270.245C320.156 270.523 320.706 270.721 321.22 270.839C321.733 270.941 322.239 270.993 322.738 270.993C323.442 270.993 323.962 270.875 324.3 270.641C324.652 270.391 324.828 270.069 324.828 269.673C324.828 269.335 324.71 269.079 324.476 268.903C324.256 268.712 323.918 268.573 323.464 268.485L321.264 268.067C320.354 267.891 319.658 267.561 319.174 267.077C318.704 266.578 318.47 265.94 318.47 265.163C318.47 264.459 318.66 263.85 319.042 263.337C319.438 262.823 319.98 262.427 320.67 262.149C321.359 261.87 322.151 261.731 323.046 261.731C323.691 261.731 324.292 261.804 324.85 261.951C325.422 262.083 325.972 262.295 326.5 262.589C326.72 262.706 326.866 262.86 326.94 263.051C327.028 263.241 327.05 263.439 327.006 263.645C326.962 263.835 326.874 264.011 326.742 264.173C326.61 264.319 326.441 264.415 326.236 264.459C326.045 264.488 325.825 264.444 325.576 264.327C325.121 264.092 324.681 263.923 324.256 263.821C323.845 263.718 323.449 263.667 323.068 263.667C322.349 263.667 321.814 263.791 321.462 264.041C321.124 264.29 320.956 264.62 320.956 265.031C320.956 265.339 321.058 265.595 321.264 265.801C321.469 266.006 321.784 266.145 322.21 266.219L324.41 266.637C325.363 266.813 326.082 267.135 326.566 267.605C327.064 268.074 327.314 268.705 327.314 269.497C327.314 270.567 326.896 271.411 326.06 272.027C325.224 272.628 324.109 272.929 322.716 272.929ZM341.696 272.929C340.787 272.929 339.988 272.701 339.298 272.247C338.624 271.792 338.176 271.183 337.956 270.421L338.198 269.871V271.477C338.198 271.931 338.081 272.283 337.846 272.533C337.612 272.767 337.282 272.885 336.856 272.885C336.416 272.885 336.079 272.767 335.844 272.533C335.61 272.283 335.492 271.931 335.492 271.477V258.409C335.492 257.954 335.61 257.609 335.844 257.375C336.079 257.14 336.416 257.023 336.856 257.023C337.296 257.023 337.634 257.14 337.868 257.375C338.118 257.609 338.242 257.954 338.242 258.409V264.129H337.978C338.213 263.41 338.668 262.831 339.342 262.391C340.017 261.951 340.802 261.731 341.696 261.731C342.65 261.731 343.478 261.958 344.182 262.413C344.886 262.867 345.436 263.513 345.832 264.349C346.228 265.17 346.426 266.16 346.426 267.319C346.426 268.463 346.228 269.46 345.832 270.311C345.436 271.147 344.879 271.792 344.16 272.247C343.456 272.701 342.635 272.929 341.696 272.929ZM340.926 270.839C341.469 270.839 341.946 270.707 342.356 270.443C342.767 270.179 343.082 269.79 343.302 269.277C343.537 268.749 343.654 268.096 343.654 267.319C343.654 266.145 343.405 265.273 342.906 264.701C342.408 264.114 341.748 263.821 340.926 263.821C340.384 263.821 339.907 263.953 339.496 264.217C339.086 264.466 338.763 264.855 338.528 265.383C338.308 265.896 338.198 266.541 338.198 267.319C338.198 268.477 338.448 269.357 338.946 269.959C339.445 270.545 340.105 270.839 340.926 270.839ZM352.358 272.929C351.141 272.929 350.224 272.584 349.608 271.895C348.992 271.191 348.684 270.164 348.684 268.815V258.409C348.684 257.954 348.801 257.609 349.036 257.375C349.271 257.14 349.608 257.023 350.048 257.023C350.488 257.023 350.825 257.14 351.06 257.375C351.309 257.609 351.434 257.954 351.434 258.409V268.683C351.434 269.357 351.573 269.856 351.852 270.179C352.145 270.501 352.556 270.663 353.084 270.663C353.201 270.663 353.311 270.663 353.414 270.663C353.517 270.648 353.619 270.633 353.722 270.619C353.927 270.589 354.067 270.648 354.14 270.795C354.213 270.927 354.25 271.205 354.25 271.631C354.25 271.997 354.177 272.283 354.03 272.489C353.883 272.694 353.641 272.819 353.304 272.863C353.157 272.877 353.003 272.892 352.842 272.907C352.681 272.921 352.519 272.929 352.358 272.929ZM360.508 272.929C359.393 272.929 358.425 272.701 357.604 272.247C356.783 271.792 356.145 271.147 355.69 270.311C355.235 269.46 355.008 268.463 355.008 267.319C355.008 266.453 355.133 265.683 355.382 265.009C355.646 264.319 356.02 263.733 356.504 263.249C356.988 262.75 357.567 262.376 358.242 262.127C358.917 261.863 359.672 261.731 360.508 261.731C361.623 261.731 362.591 261.958 363.412 262.413C364.233 262.867 364.871 263.513 365.326 264.349C365.781 265.185 366.008 266.175 366.008 267.319C366.008 268.184 365.876 268.961 365.612 269.651C365.363 270.34 364.996 270.934 364.512 271.433C364.028 271.917 363.449 272.291 362.774 272.555C362.099 272.804 361.344 272.929 360.508 272.929ZM360.508 270.839C361.051 270.839 361.527 270.707 361.938 270.443C362.349 270.179 362.664 269.79 362.884 269.277C363.119 268.749 363.236 268.096 363.236 267.319C363.236 266.145 362.987 265.273 362.488 264.701C361.989 264.114 361.329 263.821 360.508 263.821C359.965 263.821 359.489 263.953 359.078 264.217C358.667 264.466 358.345 264.855 358.11 265.383C357.89 265.896 357.78 266.541 357.78 267.319C357.78 268.477 358.029 269.357 358.528 269.959C359.027 270.545 359.687 270.839 360.508 270.839ZM373.25 272.929C372.12 272.929 371.138 272.701 370.302 272.247C369.466 271.777 368.82 271.117 368.366 270.267C367.911 269.416 367.684 268.419 367.684 267.275C367.684 266.409 367.808 265.639 368.058 264.965C368.322 264.275 368.696 263.696 369.18 263.227C369.664 262.743 370.25 262.376 370.94 262.127C371.629 261.863 372.399 261.731 373.25 261.731C373.734 261.731 374.254 261.797 374.812 261.929C375.384 262.061 375.919 262.281 376.418 262.589C376.652 262.735 376.806 262.911 376.88 263.117C376.953 263.322 376.968 263.535 376.924 263.755C376.88 263.96 376.784 264.143 376.638 264.305C376.506 264.451 376.337 264.547 376.132 264.591C375.926 264.62 375.699 264.569 375.45 264.437C375.127 264.246 374.797 264.107 374.46 264.019C374.122 263.916 373.8 263.865 373.492 263.865C373.008 263.865 372.582 263.945 372.216 264.107C371.849 264.253 371.534 264.473 371.27 264.767C371.02 265.045 370.83 265.397 370.698 265.823C370.566 266.248 370.5 266.739 370.5 267.297C370.5 268.382 370.756 269.24 371.27 269.871C371.798 270.487 372.538 270.795 373.492 270.795C373.8 270.795 374.115 270.751 374.438 270.663C374.775 270.575 375.112 270.435 375.45 270.245C375.699 270.113 375.919 270.069 376.11 270.113C376.315 270.157 376.484 270.259 376.616 270.421C376.748 270.567 376.828 270.751 376.858 270.971C376.887 271.176 376.858 271.381 376.77 271.587C376.696 271.792 376.55 271.961 376.33 272.093C375.846 272.386 375.332 272.599 374.79 272.731C374.247 272.863 373.734 272.929 373.25 272.929ZM380.019 272.885C379.579 272.885 379.241 272.767 379.007 272.533C378.772 272.283 378.655 271.931 378.655 271.477V258.409C378.655 257.954 378.772 257.609 379.007 257.375C379.241 257.14 379.579 257.023 380.019 257.023C380.459 257.023 380.796 257.14 381.031 257.375C381.28 257.609 381.405 257.954 381.405 258.409V266.527H381.449L385.079 262.699C385.372 262.405 385.629 262.178 385.849 262.017C386.069 261.855 386.369 261.775 386.751 261.775C387.132 261.775 387.418 261.877 387.609 262.083C387.814 262.273 387.917 262.508 387.917 262.787C387.917 263.065 387.785 263.344 387.521 263.623L383.693 267.671V266.527L387.895 271.059C388.159 271.337 388.276 271.623 388.247 271.917C388.232 272.195 388.115 272.43 387.895 272.621C387.675 272.797 387.396 272.885 387.059 272.885C386.648 272.885 386.318 272.804 386.069 272.643C385.834 272.481 385.57 272.239 385.277 271.917L381.449 267.913H381.405V271.477C381.405 272.415 380.943 272.885 380.019 272.885ZM395.537 272.929C394.319 272.929 393.271 272.701 392.391 272.247C391.511 271.792 390.829 271.147 390.345 270.311C389.875 269.475 389.641 268.485 389.641 267.341C389.641 266.226 389.868 265.251 390.323 264.415C390.792 263.579 391.43 262.926 392.237 262.457C393.058 261.973 393.989 261.731 395.031 261.731C395.793 261.731 396.475 261.855 397.077 262.105C397.693 262.354 398.213 262.713 398.639 263.183C399.079 263.652 399.409 264.224 399.629 264.899C399.863 265.559 399.981 266.307 399.981 267.143C399.981 267.407 399.885 267.612 399.695 267.759C399.519 267.891 399.262 267.957 398.925 267.957H391.863V266.373H398.045L397.693 266.703C397.693 266.028 397.59 265.463 397.385 265.009C397.194 264.554 396.908 264.209 396.527 263.975C396.16 263.725 395.698 263.601 395.141 263.601C394.525 263.601 393.997 263.747 393.557 264.041C393.131 264.319 392.801 264.723 392.567 265.251C392.347 265.764 392.237 266.38 392.237 267.099V267.253C392.237 268.455 392.515 269.357 393.073 269.959C393.645 270.545 394.481 270.839 395.581 270.839C395.962 270.839 396.387 270.795 396.857 270.707C397.341 270.604 397.795 270.435 398.221 270.201C398.529 270.025 398.8 269.951 399.035 269.981C399.269 269.995 399.453 270.076 399.585 270.223C399.731 270.369 399.819 270.553 399.849 270.773C399.878 270.978 399.834 271.191 399.717 271.411C399.614 271.631 399.431 271.821 399.167 271.983C398.653 272.305 398.059 272.547 397.385 272.709C396.725 272.855 396.109 272.929 395.537 272.929ZM406.294 272.929C405.356 272.929 404.527 272.701 403.808 272.247C403.104 271.792 402.554 271.147 402.158 270.311C401.762 269.46 401.564 268.463 401.564 267.319C401.564 266.16 401.762 265.17 402.158 264.349C402.554 263.513 403.104 262.867 403.808 262.413C404.527 261.958 405.356 261.731 406.294 261.731C407.189 261.731 407.966 261.951 408.626 262.391C409.301 262.831 409.756 263.41 409.99 264.129H409.748V258.409C409.748 257.954 409.866 257.609 410.1 257.375C410.335 257.14 410.672 257.023 411.112 257.023C411.552 257.023 411.89 257.14 412.124 257.375C412.374 257.609 412.498 257.954 412.498 258.409V271.477C412.498 271.931 412.381 272.283 412.146 272.533C411.912 272.767 411.574 272.885 411.134 272.885C410.694 272.885 410.357 272.767 410.122 272.533C409.888 272.283 409.77 271.931 409.77 271.477V269.761L410.012 270.421C409.792 271.183 409.345 271.792 408.67 272.247C407.996 272.701 407.204 272.929 406.294 272.929ZM407.064 270.839C407.607 270.839 408.084 270.707 408.494 270.443C408.905 270.179 409.22 269.79 409.44 269.277C409.675 268.749 409.792 268.096 409.792 267.319C409.792 266.145 409.543 265.273 409.044 264.701C408.546 264.114 407.886 263.821 407.064 263.821C406.522 263.821 406.045 263.953 405.634 264.217C405.224 264.466 404.901 264.855 404.666 265.383C404.446 265.896 404.336 266.541 404.336 267.319C404.336 268.477 404.586 269.357 405.084 269.959C405.583 270.545 406.243 270.839 407.064 270.839ZM106.681 302.929C105.904 302.929 105.207 302.782 104.591 302.489C103.99 302.181 103.513 301.77 103.161 301.257C102.824 300.743 102.655 300.164 102.655 299.519C102.655 298.727 102.86 298.103 103.271 297.649C103.682 297.179 104.349 296.842 105.273 296.637C106.197 296.431 107.436 296.329 108.991 296.329H110.091V297.913H109.013C108.104 297.913 107.378 297.957 106.835 298.045C106.292 298.133 105.904 298.287 105.669 298.507C105.449 298.712 105.339 299.005 105.339 299.387C105.339 299.871 105.508 300.267 105.845 300.575C106.182 300.883 106.652 301.037 107.253 301.037C107.737 301.037 108.162 300.927 108.529 300.707C108.91 300.472 109.211 300.157 109.431 299.761C109.651 299.365 109.761 298.91 109.761 298.397V295.867C109.761 295.133 109.6 294.605 109.277 294.283C108.954 293.96 108.412 293.799 107.649 293.799C107.224 293.799 106.762 293.85 106.263 293.953C105.779 294.055 105.266 294.231 104.723 294.481C104.444 294.613 104.195 294.649 103.975 294.591C103.77 294.532 103.608 294.415 103.491 294.239C103.374 294.048 103.315 293.843 103.315 293.623C103.315 293.403 103.374 293.19 103.491 292.985C103.608 292.765 103.806 292.603 104.085 292.501C104.76 292.222 105.405 292.024 106.021 291.907C106.652 291.789 107.224 291.731 107.737 291.731C108.793 291.731 109.658 291.892 110.333 292.215C111.022 292.537 111.536 293.029 111.873 293.689C112.21 294.334 112.379 295.17 112.379 296.197V301.477C112.379 301.931 112.269 302.283 112.049 302.533C111.829 302.767 111.514 302.885 111.103 302.885C110.692 302.885 110.37 302.767 110.135 302.533C109.915 302.283 109.805 301.931 109.805 301.477V300.421H109.981C109.878 300.934 109.673 301.381 109.365 301.763C109.072 302.129 108.698 302.415 108.243 302.621C107.788 302.826 107.268 302.929 106.681 302.929ZM119.064 302.929C118.17 302.929 117.429 302.767 116.842 302.445C116.256 302.107 115.816 301.609 115.522 300.949C115.244 300.289 115.104 299.467 115.104 298.485V293.161C115.104 292.691 115.222 292.347 115.456 292.127C115.691 291.892 116.028 291.775 116.468 291.775C116.908 291.775 117.246 291.892 117.48 292.127C117.73 292.347 117.854 292.691 117.854 293.161V298.529C117.854 299.291 118.008 299.856 118.316 300.223C118.624 300.589 119.116 300.773 119.79 300.773C120.524 300.773 121.125 300.523 121.594 300.025C122.064 299.511 122.298 298.837 122.298 298.001V293.161C122.298 292.691 122.416 292.347 122.65 292.127C122.885 291.892 123.222 291.775 123.662 291.775C124.102 291.775 124.44 291.892 124.674 292.127C124.924 292.347 125.048 292.691 125.048 293.161V301.477C125.048 302.415 124.601 302.885 123.706 302.885C123.281 302.885 122.951 302.767 122.716 302.533C122.482 302.283 122.364 301.931 122.364 301.477V299.805L122.672 300.465C122.364 301.257 121.895 301.865 121.264 302.291C120.648 302.716 119.915 302.929 119.064 302.929ZM132.838 302.929C131.885 302.929 131.086 302.767 130.44 302.445C129.81 302.122 129.34 301.653 129.032 301.037C128.724 300.406 128.57 299.629 128.57 298.705V294.019H127.426C127.074 294.019 126.803 293.931 126.612 293.755C126.422 293.564 126.326 293.307 126.326 292.985C126.326 292.647 126.422 292.391 126.612 292.215C126.803 292.039 127.074 291.951 127.426 291.951H128.57V289.949C128.57 289.494 128.688 289.149 128.922 288.915C129.172 288.68 129.516 288.563 129.956 288.563C130.396 288.563 130.734 288.68 130.968 288.915C131.203 289.149 131.32 289.494 131.32 289.949V291.951H133.652C134.004 291.951 134.276 292.039 134.466 292.215C134.657 292.391 134.752 292.647 134.752 292.985C134.752 293.307 134.657 293.564 134.466 293.755C134.276 293.931 134.004 294.019 133.652 294.019H131.32V298.551C131.32 299.255 131.474 299.783 131.782 300.135C132.09 300.487 132.589 300.663 133.278 300.663C133.528 300.663 133.748 300.641 133.938 300.597C134.129 300.553 134.298 300.523 134.444 300.509C134.62 300.494 134.767 300.553 134.884 300.685C135.002 300.802 135.06 301.051 135.06 301.433C135.06 301.726 135.009 301.99 134.906 302.225C134.818 302.445 134.65 302.599 134.4 302.687C134.21 302.745 133.96 302.797 133.652 302.841C133.344 302.899 133.073 302.929 132.838 302.929ZM141.152 302.929C140.038 302.929 139.07 302.701 138.248 302.247C137.427 301.792 136.789 301.147 136.334 300.311C135.88 299.46 135.652 298.463 135.652 297.319C135.652 296.453 135.777 295.683 136.026 295.009C136.29 294.319 136.664 293.733 137.148 293.249C137.632 292.75 138.212 292.376 138.886 292.127C139.561 291.863 140.316 291.731 141.152 291.731C142.267 291.731 143.235 291.958 144.056 292.413C144.878 292.867 145.516 293.513 145.97 294.349C146.425 295.185 146.652 296.175 146.652 297.319C146.652 298.184 146.52 298.961 146.256 299.651C146.007 300.34 145.64 300.934 145.156 301.433C144.672 301.917 144.093 302.291 143.418 302.555C142.744 302.804 141.988 302.929 141.152 302.929ZM141.152 300.839C141.695 300.839 142.172 300.707 142.582 300.443C142.993 300.179 143.308 299.79 143.528 299.277C143.763 298.749 143.88 298.096 143.88 297.319C143.88 296.145 143.631 295.273 143.132 294.701C142.634 294.114 141.974 293.821 141.152 293.821C140.61 293.821 140.133 293.953 139.722 294.217C139.312 294.466 138.989 294.855 138.754 295.383C138.534 295.896 138.424 296.541 138.424 297.319C138.424 298.477 138.674 299.357 139.172 299.959C139.671 300.545 140.331 300.839 141.152 300.839ZM150.33 302.885C149.89 302.885 149.553 302.767 149.318 302.533C149.084 302.283 148.966 301.931 148.966 301.477V293.161C148.966 292.706 149.084 292.361 149.318 292.127C149.553 291.892 149.883 291.775 150.308 291.775C150.734 291.775 151.064 291.892 151.298 292.127C151.533 292.361 151.65 292.706 151.65 293.161V294.767L151.408 294.107C151.702 293.373 152.156 292.794 152.772 292.369C153.388 291.943 154.122 291.731 154.972 291.731C155.838 291.731 156.549 291.936 157.106 292.347C157.664 292.757 158.052 293.388 158.272 294.239H157.964C158.258 293.461 158.742 292.853 159.416 292.413C160.091 291.958 160.868 291.731 161.748 291.731C162.57 291.731 163.244 291.892 163.772 292.215C164.315 292.537 164.718 293.029 164.982 293.689C165.246 294.334 165.378 295.155 165.378 296.153V301.477C165.378 301.931 165.254 302.283 165.004 302.533C164.77 302.767 164.432 302.885 163.992 302.885C163.552 302.885 163.215 302.767 162.98 302.533C162.746 302.283 162.628 301.931 162.628 301.477V296.263C162.628 295.441 162.489 294.84 162.21 294.459C161.946 294.077 161.492 293.887 160.846 293.887C160.128 293.887 159.563 294.143 159.152 294.657C158.742 295.155 158.536 295.852 158.536 296.747V301.477C158.536 301.931 158.419 302.283 158.184 302.533C157.95 302.767 157.612 302.885 157.172 302.885C156.732 302.885 156.388 302.767 156.138 302.533C155.904 302.283 155.786 301.931 155.786 301.477V296.263C155.786 295.441 155.647 294.84 155.368 294.459C155.104 294.077 154.657 293.887 154.026 293.887C153.308 293.887 152.743 294.143 152.332 294.657C151.922 295.155 151.716 295.852 151.716 296.747V301.477C151.716 302.415 151.254 302.885 150.33 302.885ZM171.757 302.929C170.98 302.929 170.283 302.782 169.667 302.489C169.066 302.181 168.589 301.77 168.237 301.257C167.9 300.743 167.731 300.164 167.731 299.519C167.731 298.727 167.936 298.103 168.347 297.649C168.758 297.179 169.425 296.842 170.349 296.637C171.273 296.431 172.512 296.329 174.067 296.329H175.167V297.913H174.089C173.18 297.913 172.454 297.957 171.911 298.045C171.368 298.133 170.98 298.287 170.745 298.507C170.525 298.712 170.415 299.005 170.415 299.387C170.415 299.871 170.584 300.267 170.921 300.575C171.258 300.883 171.728 301.037 172.329 301.037C172.813 301.037 173.238 300.927 173.605 300.707C173.986 300.472 174.287 300.157 174.507 299.761C174.727 299.365 174.837 298.91 174.837 298.397V295.867C174.837 295.133 174.676 294.605 174.353 294.283C174.03 293.96 173.488 293.799 172.725 293.799C172.3 293.799 171.838 293.85 171.339 293.953C170.855 294.055 170.342 294.231 169.799 294.481C169.52 294.613 169.271 294.649 169.051 294.591C168.846 294.532 168.684 294.415 168.567 294.239C168.45 294.048 168.391 293.843 168.391 293.623C168.391 293.403 168.45 293.19 168.567 292.985C168.684 292.765 168.882 292.603 169.161 292.501C169.836 292.222 170.481 292.024 171.097 291.907C171.728 291.789 172.3 291.731 172.813 291.731C173.869 291.731 174.734 291.892 175.409 292.215C176.098 292.537 176.612 293.029 176.949 293.689C177.286 294.334 177.455 295.17 177.455 296.197V301.477C177.455 301.931 177.345 302.283 177.125 302.533C176.905 302.767 176.59 302.885 176.179 302.885C175.768 302.885 175.446 302.767 175.211 302.533C174.991 302.283 174.881 301.931 174.881 301.477V300.421H175.057C174.954 300.934 174.749 301.381 174.441 301.763C174.148 302.129 173.774 302.415 173.319 302.621C172.864 302.826 172.344 302.929 171.757 302.929ZM185.174 302.929C184.221 302.929 183.422 302.767 182.776 302.445C182.146 302.122 181.676 301.653 181.368 301.037C181.06 300.406 180.906 299.629 180.906 298.705V294.019H179.762C179.41 294.019 179.139 293.931 178.948 293.755C178.758 293.564 178.662 293.307 178.662 292.985C178.662 292.647 178.758 292.391 178.948 292.215C179.139 292.039 179.41 291.951 179.762 291.951H180.906V289.949C180.906 289.494 181.024 289.149 181.258 288.915C181.508 288.68 181.852 288.563 182.292 288.563C182.732 288.563 183.07 288.68 183.304 288.915C183.539 289.149 183.656 289.494 183.656 289.949V291.951H185.988C186.34 291.951 186.612 292.039 186.802 292.215C186.993 292.391 187.088 292.647 187.088 292.985C187.088 293.307 186.993 293.564 186.802 293.755C186.612 293.931 186.34 294.019 185.988 294.019H183.656V298.551C183.656 299.255 183.81 299.783 184.118 300.135C184.426 300.487 184.925 300.663 185.614 300.663C185.864 300.663 186.084 300.641 186.274 300.597C186.465 300.553 186.634 300.523 186.78 300.509C186.956 300.494 187.103 300.553 187.22 300.685C187.338 300.802 187.396 301.051 187.396 301.433C187.396 301.726 187.345 301.99 187.242 302.225C187.154 302.445 186.986 302.599 186.736 302.687C186.546 302.745 186.296 302.797 185.988 302.841C185.68 302.899 185.409 302.929 185.174 302.929ZM190.333 302.863C189.893 302.863 189.556 302.731 189.321 302.467C189.086 302.203 188.969 301.836 188.969 301.367V293.293C188.969 292.809 189.086 292.442 189.321 292.193C189.556 291.929 189.893 291.797 190.333 291.797C190.773 291.797 191.11 291.929 191.345 292.193C191.594 292.442 191.719 292.809 191.719 293.293V301.367C191.719 301.836 191.602 302.203 191.367 302.467C191.132 302.731 190.788 302.863 190.333 302.863ZM190.333 289.751C189.82 289.751 189.416 289.626 189.123 289.377C188.844 289.113 188.705 288.753 188.705 288.299C188.705 287.829 188.844 287.47 189.123 287.221C189.416 286.971 189.82 286.847 190.333 286.847C190.861 286.847 191.264 286.971 191.543 287.221C191.822 287.47 191.961 287.829 191.961 288.299C191.961 288.753 191.822 289.113 191.543 289.377C191.264 289.626 190.861 289.751 190.333 289.751ZM199.548 302.929C198.419 302.929 197.436 302.701 196.6 302.247C195.764 301.777 195.119 301.117 194.664 300.267C194.21 299.416 193.982 298.419 193.982 297.275C193.982 296.409 194.107 295.639 194.356 294.965C194.62 294.275 194.994 293.696 195.478 293.227C195.962 292.743 196.549 292.376 197.238 292.127C197.928 291.863 198.698 291.731 199.548 291.731C200.032 291.731 200.553 291.797 201.11 291.929C201.682 292.061 202.218 292.281 202.716 292.589C202.951 292.735 203.105 292.911 203.178 293.117C203.252 293.322 203.266 293.535 203.222 293.755C203.178 293.96 203.083 294.143 202.936 294.305C202.804 294.451 202.636 294.547 202.43 294.591C202.225 294.62 201.998 294.569 201.748 294.437C201.426 294.246 201.096 294.107 200.758 294.019C200.421 293.916 200.098 293.865 199.79 293.865C199.306 293.865 198.881 293.945 198.514 294.107C198.148 294.253 197.832 294.473 197.568 294.767C197.319 295.045 197.128 295.397 196.996 295.823C196.864 296.248 196.798 296.739 196.798 297.297C196.798 298.382 197.055 299.24 197.568 299.871C198.096 300.487 198.837 300.795 199.79 300.795C200.098 300.795 200.414 300.751 200.736 300.663C201.074 300.575 201.411 300.435 201.748 300.245C201.998 300.113 202.218 300.069 202.408 300.113C202.614 300.157 202.782 300.259 202.914 300.421C203.046 300.567 203.127 300.751 203.156 300.971C203.186 301.176 203.156 301.381 203.068 301.587C202.995 301.792 202.848 301.961 202.628 302.093C202.144 302.386 201.631 302.599 201.088 302.731C200.546 302.863 200.032 302.929 199.548 302.929ZM208.431 302.929C207.654 302.929 206.957 302.782 206.341 302.489C205.74 302.181 205.263 301.77 204.911 301.257C204.574 300.743 204.405 300.164 204.405 299.519C204.405 298.727 204.61 298.103 205.021 297.649C205.432 297.179 206.099 296.842 207.023 296.637C207.947 296.431 209.186 296.329 210.741 296.329H211.841V297.913H210.763C209.854 297.913 209.128 297.957 208.585 298.045C208.042 298.133 207.654 298.287 207.419 298.507C207.199 298.712 207.089 299.005 207.089 299.387C207.089 299.871 207.258 300.267 207.595 300.575C207.932 300.883 208.402 301.037 209.003 301.037C209.487 301.037 209.912 300.927 210.279 300.707C210.66 300.472 210.961 300.157 211.181 299.761C211.401 299.365 211.511 298.91 211.511 298.397V295.867C211.511 295.133 211.35 294.605 211.027 294.283C210.704 293.96 210.162 293.799 209.399 293.799C208.974 293.799 208.512 293.85 208.013 293.953C207.529 294.055 207.016 294.231 206.473 294.481C206.194 294.613 205.945 294.649 205.725 294.591C205.52 294.532 205.358 294.415 205.241 294.239C205.124 294.048 205.065 293.843 205.065 293.623C205.065 293.403 205.124 293.19 205.241 292.985C205.358 292.765 205.556 292.603 205.835 292.501C206.51 292.222 207.155 292.024 207.771 291.907C208.402 291.789 208.974 291.731 209.487 291.731C210.543 291.731 211.408 291.892 212.083 292.215C212.772 292.537 213.286 293.029 213.623 293.689C213.96 294.334 214.129 295.17 214.129 296.197V301.477C214.129 301.931 214.019 302.283 213.799 302.533C213.579 302.767 213.264 302.885 212.853 302.885C212.442 302.885 212.12 302.767 211.885 302.533C211.665 302.283 211.555 301.931 211.555 301.477V300.421H211.731C211.628 300.934 211.423 301.381 211.115 301.763C210.822 302.129 210.448 302.415 209.993 302.621C209.538 302.826 209.018 302.929 208.431 302.929ZM220.594 302.929C219.377 302.929 218.46 302.584 217.844 301.895C217.228 301.191 216.92 300.164 216.92 298.815V288.409C216.92 287.954 217.038 287.609 217.272 287.375C217.507 287.14 217.844 287.023 218.284 287.023C218.724 287.023 219.062 287.14 219.296 287.375C219.546 287.609 219.67 287.954 219.67 288.409V298.683C219.67 299.357 219.81 299.856 220.088 300.179C220.382 300.501 220.792 300.663 221.32 300.663C221.438 300.663 221.548 300.663 221.65 300.663C221.753 300.648 221.856 300.633 221.958 300.619C222.164 300.589 222.303 300.648 222.376 300.795C222.45 300.927 222.486 301.205 222.486 301.631C222.486 301.997 222.413 302.283 222.266 302.489C222.12 302.694 221.878 302.819 221.54 302.863C221.394 302.877 221.24 302.892 221.078 302.907C220.917 302.921 220.756 302.929 220.594 302.929ZM227.62 302.929C226.402 302.929 225.486 302.584 224.87 301.895C224.254 301.191 223.946 300.164 223.946 298.815V288.409C223.946 287.954 224.063 287.609 224.298 287.375C224.532 287.14 224.87 287.023 225.31 287.023C225.75 287.023 226.087 287.14 226.322 287.375C226.571 287.609 226.696 287.954 226.696 288.409V298.683C226.696 299.357 226.835 299.856 227.114 300.179C227.407 300.501 227.818 300.663 228.346 300.663C228.463 300.663 228.573 300.663 228.676 300.663C228.778 300.648 228.881 300.633 228.984 300.619C229.189 300.589 229.328 300.648 229.402 300.795C229.475 300.927 229.512 301.205 229.512 301.631C229.512 301.997 229.438 302.283 229.292 302.489C229.145 302.694 228.903 302.819 228.566 302.863C228.419 302.877 228.265 302.892 228.104 302.907C227.942 302.921 227.781 302.929 227.62 302.929ZM233.42 306.845C233.097 306.845 232.833 306.757 232.628 306.581C232.422 306.419 232.298 306.199 232.254 305.921C232.224 305.642 232.276 305.349 232.408 305.041L233.904 301.719V302.863L229.9 293.601C229.768 293.278 229.724 292.977 229.768 292.699C229.812 292.42 229.944 292.2 230.164 292.039C230.398 291.863 230.714 291.775 231.11 291.775C231.447 291.775 231.718 291.855 231.924 292.017C232.129 292.163 232.312 292.449 232.474 292.875L235.444 300.289H234.784L237.82 292.853C237.981 292.442 238.172 292.163 238.392 292.017C238.612 291.855 238.905 291.775 239.272 291.775C239.594 291.775 239.851 291.863 240.042 292.039C240.232 292.2 240.35 292.42 240.394 292.699C240.438 292.963 240.386 293.256 240.24 293.579L234.894 305.789C234.703 306.199 234.498 306.478 234.278 306.625C234.058 306.771 233.772 306.845 233.42 306.845Z" fill="#435E74"/>
<rect x="101.709" y="330.709" width="513" height="16" rx="8" fill="#DDF0FF"/>
<rect x="101.709" y="358.709" width="277" height="16" rx="8" fill="#DDF0FF"/>
<path d="M506.271 240.969H488.147C486.022 240.969 483.021 242.219 481.521 243.719L468.709 256.531C467.209 258.031 465.959 261.031 465.959 263.156V281.281C465.959 283.406 467.209 286.406 468.709 287.906L481.521 300.719C483.021 302.219 486.022 303.469 488.147 303.469H506.271C508.396 303.469 511.396 302.219 512.896 300.719L525.709 287.906C527.209 286.406 528.459 283.406 528.459 281.281V263.156C528.459 261.031 527.209 258.031 525.709 256.531L512.896 243.719C511.396 242.219 508.396 240.969 506.271 240.969Z" stroke="#607F98" stroke-width="2" stroke-linecap="round" stroke-linejoin="round"/>
<path d="M475.145 294.342L519.332 250.155" stroke="#607F98" stroke-width="2" stroke-linecap="round" stroke-linejoin="round"/>
</g>
<g filter="url(#filter6_d_2070_2017)">
<rect x="41" y="430" width="421.14" height="105.417" rx="8" fill="white"/>
<rect x="41.5" y="430.5" width="420.14" height="104.417" rx="7.5" stroke="#DDF0FF"/>
<rect x="71.709" y="460.709" width="336" height="16" rx="8" fill="#DDF0FF"/>
<rect x="71.709" y="488.709" width="212" height="16" rx="8" fill="#DDF0FF"/>
</g>
<defs>
<filter id="filter0_d_2070_2017" x="53" y="72" width="842.977" height="609" filterUnits="userSpaceOnUse" color-interpolation-filters="sRGB">
<feFlood flood-opacity="0" result="BackgroundImageFix"/>
<feColorMatrix in="SourceAlpha" type="matrix" values="0 0 0 0 0 0 0 0 0 0 0 0 0 0 0 0 0 0 127 0" result="hardAlpha"/>
<feOffset dx="20" dy="24"/>
<feGaussianBlur stdDeviation="32"/>
<feComposite in2="hardAlpha" operator="out"/>
<feColorMatrix type="matrix" values="0 0 0 0 0 0 0 0 0 0 0 0 0 0 0 0 0 0 0.06 0"/>
<feBlend mode="normal" in2="BackgroundImageFix" result="effect1_dropShadow_2070_2017"/>
<feBlend mode="normal" in="SourceGraphic" in2="effect1_dropShadow_2070_2017" result="shape"/>
</filter>
<filter id="filter1_d_2070_2017" x="-18.1047" y="116.729" width="856.667" height="574.667" filterUnits="userSpaceOnUse" color-interpolation-filters="sRGB">
<feFlood flood-opacity="0" result="BackgroundImageFix"/>
<feColorMatrix in="SourceAlpha" type="matrix" values="0 0 0 0 0 0 0 0 0 0 0 0 0 0 0 0 0 0 127 0" result="hardAlpha"/>
<feOffset dx="-44.271" dy="26.5626"/>
<feGaussianBlur stdDeviation="35.4168"/>
<feComposite in2="hardAlpha" operator="out"/>
<feColorMatrix type="matrix" values="0 0 0 0 0 0 0 0 0 0 0 0 0 0 0 0 0 0 0.06 0"/>
<feBlend mode="normal" in2="BackgroundImageFix" result="effect1_dropShadow_2070_2017"/>
<feBlend mode="normal" in="SourceGraphic" in2="effect1_dropShadow_2070_2017" result="shape"/>
</filter>
<filter id="filter2_d_2070_2017" x="90.7756" y="147.614" width="671.835" height="304.835" filterUnits="userSpaceOnUse" color-interpolation-filters="sRGB">
<feFlood flood-opacity="0" result="BackgroundImageFix"/>
<feColorMatrix in="SourceAlpha" type="matrix" values="0 0 0 0 0 0 0 0 0 0 0 0 0 0 0 0 0 0 127 0" result="hardAlpha"/>
<feOffset dx="19.1929" dy="23.0315"/>
<feGaussianBlur stdDeviation="30.7087"/>
<feComposite in2="hardAlpha" operator="out"/>
<feColorMatrix type="matrix" values="0 0 0 0 0 0 0 0 0 0 0 0 0 0 0 0 0 0 0.1 0"/>
<feBlend mode="normal" in2="BackgroundImageFix" result="effect1_dropShadow_2070_2017"/>
<feBlend mode="normal" in="SourceGraphic" in2="effect1_dropShadow_2070_2017" result="shape"/>
</filter>
<filter id="filter3_d_2070_2017" x="64.7756" y="380.614" width="543.835" height="212.835" filterUnits="userSpaceOnUse" color-interpolation-filters="sRGB">
<feFlood flood-opacity="0" result="BackgroundImageFix"/>
<feColorMatrix in="SourceAlpha" type="matrix" values="0 0 0 0 0 0 0 0 0 0 0 0 0 0 0 0 0 0 127 0" result="hardAlpha"/>
<feOffset dx="19.1929" dy="23.0315"/>
<feGaussianBlur stdDeviation="30.7087"/>
<feComposite in2="hardAlpha" operator="out"/>
<feColorMatrix type="matrix" values="0 0 0 0 0 0 0 0 0 0 0 0 0 0 0 0 0 0 0.1 0"/>
<feBlend mode="normal" in2="BackgroundImageFix" result="effect1_dropShadow_2070_2017"/>
<feBlend mode="normal" in="SourceGraphic" in2="effect1_dropShadow_2070_2017" result="shape"/>
</filter>
<filter id="filter4_di_2070_2017" x="97" y="112" width="947.99" height="49.1583" filterUnits="userSpaceOnUse" color-interpolation-filters="sRGB">
<feFlood flood-opacity="0" result="BackgroundImageFix"/>
<feColorMatrix in="SourceAlpha" type="matrix" values="0 0 0 0 0 0 0 0 0 0 0 0 0 0 0 0 0 0 127 0" result="hardAlpha"/>
<feOffset dy="0.46007"/>
<feColorMatrix type="matrix" values="0 0 0 0 0 0 0 0 0 0 0 0 0 0 0 0 0 0 0.15 0"/>
<feBlend mode="normal" in2="BackgroundImageFix" result="effect1_dropShadow_2070_2017"/>
<feBlend mode="normal" in="SourceGraphic" in2="effect1_dropShadow_2070_2017" result="shape"/>
<feColorMatrix in="SourceAlpha" type="matrix" values="0 0 0 0 0 0 0 0 0 0 0 0 0 0 0 0 0 0 127 0" result="hardAlpha"/>
<feOffset dy="-0.46007"/>
<feComposite in2="hardAlpha" operator="arithmetic" k2="-1" k3="1"/>
<feColorMatrix type="matrix" values="0 0 0 0 0 0 0 0 0 0 0 0 0 0 0 0 0 0 0.05 0"/>
<feBlend mode="normal" in2="shape" result="effect2_innerShadow_2070_2017"/>
</filter>
<filter id="filter5_d_2070_2017" x="10.1929" y="163.031" width="740" height="345.417" filterUnits="userSpaceOnUse" color-interpolation-filters="sRGB">
<feFlood flood-opacity="0" result="BackgroundImageFix"/>
<feColorMatrix in="SourceAlpha" type="matrix" values="0 0 0 0 0 0 0 0 0 0 0 0 0 0 0 0 0 0 127 0" result="hardAlpha"/>
<feOffset dx="19.1929" dy="23.0315"/>
<feGaussianBlur stdDeviation="40"/>
<feComposite in2="hardAlpha" operator="out"/>
<feColorMatrix type="matrix" values="0 0 0 0 0.055625 0 0 0 0 0.231771 0 0 0 0 0.370833 0 0 0 0.12 0"/>
<feBlend mode="normal" in2="BackgroundImageFix" result="effect1_dropShadow_2070_2017"/>
<feBlend mode="normal" in="SourceGraphic" in2="effect1_dropShadow_2070_2017" result="shape"/>
</filter>
<filter id="filter6_d_2070_2017" x="0.192913" y="393.031" width="541.141" height="225.417" filterUnits="userSpaceOnUse" color-interpolation-filters="sRGB">
<feFlood flood-opacity="0" result="BackgroundImageFix"/>
<feColorMatrix in="SourceAlpha" type="matrix" values="0 0 0 0 0 0 0 0 0 0 0 0 0 0 0 0 0 0 127 0" result="hardAlpha"/>
<feOffset dx="19.1929" dy="23.0315"/>
<feGaussianBlur stdDeviation="30"/>
<feComposite in2="hardAlpha" operator="out"/>
<feColorMatrix type="matrix" values="0 0 0 0 0.055625 0 0 0 0 0.231771 0 0 0 0 0.370833 0 0 0 0.1 0"/>
<feBlend mode="normal" in2="BackgroundImageFix" result="effect1_dropShadow_2070_2017"/>
<feBlend mode="normal" in="SourceGraphic" in2="effect1_dropShadow_2070_2017" result="shape"/>
</filter>
<clipPath id="clip0_2070_2017">
<rect width="251" height="186" fill="white" transform="translate(456 520)"/>
</clipPath>
<clipPath id="clip1_2070_2017">
<rect width="241" height="194" fill="white" transform="translate(129)"/>
</clipPath>
<clipPath id="clip2_2070_2017">
<rect width="620" height="501" fill="white" transform="translate(87 102)"/>
</clipPath>
<clipPath id="clip3_2070_2017">
<rect width="714.977" height="481" fill="white" transform="translate(97 112)"/>
</clipPath>
<clipPath id="clip4_2070_2017">
<rect x="97" y="112" width="714.977" height="481" rx="8" fill="white"/>
</clipPath>
</defs>
</svg>
