<svg width="813" height="894" viewBox="0 0 813 894" fill="none" xmlns="http://www.w3.org/2000/svg">
<rect x="99.5" y="90" width="578" height="706" rx="16" fill="#F0F7FD"/>
<path fill-rule="evenodd" clip-rule="evenodd" d="M442.192 746.991C436.093 746.991 431.572 741.983 431.572 736.549V625.871C431.572 620.438 436.092 615.429 442.192 615.429H551.59C557.689 615.429 562.21 620.438 562.21 625.871V736.549C562.21 741.983 557.689 746.991 551.59 746.991H442.192ZM442.192 752.425C433.569 752.425 426.5 745.273 426.5 736.549V625.871C426.5 617.148 433.569 609.996 442.192 609.996H551.59C560.212 609.996 567.281 617.148 567.281 625.871V736.549C567.281 745.273 560.212 752.425 551.59 752.425H442.192Z" fill="#FCFEFF"/>
<path fill-rule="evenodd" clip-rule="evenodd" d="M584.323 888.567C578.141 888.567 573.566 883.5 573.566 878.01V766.522C573.566 761.032 578.142 755.965 584.323 755.965H694.672C700.853 755.965 705.429 761.032 705.429 766.522V878.01C705.429 883.5 700.853 888.567 694.672 888.567H584.323ZM584.323 894C575.625 894 568.495 886.797 568.495 878.01V766.522C568.495 757.735 575.625 750.531 584.323 750.531H694.672C703.37 750.531 710.5 757.735 710.5 766.522V878.01C710.5 886.797 703.37 894 694.672 894H584.323Z" fill="#FCFEFF"/>
<path fill-rule="evenodd" clip-rule="evenodd" d="M72.1918 136.991C66.0926 136.991 61.5718 131.983 61.5718 126.549V15.871C61.5718 10.4376 66.0925 5.42947 72.1918 5.42947H181.59C187.689 5.42947 192.21 10.4376 192.21 15.871V126.549C192.21 131.983 187.689 136.991 181.59 136.991H72.1918ZM72.1918 142.425C63.5694 142.425 56.5003 135.273 56.5003 126.549V15.871C56.5003 7.14764 63.5694 -0.00390625 72.1918 -0.00390625H181.59C190.212 -0.00390625 197.281 7.14764 197.281 15.871V126.549C197.281 135.273 190.212 142.425 181.59 142.425H72.1918Z" fill="#FCFEFF"/>
<path fill-rule="evenodd" clip-rule="evenodd" d="M214.323 278.567C208.141 278.567 203.566 273.5 203.566 268.01V156.522C203.566 151.032 208.142 145.965 214.323 145.965H324.672C330.853 145.965 335.429 151.032 335.429 156.522V268.01C335.429 273.5 330.853 278.567 324.672 278.567H214.323ZM214.323 284C205.625 284 198.495 276.797 198.495 268.01V156.522C198.495 147.735 205.625 140.531 214.323 140.531H324.672C333.37 140.531 340.5 147.735 340.5 156.522V268.01C340.5 276.797 333.37 284 324.672 284H214.323Z" fill="#FCFEFF"/>
<g filter="url(#filter0_d_1844_7575)">
<g clip-path="url(#clip0_1844_7575)">
<path d="M751.5 223H-196.5V705C-196.5 709.418 -192.918 713 -188.5 713H743.5C747.918 713 751.5 709.418 751.5 705V223Z" fill="white"/>
<g filter="url(#filter1_di_1844_7575)">
<path d="M751.5 182C751.5 177.582 747.918 174 743.5 174H-188.491C-192.909 174 -196.491 177.582 -196.491 182V222.698H751.5V182Z" fill="#01112D"/>
<path d="M649.408 199.003H663.655" stroke="#F0F7FD" stroke-width="0.94977" stroke-linecap="round"/>
<rect x="684.129" y="193.78" width="10.4475" height="10.4475" rx="0.474885" stroke="#F0F7FD" stroke-width="0.94977"/>
<path d="M715.287 193.78L725.501 204.227" stroke="#F0F7FD" stroke-width="0.94977" stroke-linecap="round"/>
<path d="M725.266 193.78L715.052 204.227" stroke="#F0F7FD" stroke-width="0.94977" stroke-linecap="round"/>
<rect x="682.129" y="195.78" width="10.4475" height="10.4475" rx="0.474885" fill="#01112D" stroke="#F0F7FD" stroke-width="0.94977"/>
</g>
</g>
</g>
<path d="M424.154 309.753H440.561" stroke="#607F98" stroke-width="3" stroke-linecap="round" stroke-linejoin="round"/>
<path d="M405.439 309.753L407.783 312.097L414.814 305.065" stroke="#607F98" stroke-width="3" stroke-linecap="round" stroke-linejoin="round"/>
<path d="M424.154 331.628H440.561" stroke="#607F98" stroke-width="3" stroke-linecap="round" stroke-linejoin="round"/>
<path d="M405.439 331.628L407.783 333.972L414.814 326.94" stroke="#607F98" stroke-width="3" stroke-linecap="round" stroke-linejoin="round"/>
<path d="M413.625 350.75H432.375C448 350.75 454.25 344.5 454.25 328.875V310.125C454.25 294.5 448 288.25 432.375 288.25H413.625C398 288.25 391.75 294.5 391.75 310.125V328.875C391.75 344.5 398 350.75 413.625 350.75Z" stroke="#607F98" stroke-width="3" stroke-linecap="round" stroke-linejoin="round"/>
<g filter="url(#filter2_d_1844_7575)">
<rect x="166" y="397" width="514" height="250.277" rx="8" fill="white"/>
<rect x="166.586" y="397.586" width="512.829" height="249.105" rx="7.41438" stroke="#DDF0FF" stroke-width="1.17124"/>
<rect x="203.48" y="434.48" width="390" height="16" rx="8" fill="#DDF0FF"/>
<rect x="203.48" y="466.48" width="292" height="16" rx="8" fill="#DDF0FF"/>
<rect x="203.48" y="498.48" width="343" height="16" rx="8" fill="#DDF0FF"/>
<rect x="418.949" y="575.794" width="107.333" height="33.5929" rx="1.22901" stroke="#607F98" stroke-width="0.819338"/>
<path d="M455.898 597.183C455.68 597.183 455.509 597.121 455.387 596.999C455.273 596.877 455.217 596.706 455.217 596.488V588.543C455.217 588.316 455.278 588.146 455.4 588.032C455.523 587.91 455.693 587.849 455.911 587.849H459.045C460.041 587.849 460.81 588.085 461.352 588.557C461.894 589.029 462.165 589.697 462.165 590.562C462.165 591.122 462.042 591.602 461.798 592.004C461.553 592.406 461.195 592.712 460.723 592.922C460.259 593.132 459.7 593.237 459.045 593.237L459.163 593.053H459.503C459.853 593.053 460.155 593.141 460.408 593.315C460.67 593.49 460.906 593.77 461.116 594.154L462.243 596.252C462.331 596.409 462.37 596.562 462.361 596.711C462.361 596.85 462.309 596.964 462.204 597.051C462.108 597.139 461.968 597.183 461.785 597.183C461.592 597.183 461.435 597.143 461.313 597.065C461.199 596.977 461.094 596.85 460.998 596.684L459.621 594.141C459.438 593.8 459.228 593.573 458.992 593.46C458.756 593.337 458.446 593.276 458.061 593.276H456.58V596.488C456.58 596.706 456.523 596.877 456.41 596.999C456.296 597.121 456.126 597.183 455.898 597.183ZM456.58 592.253H458.822C459.486 592.253 459.989 592.114 460.329 591.834C460.67 591.554 460.841 591.139 460.841 590.589C460.841 590.047 460.67 589.636 460.329 589.356C459.989 589.077 459.486 588.937 458.822 588.937H456.58V592.253ZM466.793 597.209C466.094 597.209 465.491 597.078 464.984 596.816C464.486 596.545 464.097 596.164 463.817 595.675C463.546 595.177 463.411 594.587 463.411 593.905C463.411 593.241 463.546 592.66 463.817 592.162C464.088 591.664 464.459 591.275 464.931 590.995C465.403 590.715 465.941 590.575 466.544 590.575C466.989 590.575 467.387 590.65 467.737 590.798C468.086 590.938 468.383 591.148 468.628 591.428C468.882 591.698 469.069 592.031 469.192 592.424C469.323 592.817 469.388 593.259 469.388 593.748C469.388 593.896 469.345 594.01 469.257 594.089C469.17 594.159 469.039 594.194 468.864 594.194H464.459V593.381H468.497L468.274 593.564C468.274 593.127 468.209 592.756 468.078 592.45C467.955 592.144 467.767 591.913 467.514 591.755C467.269 591.589 466.963 591.506 466.596 591.506C466.185 591.506 465.836 591.602 465.547 591.795C465.268 591.987 465.054 592.253 464.905 592.594C464.756 592.935 464.682 593.333 464.682 593.787V593.866C464.682 594.635 464.861 595.216 465.22 595.609C465.587 595.994 466.115 596.186 466.806 596.186C467.068 596.186 467.343 596.151 467.632 596.081C467.929 596.011 468.209 595.893 468.471 595.727C468.619 595.64 468.75 595.601 468.864 595.609C468.986 595.618 469.083 595.658 469.153 595.727C469.231 595.797 469.279 595.885 469.297 595.99C469.314 596.095 469.297 596.204 469.244 596.317C469.192 596.422 469.1 596.518 468.969 596.606C468.672 596.807 468.327 596.96 467.933 597.065C467.54 597.161 467.16 597.209 466.793 597.209ZM469.809 599.582C469.652 599.59 469.525 599.564 469.429 599.503C469.324 599.442 469.254 599.363 469.219 599.267C469.176 599.171 469.163 599.07 469.18 598.965C469.189 598.869 469.233 598.782 469.311 598.703C469.381 598.633 469.477 598.594 469.6 598.585C470.037 598.559 470.356 598.441 470.557 598.231C470.766 598.022 470.871 597.689 470.871 597.235V591.27C470.871 591.052 470.928 590.886 471.042 590.772C471.164 590.658 471.33 590.602 471.54 590.602C471.758 590.602 471.92 590.658 472.025 590.772C472.139 590.886 472.195 591.052 472.195 591.27V597.13C472.195 597.672 472.104 598.118 471.92 598.467C471.745 598.826 471.483 599.092 471.133 599.267C470.784 599.442 470.343 599.547 469.809 599.582ZM471.54 589.265C471.278 589.265 471.072 589.199 470.924 589.068C470.784 588.937 470.714 588.753 470.714 588.517C470.714 588.273 470.784 588.089 470.924 587.967C471.072 587.836 471.278 587.77 471.54 587.77C471.802 587.77 472.003 587.836 472.143 587.967C472.283 588.089 472.353 588.273 472.353 588.517C472.353 588.753 472.283 588.937 472.143 589.068C472.003 589.199 471.802 589.265 471.54 589.265ZM477.06 597.209C476.361 597.209 475.758 597.078 475.251 596.816C474.753 596.545 474.364 596.164 474.084 595.675C473.813 595.177 473.678 594.587 473.678 593.905C473.678 593.241 473.813 592.66 474.084 592.162C474.355 591.664 474.727 591.275 475.199 590.995C475.671 590.715 476.208 590.575 476.811 590.575C477.257 590.575 477.654 590.65 478.004 590.798C478.354 590.938 478.651 591.148 478.895 591.428C479.149 591.698 479.337 592.031 479.459 592.424C479.59 592.817 479.656 593.259 479.656 593.748C479.656 593.896 479.612 594.01 479.525 594.089C479.437 594.159 479.306 594.194 479.131 594.194H474.727V593.381H478.764L478.542 593.564C478.542 593.127 478.476 592.756 478.345 592.45C478.223 592.144 478.035 591.913 477.781 591.755C477.536 591.589 477.231 591.506 476.864 591.506C476.453 591.506 476.103 591.602 475.815 591.795C475.535 591.987 475.321 592.253 475.172 592.594C475.024 592.935 474.95 593.333 474.95 593.787V593.866C474.95 594.635 475.129 595.216 475.487 595.609C475.854 595.994 476.383 596.186 477.073 596.186C477.335 596.186 477.611 596.151 477.899 596.081C478.196 596.011 478.476 595.893 478.738 595.727C478.887 595.64 479.018 595.601 479.131 595.609C479.254 595.618 479.35 595.658 479.42 595.727C479.498 595.797 479.547 595.885 479.564 595.99C479.582 596.095 479.564 596.204 479.512 596.317C479.459 596.422 479.367 596.518 479.236 596.606C478.939 596.807 478.594 596.96 478.201 597.065C477.807 597.161 477.427 597.209 477.06 597.209ZM483.918 597.209C483.262 597.209 482.694 597.073 482.214 596.802C481.742 596.523 481.375 596.134 481.112 595.636C480.85 595.129 480.719 594.534 480.719 593.853C480.719 593.346 480.793 592.891 480.942 592.489C481.091 592.079 481.3 591.733 481.571 591.454C481.851 591.174 482.187 590.96 482.581 590.811C482.983 590.654 483.428 590.575 483.918 590.575C484.224 590.575 484.543 590.624 484.875 590.72C485.216 590.807 485.53 590.956 485.819 591.165C485.932 591.235 486.002 591.323 486.028 591.428C486.063 591.524 486.068 591.624 486.042 591.729C486.024 591.834 485.976 591.926 485.897 592.004C485.827 592.074 485.74 592.118 485.635 592.135C485.53 592.144 485.417 592.114 485.294 592.044C485.085 591.895 484.87 591.79 484.652 591.729C484.433 591.659 484.224 591.624 484.023 591.624C483.708 591.624 483.428 591.677 483.184 591.782C482.948 591.878 482.747 592.022 482.581 592.214C482.415 592.398 482.288 592.629 482.2 592.909C482.122 593.189 482.082 593.508 482.082 593.866C482.082 594.583 482.249 595.146 482.581 595.557C482.921 595.959 483.402 596.16 484.023 596.16C484.224 596.16 484.433 596.129 484.652 596.068C484.87 596.007 485.085 595.902 485.294 595.754C485.417 595.684 485.53 595.658 485.635 595.675C485.74 595.692 485.823 595.741 485.884 595.819C485.954 595.889 485.998 595.977 486.015 596.081C486.042 596.178 486.037 596.278 486.002 596.383C485.967 596.488 485.893 596.575 485.779 596.645C485.5 596.846 485.194 596.99 484.862 597.078C484.538 597.165 484.224 597.209 483.918 597.209ZM489.958 597.209C489.434 597.209 488.993 597.117 488.634 596.934C488.276 596.75 488.009 596.479 487.835 596.121C487.66 595.762 487.572 595.325 487.572 594.81V591.716H486.786C486.611 591.716 486.476 591.672 486.379 591.585C486.283 591.489 486.235 591.362 486.235 591.205C486.235 591.039 486.283 590.912 486.379 590.825C486.476 590.737 486.611 590.693 486.786 590.693H487.572V589.343C487.572 589.125 487.629 588.959 487.743 588.845C487.865 588.731 488.031 588.675 488.241 588.675C488.451 588.675 488.612 588.731 488.726 588.845C488.84 588.959 488.896 589.125 488.896 589.343V590.693H490.43C490.605 590.693 490.74 590.737 490.837 590.825C490.933 590.912 490.981 591.039 490.981 591.205C490.981 591.362 490.933 591.489 490.837 591.585C490.74 591.672 490.605 591.716 490.43 591.716H488.896V594.705C488.896 595.168 488.993 595.518 489.185 595.754C489.386 595.99 489.709 596.108 490.155 596.108C490.312 596.108 490.448 596.095 490.561 596.068C490.684 596.033 490.784 596.011 490.863 596.003C490.959 596.003 491.038 596.038 491.099 596.108C491.16 596.169 491.191 596.291 491.191 596.475C491.191 596.606 491.164 596.728 491.112 596.842C491.068 596.955 490.985 597.03 490.863 597.065C490.758 597.1 490.614 597.13 490.43 597.156C490.255 597.191 490.098 597.209 489.958 597.209Z" fill="#607F98"/>
<rect x="534.369" y="575.385" width="108.153" height="34.4122" rx="1.63868" fill="#607F98"/>
<path d="M568.927 597.183C568.752 597.183 568.612 597.143 568.507 597.065C568.402 596.986 568.341 596.881 568.324 596.75C568.306 596.619 568.332 596.47 568.402 596.304L571.955 588.334C572.042 588.124 572.152 587.975 572.283 587.888C572.423 587.801 572.576 587.757 572.742 587.757C572.899 587.757 573.043 587.801 573.174 587.888C573.314 587.975 573.428 588.124 573.515 588.334L577.068 596.304C577.146 596.47 577.177 596.623 577.159 596.763C577.142 596.894 577.085 596.999 576.989 597.078C576.893 597.148 576.757 597.183 576.583 597.183C576.39 597.183 576.237 597.135 576.124 597.038C576.01 596.942 575.91 596.794 575.822 596.593L574.905 594.469L575.521 594.836H569.936L570.539 594.469L569.635 596.593C569.547 596.802 569.451 596.955 569.346 597.051C569.241 597.139 569.102 597.183 568.927 597.183ZM572.715 589.356L570.736 594.049L570.408 593.735H575.036L574.734 594.049L572.742 589.356H572.715ZM581.242 597.209C580.587 597.209 580.019 597.073 579.538 596.802C579.066 596.523 578.699 596.134 578.437 595.636C578.175 595.129 578.044 594.534 578.044 593.853C578.044 593.346 578.118 592.891 578.267 592.489C578.415 592.079 578.625 591.733 578.896 591.454C579.175 591.174 579.512 590.96 579.905 590.811C580.307 590.654 580.753 590.575 581.242 590.575C581.548 590.575 581.867 590.624 582.199 590.72C582.54 590.807 582.855 590.956 583.143 591.165C583.257 591.235 583.327 591.323 583.353 591.428C583.388 591.524 583.392 591.624 583.366 591.729C583.349 591.834 583.301 591.926 583.222 592.004C583.152 592.074 583.065 592.118 582.96 592.135C582.855 592.144 582.741 592.114 582.619 592.044C582.409 591.895 582.195 591.79 581.976 591.729C581.758 591.659 581.548 591.624 581.347 591.624C581.033 591.624 580.753 591.677 580.508 591.782C580.272 591.878 580.071 592.022 579.905 592.214C579.739 592.398 579.612 592.629 579.525 592.909C579.446 593.189 579.407 593.508 579.407 593.866C579.407 594.583 579.573 595.146 579.905 595.557C580.246 595.959 580.727 596.16 581.347 596.16C581.548 596.16 581.758 596.129 581.976 596.068C582.195 596.007 582.409 595.902 582.619 595.754C582.741 595.684 582.855 595.658 582.96 595.675C583.065 595.692 583.148 595.741 583.209 595.819C583.279 595.889 583.322 595.977 583.34 596.081C583.366 596.178 583.362 596.278 583.327 596.383C583.292 596.488 583.218 596.575 583.104 596.645C582.824 596.846 582.518 596.99 582.186 597.078C581.863 597.165 581.548 597.209 581.242 597.209ZM587.234 597.209C586.578 597.209 586.01 597.073 585.53 596.802C585.058 596.523 584.691 596.134 584.428 595.636C584.166 595.129 584.035 594.534 584.035 593.853C584.035 593.346 584.109 592.891 584.258 592.489C584.407 592.079 584.616 591.733 584.887 591.454C585.167 591.174 585.503 590.96 585.897 590.811C586.299 590.654 586.744 590.575 587.234 590.575C587.54 590.575 587.859 590.624 588.191 590.72C588.532 590.807 588.846 590.956 589.135 591.165C589.248 591.235 589.318 591.323 589.344 591.428C589.379 591.524 589.384 591.624 589.357 591.729C589.34 591.834 589.292 591.926 589.213 592.004C589.143 592.074 589.056 592.118 588.951 592.135C588.846 592.144 588.733 592.114 588.61 592.044C588.401 591.895 588.186 591.79 587.968 591.729C587.749 591.659 587.54 591.624 587.339 591.624C587.024 591.624 586.744 591.677 586.5 591.782C586.264 591.878 586.063 592.022 585.897 592.214C585.731 592.398 585.604 592.629 585.516 592.909C585.438 593.189 585.398 593.508 585.398 593.866C585.398 594.583 585.565 595.146 585.897 595.557C586.237 595.959 586.718 596.16 587.339 596.16C587.54 596.16 587.749 596.129 587.968 596.068C588.186 596.007 588.401 595.902 588.61 595.754C588.733 595.684 588.846 595.658 588.951 595.675C589.056 595.692 589.139 595.741 589.2 595.819C589.27 595.889 589.314 595.977 589.331 596.081C589.357 596.178 589.353 596.278 589.318 596.383C589.283 596.488 589.209 596.575 589.095 596.645C588.816 596.846 588.51 596.99 588.178 597.078C587.854 597.165 587.54 597.209 587.234 597.209ZM593.409 597.209C592.71 597.209 592.107 597.078 591.6 596.816C591.101 596.545 590.713 596.164 590.433 595.675C590.162 595.177 590.026 594.587 590.026 593.905C590.026 593.241 590.162 592.66 590.433 592.162C590.704 591.664 591.075 591.275 591.547 590.995C592.019 590.715 592.557 590.575 593.16 590.575C593.605 590.575 594.003 590.65 594.353 590.798C594.702 590.938 594.999 591.148 595.244 591.428C595.497 591.698 595.685 592.031 595.808 592.424C595.939 592.817 596.004 593.259 596.004 593.748C596.004 593.896 595.961 594.01 595.873 594.089C595.786 594.159 595.655 594.194 595.48 594.194H591.075V593.381H595.113L594.89 593.564C594.89 593.127 594.825 592.756 594.693 592.45C594.571 592.144 594.383 591.913 594.13 591.755C593.885 591.589 593.579 591.506 593.212 591.506C592.801 591.506 592.452 591.602 592.163 591.795C591.884 591.987 591.67 592.253 591.521 592.594C591.372 592.935 591.298 593.333 591.298 593.787V593.866C591.298 594.635 591.477 595.216 591.836 595.609C592.203 595.994 592.731 596.186 593.422 596.186C593.684 596.186 593.959 596.151 594.248 596.081C594.545 596.011 594.825 595.893 595.087 595.727C595.235 595.64 595.366 595.601 595.48 595.609C595.602 595.618 595.698 595.658 595.768 595.727C595.847 595.797 595.895 595.885 595.913 595.99C595.93 596.095 595.913 596.204 595.86 596.317C595.808 596.422 595.716 596.518 595.585 596.606C595.288 596.807 594.943 596.96 594.549 597.065C594.156 597.161 593.776 597.209 593.409 597.209ZM598.103 599.542C597.894 599.542 597.732 599.485 597.618 599.372C597.505 599.258 597.448 599.092 597.448 598.874V591.27C597.448 591.052 597.505 590.886 597.618 590.772C597.732 590.658 597.889 590.602 598.09 590.602C598.3 590.602 598.462 590.658 598.575 590.772C598.689 590.886 598.746 591.052 598.746 591.27V592.411L598.601 592.135C598.741 591.664 599.017 591.288 599.427 591.008C599.838 590.72 600.323 590.575 600.883 590.575C601.451 590.575 601.944 590.711 602.364 590.982C602.792 591.253 603.12 591.633 603.347 592.122C603.583 592.612 603.701 593.202 603.701 593.892C603.701 594.565 603.583 595.155 603.347 595.662C603.12 596.16 602.796 596.545 602.377 596.816C601.957 597.078 601.459 597.209 600.883 597.209C600.332 597.209 599.851 597.069 599.44 596.789C599.03 596.51 598.754 596.138 598.615 595.675H598.772V598.874C598.772 599.092 598.711 599.258 598.588 599.372C598.475 599.485 598.313 599.542 598.103 599.542ZM600.555 596.186C600.922 596.186 601.241 596.099 601.512 595.924C601.783 595.749 601.992 595.491 602.141 595.151C602.29 594.81 602.364 594.39 602.364 593.892C602.364 593.141 602.198 592.572 601.866 592.188C601.542 591.803 601.105 591.611 600.555 591.611C600.196 591.611 599.877 591.698 599.598 591.873C599.327 592.039 599.117 592.293 598.969 592.634C598.82 592.974 598.746 593.394 598.746 593.892C598.746 594.635 598.912 595.203 599.244 595.596C599.576 595.99 600.013 596.186 600.555 596.186ZM607.856 597.209C607.332 597.209 606.89 597.117 606.532 596.934C606.174 596.75 605.907 596.479 605.732 596.121C605.557 595.762 605.47 595.325 605.47 594.81V591.716H604.683C604.509 591.716 604.373 591.672 604.277 591.585C604.181 591.489 604.133 591.362 604.133 591.205C604.133 591.039 604.181 590.912 604.277 590.825C604.373 590.737 604.509 590.693 604.683 590.693H605.47V589.343C605.47 589.125 605.527 588.959 605.64 588.845C605.763 588.731 605.929 588.675 606.139 588.675C606.348 588.675 606.51 588.731 606.624 588.845C606.737 588.959 606.794 589.125 606.794 589.343V590.693H608.328C608.503 590.693 608.638 590.737 608.734 590.825C608.83 590.912 608.878 591.039 608.878 591.205C608.878 591.362 608.83 591.489 608.734 591.585C608.638 591.672 608.503 591.716 608.328 591.716H606.794V594.705C606.794 595.168 606.89 595.518 607.082 595.754C607.283 595.99 607.607 596.108 608.053 596.108C608.21 596.108 608.345 596.095 608.459 596.068C608.581 596.033 608.682 596.011 608.76 596.003C608.857 596.003 608.935 596.038 608.996 596.108C609.058 596.169 609.088 596.291 609.088 596.475C609.088 596.606 609.062 596.728 609.01 596.842C608.966 596.955 608.883 597.03 608.76 597.065C608.656 597.1 608.511 597.13 608.328 597.156C608.153 597.191 607.996 597.209 607.856 597.209Z" fill="white"/>
</g>
<g filter="url(#filter3_d_1844_7575)">
<rect x="135" y="550" width="172.26" height="128.882" rx="8" fill="white"/>
<rect x="135.5" y="550.5" width="171.26" height="127.882" rx="7.5" stroke="#DDF0FF"/>
<rect x="151" y="566" width="140.26" height="28" rx="2.05509" fill="#DDF0FF"/>
<rect x="151" y="610.441" width="126" height="12" rx="6" fill="#DDF0FF"/>
<rect x="151" y="630.661" width="140" height="12" rx="6" fill="#DDF0FF"/>
<rect x="151" y="650.882" width="82.7175" height="12" rx="6" fill="#DDF0FF"/>
</g>
<defs>
<filter id="filter0_d_1844_7575" x="0.5" y="98" width="812" height="699" filterUnits="userSpaceOnUse" color-interpolation-filters="sRGB">
<feFlood flood-opacity="0" result="BackgroundImageFix"/>
<feColorMatrix in="SourceAlpha" type="matrix" values="0 0 0 0 0 0 0 0 0 0 0 0 0 0 0 0 0 0 127 0" result="hardAlpha"/>
<feOffset dx="-19" dy="4"/>
<feGaussianBlur stdDeviation="40"/>
<feComposite in2="hardAlpha" operator="out"/>
<feColorMatrix type="matrix" values="0 0 0 0 0.054902 0 0 0 0 0.231373 0 0 0 0 0.372549 0 0 0 0.12 0"/>
<feBlend mode="normal" in2="BackgroundImageFix" result="effect1_dropShadow_1844_7575"/>
<feBlend mode="normal" in="SourceGraphic" in2="effect1_dropShadow_1844_7575" result="shape"/>
</filter>
<filter id="filter1_di_1844_7575" x="-196.49" y="174" width="947.99" height="49.1583" filterUnits="userSpaceOnUse" color-interpolation-filters="sRGB">
<feFlood flood-opacity="0" result="BackgroundImageFix"/>
<feColorMatrix in="SourceAlpha" type="matrix" values="0 0 0 0 0 0 0 0 0 0 0 0 0 0 0 0 0 0 127 0" result="hardAlpha"/>
<feOffset dy="0.46007"/>
<feColorMatrix type="matrix" values="0 0 0 0 0 0 0 0 0 0 0 0 0 0 0 0 0 0 0.15 0"/>
<feBlend mode="normal" in2="BackgroundImageFix" result="effect1_dropShadow_1844_7575"/>
<feBlend mode="normal" in="SourceGraphic" in2="effect1_dropShadow_1844_7575" result="shape"/>
<feColorMatrix in="SourceAlpha" type="matrix" values="0 0 0 0 0 0 0 0 0 0 0 0 0 0 0 0 0 0 127 0" result="hardAlpha"/>
<feOffset dy="-0.46007"/>
<feComposite in2="hardAlpha" operator="arithmetic" k2="-1" k3="1"/>
<feColorMatrix type="matrix" values="0 0 0 0 0 0 0 0 0 0 0 0 0 0 0 0 0 0 0.05 0"/>
<feBlend mode="normal" in2="shape" result="effect2_innerShadow_1844_7575"/>
</filter>
<filter id="filter2_d_1844_7575" x="122" y="353" width="634" height="370.276" filterUnits="userSpaceOnUse" color-interpolation-filters="sRGB">
<feFlood flood-opacity="0" result="BackgroundImageFix"/>
<feColorMatrix in="SourceAlpha" type="matrix" values="0 0 0 0 0 0 0 0 0 0 0 0 0 0 0 0 0 0 127 0" result="hardAlpha"/>
<feOffset dx="16" dy="16"/>
<feGaussianBlur stdDeviation="30"/>
<feComposite in2="hardAlpha" operator="out"/>
<feColorMatrix type="matrix" values="0 0 0 0 0.054902 0 0 0 0 0.231373 0 0 0 0 0.372549 0 0 0 0.08 0"/>
<feBlend mode="normal" in2="BackgroundImageFix" result="effect1_dropShadow_1844_7575"/>
<feBlend mode="normal" in="SourceGraphic" in2="effect1_dropShadow_1844_7575" result="shape"/>
</filter>
<filter id="filter3_d_1844_7575" x="115.035" y="532.442" width="236.26" height="192.881" filterUnits="userSpaceOnUse" color-interpolation-filters="sRGB">
<feFlood flood-opacity="0" result="BackgroundImageFix"/>
<feColorMatrix in="SourceAlpha" type="matrix" values="0 0 0 0 0 0 0 0 0 0 0 0 0 0 0 0 0 0 127 0" result="hardAlpha"/>
<feOffset dx="12.0351" dy="14.4421"/>
<feGaussianBlur stdDeviation="16"/>
<feComposite in2="hardAlpha" operator="out"/>
<feColorMatrix type="matrix" values="0 0 0 0 0.054902 0 0 0 0 0.231373 0 0 0 0 0.372549 0 0 0 0.04 0"/>
<feBlend mode="normal" in2="BackgroundImageFix" result="effect1_dropShadow_1844_7575"/>
<feBlend mode="normal" in="SourceGraphic" in2="effect1_dropShadow_1844_7575" result="shape"/>
</filter>
<clipPath id="clip0_1844_7575">
<path d="M751.5 182C751.5 177.582 747.918 174 743.5 174H99.5V713H743.5C747.918 713 751.5 709.418 751.5 705V182Z" fill="white"/>
</clipPath>
</defs>
</svg>
