<svg width="813" height="894" viewBox="0 0 813 894" fill="none" xmlns="http://www.w3.org/2000/svg">
<rect x="99.5" y="90" width="578" height="706" rx="16" fill="#F0F7FD"/>
<path fill-rule="evenodd" clip-rule="evenodd" d="M442.192 746.991C436.093 746.991 431.572 741.983 431.572 736.549V625.871C431.572 620.438 436.092 615.429 442.192 615.429H551.59C557.689 615.429 562.21 620.438 562.21 625.871V736.549C562.21 741.983 557.689 746.991 551.59 746.991H442.192ZM442.192 752.425C433.569 752.425 426.5 745.273 426.5 736.549V625.871C426.5 617.148 433.569 609.996 442.192 609.996H551.59C560.212 609.996 567.281 617.148 567.281 625.871V736.549C567.281 745.273 560.212 752.425 551.59 752.425H442.192Z" fill="#FCFEFF"/>
<path fill-rule="evenodd" clip-rule="evenodd" d="M584.323 888.567C578.141 888.567 573.566 883.5 573.566 878.01V766.522C573.566 761.032 578.142 755.965 584.323 755.965H694.672C700.853 755.965 705.429 761.032 705.429 766.522V878.01C705.429 883.5 700.853 888.567 694.672 888.567H584.323ZM584.323 894C575.625 894 568.495 886.797 568.495 878.01V766.522C568.495 757.735 575.625 750.531 584.323 750.531H694.672C703.37 750.531 710.5 757.735 710.5 766.522V878.01C710.5 886.797 703.37 894 694.672 894H584.323Z" fill="#FCFEFF"/>
<path fill-rule="evenodd" clip-rule="evenodd" d="M72.1918 136.991C66.0926 136.991 61.5718 131.983 61.5718 126.549V15.871C61.5718 10.4376 66.0925 5.42947 72.1918 5.42947H181.59C187.689 5.42947 192.21 10.4376 192.21 15.871V126.549C192.21 131.983 187.689 136.991 181.59 136.991H72.1918ZM72.1918 142.425C63.5694 142.425 56.5003 135.273 56.5003 126.549V15.871C56.5003 7.14764 63.5694 -0.00390625 72.1918 -0.00390625H181.59C190.212 -0.00390625 197.281 7.14764 197.281 15.871V126.549C197.281 135.273 190.212 142.425 181.59 142.425H72.1918Z" fill="#FCFEFF"/>
<path fill-rule="evenodd" clip-rule="evenodd" d="M214.323 278.567C208.141 278.567 203.566 273.5 203.566 268.01V156.522C203.566 151.032 208.142 145.965 214.323 145.965H324.672C330.853 145.965 335.429 151.032 335.429 156.522V268.01C335.429 273.5 330.853 278.567 324.672 278.567H214.323ZM214.323 284C205.625 284 198.495 276.797 198.495 268.01V156.522C198.495 147.735 205.625 140.531 214.323 140.531H324.672C333.37 140.531 340.5 147.735 340.5 156.522V268.01C340.5 276.797 333.37 284 324.672 284H214.323Z" fill="#FCFEFF"/>
<g filter="url(#filter0_d_1844_7820)">
<g clip-path="url(#clip0_1844_7820)">
<path d="M751.5 223H-196.5V705C-196.5 709.418 -192.918 713 -188.5 713H743.5C747.918 713 751.5 709.418 751.5 705V223Z" fill="white"/>
<g filter="url(#filter1_di_1844_7820)">
<path d="M751.5 182C751.5 177.582 747.918 174 743.5 174H-188.491C-192.909 174 -196.491 177.582 -196.491 182V222.698H751.5V182Z" fill="#01112D"/>
<path d="M649.408 199.003H663.655" stroke="#F0F7FD" stroke-width="0.94977" stroke-linecap="round"/>
<rect x="684.129" y="193.78" width="10.4475" height="10.4475" rx="0.474885" stroke="#F0F7FD" stroke-width="0.94977"/>
<path d="M715.287 193.779L725.501 204.227" stroke="#F0F7FD" stroke-width="0.94977" stroke-linecap="round"/>
<path d="M725.266 193.779L715.052 204.227" stroke="#F0F7FD" stroke-width="0.94977" stroke-linecap="round"/>
<rect x="682.129" y="195.78" width="10.4475" height="10.4475" rx="0.474885" fill="#01112D" stroke="#F0F7FD" stroke-width="0.94977"/>
</g>
</g>
</g>
<g filter="url(#filter2_d_1844_7820)">
<g clip-path="url(#clip1_1844_7820)">
<rect x="170" y="301" width="514" height="211.96" rx="11.7124" fill="white"/>
<path d="M210.933 365.66C210.504 365.66 210.169 365.54 209.928 365.299C209.705 365.059 209.593 364.724 209.593 364.294V348.679C209.593 348.233 209.714 347.898 209.954 347.674C210.195 347.434 210.53 347.313 210.959 347.313H217.117C219.076 347.313 220.587 347.777 221.653 348.705C222.718 349.633 223.25 350.947 223.25 352.647C223.25 353.747 223.01 354.692 222.529 355.482C222.048 356.272 221.343 356.873 220.416 357.285C219.505 357.698 218.406 357.904 217.117 357.904L217.349 357.543H218.019C218.706 357.543 219.299 357.715 219.797 358.058C220.313 358.402 220.776 358.952 221.189 359.708L223.405 363.83C223.576 364.14 223.654 364.44 223.637 364.732C223.637 365.007 223.534 365.23 223.327 365.402C223.138 365.574 222.864 365.66 222.503 365.66C222.125 365.66 221.816 365.583 221.575 365.428C221.352 365.256 221.146 365.007 220.957 364.681L218.251 359.682C217.89 359.012 217.478 358.565 217.014 358.342C216.551 358.101 215.941 357.981 215.185 357.981H212.273V364.294C212.273 364.724 212.162 365.059 211.938 365.299C211.715 365.54 211.38 365.66 210.933 365.66ZM212.273 355.971H216.679C217.985 355.971 218.973 355.696 219.643 355.147C220.313 354.597 220.648 353.781 220.648 352.699C220.648 351.634 220.313 350.826 219.643 350.277C218.973 349.727 217.985 349.452 216.679 349.452H212.273V355.971ZM232.347 365.711C230.973 365.711 229.787 365.454 228.791 364.938C227.812 364.406 227.048 363.659 226.498 362.697C225.965 361.717 225.699 360.558 225.699 359.218C225.699 357.912 225.965 356.77 226.498 355.791C227.03 354.812 227.76 354.047 228.688 353.498C229.616 352.948 230.672 352.673 231.857 352.673C232.734 352.673 233.515 352.819 234.202 353.111C234.889 353.386 235.473 353.798 235.954 354.348C236.453 354.881 236.822 355.533 237.062 356.306C237.32 357.079 237.449 357.947 237.449 358.909C237.449 359.201 237.363 359.424 237.191 359.579C237.019 359.716 236.762 359.785 236.418 359.785H227.76V358.187H235.697L235.259 358.548C235.259 357.689 235.13 356.959 234.872 356.358C234.632 355.757 234.262 355.301 233.764 354.992C233.283 354.666 232.682 354.503 231.96 354.503C231.153 354.503 230.466 354.692 229.899 355.069C229.349 355.447 228.929 355.971 228.636 356.641C228.344 357.311 228.198 358.093 228.198 358.986V359.141C228.198 360.652 228.551 361.795 229.255 362.568C229.976 363.324 231.016 363.702 232.373 363.702C232.888 363.702 233.429 363.633 233.996 363.495C234.58 363.358 235.13 363.126 235.645 362.8C235.937 362.628 236.195 362.551 236.418 362.568C236.659 362.585 236.848 362.662 236.985 362.8C237.14 362.937 237.234 363.109 237.269 363.315C237.303 363.521 237.269 363.736 237.166 363.959C237.062 364.165 236.882 364.354 236.624 364.526C236.04 364.921 235.362 365.222 234.589 365.428C233.816 365.617 233.068 365.711 232.347 365.711ZM245.826 365.711C244.538 365.711 243.421 365.445 242.476 364.913C241.549 364.363 240.827 363.598 240.312 362.619C239.797 361.623 239.539 360.455 239.539 359.115C239.539 358.119 239.685 357.225 239.977 356.435C240.269 355.628 240.681 354.949 241.214 354.4C241.764 353.85 242.425 353.429 243.198 353.137C243.988 352.828 244.864 352.673 245.826 352.673C246.427 352.673 247.054 352.768 247.707 352.957C248.377 353.128 248.996 353.42 249.562 353.833C249.786 353.97 249.923 354.142 249.975 354.348C250.043 354.537 250.052 354.734 250 354.941C249.966 355.147 249.872 355.327 249.717 355.482C249.58 355.619 249.408 355.705 249.202 355.739C248.996 355.757 248.772 355.696 248.532 355.559C248.119 355.267 247.699 355.061 247.269 354.941C246.84 354.803 246.427 354.734 246.032 354.734C245.414 354.734 244.864 354.838 244.383 355.044C243.919 355.233 243.524 355.516 243.198 355.894C242.871 356.255 242.622 356.71 242.451 357.26C242.296 357.809 242.219 358.436 242.219 359.141C242.219 360.549 242.545 361.657 243.198 362.465C243.868 363.255 244.813 363.65 246.032 363.65C246.427 363.65 246.84 363.59 247.269 363.47C247.699 363.349 248.119 363.143 248.532 362.851C248.772 362.714 248.996 362.662 249.202 362.697C249.408 362.731 249.571 362.825 249.691 362.98C249.829 363.117 249.915 363.289 249.949 363.495C250 363.684 249.992 363.882 249.923 364.088C249.854 364.294 249.708 364.466 249.485 364.603C248.935 364.999 248.334 365.282 247.681 365.454C247.046 365.626 246.427 365.711 245.826 365.711ZM257.525 365.711C256.254 365.711 255.155 365.445 254.227 364.913C253.317 364.38 252.604 363.624 252.088 362.645C251.573 361.666 251.315 360.515 251.315 359.192C251.315 358.179 251.461 357.277 251.753 356.487C252.045 355.696 252.458 355.018 252.99 354.451C253.54 353.867 254.193 353.429 254.949 353.137C255.722 352.828 256.581 352.673 257.525 352.673C258.779 352.673 259.862 352.939 260.772 353.472C261.7 354.004 262.421 354.76 262.937 355.739C263.452 356.701 263.71 357.852 263.71 359.192C263.71 360.189 263.564 361.09 263.271 361.898C262.979 362.705 262.559 363.392 262.009 363.959C261.476 364.526 260.824 364.964 260.051 365.273C259.295 365.565 258.453 365.711 257.525 365.711ZM257.525 363.702C258.23 363.702 258.848 363.53 259.381 363.186C259.913 362.843 260.325 362.336 260.617 361.666C260.927 360.996 261.081 360.171 261.081 359.192C261.081 357.715 260.755 356.598 260.102 355.842C259.449 355.087 258.59 354.709 257.525 354.709C256.804 354.709 256.177 354.881 255.644 355.224C255.112 355.55 254.691 356.049 254.382 356.719C254.09 357.389 253.944 358.213 253.944 359.192C253.944 360.652 254.27 361.769 254.923 362.542C255.576 363.315 256.443 363.702 257.525 363.702ZM267.946 365.66C267.517 365.66 267.191 365.548 266.967 365.325C266.744 365.084 266.632 364.758 266.632 364.346V354.039C266.632 353.609 266.744 353.283 266.967 353.06C267.191 352.836 267.5 352.725 267.895 352.725C268.307 352.725 268.616 352.836 268.823 353.06C269.046 353.283 269.158 353.609 269.158 354.039V355.92H268.9C269.175 354.889 269.681 354.107 270.42 353.575C271.159 353.042 272.104 352.733 273.255 352.647C273.564 352.63 273.804 352.707 273.976 352.879C274.165 353.051 274.268 353.317 274.285 353.678C274.32 354.039 274.242 354.331 274.053 354.554C273.864 354.76 273.572 354.881 273.177 354.915L272.688 354.966C271.571 355.069 270.721 355.422 270.137 356.023C269.553 356.624 269.261 357.449 269.261 358.497V364.346C269.261 364.758 269.149 365.084 268.926 365.325C268.719 365.548 268.393 365.66 267.946 365.66ZM280.861 365.711C279.762 365.711 278.791 365.454 277.95 364.938C277.125 364.406 276.481 363.65 276.017 362.671C275.553 361.675 275.321 360.515 275.321 359.192C275.321 357.835 275.553 356.676 276.017 355.714C276.481 354.752 277.125 354.004 277.95 353.472C278.791 352.939 279.762 352.673 280.861 352.673C281.961 352.673 282.906 352.948 283.696 353.498C284.503 354.03 285.044 354.752 285.319 355.662H285.036V348.447C285.036 348.018 285.147 347.691 285.371 347.468C285.594 347.245 285.912 347.133 286.324 347.133C286.736 347.133 287.054 347.245 287.277 347.468C287.518 347.691 287.638 348.018 287.638 348.447V364.346C287.638 364.758 287.527 365.084 287.303 365.325C287.08 365.548 286.762 365.66 286.35 365.66C285.938 365.66 285.62 365.548 285.396 365.325C285.173 365.084 285.061 364.758 285.061 364.346V362.078L285.345 362.645C285.07 363.573 284.529 364.32 283.722 364.887C282.931 365.437 281.978 365.711 280.861 365.711ZM281.531 363.702C282.236 363.702 282.854 363.53 283.387 363.186C283.919 362.843 284.331 362.336 284.623 361.666C284.933 360.996 285.087 360.171 285.087 359.192C285.087 357.715 284.761 356.598 284.108 355.842C283.455 355.087 282.596 354.709 281.531 354.709C280.81 354.709 280.183 354.881 279.65 355.224C279.118 355.55 278.697 356.049 278.388 356.719C278.096 357.389 277.95 358.213 277.95 359.192C277.95 360.652 278.276 361.769 278.929 362.542C279.582 363.315 280.449 363.702 281.531 363.702ZM303.987 365.711C302.613 365.711 301.428 365.454 300.431 364.938C299.452 364.406 298.688 363.659 298.138 362.697C297.606 361.717 297.339 360.558 297.339 359.218C297.339 357.912 297.606 356.77 298.138 355.791C298.671 354.812 299.401 354.047 300.328 353.498C301.256 352.948 302.312 352.673 303.498 352.673C304.374 352.673 305.155 352.819 305.843 353.111C306.53 353.386 307.114 353.798 307.595 354.348C308.093 354.881 308.462 355.533 308.703 356.306C308.96 357.079 309.089 357.947 309.089 358.909C309.089 359.201 309.003 359.424 308.832 359.579C308.66 359.716 308.402 359.785 308.059 359.785H299.401V358.187H307.337L306.899 358.548C306.899 357.689 306.77 356.959 306.513 356.358C306.272 355.757 305.903 355.301 305.405 354.992C304.924 354.666 304.322 354.503 303.601 354.503C302.793 354.503 302.106 354.692 301.539 355.069C300.99 355.447 300.569 355.971 300.277 356.641C299.985 357.311 299.839 358.093 299.839 358.986V359.141C299.839 360.652 300.191 361.795 300.895 362.568C301.617 363.324 302.656 363.702 304.013 363.702C304.528 363.702 305.07 363.633 305.636 363.495C306.221 363.358 306.77 363.126 307.286 362.8C307.578 362.628 307.835 362.551 308.059 362.568C308.299 362.585 308.488 362.662 308.626 362.8C308.78 362.937 308.875 363.109 308.909 363.315C308.943 363.521 308.909 363.736 308.806 363.959C308.703 364.165 308.522 364.354 308.265 364.526C307.681 364.921 307.002 365.222 306.229 365.428C305.456 365.617 304.709 365.711 303.987 365.711ZM316.62 365.66C316.26 365.66 315.942 365.565 315.667 365.376C315.409 365.187 315.195 364.895 315.023 364.5L310.72 354.503C310.582 354.193 310.531 353.901 310.565 353.626C310.599 353.352 310.728 353.137 310.952 352.982C311.175 352.811 311.476 352.725 311.853 352.725C312.18 352.725 312.438 352.802 312.626 352.957C312.815 353.111 312.987 353.377 313.142 353.755L317.033 363.341H316.311L320.279 353.755C320.434 353.377 320.606 353.111 320.795 352.957C321.001 352.802 321.284 352.725 321.645 352.725C321.954 352.725 322.195 352.811 322.367 352.982C322.556 353.137 322.667 353.352 322.702 353.626C322.753 353.884 322.71 354.168 322.573 354.477L318.218 364.5C318.063 364.895 317.849 365.187 317.574 365.376C317.299 365.565 316.981 365.66 316.62 365.66ZM330.812 365.711C329.437 365.711 328.252 365.454 327.256 364.938C326.277 364.406 325.512 363.659 324.962 362.697C324.43 361.717 324.164 360.558 324.164 359.218C324.164 357.912 324.43 356.77 324.962 355.791C325.495 354.812 326.225 354.047 327.153 353.498C328.08 352.948 329.137 352.673 330.322 352.673C331.198 352.673 331.98 352.819 332.667 353.111C333.354 353.386 333.938 353.798 334.419 354.348C334.917 354.881 335.287 355.533 335.527 356.306C335.785 357.079 335.914 357.947 335.914 358.909C335.914 359.201 335.828 359.424 335.656 359.579C335.484 359.716 335.226 359.785 334.883 359.785H326.225V358.187H334.161L333.723 358.548C333.723 357.689 333.594 356.959 333.337 356.358C333.096 355.757 332.727 355.301 332.229 354.992C331.748 354.666 331.147 354.503 330.425 354.503C329.618 354.503 328.931 354.692 328.364 355.069C327.814 355.447 327.393 355.971 327.101 356.641C326.809 357.311 326.663 358.093 326.663 358.986V359.141C326.663 360.652 327.015 361.795 327.72 362.568C328.441 363.324 329.48 363.702 330.837 363.702C331.353 363.702 331.894 363.633 332.461 363.495C333.045 363.358 333.594 363.126 334.11 362.8C334.402 362.628 334.66 362.551 334.883 362.568C335.123 362.585 335.312 362.662 335.45 362.8C335.604 362.937 335.699 363.109 335.733 363.315C335.768 363.521 335.733 363.736 335.63 363.959C335.527 364.165 335.347 364.354 335.089 364.526C334.505 364.921 333.826 365.222 333.053 365.428C332.28 365.617 331.533 365.711 330.812 365.711ZM340.065 365.66C339.635 365.66 339.309 365.548 339.086 365.325C338.862 365.084 338.751 364.758 338.751 364.346V354.039C338.751 353.609 338.862 353.283 339.086 353.06C339.309 352.836 339.618 352.725 340.013 352.725C340.426 352.725 340.735 352.836 340.941 353.06C341.164 353.283 341.276 353.609 341.276 354.039V355.92H341.018C341.293 354.889 341.8 354.107 342.539 353.575C343.277 353.042 344.222 352.733 345.373 352.647C345.682 352.63 345.923 352.707 346.094 352.879C346.283 353.051 346.387 353.317 346.404 353.678C346.438 354.039 346.361 354.331 346.172 354.554C345.983 354.76 345.691 354.881 345.296 354.915L344.806 354.966C343.69 355.069 342.839 355.422 342.255 356.023C341.671 356.624 341.379 357.449 341.379 358.497V364.346C341.379 364.758 341.267 365.084 341.044 365.325C340.838 365.548 340.512 365.66 340.065 365.66ZM352.107 370.298C351.797 370.298 351.54 370.212 351.334 370.04C351.145 369.886 351.033 369.671 350.999 369.396C350.981 369.138 351.033 368.855 351.153 368.546L352.905 364.603V365.711L348.087 354.503C347.967 354.193 347.924 353.901 347.958 353.626C347.992 353.352 348.121 353.137 348.345 352.982C348.568 352.811 348.868 352.725 349.246 352.725C349.573 352.725 349.83 352.802 350.019 352.957C350.208 353.111 350.38 353.377 350.535 353.755L354.426 363.367H353.704L357.647 353.755C357.801 353.36 357.982 353.094 358.188 352.957C358.394 352.802 358.677 352.725 359.038 352.725C359.347 352.725 359.588 352.811 359.759 352.982C359.948 353.137 360.06 353.352 360.094 353.626C360.146 353.884 360.103 354.168 359.966 354.477L353.524 369.293C353.352 369.688 353.154 369.954 352.931 370.092C352.725 370.229 352.45 370.298 352.107 370.298ZM373.808 365.711C372.794 365.711 371.944 365.522 371.257 365.145C370.587 364.767 370.08 364.208 369.737 363.47C369.41 362.714 369.247 361.769 369.247 360.635V354.039C369.247 353.592 369.359 353.266 369.582 353.06C369.805 352.836 370.123 352.725 370.535 352.725C370.948 352.725 371.266 352.836 371.489 353.06C371.729 353.266 371.85 353.592 371.85 354.039V360.661C371.85 361.675 372.056 362.422 372.468 362.903C372.88 363.384 373.533 363.624 374.426 363.624C375.406 363.624 376.196 363.298 376.797 362.645C377.415 361.975 377.725 361.099 377.725 360.017V354.039C377.725 353.592 377.836 353.266 378.06 353.06C378.283 352.836 378.609 352.725 379.039 352.725C379.451 352.725 379.769 352.836 379.992 353.06C380.215 353.266 380.327 353.592 380.327 354.039V364.346C380.327 365.222 379.906 365.66 379.064 365.66C378.669 365.66 378.36 365.548 378.137 365.325C377.914 365.084 377.802 364.758 377.802 364.346V362.155L378.137 362.722C377.793 363.684 377.244 364.423 376.488 364.938C375.732 365.454 374.839 365.711 373.808 365.711ZM388.401 365.711C387.645 365.711 386.863 365.626 386.056 365.454C385.266 365.282 384.536 364.99 383.866 364.578C383.643 364.423 383.488 364.251 383.402 364.062C383.316 363.873 383.282 363.684 383.299 363.495C383.333 363.289 383.411 363.117 383.531 362.98C383.668 362.825 383.831 362.731 384.02 362.697C384.227 362.662 384.441 362.705 384.665 362.825C385.335 363.203 385.979 363.47 386.597 363.624C387.216 363.762 387.825 363.83 388.427 363.83C389.337 363.83 390.024 363.667 390.488 363.341C390.952 363.014 391.184 362.576 391.184 362.027C391.184 361.58 391.029 361.236 390.72 360.996C390.411 360.738 389.947 360.541 389.329 360.403L386.881 359.914C385.816 359.69 385.008 359.295 384.459 358.728C383.909 358.162 383.634 357.44 383.634 356.564C383.634 355.774 383.849 355.087 384.278 354.503C384.708 353.919 385.309 353.472 386.082 353.163C386.855 352.836 387.748 352.673 388.762 352.673C389.518 352.673 390.23 352.768 390.9 352.957C391.57 353.146 392.189 353.429 392.756 353.807C392.979 353.927 393.125 354.09 393.194 354.296C393.262 354.485 393.271 354.674 393.219 354.863C393.185 355.052 393.099 355.224 392.962 355.379C392.824 355.516 392.653 355.602 392.446 355.636C392.257 355.654 392.043 355.602 391.802 355.482C391.287 355.155 390.772 354.923 390.256 354.786C389.758 354.649 389.26 354.58 388.762 354.58C387.851 354.58 387.164 354.752 386.7 355.095C386.254 355.422 386.03 355.868 386.03 356.435C386.03 356.865 386.168 357.217 386.443 357.492C386.717 357.766 387.147 357.964 387.731 358.084L390.179 358.574C391.295 358.797 392.137 359.175 392.704 359.708C393.288 360.24 393.58 360.962 393.58 361.872C393.58 363.057 393.108 363.994 392.163 364.681C391.218 365.368 389.964 365.711 388.401 365.711ZM402.377 365.711C401.002 365.711 399.817 365.454 398.821 364.938C397.841 364.406 397.077 363.659 396.527 362.697C395.995 361.717 395.729 360.558 395.729 359.218C395.729 357.912 395.995 356.77 396.527 355.791C397.06 354.812 397.79 354.047 398.718 353.498C399.645 352.948 400.702 352.673 401.887 352.673C402.763 352.673 403.545 352.819 404.232 353.111C404.919 353.386 405.503 353.798 405.984 354.348C406.482 354.881 406.851 355.533 407.092 356.306C407.35 357.079 407.478 357.947 407.478 358.909C407.478 359.201 407.393 359.424 407.221 359.579C407.049 359.716 406.791 359.785 406.448 359.785H397.79V358.187H405.726L405.288 358.548C405.288 357.689 405.159 356.959 404.902 356.358C404.661 355.757 404.292 355.301 403.794 354.992C403.313 354.666 402.711 354.503 401.99 354.503C401.183 354.503 400.495 354.692 399.929 355.069C399.379 355.447 398.958 355.971 398.666 356.641C398.374 357.311 398.228 358.093 398.228 358.986V359.141C398.228 360.652 398.58 361.795 399.284 362.568C400.006 363.324 401.045 363.702 402.402 363.702C402.918 363.702 403.459 363.633 404.026 363.495C404.61 363.358 405.159 363.126 405.675 362.8C405.967 362.628 406.224 362.551 406.448 362.568C406.688 362.585 406.877 362.662 407.015 362.8C407.169 362.937 407.264 363.109 407.298 363.315C407.332 363.521 407.298 363.736 407.195 363.959C407.092 364.165 406.912 364.354 406.654 364.526C406.07 364.921 405.391 365.222 404.618 365.428C403.845 365.617 403.098 365.711 402.377 365.711ZM411.63 365.66C411.2 365.66 410.874 365.548 410.651 365.325C410.427 365.084 410.316 364.758 410.316 364.346V354.039C410.316 353.609 410.427 353.283 410.651 353.06C410.874 352.836 411.183 352.725 411.578 352.725C411.991 352.725 412.3 352.836 412.506 353.06C412.729 353.283 412.841 353.609 412.841 354.039V355.92H412.583C412.858 354.889 413.365 354.107 414.103 353.575C414.842 353.042 415.787 352.733 416.938 352.647C417.247 352.63 417.488 352.707 417.659 352.879C417.848 353.051 417.951 353.317 417.969 353.678C418.003 354.039 417.926 354.331 417.737 354.554C417.548 354.76 417.256 354.881 416.861 354.915L416.371 354.966C415.254 355.069 414.404 355.422 413.82 356.023C413.236 356.624 412.944 357.449 412.944 358.497V364.346C412.944 364.758 412.832 365.084 412.609 365.325C412.403 365.548 412.076 365.66 411.63 365.66ZM424.209 365.711C423.453 365.711 422.671 365.626 421.864 365.454C421.073 365.282 420.343 364.99 419.673 364.578C419.45 364.423 419.296 364.251 419.21 364.062C419.124 363.873 419.089 363.684 419.107 363.495C419.141 363.289 419.218 363.117 419.338 362.98C419.476 362.825 419.639 362.731 419.828 362.697C420.034 362.662 420.249 362.705 420.472 362.825C421.142 363.203 421.786 363.47 422.405 363.624C423.023 363.762 423.633 363.83 424.234 363.83C425.145 363.83 425.832 363.667 426.296 363.341C426.759 363.014 426.991 362.576 426.991 362.027C426.991 361.58 426.837 361.236 426.528 360.996C426.218 360.738 425.755 360.541 425.136 360.403L422.688 359.914C421.623 359.69 420.816 359.295 420.266 358.728C419.716 358.162 419.442 357.44 419.442 356.564C419.442 355.774 419.656 355.087 420.086 354.503C420.515 353.919 421.116 353.472 421.889 353.163C422.662 352.836 423.556 352.673 424.569 352.673C425.325 352.673 426.038 352.768 426.708 352.957C427.378 353.146 427.996 353.429 428.563 353.807C428.787 353.927 428.933 354.09 429.001 354.296C429.07 354.485 429.079 354.674 429.027 354.863C428.993 355.052 428.907 355.224 428.769 355.379C428.632 355.516 428.46 355.602 428.254 355.636C428.065 355.654 427.85 355.602 427.61 355.482C427.094 355.155 426.579 354.923 426.064 354.786C425.566 354.649 425.067 354.58 424.569 354.58C423.659 354.58 422.972 354.752 422.508 355.095C422.061 355.422 421.838 355.868 421.838 356.435C421.838 356.865 421.975 357.217 422.25 357.492C422.525 357.766 422.955 357.964 423.539 358.084L425.986 358.574C427.103 358.797 427.945 359.175 428.512 359.708C429.096 360.24 429.388 360.962 429.388 361.872C429.388 363.057 428.915 363.994 427.971 364.681C427.026 365.368 425.772 365.711 424.209 365.711Z" fill="#435E74"/>
<path d="M244.98 437.979C253.61 437.979 260.605 430.984 260.605 422.354C260.605 413.725 253.61 406.729 244.98 406.729C236.351 406.729 229.355 413.725 229.355 422.354C229.355 430.984 236.351 437.979 244.98 437.979Z" stroke="#607F98" stroke-width="3" stroke-linecap="round" stroke-linejoin="round"/>
<path d="M271.824 469.229C271.824 457.136 259.793 447.354 244.98 447.354C230.168 447.354 218.137 457.136 218.137 469.229" stroke="#607F98" stroke-width="3" stroke-linecap="round" stroke-linejoin="round"/>
<rect x="306.48" y="418.479" width="280" height="16" rx="8" fill="#DDF0FF"/>
<rect x="306.48" y="450.479" width="210" height="16" rx="8" fill="#DDF0FF"/>
</g>
<rect x="170.586" y="301.586" width="512.829" height="210.788" rx="11.1268" stroke="#DDF0FF" stroke-width="1.17124"/>
</g>
<g filter="url(#filter3_d_1844_7820)">
<rect x="170" y="538.96" width="514" height="122.96" rx="11.7124" fill="white"/>
<rect x="170.586" y="539.546" width="512.829" height="121.788" rx="11.1268" stroke="#DDF0FF" stroke-width="1.17124"/>
<rect x="207.48" y="576.439" width="390" height="16" rx="8" fill="#DDF0FF"/>
<rect x="207.48" y="608.439" width="292" height="16" rx="8" fill="#DDF0FF"/>
</g>
<defs>
<filter id="filter0_d_1844_7820" x="0.5" y="98" width="812" height="699" filterUnits="userSpaceOnUse" color-interpolation-filters="sRGB">
<feFlood flood-opacity="0" result="BackgroundImageFix"/>
<feColorMatrix in="SourceAlpha" type="matrix" values="0 0 0 0 0 0 0 0 0 0 0 0 0 0 0 0 0 0 127 0" result="hardAlpha"/>
<feOffset dx="-19" dy="4"/>
<feGaussianBlur stdDeviation="40"/>
<feComposite in2="hardAlpha" operator="out"/>
<feColorMatrix type="matrix" values="0 0 0 0 0.054902 0 0 0 0 0.231373 0 0 0 0 0.372549 0 0 0 0.12 0"/>
<feBlend mode="normal" in2="BackgroundImageFix" result="effect1_dropShadow_1844_7820"/>
<feBlend mode="normal" in="SourceGraphic" in2="effect1_dropShadow_1844_7820" result="shape"/>
</filter>
<filter id="filter1_di_1844_7820" x="-196.49" y="174" width="947.99" height="49.1583" filterUnits="userSpaceOnUse" color-interpolation-filters="sRGB">
<feFlood flood-opacity="0" result="BackgroundImageFix"/>
<feColorMatrix in="SourceAlpha" type="matrix" values="0 0 0 0 0 0 0 0 0 0 0 0 0 0 0 0 0 0 127 0" result="hardAlpha"/>
<feOffset dy="0.46007"/>
<feColorMatrix type="matrix" values="0 0 0 0 0 0 0 0 0 0 0 0 0 0 0 0 0 0 0.15 0"/>
<feBlend mode="normal" in2="BackgroundImageFix" result="effect1_dropShadow_1844_7820"/>
<feBlend mode="normal" in="SourceGraphic" in2="effect1_dropShadow_1844_7820" result="shape"/>
<feColorMatrix in="SourceAlpha" type="matrix" values="0 0 0 0 0 0 0 0 0 0 0 0 0 0 0 0 0 0 127 0" result="hardAlpha"/>
<feOffset dy="-0.46007"/>
<feComposite in2="hardAlpha" operator="arithmetic" k2="-1" k3="1"/>
<feColorMatrix type="matrix" values="0 0 0 0 0 0 0 0 0 0 0 0 0 0 0 0 0 0 0.05 0"/>
<feBlend mode="normal" in2="shape" result="effect2_innerShadow_1844_7820"/>
</filter>
<filter id="filter2_d_1844_7820" x="118.465" y="254.15" width="663.919" height="361.879" filterUnits="userSpaceOnUse" color-interpolation-filters="sRGB">
<feFlood flood-opacity="0" result="BackgroundImageFix"/>
<feColorMatrix in="SourceAlpha" type="matrix" values="0 0 0 0 0 0 0 0 0 0 0 0 0 0 0 0 0 0 127 0" result="hardAlpha"/>
<feOffset dx="23.4249" dy="28.1099"/>
<feGaussianBlur stdDeviation="37.4798"/>
<feComposite in2="hardAlpha" operator="out"/>
<feColorMatrix type="matrix" values="0 0 0 0 0.054902 0 0 0 0 0.231373 0 0 0 0 0.372549 0 0 0 0.12 0"/>
<feBlend mode="normal" in2="BackgroundImageFix" result="effect1_dropShadow_1844_7820"/>
<feBlend mode="normal" in="SourceGraphic" in2="effect1_dropShadow_1844_7820" result="shape"/>
</filter>
<filter id="filter3_d_1844_7820" x="118.465" y="492.11" width="663.919" height="272.879" filterUnits="userSpaceOnUse" color-interpolation-filters="sRGB">
<feFlood flood-opacity="0" result="BackgroundImageFix"/>
<feColorMatrix in="SourceAlpha" type="matrix" values="0 0 0 0 0 0 0 0 0 0 0 0 0 0 0 0 0 0 127 0" result="hardAlpha"/>
<feOffset dx="23.4249" dy="28.1099"/>
<feGaussianBlur stdDeviation="37.4798"/>
<feComposite in2="hardAlpha" operator="out"/>
<feColorMatrix type="matrix" values="0 0 0 0 0.054902 0 0 0 0 0.231373 0 0 0 0 0.372549 0 0 0 0.12 0"/>
<feBlend mode="normal" in2="BackgroundImageFix" result="effect1_dropShadow_1844_7820"/>
<feBlend mode="normal" in="SourceGraphic" in2="effect1_dropShadow_1844_7820" result="shape"/>
</filter>
<clipPath id="clip0_1844_7820">
<path d="M751.5 182C751.5 177.582 747.918 174 743.5 174H99.5V713H743.5C747.918 713 751.5 709.418 751.5 705V182Z" fill="white"/>
</clipPath>
<clipPath id="clip1_1844_7820">
<rect x="170" y="301" width="514" height="211.96" rx="11.7124" fill="white"/>
</clipPath>
</defs>
</svg>
