<svg width="885" height="894" viewBox="0 0 885 894" fill="none" xmlns="http://www.w3.org/2000/svg">
<rect x="99.5" y="90" width="578" height="706" rx="16" fill="#F0F7FD"/>
<path fill-rule="evenodd" clip-rule="evenodd" d="M442.192 746.991C436.093 746.991 431.572 741.983 431.572 736.549V625.871C431.572 620.438 436.092 615.429 442.192 615.429H551.59C557.689 615.429 562.21 620.438 562.21 625.871V736.549C562.21 741.983 557.689 746.991 551.59 746.991H442.192ZM442.192 752.425C433.569 752.425 426.5 745.273 426.5 736.549V625.871C426.5 617.148 433.569 609.996 442.192 609.996H551.59C560.212 609.996 567.281 617.148 567.281 625.871V736.549C567.281 745.273 560.212 752.425 551.59 752.425H442.192Z" fill="#FCFEFF"/>
<path fill-rule="evenodd" clip-rule="evenodd" d="M584.323 888.567C578.141 888.567 573.566 883.5 573.566 878.01V766.522C573.566 761.032 578.142 755.965 584.323 755.965H694.672C700.853 755.965 705.429 761.032 705.429 766.522V878.01C705.429 883.5 700.853 888.567 694.672 888.567H584.323ZM584.323 894C575.625 894 568.495 886.797 568.495 878.01V766.522C568.495 757.735 575.625 750.531 584.323 750.531H694.672C703.37 750.531 710.5 757.735 710.5 766.522V878.01C710.5 886.797 703.37 894 694.672 894H584.323Z" fill="#FCFEFF"/>
<path fill-rule="evenodd" clip-rule="evenodd" d="M72.1918 136.991C66.0926 136.991 61.5718 131.983 61.5718 126.549V15.871C61.5718 10.4376 66.0925 5.42947 72.1918 5.42947H181.59C187.689 5.42947 192.21 10.4376 192.21 15.871V126.549C192.21 131.983 187.689 136.991 181.59 136.991H72.1918ZM72.1918 142.425C63.5694 142.425 56.5003 135.273 56.5003 126.549V15.871C56.5003 7.14764 63.5694 -0.00390625 72.1918 -0.00390625H181.59C190.212 -0.00390625 197.281 7.14764 197.281 15.871V126.549C197.281 135.273 190.212 142.425 181.59 142.425H72.1918Z" fill="#FCFEFF"/>
<path fill-rule="evenodd" clip-rule="evenodd" d="M214.323 278.567C208.141 278.567 203.566 273.5 203.566 268.01V156.522C203.566 151.032 208.142 145.965 214.323 145.965H324.672C330.853 145.965 335.429 151.032 335.429 156.522V268.01C335.429 273.5 330.853 278.567 324.672 278.567H214.323ZM214.323 284C205.625 284 198.495 276.797 198.495 268.01V156.522C198.495 147.735 205.625 140.531 214.323 140.531H324.672C333.37 140.531 340.5 147.735 340.5 156.522V268.01C340.5 276.797 333.37 284 324.672 284H214.323Z" fill="#FCFEFF"/>
<g filter="url(#filter0_d_1844_7718)">
<g clip-path="url(#clip0_1844_7718)">
<path d="M751.5 223H-196.5V705C-196.5 709.418 -192.918 713 -188.5 713H743.5C747.918 713 751.5 709.418 751.5 705V223Z" fill="white"/>
<g filter="url(#filter1_di_1844_7718)">
<path d="M751.5 182C751.5 177.582 747.918 174 743.5 174H-188.491C-192.909 174 -196.491 177.582 -196.491 182V222.698H751.5V182Z" fill="#01112D"/>
<path d="M649.408 199.003H663.655" stroke="#F0F7FD" stroke-width="0.94977" stroke-linecap="round"/>
<rect x="684.129" y="193.78" width="10.4475" height="10.4475" rx="0.474885" stroke="#F0F7FD" stroke-width="0.94977"/>
<path d="M715.287 193.78L725.501 204.227" stroke="#F0F7FD" stroke-width="0.94977" stroke-linecap="round"/>
<path d="M725.266 193.78L715.052 204.227" stroke="#F0F7FD" stroke-width="0.94977" stroke-linecap="round"/>
<rect x="682.129" y="195.78" width="10.4475" height="10.4475" rx="0.474885" fill="#01112D" stroke="#F0F7FD" stroke-width="0.94977"/>
</g>
</g>
</g>
<g filter="url(#filter2_d_1844_7718)">
<rect x="169" y="264" width="514" height="267.372" rx="11.7124" fill="white"/>
<rect x="169.586" y="264.586" width="512.829" height="266.201" rx="11.1268" stroke="#DDF0FF" stroke-width="1.17124"/>
<path d="M210.036 328.48C209.573 328.48 209.212 328.36 208.954 328.119C208.714 327.862 208.593 327.501 208.593 327.037V311.757C208.593 311.293 208.714 310.941 208.954 310.7C209.212 310.443 209.573 310.314 210.036 310.314H219.441C219.802 310.314 220.077 310.408 220.266 310.597C220.455 310.769 220.549 311.027 220.549 311.37C220.549 311.731 220.455 312.006 220.266 312.195C220.077 312.384 219.802 312.478 219.441 312.478H211.17V318.173H218.875C219.253 318.173 219.527 318.268 219.699 318.456C219.888 318.645 219.983 318.912 219.983 319.255C219.983 319.616 219.888 319.891 219.699 320.08C219.527 320.252 219.253 320.337 218.875 320.337H211.17V326.316H219.441C219.802 326.316 220.077 326.41 220.266 326.599C220.455 326.788 220.549 327.054 220.549 327.398C220.549 327.758 220.455 328.033 220.266 328.222C220.077 328.394 219.802 328.48 219.441 328.48H210.036ZM231.111 328.712C229.891 328.712 228.817 328.557 227.89 328.248C226.962 327.922 226.181 327.441 225.545 326.805C224.926 326.17 224.454 325.379 224.128 324.435C223.801 323.49 223.638 322.399 223.638 321.162V311.474C223.638 311.027 223.75 310.692 223.973 310.469C224.214 310.245 224.549 310.134 224.978 310.134C225.407 310.134 225.734 310.245 225.957 310.469C226.198 310.692 226.318 311.027 226.318 311.474V321.111C226.318 322.88 226.722 324.203 227.529 325.079C228.354 325.955 229.547 326.393 231.111 326.393C232.691 326.393 233.885 325.955 234.692 325.079C235.5 324.203 235.903 322.88 235.903 321.111V311.474C235.903 311.027 236.015 310.692 236.238 310.469C236.479 310.245 236.805 310.134 237.218 310.134C237.647 310.134 237.973 310.245 238.197 310.469C238.42 310.692 238.532 311.027 238.532 311.474V321.162C238.532 322.811 238.248 324.203 237.681 325.336C237.132 326.453 236.307 327.295 235.208 327.862C234.108 328.428 232.743 328.712 231.111 328.712ZM256.365 328.66C255.987 328.66 255.669 328.574 255.411 328.403C255.171 328.214 254.973 327.939 254.818 327.578L247.887 311.886C247.75 311.525 247.715 311.216 247.784 310.958C247.853 310.7 247.99 310.503 248.196 310.366C248.42 310.211 248.686 310.134 248.995 310.134C249.39 310.134 249.691 310.219 249.897 310.391C250.103 310.563 250.275 310.821 250.412 311.164L256.906 326.212H255.952L262.394 311.139C262.549 310.812 262.729 310.563 262.935 310.391C263.159 310.219 263.459 310.134 263.837 310.134C264.146 310.134 264.395 310.211 264.584 310.366C264.79 310.503 264.919 310.7 264.971 310.958C265.022 311.216 264.971 311.525 264.816 311.886L257.911 327.578C257.756 327.939 257.558 328.214 257.318 328.403C257.077 328.574 256.76 328.66 256.365 328.66ZM269.412 328.635C269 328.635 268.682 328.514 268.458 328.274C268.235 328.016 268.123 327.664 268.123 327.217V317.168C268.123 316.721 268.235 316.378 268.458 316.137C268.682 315.897 269 315.777 269.412 315.777C269.824 315.777 270.142 315.897 270.365 316.137C270.606 316.378 270.726 316.721 270.726 317.168V327.217C270.726 327.664 270.614 328.016 270.391 328.274C270.168 328.514 269.841 328.635 269.412 328.635ZM269.412 313.097C268.897 313.097 268.493 312.968 268.201 312.71C267.926 312.453 267.789 312.092 267.789 311.628C267.789 311.147 267.926 310.786 268.201 310.546C268.493 310.288 268.897 310.159 269.412 310.159C269.927 310.159 270.322 310.288 270.597 310.546C270.889 310.786 271.035 311.147 271.035 311.628C271.035 312.092 270.889 312.453 270.597 312.71C270.322 312.968 269.927 313.097 269.412 313.097ZM278.795 328.712C278.04 328.712 277.258 328.626 276.451 328.454C275.66 328.282 274.93 327.99 274.26 327.578C274.037 327.424 273.882 327.252 273.797 327.063C273.711 326.874 273.676 326.685 273.693 326.496C273.728 326.29 273.805 326.118 273.925 325.981C274.063 325.826 274.226 325.731 274.415 325.697C274.621 325.663 274.836 325.706 275.059 325.826C275.729 326.204 276.373 326.47 276.992 326.625C277.61 326.762 278.22 326.831 278.821 326.831C279.732 326.831 280.419 326.668 280.883 326.341C281.346 326.015 281.578 325.577 281.578 325.027C281.578 324.581 281.424 324.237 281.114 323.996C280.805 323.739 280.341 323.541 279.723 323.404L277.275 322.914C276.21 322.691 275.403 322.296 274.853 321.729C274.303 321.162 274.028 320.441 274.028 319.564C274.028 318.774 274.243 318.087 274.673 317.503C275.102 316.919 275.703 316.472 276.476 316.163C277.249 315.837 278.143 315.674 279.156 315.674C279.912 315.674 280.625 315.768 281.295 315.957C281.965 316.146 282.583 316.429 283.15 316.807C283.373 316.928 283.519 317.091 283.588 317.297C283.657 317.486 283.665 317.675 283.614 317.864C283.58 318.053 283.494 318.225 283.356 318.379C283.219 318.517 283.047 318.602 282.841 318.637C282.652 318.654 282.437 318.602 282.197 318.482C281.681 318.156 281.166 317.924 280.651 317.787C280.153 317.649 279.654 317.58 279.156 317.58C278.246 317.58 277.559 317.752 277.095 318.096C276.648 318.422 276.425 318.869 276.425 319.436C276.425 319.865 276.562 320.217 276.837 320.492C277.112 320.767 277.541 320.964 278.125 321.085L280.573 321.574C281.69 321.798 282.532 322.176 283.099 322.708C283.683 323.241 283.975 323.962 283.975 324.873C283.975 326.058 283.502 326.994 282.557 327.681C281.613 328.368 280.359 328.712 278.795 328.712ZM288.159 328.635C287.746 328.635 287.429 328.514 287.205 328.274C286.982 328.016 286.87 327.664 286.87 327.217V317.168C286.87 316.721 286.982 316.378 287.205 316.137C287.429 315.897 287.746 315.777 288.159 315.777C288.571 315.777 288.889 315.897 289.112 316.137C289.353 316.378 289.473 316.721 289.473 317.168V327.217C289.473 327.664 289.361 328.016 289.138 328.274C288.914 328.514 288.588 328.635 288.159 328.635ZM288.159 313.097C287.643 313.097 287.24 312.968 286.948 312.71C286.673 312.453 286.535 312.092 286.535 311.628C286.535 311.147 286.673 310.786 286.948 310.546C287.24 310.288 287.643 310.159 288.159 310.159C288.674 310.159 289.069 310.288 289.344 310.546C289.636 310.786 289.782 311.147 289.782 311.628C289.782 312.092 289.636 312.453 289.344 312.71C289.069 312.968 288.674 313.097 288.159 313.097ZM298.496 328.712C297.465 328.712 296.597 328.532 295.893 328.171C295.189 327.81 294.665 327.278 294.321 326.573C293.978 325.869 293.806 325.01 293.806 323.996V317.915H292.26C291.916 317.915 291.65 317.829 291.461 317.658C291.272 317.469 291.178 317.22 291.178 316.91C291.178 316.584 291.272 316.335 291.461 316.163C291.65 315.991 291.916 315.905 292.26 315.905H293.806V313.251C293.806 312.822 293.918 312.496 294.141 312.272C294.381 312.049 294.708 311.937 295.12 311.937C295.532 311.937 295.85 312.049 296.073 312.272C296.297 312.496 296.408 312.822 296.408 313.251V315.905H299.423C299.767 315.905 300.033 315.991 300.222 316.163C300.411 316.335 300.505 316.584 300.505 316.91C300.505 317.22 300.411 317.469 300.222 317.658C300.033 317.829 299.767 317.915 299.423 317.915H296.408V323.79C296.408 324.701 296.597 325.388 296.975 325.852C297.37 326.316 298.006 326.547 298.882 326.547C299.191 326.547 299.458 326.522 299.681 326.47C299.921 326.401 300.119 326.358 300.274 326.341C300.463 326.341 300.617 326.41 300.737 326.547C300.858 326.668 300.918 326.908 300.918 327.269C300.918 327.527 300.866 327.767 300.763 327.99C300.677 328.214 300.514 328.36 300.274 328.428C300.067 328.497 299.784 328.557 299.423 328.609C299.08 328.678 298.77 328.712 298.496 328.712ZM307.884 328.712C306.613 328.712 305.513 328.446 304.586 327.913C303.675 327.381 302.962 326.625 302.447 325.646C301.932 324.666 301.674 323.515 301.674 322.193C301.674 321.179 301.82 320.277 302.112 319.487C302.404 318.697 302.816 318.018 303.349 317.452C303.899 316.867 304.551 316.429 305.307 316.137C306.08 315.828 306.939 315.674 307.884 315.674C309.138 315.674 310.22 315.94 311.131 316.472C312.058 317.005 312.78 317.761 313.295 318.74C313.81 319.702 314.068 320.853 314.068 322.193C314.068 323.189 313.922 324.091 313.63 324.898C313.338 325.706 312.917 326.393 312.368 326.96C311.835 327.527 311.182 327.965 310.409 328.274C309.653 328.566 308.812 328.712 307.884 328.712ZM307.884 326.702C308.588 326.702 309.207 326.53 309.739 326.187C310.272 325.843 310.684 325.336 310.976 324.666C311.285 323.996 311.44 323.172 311.44 322.193C311.44 320.715 311.113 319.599 310.461 318.843C309.808 318.087 308.949 317.709 307.884 317.709C307.162 317.709 306.535 317.881 306.003 318.225C305.47 318.551 305.05 319.049 304.74 319.719C304.448 320.389 304.302 321.214 304.302 322.193C304.302 323.653 304.629 324.769 305.281 325.542C305.934 326.316 306.802 326.702 307.884 326.702ZM318.305 328.66C317.876 328.66 317.549 328.549 317.326 328.325C317.103 328.085 316.991 327.758 316.991 327.346V317.039C316.991 316.61 317.103 316.283 317.326 316.06C317.549 315.837 317.858 315.725 318.254 315.725C318.666 315.725 318.975 315.837 319.181 316.06C319.404 316.283 319.516 316.61 319.516 317.039V318.92H319.258C319.533 317.89 320.04 317.108 320.779 316.575C321.517 316.043 322.462 315.734 323.613 315.648C323.922 315.631 324.163 315.708 324.335 315.88C324.524 316.052 324.627 316.318 324.644 316.679C324.678 317.039 324.601 317.331 324.412 317.555C324.223 317.761 323.931 317.881 323.536 317.915L323.046 317.967C321.93 318.07 321.079 318.422 320.495 319.023C319.911 319.625 319.619 320.449 319.619 321.497V327.346C319.619 327.758 319.508 328.085 319.284 328.325C319.078 328.549 318.752 328.66 318.305 328.66ZM330.884 328.712C330.128 328.712 329.346 328.626 328.539 328.454C327.749 328.282 327.019 327.99 326.349 327.578C326.125 327.424 325.971 327.252 325.885 327.063C325.799 326.874 325.765 326.685 325.782 326.496C325.816 326.29 325.894 326.118 326.014 325.981C326.151 325.826 326.314 325.731 326.503 325.697C326.709 325.663 326.924 325.706 327.148 325.826C327.817 326.204 328.462 326.47 329.08 326.625C329.698 326.762 330.308 326.831 330.91 326.831C331.82 326.831 332.507 326.668 332.971 326.341C333.435 326.015 333.667 325.577 333.667 325.027C333.667 324.581 333.512 324.237 333.203 323.996C332.894 323.739 332.43 323.541 331.811 323.404L329.364 322.914C328.298 322.691 327.491 322.296 326.941 321.729C326.392 321.162 326.117 320.441 326.117 319.564C326.117 318.774 326.332 318.087 326.761 317.503C327.19 316.919 327.792 316.472 328.565 316.163C329.338 315.837 330.231 315.674 331.245 315.674C332 315.674 332.713 315.768 333.383 315.957C334.053 316.146 334.672 316.429 335.238 316.807C335.462 316.928 335.608 317.091 335.677 317.297C335.745 317.486 335.754 317.675 335.702 317.864C335.668 318.053 335.582 318.225 335.445 318.379C335.307 318.517 335.135 318.602 334.929 318.637C334.74 318.654 334.526 318.602 334.285 318.482C333.77 318.156 333.254 317.924 332.739 317.787C332.241 317.649 331.743 317.58 331.245 317.58C330.334 317.58 329.647 317.752 329.183 318.096C328.737 318.422 328.513 318.869 328.513 319.436C328.513 319.865 328.651 320.217 328.925 320.492C329.2 320.767 329.63 320.964 330.214 321.085L332.662 321.574C333.778 321.798 334.62 322.176 335.187 322.708C335.771 323.241 336.063 323.962 336.063 324.873C336.063 326.058 335.591 326.994 334.646 327.681C333.701 328.368 332.447 328.712 330.884 328.712Z" fill="#435E74"/>
<rect x="206.48" y="363.48" width="390" height="16" rx="8" fill="#DDF0FF"/>
<rect x="206.48" y="395.48" width="292" height="16" rx="8" fill="#DDF0FF"/>
<rect x="421.949" y="459.89" width="107.333" height="33.5929" rx="1.22901" stroke="#607F98" stroke-width="0.819338"/>
<path d="M458.898 481.278C458.68 481.278 458.509 481.217 458.387 481.094C458.273 480.972 458.217 480.801 458.217 480.583V472.639C458.217 472.411 458.278 472.241 458.4 472.127C458.523 472.005 458.693 471.944 458.911 471.944H462.045C463.041 471.944 463.81 472.18 464.352 472.652C464.894 473.124 465.165 473.792 465.165 474.658C465.165 475.217 465.042 475.698 464.798 476.1C464.553 476.502 464.195 476.807 463.723 477.017C463.259 477.227 462.7 477.332 462.045 477.332L462.163 477.148H462.503C462.853 477.148 463.155 477.236 463.408 477.411C463.67 477.585 463.906 477.865 464.116 478.25L465.243 480.347C465.331 480.504 465.37 480.657 465.361 480.806C465.361 480.946 465.309 481.059 465.204 481.147C465.108 481.234 464.968 481.278 464.785 481.278C464.592 481.278 464.435 481.238 464.313 481.16C464.199 481.072 464.094 480.946 463.998 480.78L462.621 478.236C462.438 477.896 462.228 477.668 461.992 477.555C461.756 477.432 461.446 477.371 461.061 477.371H459.58V480.583C459.58 480.801 459.523 480.972 459.41 481.094C459.296 481.217 459.126 481.278 458.898 481.278ZM459.58 476.349H461.822C462.486 476.349 462.989 476.209 463.329 475.929C463.67 475.649 463.841 475.234 463.841 474.684C463.841 474.142 463.67 473.731 463.329 473.451C462.989 473.172 462.486 473.032 461.822 473.032H459.58V476.349ZM469.793 481.304C469.094 481.304 468.491 481.173 467.984 480.911C467.486 480.64 467.097 480.26 466.817 479.77C466.546 479.272 466.411 478.682 466.411 478C466.411 477.336 466.546 476.755 466.817 476.257C467.088 475.759 467.459 475.37 467.931 475.09C468.403 474.81 468.941 474.671 469.544 474.671C469.989 474.671 470.387 474.745 470.737 474.894C471.086 475.033 471.383 475.243 471.628 475.523C471.882 475.794 472.069 476.126 472.192 476.519C472.323 476.912 472.388 477.354 472.388 477.843C472.388 477.992 472.345 478.105 472.257 478.184C472.17 478.254 472.039 478.289 471.864 478.289H467.459V477.476H471.497L471.274 477.66C471.274 477.223 471.209 476.851 471.078 476.545C470.955 476.239 470.767 476.008 470.514 475.851C470.269 475.684 469.963 475.601 469.596 475.601C469.185 475.601 468.836 475.698 468.547 475.89C468.268 476.082 468.054 476.349 467.905 476.69C467.756 477.03 467.682 477.428 467.682 477.882V477.961C467.682 478.73 467.861 479.311 468.22 479.705C468.587 480.089 469.115 480.281 469.806 480.281C470.068 480.281 470.343 480.247 470.632 480.177C470.929 480.107 471.209 479.989 471.471 479.823C471.619 479.735 471.75 479.696 471.864 479.705C471.986 479.713 472.083 479.753 472.153 479.823C472.231 479.893 472.279 479.98 472.297 480.085C472.314 480.19 472.297 480.299 472.244 480.413C472.192 480.517 472.1 480.614 471.969 480.701C471.672 480.902 471.327 481.055 470.933 481.16C470.54 481.256 470.16 481.304 469.793 481.304ZM472.809 483.677C472.652 483.686 472.525 483.659 472.429 483.598C472.324 483.537 472.254 483.458 472.219 483.362C472.176 483.266 472.163 483.166 472.18 483.061C472.189 482.965 472.233 482.877 472.311 482.798C472.381 482.729 472.477 482.689 472.6 482.681C473.037 482.654 473.356 482.536 473.557 482.327C473.766 482.117 473.871 481.785 473.871 481.33V475.365C473.871 475.147 473.928 474.981 474.042 474.867C474.164 474.754 474.33 474.697 474.54 474.697C474.758 474.697 474.92 474.754 475.025 474.867C475.139 474.981 475.195 475.147 475.195 475.365V481.225C475.195 481.767 475.104 482.213 474.92 482.563C474.745 482.921 474.483 483.187 474.133 483.362C473.784 483.537 473.343 483.642 472.809 483.677ZM474.54 473.36C474.278 473.36 474.072 473.294 473.924 473.163C473.784 473.032 473.714 472.848 473.714 472.612C473.714 472.368 473.784 472.184 473.924 472.062C474.072 471.931 474.278 471.865 474.54 471.865C474.802 471.865 475.003 471.931 475.143 472.062C475.283 472.184 475.353 472.368 475.353 472.612C475.353 472.848 475.283 473.032 475.143 473.163C475.003 473.294 474.802 473.36 474.54 473.36ZM480.06 481.304C479.361 481.304 478.758 481.173 478.251 480.911C477.753 480.64 477.364 480.26 477.084 479.77C476.813 479.272 476.678 478.682 476.678 478C476.678 477.336 476.813 476.755 477.084 476.257C477.355 475.759 477.727 475.37 478.199 475.09C478.671 474.81 479.208 474.671 479.811 474.671C480.257 474.671 480.654 474.745 481.004 474.894C481.354 475.033 481.651 475.243 481.895 475.523C482.149 475.794 482.337 476.126 482.459 476.519C482.59 476.912 482.656 477.354 482.656 477.843C482.656 477.992 482.612 478.105 482.525 478.184C482.437 478.254 482.306 478.289 482.131 478.289H477.727V477.476H481.764L481.542 477.66C481.542 477.223 481.476 476.851 481.345 476.545C481.223 476.239 481.035 476.008 480.781 475.851C480.536 475.684 480.231 475.601 479.864 475.601C479.453 475.601 479.103 475.698 478.815 475.89C478.535 476.082 478.321 476.349 478.172 476.69C478.024 477.03 477.95 477.428 477.95 477.882V477.961C477.95 478.73 478.129 479.311 478.487 479.705C478.854 480.089 479.383 480.281 480.073 480.281C480.335 480.281 480.611 480.247 480.899 480.177C481.196 480.107 481.476 479.989 481.738 479.823C481.887 479.735 482.018 479.696 482.131 479.705C482.254 479.713 482.35 479.753 482.42 479.823C482.498 479.893 482.547 479.98 482.564 480.085C482.582 480.19 482.564 480.299 482.512 480.413C482.459 480.517 482.367 480.614 482.236 480.701C481.939 480.902 481.594 481.055 481.201 481.16C480.807 481.256 480.427 481.304 480.06 481.304ZM486.918 481.304C486.262 481.304 485.694 481.169 485.214 480.898C484.742 480.618 484.375 480.229 484.112 479.731C483.85 479.224 483.719 478.63 483.719 477.948C483.719 477.441 483.793 476.987 483.942 476.585C484.091 476.174 484.3 475.829 484.571 475.549C484.851 475.269 485.187 475.055 485.581 474.907C485.983 474.749 486.428 474.671 486.918 474.671C487.224 474.671 487.543 474.719 487.875 474.815C488.216 474.902 488.53 475.051 488.819 475.261C488.932 475.33 489.002 475.418 489.028 475.523C489.063 475.619 489.068 475.719 489.042 475.824C489.024 475.929 488.976 476.021 488.897 476.1C488.827 476.169 488.74 476.213 488.635 476.231C488.53 476.239 488.417 476.209 488.294 476.139C488.085 475.99 487.87 475.885 487.652 475.824C487.433 475.754 487.224 475.719 487.023 475.719C486.708 475.719 486.428 475.772 486.184 475.877C485.948 475.973 485.747 476.117 485.581 476.309C485.415 476.493 485.288 476.724 485.2 477.004C485.122 477.284 485.082 477.603 485.082 477.961C485.082 478.678 485.249 479.241 485.581 479.652C485.921 480.054 486.402 480.255 487.023 480.255C487.224 480.255 487.433 480.225 487.652 480.164C487.87 480.102 488.085 479.997 488.294 479.849C488.417 479.779 488.53 479.753 488.635 479.77C488.74 479.788 488.823 479.836 488.884 479.914C488.954 479.984 488.998 480.072 489.015 480.177C489.042 480.273 489.037 480.373 489.002 480.478C488.967 480.583 488.893 480.67 488.779 480.74C488.5 480.941 488.194 481.086 487.862 481.173C487.538 481.26 487.224 481.304 486.918 481.304ZM492.958 481.304C492.434 481.304 491.993 481.212 491.634 481.029C491.276 480.845 491.009 480.574 490.835 480.216C490.66 479.858 490.572 479.421 490.572 478.905V475.811H489.786C489.611 475.811 489.476 475.767 489.379 475.68C489.283 475.584 489.235 475.457 489.235 475.3C489.235 475.134 489.283 475.007 489.379 474.92C489.476 474.832 489.611 474.789 489.786 474.789H490.572V473.438C490.572 473.22 490.629 473.054 490.743 472.94C490.865 472.827 491.031 472.77 491.241 472.77C491.451 472.77 491.612 472.827 491.726 472.94C491.84 473.054 491.896 473.22 491.896 473.438V474.789H493.43C493.605 474.789 493.74 474.832 493.837 474.92C493.933 475.007 493.981 475.134 493.981 475.3C493.981 475.457 493.933 475.584 493.837 475.68C493.74 475.767 493.605 475.811 493.43 475.811H491.896V478.8C491.896 479.263 491.993 479.613 492.185 479.849C492.386 480.085 492.709 480.203 493.155 480.203C493.312 480.203 493.448 480.19 493.561 480.164C493.684 480.129 493.784 480.107 493.863 480.098C493.959 480.098 494.038 480.133 494.099 480.203C494.16 480.264 494.191 480.386 494.191 480.57C494.191 480.701 494.164 480.823 494.112 480.937C494.068 481.051 493.985 481.125 493.863 481.16C493.758 481.195 493.614 481.225 493.43 481.252C493.255 481.287 493.098 481.304 492.958 481.304Z" fill="#607F98"/>
<rect x="537.369" y="459.48" width="108.153" height="34.4122" rx="1.63868" fill="#607F98"/>
<path d="M571.927 481.278C571.752 481.278 571.612 481.238 571.507 481.16C571.402 481.081 571.341 480.976 571.324 480.845C571.306 480.714 571.332 480.566 571.402 480.399L574.955 472.429C575.042 472.219 575.152 472.071 575.283 471.983C575.423 471.896 575.576 471.852 575.742 471.852C575.899 471.852 576.043 471.896 576.174 471.983C576.314 472.071 576.428 472.219 576.515 472.429L580.068 480.399C580.146 480.566 580.177 480.718 580.159 480.858C580.142 480.989 580.085 481.094 579.989 481.173C579.893 481.243 579.757 481.278 579.583 481.278C579.39 481.278 579.237 481.23 579.124 481.134C579.01 481.037 578.91 480.889 578.822 480.688L577.905 478.564L578.521 478.931H572.936L573.539 478.564L572.635 480.688C572.547 480.898 572.451 481.051 572.346 481.147C572.241 481.234 572.102 481.278 571.927 481.278ZM575.715 473.451L573.736 478.145L573.408 477.83H578.036L577.734 478.145L575.742 473.451H575.715ZM584.242 481.304C583.587 481.304 583.019 481.169 582.538 480.898C582.066 480.618 581.699 480.229 581.437 479.731C581.175 479.224 581.044 478.63 581.044 477.948C581.044 477.441 581.118 476.987 581.267 476.585C581.415 476.174 581.625 475.829 581.896 475.549C582.175 475.269 582.512 475.055 582.905 474.907C583.307 474.749 583.753 474.671 584.242 474.671C584.548 474.671 584.867 474.719 585.199 474.815C585.54 474.902 585.855 475.051 586.143 475.261C586.257 475.33 586.327 475.418 586.353 475.523C586.388 475.619 586.392 475.719 586.366 475.824C586.349 475.929 586.301 476.021 586.222 476.1C586.152 476.169 586.065 476.213 585.96 476.231C585.855 476.239 585.741 476.209 585.619 476.139C585.409 475.99 585.195 475.885 584.976 475.824C584.758 475.754 584.548 475.719 584.347 475.719C584.033 475.719 583.753 475.772 583.508 475.877C583.272 475.973 583.071 476.117 582.905 476.309C582.739 476.493 582.612 476.724 582.525 477.004C582.446 477.284 582.407 477.603 582.407 477.961C582.407 478.678 582.573 479.241 582.905 479.652C583.246 480.054 583.727 480.255 584.347 480.255C584.548 480.255 584.758 480.225 584.976 480.164C585.195 480.102 585.409 479.997 585.619 479.849C585.741 479.779 585.855 479.753 585.96 479.77C586.065 479.788 586.148 479.836 586.209 479.914C586.279 479.984 586.322 480.072 586.34 480.177C586.366 480.273 586.362 480.373 586.327 480.478C586.292 480.583 586.218 480.67 586.104 480.74C585.824 480.941 585.518 481.086 585.186 481.173C584.863 481.26 584.548 481.304 584.242 481.304ZM590.234 481.304C589.578 481.304 589.01 481.169 588.53 480.898C588.058 480.618 587.691 480.229 587.428 479.731C587.166 479.224 587.035 478.63 587.035 477.948C587.035 477.441 587.109 476.987 587.258 476.585C587.407 476.174 587.616 475.829 587.887 475.549C588.167 475.269 588.503 475.055 588.897 474.907C589.299 474.749 589.744 474.671 590.234 474.671C590.54 474.671 590.859 474.719 591.191 474.815C591.532 474.902 591.846 475.051 592.135 475.261C592.248 475.33 592.318 475.418 592.344 475.523C592.379 475.619 592.384 475.719 592.357 475.824C592.34 475.929 592.292 476.021 592.213 476.1C592.143 476.169 592.056 476.213 591.951 476.231C591.846 476.239 591.733 476.209 591.61 476.139C591.401 475.99 591.186 475.885 590.968 475.824C590.749 475.754 590.54 475.719 590.339 475.719C590.024 475.719 589.744 475.772 589.5 475.877C589.264 475.973 589.063 476.117 588.897 476.309C588.731 476.493 588.604 476.724 588.516 477.004C588.438 477.284 588.398 477.603 588.398 477.961C588.398 478.678 588.565 479.241 588.897 479.652C589.237 480.054 589.718 480.255 590.339 480.255C590.54 480.255 590.749 480.225 590.968 480.164C591.186 480.102 591.401 479.997 591.61 479.849C591.733 479.779 591.846 479.753 591.951 479.77C592.056 479.788 592.139 479.836 592.2 479.914C592.27 479.984 592.314 480.072 592.331 480.177C592.357 480.273 592.353 480.373 592.318 480.478C592.283 480.583 592.209 480.67 592.095 480.74C591.816 480.941 591.51 481.086 591.178 481.173C590.854 481.26 590.54 481.304 590.234 481.304ZM596.409 481.304C595.71 481.304 595.107 481.173 594.6 480.911C594.101 480.64 593.713 480.26 593.433 479.77C593.162 479.272 593.026 478.682 593.026 478C593.026 477.336 593.162 476.755 593.433 476.257C593.704 475.759 594.075 475.37 594.547 475.09C595.019 474.81 595.557 474.671 596.16 474.671C596.605 474.671 597.003 474.745 597.353 474.894C597.702 475.033 597.999 475.243 598.244 475.523C598.497 475.794 598.685 476.126 598.808 476.519C598.939 476.912 599.004 477.354 599.004 477.843C599.004 477.992 598.961 478.105 598.873 478.184C598.786 478.254 598.655 478.289 598.48 478.289H594.075V477.476H598.113L597.89 477.66C597.89 477.223 597.825 476.851 597.693 476.545C597.571 476.239 597.383 476.008 597.13 475.851C596.885 475.684 596.579 475.601 596.212 475.601C595.801 475.601 595.452 475.698 595.163 475.89C594.884 476.082 594.67 476.349 594.521 476.69C594.372 477.03 594.298 477.428 594.298 477.882V477.961C594.298 478.73 594.477 479.311 594.836 479.705C595.203 480.089 595.731 480.281 596.422 480.281C596.684 480.281 596.959 480.247 597.248 480.177C597.545 480.107 597.825 479.989 598.087 479.823C598.235 479.735 598.366 479.696 598.48 479.705C598.602 479.713 598.698 479.753 598.768 479.823C598.847 479.893 598.895 479.98 598.913 480.085C598.93 480.19 598.913 480.299 598.86 480.413C598.808 480.517 598.716 480.614 598.585 480.701C598.288 480.902 597.943 481.055 597.549 481.16C597.156 481.256 596.776 481.304 596.409 481.304ZM601.103 483.637C600.894 483.637 600.732 483.581 600.618 483.467C600.505 483.353 600.448 483.187 600.448 482.969V475.365C600.448 475.147 600.505 474.981 600.618 474.867C600.732 474.754 600.889 474.697 601.09 474.697C601.3 474.697 601.462 474.754 601.575 474.867C601.689 474.981 601.746 475.147 601.746 475.365V476.506L601.601 476.231C601.741 475.759 602.017 475.383 602.427 475.103C602.838 474.815 603.323 474.671 603.883 474.671C604.451 474.671 604.944 474.806 605.364 475.077C605.792 475.348 606.12 475.728 606.347 476.218C606.583 476.707 606.701 477.297 606.701 477.987C606.701 478.66 606.583 479.25 606.347 479.757C606.12 480.255 605.796 480.64 605.377 480.911C604.957 481.173 604.459 481.304 603.883 481.304C603.332 481.304 602.851 481.164 602.44 480.885C602.03 480.605 601.754 480.233 601.615 479.77H601.772V482.969C601.772 483.187 601.711 483.353 601.588 483.467C601.475 483.581 601.313 483.637 601.103 483.637ZM603.555 480.281C603.922 480.281 604.241 480.194 604.512 480.019C604.783 479.845 604.992 479.587 605.141 479.246C605.29 478.905 605.364 478.485 605.364 477.987C605.364 477.236 605.198 476.668 604.866 476.283C604.542 475.899 604.105 475.706 603.555 475.706C603.196 475.706 602.877 475.794 602.598 475.968C602.327 476.135 602.117 476.388 601.969 476.729C601.82 477.07 601.746 477.489 601.746 477.987C601.746 478.73 601.912 479.298 602.244 479.692C602.576 480.085 603.013 480.281 603.555 480.281ZM610.856 481.304C610.332 481.304 609.89 481.212 609.532 481.029C609.174 480.845 608.907 480.574 608.732 480.216C608.557 479.858 608.47 479.421 608.47 478.905V475.811H607.683C607.509 475.811 607.373 475.767 607.277 475.68C607.181 475.584 607.133 475.457 607.133 475.3C607.133 475.134 607.181 475.007 607.277 474.92C607.373 474.832 607.509 474.789 607.683 474.789H608.47V473.438C608.47 473.22 608.527 473.054 608.64 472.94C608.763 472.827 608.929 472.77 609.139 472.77C609.348 472.77 609.51 472.827 609.624 472.94C609.737 473.054 609.794 473.22 609.794 473.438V474.789H611.328C611.503 474.789 611.638 474.832 611.734 474.92C611.83 475.007 611.878 475.134 611.878 475.3C611.878 475.457 611.83 475.584 611.734 475.68C611.638 475.767 611.503 475.811 611.328 475.811H609.794V478.8C609.794 479.263 609.89 479.613 610.082 479.849C610.283 480.085 610.607 480.203 611.053 480.203C611.21 480.203 611.345 480.19 611.459 480.164C611.581 480.129 611.682 480.107 611.76 480.098C611.857 480.098 611.935 480.133 611.996 480.203C612.058 480.264 612.088 480.386 612.088 480.57C612.088 480.701 612.062 480.823 612.01 480.937C611.966 481.051 611.883 481.125 611.76 481.16C611.656 481.195 611.511 481.225 611.328 481.252C611.153 481.287 610.996 481.304 610.856 481.304Z" fill="white"/>
</g>
<g filter="url(#filter3_d_1844_7718)">
<rect x="272" y="547.371" width="514" height="122.96" rx="11.7124" fill="white"/>
<rect x="272.586" y="547.957" width="512.829" height="121.788" rx="11.1268" stroke="#DDF0FF" stroke-width="1.17124"/>
<rect x="309.48" y="584.851" width="390" height="16" rx="8" fill="#DDF0FF"/>
<rect x="309.48" y="616.851" width="292" height="16" rx="8" fill="#DDF0FF"/>
</g>
<defs>
<filter id="filter0_d_1844_7718" x="0.5" y="98" width="812" height="699" filterUnits="userSpaceOnUse" color-interpolation-filters="sRGB">
<feFlood flood-opacity="0" result="BackgroundImageFix"/>
<feColorMatrix in="SourceAlpha" type="matrix" values="0 0 0 0 0 0 0 0 0 0 0 0 0 0 0 0 0 0 127 0" result="hardAlpha"/>
<feOffset dx="-19" dy="4"/>
<feGaussianBlur stdDeviation="40"/>
<feComposite in2="hardAlpha" operator="out"/>
<feColorMatrix type="matrix" values="0 0 0 0 0.054902 0 0 0 0 0.231373 0 0 0 0 0.372549 0 0 0 0.12 0"/>
<feBlend mode="normal" in2="BackgroundImageFix" result="effect1_dropShadow_1844_7718"/>
<feBlend mode="normal" in="SourceGraphic" in2="effect1_dropShadow_1844_7718" result="shape"/>
</filter>
<filter id="filter1_di_1844_7718" x="-196.49" y="174" width="947.99" height="49.1583" filterUnits="userSpaceOnUse" color-interpolation-filters="sRGB">
<feFlood flood-opacity="0" result="BackgroundImageFix"/>
<feColorMatrix in="SourceAlpha" type="matrix" values="0 0 0 0 0 0 0 0 0 0 0 0 0 0 0 0 0 0 127 0" result="hardAlpha"/>
<feOffset dy="0.46007"/>
<feColorMatrix type="matrix" values="0 0 0 0 0 0 0 0 0 0 0 0 0 0 0 0 0 0 0.15 0"/>
<feBlend mode="normal" in2="BackgroundImageFix" result="effect1_dropShadow_1844_7718"/>
<feBlend mode="normal" in="SourceGraphic" in2="effect1_dropShadow_1844_7718" result="shape"/>
<feColorMatrix in="SourceAlpha" type="matrix" values="0 0 0 0 0 0 0 0 0 0 0 0 0 0 0 0 0 0 127 0" result="hardAlpha"/>
<feOffset dy="-0.46007"/>
<feComposite in2="hardAlpha" operator="arithmetic" k2="-1" k3="1"/>
<feColorMatrix type="matrix" values="0 0 0 0 0 0 0 0 0 0 0 0 0 0 0 0 0 0 0.05 0"/>
<feBlend mode="normal" in2="shape" result="effect2_innerShadow_1844_7718"/>
</filter>
<filter id="filter2_d_1844_7718" x="117.465" y="217.15" width="663.919" height="417.291" filterUnits="userSpaceOnUse" color-interpolation-filters="sRGB">
<feFlood flood-opacity="0" result="BackgroundImageFix"/>
<feColorMatrix in="SourceAlpha" type="matrix" values="0 0 0 0 0 0 0 0 0 0 0 0 0 0 0 0 0 0 127 0" result="hardAlpha"/>
<feOffset dx="23.4249" dy="28.1099"/>
<feGaussianBlur stdDeviation="37.4798"/>
<feComposite in2="hardAlpha" operator="out"/>
<feColorMatrix type="matrix" values="0 0 0 0 0.054902 0 0 0 0 0.231373 0 0 0 0 0.372549 0 0 0 0.12 0"/>
<feBlend mode="normal" in2="BackgroundImageFix" result="effect1_dropShadow_1844_7718"/>
<feBlend mode="normal" in="SourceGraphic" in2="effect1_dropShadow_1844_7718" result="shape"/>
</filter>
<filter id="filter3_d_1844_7718" x="220.465" y="500.521" width="663.919" height="272.879" filterUnits="userSpaceOnUse" color-interpolation-filters="sRGB">
<feFlood flood-opacity="0" result="BackgroundImageFix"/>
<feColorMatrix in="SourceAlpha" type="matrix" values="0 0 0 0 0 0 0 0 0 0 0 0 0 0 0 0 0 0 127 0" result="hardAlpha"/>
<feOffset dx="23.4249" dy="28.1099"/>
<feGaussianBlur stdDeviation="37.4798"/>
<feComposite in2="hardAlpha" operator="out"/>
<feColorMatrix type="matrix" values="0 0 0 0 0.054902 0 0 0 0 0.231373 0 0 0 0 0.372549 0 0 0 0.12 0"/>
<feBlend mode="normal" in2="BackgroundImageFix" result="effect1_dropShadow_1844_7718"/>
<feBlend mode="normal" in="SourceGraphic" in2="effect1_dropShadow_1844_7718" result="shape"/>
</filter>
<clipPath id="clip0_1844_7718">
<path d="M751.5 182C751.5 177.582 747.918 174 743.5 174H99.5V713H743.5C747.918 713 751.5 709.418 751.5 705V182Z" fill="white"/>
</clipPath>
</defs>
</svg>
