<svg width="180" height="180" viewBox="0 0 180 180" fill="none" xmlns="http://www.w3.org/2000/svg">
<path d="M84.8346 2.32157C87.8111 -0.214994 92.1889 -0.214998 95.1654 2.32157L116.021 20.0949C117.431 21.2963 119.184 22.0224 121.03 22.1697L148.346 24.3495C152.244 24.6606 155.339 27.7562 155.651 31.6545L157.83 58.9696C157.978 60.816 158.704 62.5688 159.905 63.9786L177.678 84.8346C180.215 87.8111 180.215 92.1889 177.678 95.1654L159.905 116.021C158.704 117.431 157.978 119.184 157.83 121.03L155.651 148.346C155.339 152.244 152.244 155.339 148.346 155.651L121.03 157.83C119.184 157.978 117.431 158.704 116.021 159.905L95.1654 177.678C92.1889 180.215 87.8111 180.215 84.8346 177.678L63.9786 159.905C62.5688 158.704 60.816 157.978 58.9696 157.83L31.6545 155.651C27.7562 155.339 24.6606 152.244 24.3495 148.346L22.1697 121.03C22.0224 119.184 21.2963 117.431 20.0949 116.021L2.32157 95.1654C-0.214995 92.1889 -0.214998 87.8111 2.32157 84.8346L20.0949 63.9786C21.2963 62.5688 22.0224 60.816 22.1697 58.9696L24.3495 31.6545C24.6606 27.7562 27.7562 24.6606 31.6545 24.3495L58.9696 22.1697C60.816 22.0224 62.5688 21.2963 63.9786 20.0949L84.8346 2.32157Z" stroke="#F5F5F5" stroke-width="0.83829"/>
<path d="M80.1828 92.0411C78.9717 92.0411 77.8746 91.8305 76.8917 91.4092C75.9087 90.9704 75.1189 90.3034 74.5221 89.4082C73.9253 88.513 73.6093 87.3897 73.5742 86.0381H76.8917C76.9092 86.9333 77.1989 87.688 77.7605 88.3024C78.3398 88.8992 79.1472 89.1976 80.1828 89.1976C81.1658 89.1976 81.9205 88.9255 82.4471 88.3814C82.9737 87.8372 83.237 87.1527 83.237 86.3277C83.237 85.3623 82.8859 84.6339 82.1838 84.1424C81.4993 83.6334 80.6129 83.3789 79.5246 83.3789H78.1555V80.6143H79.5509C80.4461 80.6143 81.1921 80.4037 81.7889 79.9824C82.3857 79.5611 82.6841 78.938 82.6841 78.113C82.6841 77.4285 82.4559 76.8844 81.9995 76.4806C81.5607 76.0594 80.9464 75.8487 80.1565 75.8487C79.2964 75.8487 78.6206 76.1033 78.1291 76.6123C77.6552 77.1213 77.3919 77.7444 77.3393 78.4817H74.0481C74.1184 76.779 74.7064 75.4363 75.8122 74.4533C76.9356 73.4704 78.3837 72.9789 80.1565 72.9789C81.4203 72.9789 82.4822 73.2071 83.3423 73.6634C84.2199 74.1023 84.8782 74.6903 85.317 75.4275C85.7733 76.1647 86.0015 76.9809 86.0015 77.8761C86.0015 78.9117 85.7119 79.7893 85.1327 80.509C84.571 81.2111 83.8689 81.685 83.0264 81.9308C84.062 82.1414 84.9045 82.6504 85.5539 83.4578C86.2034 84.2477 86.5281 85.2482 86.5281 86.4594C86.5281 87.4774 86.2824 88.4077 85.7909 89.2502C85.2994 90.0928 84.5798 90.7685 83.6319 91.2776C82.7016 91.7866 81.5519 92.0411 80.1828 92.0411Z" fill="#F5F5F5"/>
<path d="M97.3942 92.0411C95.6916 92.0411 94.2347 91.6462 93.0236 90.8563C91.8124 90.0489 90.8734 88.9343 90.2064 87.5125C89.5569 86.0732 89.2322 84.4057 89.2322 82.51C89.2322 80.6319 89.5569 78.9731 90.2064 77.5338C90.8734 76.0945 91.8124 74.9799 93.0236 74.19C94.2347 73.3826 95.6916 72.9789 97.3942 72.9789C99.0968 72.9789 100.554 73.3826 101.765 74.19C102.976 74.9799 103.906 76.0945 104.556 77.5338C105.223 78.9731 105.556 80.6319 105.556 82.51C105.556 84.4057 105.223 86.0732 104.556 87.5125C103.906 88.9343 102.976 90.0489 101.765 90.8563C100.554 91.6462 99.0968 92.0411 97.3942 92.0411ZM97.3942 89.0133C98.7809 89.0133 99.913 88.434 100.791 87.2756C101.668 86.1171 102.107 84.5286 102.107 82.51C102.107 80.4914 101.668 78.9029 100.791 77.7444C99.913 76.586 98.7809 76.0067 97.3942 76.0067C95.99 76.0067 94.8491 76.586 93.9714 77.7444C93.1113 78.9029 92.6813 80.4914 92.6813 82.51C92.6813 84.5286 93.1113 86.1171 93.9714 87.2756C94.8491 88.434 95.99 89.0133 97.3942 89.0133Z" fill="#F5F5F5"/>
<path d="M73.9648 107.646V95.558H78.0921C79.5082 95.558 80.6709 95.8113 81.5804 96.3178C82.5014 96.8129 83.1807 97.5151 83.6182 98.4246C84.0672 99.3226 84.2917 100.382 84.2917 101.602C84.2917 102.822 84.0672 103.887 83.6182 104.797C83.1807 105.695 82.5014 106.397 81.5804 106.904C80.6709 107.399 79.5082 107.646 78.0921 107.646H73.9648ZM76.1753 105.747H77.9885C79.0016 105.747 79.8017 105.585 80.3889 105.263C80.976 104.929 81.3962 104.457 81.6495 103.847C81.9028 103.225 82.0294 102.477 82.0294 101.602C82.0294 100.739 81.9028 99.9961 81.6495 99.3744C81.3962 98.7527 80.976 98.275 80.3889 97.9411C79.8017 97.6072 79.0016 97.4403 77.9885 97.4403H76.1753V105.747Z" fill="#F5F5F5"/>
<path d="M84.6891 107.646L89.11 95.558H91.5967L96.0175 107.646H93.669L92.7019 104.849H87.9875L87.0032 107.646H84.6891ZM88.5919 103.122H92.0975L90.3361 98.0965L88.5919 103.122Z" fill="#F5F5F5"/>
<path d="M99.3006 107.646V103.346L95.2425 95.558H97.7464L100.423 101.136L103.083 95.558H105.552L101.511 103.346V107.646H99.3006Z" fill="#F5F5F5"/>
<path d="M48.5557 54.6749L43.9318 50.1571L44.8133 49.2886L50.0368 50.5453L49.5698 51.0055L48.2341 45.9181L49.109 45.056L53.7461 49.5608L52.7462 50.5461L49.6548 47.5385L49.839 47.3571L50.8956 51.4102L50.4154 51.8833L46.2471 50.896L46.4708 50.6757L49.5556 53.6897L48.5557 54.6749Z" fill="#F5F5F5"/>
<path d="M60.0408 45.1506C59.6105 45.4263 59.1653 45.6129 58.7051 45.7104C58.2502 45.8046 57.8043 45.8124 57.3676 45.734C56.9361 45.6523 56.5325 45.4905 56.157 45.2486C55.7867 45.0033 55.4685 44.6808 55.2024 44.2811C54.9363 43.8813 54.7632 43.4658 54.6832 43.0346C54.6084 42.6 54.6222 42.1707 54.7245 41.7469C54.8269 41.323 55.0135 40.9256 55.2842 40.5547C55.555 40.1838 55.9029 39.8622 56.328 39.5898C56.7582 39.3141 57.1982 39.1308 57.648 39.04C58.103 38.9458 58.5462 38.9396 58.9778 39.0213C59.4145 39.0997 59.8206 39.2599 60.1961 39.5018C60.5682 39.7386 60.889 40.0594 61.1585 40.4643C61.4246 40.8641 61.5968 41.2838 61.6751 41.7235C61.7499 42.1581 61.7361 42.5873 61.6337 43.0112C61.5331 43.4266 61.3474 43.8198 61.0767 44.1907C60.8111 44.5583 60.4658 44.8782 60.0408 45.1506ZM59.3268 44.0947C59.5704 43.9386 59.766 43.7548 59.9136 43.5432C60.0664 43.3283 60.1693 43.0942 60.2225 42.8408C60.2756 42.5874 60.2738 42.329 60.2168 42.0658C60.1651 41.7992 60.0539 41.5377 59.8833 41.2815C59.7127 41.0252 59.5134 40.8203 59.2854 40.6666C59.0626 40.5096 58.8223 40.4041 58.5644 40.35C58.3118 40.2926 58.0544 40.2893 57.7925 40.3402C57.5306 40.391 57.2778 40.4945 57.0342 40.6507C56.7905 40.8068 56.5923 40.9923 56.4396 41.2072C56.292 41.4187 56.1916 41.6512 56.1385 41.9046C56.0853 42.158 56.0846 42.418 56.1363 42.6846C56.1933 42.9479 56.307 43.2077 56.4776 43.4639C56.6448 43.715 56.8415 43.9217 57.0677 44.0838C57.2957 44.2374 57.536 44.343 57.7887 44.4004C58.0466 44.4545 58.3065 44.4561 58.5684 44.4052C58.8304 44.3543 59.0831 44.2508 59.3268 44.0947Z" fill="#F5F5F5"/>
<path d="M67.0709 41.1048L64.6313 35.1182L65.7833 34.6663L71.0905 37.5837L70.5317 37.8029L68.7752 33.4926L70.1508 32.953L72.5903 38.9396L71.4469 39.3881L66.1311 36.474L66.69 36.2548L68.4465 40.5652L67.0709 41.1048Z" fill="#F5F5F5"/>
<path d="M77.7735 33.5696L80.827 32.9679L81.0604 34.1079L78.0069 34.7096L77.7735 33.5696ZM78.4157 36.1539L81.8678 35.4736L82.1086 36.6498L77.1976 37.6176L75.9012 31.2843L80.6943 30.3397L80.9351 31.5159L77.6007 32.173L78.4157 36.1539Z" fill="#F5F5F5"/>
<path d="M88.2101 36.1192L88.138 33.479L88.5043 34.3747L85.5318 29.7228L87.1197 29.6811L89.3975 33.2518L88.4835 33.2759L90.5724 29.5903L92.0403 29.5517L89.3259 34.3531L89.6335 33.4396L89.7056 36.0799L88.2101 36.1192Z" fill="#F5F5F5"/>
<path d="M102.01 37.136L103.684 30.8918L106.742 31.6809C107.529 31.8839 108.079 32.1849 108.393 32.5837C108.713 32.9841 108.807 33.4281 108.676 33.9158C108.589 34.2429 108.432 34.5075 108.205 34.7098C107.981 34.9062 107.711 35.0336 107.395 35.0922C107.08 35.1507 106.741 35.1331 106.377 35.0392L106.645 34.7173C107.038 34.8188 107.37 34.9742 107.639 35.1835C107.909 35.3868 108.094 35.6349 108.194 35.9278C108.3 36.2221 108.305 36.5507 108.208 36.9135C108.064 37.4487 107.74 37.8133 107.236 38.0074C106.733 38.1956 106.07 38.1835 105.247 37.9712L102.01 37.136ZM103.741 36.4192L105.431 36.8553C105.807 36.9522 106.106 36.9658 106.329 36.896C106.559 36.8219 106.71 36.6511 106.782 36.3834C106.852 36.1218 106.805 35.9031 106.642 35.7275C106.486 35.5474 106.221 35.409 105.845 35.3121L104.048 34.8483L104.33 33.7957L105.877 34.1949C106.228 34.2856 106.513 34.2954 106.729 34.2241C106.954 34.1484 107.099 33.9857 107.166 33.736C107.232 33.4921 107.185 33.2861 107.026 33.118C106.875 32.9454 106.623 32.8138 106.271 32.723L104.832 32.3516L103.741 36.4192Z" fill="#F5F5F5"/>
<path d="M110.935 39.6559L116.344 35.0319L117.686 35.6506L117.519 42.6912L116.093 42.0339L116.411 35.8966L116.948 36.1441L112.328 40.2978L110.935 39.6559ZM112.842 39.0097L113.693 38.1515L116.713 39.5435L116.591 40.7381L112.842 39.0097Z" fill="#F5F5F5"/>
<path d="M123.174 46.4431C122.766 46.1564 122.433 45.8246 122.175 45.4475C121.925 45.069 121.761 44.6677 121.682 44.2435C121.603 43.8193 121.61 43.3918 121.703 42.9609C121.802 42.5336 121.995 42.1235 122.281 41.7306C122.568 41.3377 122.902 41.0267 123.282 40.7976C123.668 40.572 124.078 40.4276 124.513 40.3644C124.953 40.3048 125.394 40.3324 125.836 40.4473C126.281 40.5573 126.71 40.7574 127.124 41.0476C127.582 41.3697 127.937 41.7395 128.189 42.157C128.449 42.5731 128.594 43.0213 128.625 43.5016L127.316 43.6656C127.284 43.3343 127.193 43.041 127.044 42.7858C126.898 42.5257 126.695 42.3036 126.433 42.1195C126.186 41.9461 125.93 41.8266 125.666 41.761C125.401 41.6955 125.139 41.6842 124.879 41.7273C124.619 41.7703 124.371 41.8636 124.137 42.0074C123.907 42.1546 123.702 42.3526 123.521 42.6013C123.339 42.8499 123.214 43.1045 123.146 43.365C123.083 43.6291 123.072 43.8888 123.115 44.1442C123.157 44.3996 123.252 44.6396 123.401 44.8643C123.549 45.089 123.747 45.288 123.994 45.4615C124.256 45.6455 124.534 45.7657 124.828 45.8219C125.126 45.8732 125.442 45.8582 125.776 45.7767L126.039 47.045C125.565 47.1714 125.084 47.1832 124.595 47.0804C124.112 46.9812 123.638 46.7687 123.174 46.4431Z" fill="#F5F5F5"/>
<path d="M130.75 50.5909L131.946 49.3448L136.483 49.3108L137.648 50.4964L133.513 50.57L132.286 50.5865L130.75 50.5909ZM128.738 50.6514L133.434 46.2085L134.476 47.2689L129.78 51.7119L128.738 50.6514ZM131.839 53.8064L132.273 50.2305L133.731 50.1988L133.062 55.0512L131.839 53.8064Z" fill="#F5F5F5"/>
<path d="M53.2891 135.576C52.9254 135.217 52.6474 134.83 52.4552 134.416C52.2718 134.001 52.1741 133.576 52.1622 133.141C52.1546 132.71 52.2327 132.289 52.3965 131.88C52.5646 131.475 52.8228 131.103 53.1709 130.763C53.5191 130.424 53.8999 130.173 54.3135 130.01C54.7314 129.852 55.1623 129.78 55.6061 129.794C56.05 129.808 56.4825 129.91 56.9039 130.101C57.3297 130.288 57.7266 130.563 58.0947 130.926C58.5023 131.328 58.7999 131.756 58.9876 132.209C59.1797 132.667 59.2575 133.133 59.2209 133.607L57.9027 133.552C57.9124 133.215 57.8606 132.909 57.7471 132.633C57.638 132.352 57.4673 132.097 57.2351 131.868C57.0116 131.648 56.7725 131.481 56.518 131.368C56.2634 131.255 56.0021 131.196 55.734 131.191C55.4703 131.19 55.2109 131.241 54.9557 131.344C54.7049 131.451 54.4693 131.612 54.249 131.827C54.0331 132.038 53.8698 132.266 53.7592 132.511C53.6531 132.761 53.5974 133.018 53.5923 133.281C53.5959 133.544 53.6523 133.798 53.7615 134.044C53.875 134.295 54.0414 134.528 54.2605 134.744C54.4708 134.952 54.7077 135.121 54.971 135.251C55.2431 135.381 55.5549 135.459 55.9064 135.486L55.7378 136.838C55.2985 136.776 54.8616 136.63 54.4272 136.401C53.9971 136.175 53.6178 135.9 53.2891 135.576ZM54.9037 135.742L56.6422 134.046L57.6151 135.006L55.7378 136.838L54.9037 135.742Z" fill="#F5F5F5"/>
<path d="M61.2151 141.99C60.4446 141.492 59.9845 140.891 59.8349 140.186C59.6853 139.481 59.8747 138.735 60.4031 137.948L62.4206 134.942L63.6772 135.754L61.6906 138.713C61.3475 139.225 61.2065 139.661 61.2675 140.023C61.3286 140.385 61.5504 140.69 61.9331 140.937C62.3158 141.184 62.6886 141.264 63.0516 141.176C63.4146 141.088 63.7676 140.788 64.1107 140.277L66.0974 137.317L67.3385 138.119L65.321 141.125C64.7926 141.912 64.1688 142.378 63.4496 142.521C62.7305 142.665 61.9856 142.488 61.2151 141.99Z" fill="#F5F5F5"/>
<path d="M67.6508 145.629L72.7531 140.675L74.1307 141.209L74.4097 148.25L72.946 147.683L72.8748 141.534L73.4258 141.748L69.0801 146.183L67.6508 145.629ZM69.5117 144.865L70.3064 143.955L73.4061 145.157L73.3604 146.358L69.5117 144.865Z" fill="#F5F5F5"/>
<path d="M78.3996 149.313L79.5556 142.952L82.3119 143.434C82.882 143.534 83.3562 143.714 83.7344 143.974C84.1138 144.228 84.3843 144.547 84.5459 144.932C84.7076 145.316 84.7449 145.748 84.6579 146.226C84.5721 146.699 84.3856 147.088 84.0984 147.394C83.8124 147.694 83.4466 147.899 83.0012 148.008C82.5558 148.118 82.048 148.123 81.478 148.023L79.5403 147.684L80.3125 147.154L79.8733 149.57L78.3996 149.313ZM82.4477 150.021L81.2752 147.434L82.849 147.71L84.0397 150.299L82.4477 150.021ZM80.2828 147.317L79.7534 146.512L81.6091 146.837C82.064 146.916 82.4212 146.879 82.6808 146.724C82.9415 146.563 83.1033 146.311 83.166 145.965C83.2299 145.614 83.1672 145.322 82.9781 145.089C82.7889 144.855 82.4669 144.699 82.0121 144.62L80.1563 144.295L80.9384 143.71L80.2828 147.317Z" fill="#F5F5F5"/>
<path d="M87.9999 150.678L90.7255 144.149L92.2027 144.115L95.2475 150.511L93.678 150.547L91.1776 144.896L91.7685 144.883L89.5325 150.643L87.9999 150.678ZM89.407 149.26L89.7767 148.116L93.1005 148.039L93.534 149.165L89.407 149.26Z" fill="#F5F5F5"/>
<path d="M99.3623 149.956L97.8655 143.667L99.0717 143.39L103.867 147.067L103.282 147.201L102.204 142.673L103.645 142.343L105.141 148.632L103.944 148.906L99.1397 145.232L99.7249 145.098L100.803 149.626L99.3623 149.956Z" fill="#F5F5F5"/>
<path d="M111.289 146.38L109.099 141.614L107.207 142.451L106.698 141.343L111.85 139.064L112.359 140.172L110.467 141.009L112.657 145.775L111.289 146.38Z" fill="#F5F5F5"/>
<path d="M117.264 138.869L119.838 137.12L120.509 138.07L117.935 139.82L117.264 138.869ZM118.89 140.98L121.8 139.002L122.492 139.982L118.353 142.796L114.624 137.516L118.664 134.769L119.357 135.75L116.546 137.66L118.89 140.98Z" fill="#F5F5F5"/>
<path d="M124.408 133.233L126.61 131.034L127.448 131.841L125.245 134.04L124.408 133.233ZM126.401 135.001L128.891 132.515L129.755 133.348L126.213 136.884L121.559 132.397L125.016 128.946L125.881 129.779L123.475 132.18L126.401 135.001Z" fill="#F5F5F5"/>
<mask id="path-22-inside-1_1844_7356" fill="white">
<path d="M145.01 116.813C148.778 109.742 151.089 102.012 151.811 94.0641C152.534 86.1163 151.654 78.1067 149.222 70.4926L148.516 70.7096C150.919 78.2328 151.789 86.1467 151.075 93.9995C150.361 101.852 148.077 109.49 144.354 116.477L145.01 116.813Z"/>
</mask>
<path d="M145.01 116.813C148.778 109.742 151.089 102.012 151.811 94.0641C152.534 86.1163 151.654 78.1067 149.222 70.4926L148.516 70.7096C150.919 78.2328 151.789 86.1467 151.075 93.9995C150.361 101.852 148.077 109.49 144.354 116.477L145.01 116.813Z" stroke="#D9D9D9" stroke-width="1.19249" mask="url(#path-22-inside-1_1844_7356)"/>
<mask id="path-23-inside-2_1844_7356" fill="white">
<path d="M31.1129 69.9934C26.0269 85.3162 27.3531 101.994 34.7997 116.357L35.4591 116.028C28.1014 101.836 26.791 85.358 31.8163 70.2181L31.1129 69.9934Z"/>
</mask>
<path d="M31.1129 69.9934C26.0269 85.3162 27.3531 101.994 34.7997 116.357L35.4591 116.028C28.1014 101.836 26.791 85.358 31.8163 70.2181L31.1129 69.9934Z" stroke="#D9D9D9" stroke-width="1.19249" mask="url(#path-23-inside-2_1844_7356)"/>
</svg>
