<svg width="1832" height="1172" viewBox="0 0 1832 1172" fill="none" xmlns="http://www.w3.org/2000/svg">
<g clip-path="url(#clip0_1844_10369)">
<rect width="1832" height="1172" rx="16" fill="url(#paint0_radial_1844_10369)"/>
<path d="M118.999 1109.49C118.999 1113.35 115.813 1116.51 111.927 1116.51H62.6227C58.7367 1116.51 55.5508 1113.35 55.5508 1109.49V1060.52C55.5508 1056.66 58.7367 1053.5 62.6227 1053.5H111.927C115.813 1053.5 118.999 1056.66 118.999 1060.52V1109.49Z" fill="#FCFEFF"/>
<path d="M55.0001 1172.06C55.0001 1175.95 51.7865 1179.13 47.8667 1179.13H-1.86654C-5.78637 1179.13 -9 1175.95 -9 1172.06V1122.74C-9 1118.85 -5.78637 1115.66 -1.86654 1115.66H47.8667C51.7865 1115.66 55.0001 1118.85 55.0001 1122.74V1172.06Z" fill="#FCFEFF"/>
<path d="M1837 46.4866C1837 50.346 1833.81 53.5098 1829.93 53.5098H1780.62C1776.74 53.5098 1773.55 50.346 1773.55 46.4866V-2.47701C1773.55 -6.33619 1776.74 -9.5 1780.62 -9.5H1829.93C1833.81 -9.5 1837 -6.33619 1837 -2.47701V46.4866Z" fill="#FCFEFF"/>
<path d="M1773 109.06C1773 112.948 1769.79 116.134 1765.87 116.134H1716.13C1712.21 116.134 1709 112.948 1709 109.06V59.7382C1709 55.851 1712.21 52.6641 1716.13 52.6641H1765.87C1769.79 52.6641 1773 55.851 1773 59.7382V109.06Z" fill="#FCFEFF"/>
<mask id="path-6-inside-1_1844_10369" fill="white">
<path d="M-10 1071.7H45V1125.7H8C-1.94113 1125.7 -10 1117.64 -10 1107.7V1071.7Z"/>
</mask>
<path d="M-10 1071.7H45H-10ZM45 1135.7H8C-7.46397 1135.7 -20 1123.16 -20 1107.7H0C0 1112.12 3.58172 1115.7 8 1115.7H45V1135.7ZM8 1135.7C-7.46397 1135.7 -20 1123.16 -20 1107.7V1071.7H0V1107.7C0 1112.12 3.58172 1115.7 8 1115.7V1135.7ZM45 1071.7V1125.7V1071.7Z" fill="#FCFEFF" mask="url(#path-6-inside-1_1844_10369)"/>
<mask id="path-8-inside-2_1844_10369" fill="white">
<path d="M45 1128H100V1182H63C53.0589 1182 45 1173.94 45 1164V1128Z"/>
</mask>
<path d="M45 1128H100H45ZM100 1192H63C47.536 1192 35 1179.46 35 1164H55C55 1168.42 58.5817 1172 63 1172H100V1192ZM63 1192C47.536 1192 35 1179.46 35 1164V1128H55V1164C55 1168.42 58.5817 1172 63 1172V1192ZM100 1128V1182V1128Z" fill="#FCFEFF" mask="url(#path-8-inside-2_1844_10369)"/>
<mask id="path-10-inside-3_1844_10369" fill="white">
<path d="M1841.98 97.5H1786.98V43.5H1823.98C1833.92 43.5 1841.98 51.5589 1841.98 61.5V97.5Z"/>
</mask>
<path d="M1841.98 97.5H1786.98H1841.98ZM1786.98 33.5H1823.98C1839.44 33.5 1851.98 46.036 1851.98 61.5H1831.98C1831.98 57.0817 1828.4 53.5 1823.98 53.5H1786.98V33.5ZM1823.98 33.5C1839.44 33.5 1851.98 46.036 1851.98 61.5V97.5H1831.98V61.5C1831.98 57.0817 1828.4 53.5 1823.98 53.5V33.5ZM1786.98 97.5V43.5V97.5Z" fill="#FCFEFF" mask="url(#path-10-inside-3_1844_10369)"/>
<mask id="path-12-inside-4_1844_10369" fill="white">
<path d="M1783.6 44H1728.6V-10H1765.6C1775.54 -10 1783.6 -1.94112 1783.6 8V44Z"/>
</mask>
<path d="M1783.6 44H1728.6H1783.6ZM1728.6 -20H1765.6C1781.06 -20 1793.6 -7.46397 1793.6 8H1773.6C1773.6 3.58172 1770.02 0 1765.6 0H1728.6V-20ZM1765.6 -20C1781.06 -20 1793.6 -7.46397 1793.6 8V44H1773.6V8C1773.6 3.58172 1770.02 0 1765.6 0V-20ZM1728.6 44V-10V44Z" fill="#FCFEFF" mask="url(#path-12-inside-4_1844_10369)"/>
</g>
<defs>
<radialGradient id="paint0_radial_1844_10369" cx="0" cy="0" r="1" gradientUnits="userSpaceOnUse" gradientTransform="translate(916 586) rotate(90) scale(586 803.095)">
<stop stop-color="#0D2759"/>
<stop offset="1" stop-color="#01112D"/>
</radialGradient>
<clipPath id="clip0_1844_10369">
<rect width="1832" height="1172" rx="16" fill="white"/>
</clipPath>
</defs>
</svg>
