<svg width="813" height="894" viewBox="0 0 813 894" fill="none" xmlns="http://www.w3.org/2000/svg">
<rect x="99.5" y="90" width="578" height="706" rx="16" fill="#F0F7FD"/>
<path fill-rule="evenodd" clip-rule="evenodd" d="M442.192 746.991C436.093 746.991 431.572 741.983 431.572 736.549V625.871C431.572 620.438 436.092 615.429 442.192 615.429H551.59C557.689 615.429 562.21 620.438 562.21 625.871V736.549C562.21 741.983 557.689 746.991 551.59 746.991H442.192ZM442.192 752.425C433.569 752.425 426.5 745.273 426.5 736.549V625.871C426.5 617.148 433.569 609.996 442.192 609.996H551.59C560.212 609.996 567.281 617.148 567.281 625.871V736.549C567.281 745.273 560.212 752.425 551.59 752.425H442.192Z" fill="#FCFEFF"/>
<path fill-rule="evenodd" clip-rule="evenodd" d="M584.323 888.567C578.141 888.567 573.566 883.5 573.566 878.01V766.522C573.566 761.032 578.142 755.965 584.323 755.965H694.672C700.853 755.965 705.429 761.032 705.429 766.522V878.01C705.429 883.5 700.853 888.567 694.672 888.567H584.323ZM584.323 894C575.625 894 568.495 886.797 568.495 878.01V766.522C568.495 757.735 575.625 750.531 584.323 750.531H694.672C703.37 750.531 710.5 757.735 710.5 766.522V878.01C710.5 886.797 703.37 894 694.672 894H584.323Z" fill="#FCFEFF"/>
<path fill-rule="evenodd" clip-rule="evenodd" d="M72.1918 136.991C66.0926 136.991 61.5718 131.983 61.5718 126.549V15.871C61.5718 10.4376 66.0925 5.42947 72.1918 5.42947H181.59C187.689 5.42947 192.21 10.4376 192.21 15.871V126.549C192.21 131.983 187.689 136.991 181.59 136.991H72.1918ZM72.1918 142.425C63.5694 142.425 56.5003 135.273 56.5003 126.549V15.871C56.5003 7.14764 63.5694 -0.00390625 72.1918 -0.00390625H181.59C190.212 -0.00390625 197.281 7.14764 197.281 15.871V126.549C197.281 135.273 190.212 142.425 181.59 142.425H72.1918Z" fill="#FCFEFF"/>
<path fill-rule="evenodd" clip-rule="evenodd" d="M214.323 278.567C208.141 278.567 203.566 273.5 203.566 268.01V156.522C203.566 151.032 208.142 145.965 214.323 145.965H324.672C330.853 145.965 335.429 151.032 335.429 156.522V268.01C335.429 273.5 330.853 278.567 324.672 278.567H214.323ZM214.323 284C205.625 284 198.495 276.797 198.495 268.01V156.522C198.495 147.735 205.625 140.531 214.323 140.531H324.672C333.37 140.531 340.5 147.735 340.5 156.522V268.01C340.5 276.797 333.37 284 324.672 284H214.323Z" fill="#FCFEFF"/>
<g filter="url(#filter0_d_1844_7476)">
<g clip-path="url(#clip0_1844_7476)">
<path d="M751.5 223H-196.5V705C-196.5 709.418 -192.918 713 -188.5 713H743.5C747.918 713 751.5 709.418 751.5 705V223Z" fill="white"/>
<g filter="url(#filter1_di_1844_7476)">
<path d="M751.5 182C751.5 177.582 747.918 174 743.5 174H-188.491C-192.909 174 -196.491 177.582 -196.491 182V222.698H751.5V182Z" fill="#01112D"/>
<path d="M649.408 199.001H663.655" stroke="#F0F7FD" stroke-width="0.94977" stroke-linecap="round"/>
<rect x="684.129" y="193.778" width="10.4475" height="10.4475" rx="0.474885" stroke="#F0F7FD" stroke-width="0.94977"/>
<path d="M715.287 193.778L725.501 204.225" stroke="#F0F7FD" stroke-width="0.94977" stroke-linecap="round"/>
<path d="M725.266 193.778L715.052 204.225" stroke="#F0F7FD" stroke-width="0.94977" stroke-linecap="round"/>
<rect x="682.129" y="195.778" width="10.4475" height="10.4475" rx="0.474885" fill="#01112D" stroke="#F0F7FD" stroke-width="0.94977"/>
</g>
<path d="M394.75 279.125V271.312C394.75 263.531 401.031 257.25 408.812 257.25H416.625" stroke="#608098" stroke-width="4" stroke-linecap="round" stroke-linejoin="round"/>
<path d="M435.375 257.25H443.188C450.969 257.25 457.25 263.531 457.25 271.312V279.125" stroke="#608098" stroke-width="4" stroke-linecap="round" stroke-linejoin="round"/>
<path d="M457.25 301V305.688C457.25 313.469 450.969 319.75 443.188 319.75H438.5" stroke="#608098" stroke-width="4" stroke-linecap="round" stroke-linejoin="round"/>
<path d="M416.625 319.75H408.812C401.031 319.75 394.75 313.469 394.75 305.688V297.875" stroke="#608098" stroke-width="4" stroke-linecap="round" stroke-linejoin="round"/>
<path d="M441.625 280.688V296.312C441.625 302.562 438.5 305.688 432.25 305.688H419.75C413.5 305.688 410.375 302.562 410.375 296.312V280.688C410.375 274.438 413.5 271.312 419.75 271.312H432.25C438.5 271.312 441.625 274.438 441.625 280.688Z" stroke="#608098" stroke-width="4" stroke-linecap="round" stroke-linejoin="round"/>
<path d="M447.875 288.5H404.125" stroke="#608098" stroke-width="4" stroke-linecap="round" stroke-linejoin="round"/>
<rect x="231" y="362" width="390" height="16" rx="8" fill="#DDF0FF"/>
<rect x="303.5" y="394" width="245" height="16" rx="8" fill="#DDF0FF"/>
<g filter="url(#filter2_d_1844_7476)">
<rect x="169" y="434" width="514" height="227.317" rx="8" fill="white"/>
<rect x="169.586" y="434.586" width="512.829" height="226.146" rx="7.41438" stroke="#DDF0FF" stroke-width="1.17124"/>
<rect x="195" y="460" width="390" height="16" rx="8" fill="#DDF0FF"/>
<rect x="195" y="492" width="292" height="16" rx="8" fill="#DDF0FF"/>
<rect x="195" y="524" width="343" height="16" rx="8" fill="#DDF0FF"/>
<rect x="433.427" y="601.314" width="107.333" height="33.5929" rx="1.22901" stroke="#607F98" stroke-width="0.819338"/>
<path d="M470.377 622.703C470.158 622.703 469.988 622.641 469.866 622.519C469.752 622.397 469.695 622.226 469.695 622.008V614.064C469.695 613.836 469.756 613.666 469.879 613.552C470.001 613.43 470.172 613.369 470.39 613.369H473.523C474.519 613.369 475.289 613.605 475.83 614.077C476.372 614.549 476.643 615.217 476.643 616.082C476.643 616.642 476.521 617.122 476.276 617.524C476.031 617.926 475.673 618.232 475.201 618.442C474.738 618.652 474.179 618.757 473.523 618.757L473.641 618.573H473.982C474.332 618.573 474.633 618.661 474.887 618.835C475.149 619.01 475.385 619.29 475.594 619.674L476.722 621.772C476.809 621.929 476.849 622.082 476.84 622.231C476.84 622.37 476.787 622.484 476.683 622.572C476.586 622.659 476.447 622.703 476.263 622.703C476.071 622.703 475.913 622.663 475.791 622.585C475.677 622.497 475.573 622.37 475.476 622.204L474.1 619.661C473.916 619.32 473.707 619.093 473.471 618.98C473.235 618.857 472.924 618.796 472.54 618.796H471.059V622.008C471.059 622.226 471.002 622.397 470.888 622.519C470.775 622.641 470.604 622.703 470.377 622.703ZM471.059 617.773H473.3C473.965 617.773 474.467 617.634 474.808 617.354C475.149 617.074 475.319 616.659 475.319 616.109C475.319 615.567 475.149 615.156 474.808 614.876C474.467 614.597 473.965 614.457 473.3 614.457H471.059V617.773ZM481.271 622.729C480.572 622.729 479.969 622.598 479.462 622.336C478.964 622.065 478.575 621.684 478.295 621.195C478.025 620.697 477.889 620.107 477.889 619.425C477.889 618.761 478.025 618.18 478.295 617.682C478.566 617.184 478.938 616.795 479.41 616.515C479.882 616.235 480.419 616.095 481.022 616.095C481.468 616.095 481.866 616.17 482.215 616.318C482.565 616.458 482.862 616.668 483.107 616.948C483.36 617.219 483.548 617.551 483.67 617.944C483.801 618.337 483.867 618.779 483.867 619.268C483.867 619.417 483.823 619.53 483.736 619.609C483.649 619.679 483.517 619.714 483.343 619.714H478.938V618.901H482.976L482.753 619.084C482.753 618.647 482.687 618.276 482.556 617.97C482.434 617.664 482.246 617.433 481.992 617.275C481.748 617.109 481.442 617.026 481.075 617.026C480.664 617.026 480.314 617.122 480.026 617.315C479.746 617.507 479.532 617.773 479.384 618.114C479.235 618.455 479.161 618.853 479.161 619.307V619.386C479.161 620.155 479.34 620.736 479.698 621.129C480.065 621.514 480.594 621.706 481.284 621.706C481.547 621.706 481.822 621.671 482.11 621.601C482.407 621.531 482.687 621.414 482.949 621.247C483.098 621.16 483.229 621.121 483.343 621.129C483.465 621.138 483.561 621.178 483.631 621.247C483.71 621.317 483.758 621.405 483.775 621.51C483.793 621.615 483.775 621.724 483.723 621.837C483.67 621.942 483.579 622.038 483.447 622.126C483.15 622.327 482.805 622.48 482.412 622.585C482.019 622.681 481.638 622.729 481.271 622.729ZM484.288 625.102C484.131 625.11 484.004 625.084 483.908 625.023C483.803 624.962 483.733 624.883 483.698 624.787C483.654 624.691 483.641 624.59 483.659 624.485C483.667 624.389 483.711 624.302 483.79 624.223C483.86 624.153 483.956 624.114 484.078 624.105C484.515 624.079 484.834 623.961 485.035 623.751C485.245 623.542 485.35 623.21 485.35 622.755V616.79C485.35 616.572 485.407 616.406 485.52 616.292C485.643 616.178 485.809 616.122 486.018 616.122C486.237 616.122 486.399 616.178 486.503 616.292C486.617 616.406 486.674 616.572 486.674 616.79V622.65C486.674 623.192 486.582 623.638 486.399 623.987C486.224 624.346 485.962 624.612 485.612 624.787C485.262 624.962 484.821 625.067 484.288 625.102ZM486.018 614.785C485.756 614.785 485.551 614.719 485.402 614.588C485.262 614.457 485.192 614.273 485.192 614.037C485.192 613.793 485.262 613.609 485.402 613.487C485.551 613.356 485.756 613.29 486.018 613.29C486.281 613.29 486.482 613.356 486.621 613.487C486.761 613.609 486.831 613.793 486.831 614.037C486.831 614.273 486.761 614.457 486.621 614.588C486.482 614.719 486.281 614.785 486.018 614.785ZM491.539 622.729C490.839 622.729 490.236 622.598 489.73 622.336C489.231 622.065 488.842 621.684 488.563 621.195C488.292 620.697 488.156 620.107 488.156 619.425C488.156 618.761 488.292 618.18 488.563 617.682C488.834 617.184 489.205 616.795 489.677 616.515C490.149 616.235 490.687 616.095 491.29 616.095C491.735 616.095 492.133 616.17 492.483 616.318C492.832 616.458 493.129 616.668 493.374 616.948C493.627 617.219 493.815 617.551 493.938 617.944C494.069 618.337 494.134 618.779 494.134 619.268C494.134 619.417 494.091 619.53 494.003 619.609C493.916 619.679 493.785 619.714 493.61 619.714H489.205V618.901H493.243L493.02 619.084C493.02 618.647 492.954 618.276 492.823 617.97C492.701 617.664 492.513 617.433 492.26 617.275C492.015 617.109 491.709 617.026 491.342 617.026C490.931 617.026 490.582 617.122 490.293 617.315C490.014 617.507 489.799 617.773 489.651 618.114C489.502 618.455 489.428 618.853 489.428 619.307V619.386C489.428 620.155 489.607 620.736 489.966 621.129C490.333 621.514 490.861 621.706 491.552 621.706C491.814 621.706 492.089 621.671 492.378 621.601C492.675 621.531 492.954 621.414 493.217 621.247C493.365 621.16 493.496 621.121 493.61 621.129C493.732 621.138 493.828 621.178 493.898 621.247C493.977 621.317 494.025 621.405 494.043 621.51C494.06 621.615 494.043 621.724 493.99 621.837C493.938 621.942 493.846 622.038 493.715 622.126C493.418 622.327 493.072 622.48 492.679 622.585C492.286 622.681 491.906 622.729 491.539 622.729ZM498.396 622.729C497.741 622.729 497.173 622.593 496.692 622.322C496.22 622.043 495.853 621.654 495.591 621.156C495.329 620.649 495.198 620.055 495.198 619.373C495.198 618.866 495.272 618.411 495.42 618.009C495.569 617.599 495.779 617.253 496.05 616.974C496.329 616.694 496.666 616.48 497.059 616.331C497.461 616.174 497.907 616.095 498.396 616.095C498.702 616.095 499.021 616.144 499.353 616.24C499.694 616.327 500.009 616.476 500.297 616.685C500.411 616.755 500.481 616.843 500.507 616.948C500.542 617.044 500.546 617.144 500.52 617.249C500.503 617.354 500.454 617.446 500.376 617.524C500.306 617.594 500.219 617.638 500.114 617.655C500.009 617.664 499.895 617.634 499.773 617.564C499.563 617.415 499.349 617.31 499.13 617.249C498.912 617.179 498.702 617.144 498.501 617.144C498.187 617.144 497.907 617.197 497.662 617.302C497.426 617.398 497.225 617.542 497.059 617.734C496.893 617.918 496.766 618.149 496.679 618.429C496.6 618.709 496.561 619.028 496.561 619.386C496.561 620.103 496.727 620.666 497.059 621.077C497.4 621.479 497.881 621.68 498.501 621.68C498.702 621.68 498.912 621.649 499.13 621.588C499.349 621.527 499.563 621.422 499.773 621.274C499.895 621.204 500.009 621.178 500.114 621.195C500.219 621.213 500.302 621.261 500.363 621.339C500.433 621.409 500.476 621.497 500.494 621.601C500.52 621.698 500.516 621.798 500.481 621.903C500.446 622.008 500.371 622.095 500.258 622.165C499.978 622.366 499.672 622.51 499.34 622.598C499.017 622.685 498.702 622.729 498.396 622.729ZM504.437 622.729C503.912 622.729 503.471 622.637 503.113 622.454C502.754 622.27 502.488 621.999 502.313 621.641C502.138 621.282 502.051 620.845 502.051 620.33V617.236H501.264C501.09 617.236 500.954 617.192 500.858 617.105C500.762 617.009 500.714 616.882 500.714 616.725C500.714 616.559 500.762 616.432 500.858 616.345C500.954 616.257 501.09 616.213 501.264 616.213H502.051V614.863C502.051 614.645 502.108 614.479 502.221 614.365C502.344 614.251 502.51 614.195 502.719 614.195C502.929 614.195 503.091 614.251 503.205 614.365C503.318 614.479 503.375 614.645 503.375 614.863V616.213H504.909C505.084 616.213 505.219 616.257 505.315 616.345C505.411 616.432 505.459 616.559 505.459 616.725C505.459 616.882 505.411 617.009 505.315 617.105C505.219 617.192 505.084 617.236 504.909 617.236H503.375V620.225C503.375 620.688 503.471 621.038 503.663 621.274C503.864 621.51 504.188 621.628 504.633 621.628C504.791 621.628 504.926 621.615 505.04 621.588C505.162 621.553 505.263 621.531 505.341 621.523C505.437 621.523 505.516 621.558 505.577 621.628C505.638 621.689 505.669 621.811 505.669 621.995C505.669 622.126 505.643 622.248 505.59 622.362C505.547 622.475 505.464 622.55 505.341 622.585C505.236 622.62 505.092 622.65 504.909 622.676C504.734 622.711 504.577 622.729 504.437 622.729Z" fill="#607F98"/>
<rect x="548.848" y="600.905" width="108.153" height="34.4122" rx="1.63868" fill="#607F98"/>
<path d="M583.405 622.703C583.231 622.703 583.091 622.663 582.986 622.585C582.881 622.506 582.82 622.401 582.802 622.27C582.785 622.139 582.811 621.99 582.881 621.824L586.434 613.854C586.521 613.644 586.63 613.495 586.761 613.408C586.901 613.321 587.054 613.277 587.22 613.277C587.377 613.277 587.522 613.321 587.653 613.408C587.793 613.495 587.906 613.644 587.994 613.854L591.546 621.824C591.625 621.99 591.655 622.143 591.638 622.283C591.621 622.414 591.564 622.519 591.468 622.598C591.371 622.668 591.236 622.703 591.061 622.703C590.869 622.703 590.716 622.655 590.602 622.558C590.489 622.462 590.388 622.314 590.301 622.113L589.383 619.989L589.999 620.356H584.415L585.018 619.989L584.113 622.113C584.026 622.322 583.93 622.475 583.825 622.572C583.72 622.659 583.58 622.703 583.405 622.703ZM587.194 614.876L585.214 619.569L584.887 619.255H589.514L589.213 619.569L587.22 614.876H587.194ZM595.721 622.729C595.065 622.729 594.497 622.593 594.017 622.322C593.545 622.043 593.178 621.654 592.915 621.156C592.653 620.649 592.522 620.055 592.522 619.373C592.522 618.866 592.596 618.411 592.745 618.009C592.894 617.599 593.103 617.253 593.374 616.974C593.654 616.694 593.99 616.48 594.384 616.331C594.786 616.174 595.231 616.095 595.721 616.095C596.027 616.095 596.346 616.144 596.678 616.24C597.019 616.327 597.333 616.476 597.622 616.685C597.735 616.755 597.805 616.843 597.831 616.948C597.866 617.044 597.871 617.144 597.845 617.249C597.827 617.354 597.779 617.446 597.7 617.524C597.63 617.594 597.543 617.638 597.438 617.655C597.333 617.664 597.22 617.634 597.097 617.564C596.888 617.415 596.673 617.31 596.455 617.249C596.237 617.179 596.027 617.144 595.826 617.144C595.511 617.144 595.231 617.197 594.987 617.302C594.751 617.398 594.55 617.542 594.384 617.734C594.218 617.918 594.091 618.149 594.004 618.429C593.925 618.709 593.886 619.028 593.886 619.386C593.886 620.103 594.052 620.666 594.384 621.077C594.725 621.479 595.205 621.68 595.826 621.68C596.027 621.68 596.237 621.649 596.455 621.588C596.673 621.527 596.888 621.422 597.097 621.274C597.22 621.204 597.333 621.178 597.438 621.195C597.543 621.213 597.626 621.261 597.687 621.339C597.757 621.409 597.801 621.497 597.818 621.601C597.845 621.698 597.84 621.798 597.805 621.903C597.77 622.008 597.696 622.095 597.582 622.165C597.303 622.366 596.997 622.51 596.665 622.598C596.341 622.685 596.027 622.729 595.721 622.729ZM601.712 622.729C601.057 622.729 600.489 622.593 600.008 622.322C599.536 622.043 599.169 621.654 598.907 621.156C598.645 620.649 598.514 620.055 598.514 619.373C598.514 618.866 598.588 618.411 598.736 618.009C598.885 617.599 599.095 617.253 599.366 616.974C599.645 616.694 599.982 616.48 600.375 616.331C600.777 616.174 601.223 616.095 601.712 616.095C602.018 616.095 602.337 616.144 602.669 616.24C603.01 616.327 603.325 616.476 603.613 616.685C603.727 616.755 603.797 616.843 603.823 616.948C603.858 617.044 603.862 617.144 603.836 617.249C603.819 617.354 603.77 617.446 603.692 617.524C603.622 617.594 603.534 617.638 603.43 617.655C603.325 617.664 603.211 617.634 603.089 617.564C602.879 617.415 602.665 617.31 602.446 617.249C602.228 617.179 602.018 617.144 601.817 617.144C601.503 617.144 601.223 617.197 600.978 617.302C600.742 617.398 600.541 617.542 600.375 617.734C600.209 617.918 600.082 618.149 599.995 618.429C599.916 618.709 599.877 619.028 599.877 619.386C599.877 620.103 600.043 620.666 600.375 621.077C600.716 621.479 601.197 621.68 601.817 621.68C602.018 621.68 602.228 621.649 602.446 621.588C602.665 621.527 602.879 621.422 603.089 621.274C603.211 621.204 603.325 621.178 603.43 621.195C603.534 621.213 603.618 621.261 603.679 621.339C603.749 621.409 603.792 621.497 603.81 621.601C603.836 621.698 603.832 621.798 603.797 621.903C603.762 622.008 603.687 622.095 603.574 622.165C603.294 622.366 602.988 622.51 602.656 622.598C602.333 622.685 602.018 622.729 601.712 622.729ZM607.887 622.729C607.188 622.729 606.585 622.598 606.078 622.336C605.58 622.065 605.191 621.684 604.911 621.195C604.64 620.697 604.505 620.107 604.505 619.425C604.505 618.761 604.64 618.18 604.911 617.682C605.182 617.184 605.554 616.795 606.026 616.515C606.498 616.235 607.035 616.095 607.638 616.095C608.084 616.095 608.482 616.17 608.831 616.318C609.181 616.458 609.478 616.668 609.723 616.948C609.976 617.219 610.164 617.551 610.286 617.944C610.417 618.337 610.483 618.779 610.483 619.268C610.483 619.417 610.439 619.53 610.352 619.609C610.264 619.679 610.133 619.714 609.959 619.714H605.554V618.901H609.591L609.369 619.084C609.369 618.647 609.303 618.276 609.172 617.97C609.05 617.664 608.862 617.433 608.608 617.275C608.364 617.109 608.058 617.026 607.691 617.026C607.28 617.026 606.93 617.122 606.642 617.315C606.362 617.507 606.148 617.773 605.999 618.114C605.851 618.455 605.777 618.853 605.777 619.307V619.386C605.777 620.155 605.956 620.736 606.314 621.129C606.681 621.514 607.21 621.706 607.9 621.706C608.163 621.706 608.438 621.671 608.726 621.601C609.023 621.531 609.303 621.414 609.565 621.247C609.714 621.16 609.845 621.121 609.959 621.129C610.081 621.138 610.177 621.178 610.247 621.247C610.326 621.317 610.374 621.405 610.391 621.51C610.409 621.615 610.391 621.724 610.339 621.837C610.286 621.942 610.194 622.038 610.063 622.126C609.766 622.327 609.421 622.48 609.028 622.585C608.634 622.681 608.254 622.729 607.887 622.729ZM612.582 625.062C612.372 625.062 612.21 625.005 612.097 624.892C611.983 624.778 611.926 624.612 611.926 624.394V616.79C611.926 616.572 611.983 616.406 612.097 616.292C612.21 616.178 612.368 616.122 612.569 616.122C612.778 616.122 612.94 616.178 613.054 616.292C613.167 616.406 613.224 616.572 613.224 616.79V617.931L613.08 617.655C613.22 617.184 613.495 616.808 613.906 616.528C614.317 616.24 614.802 616.095 615.361 616.095C615.929 616.095 616.423 616.231 616.842 616.502C617.271 616.773 617.598 617.153 617.826 617.642C618.062 618.132 618.18 618.722 618.18 619.412C618.18 620.085 618.062 620.675 617.826 621.182C617.598 621.68 617.275 622.065 616.855 622.336C616.436 622.598 615.938 622.729 615.361 622.729C614.81 622.729 614.33 622.589 613.919 622.309C613.508 622.03 613.233 621.658 613.093 621.195H613.25V624.394C613.25 624.612 613.189 624.778 613.067 624.892C612.953 625.005 612.792 625.062 612.582 625.062ZM615.033 621.706C615.4 621.706 615.719 621.619 615.99 621.444C616.261 621.269 616.471 621.011 616.62 620.671C616.768 620.33 616.842 619.91 616.842 619.412C616.842 618.661 616.676 618.092 616.344 617.708C616.021 617.323 615.584 617.131 615.033 617.131C614.675 617.131 614.356 617.219 614.076 617.393C613.805 617.559 613.596 617.813 613.447 618.154C613.298 618.494 613.224 618.914 613.224 619.412C613.224 620.155 613.39 620.723 613.722 621.116C614.054 621.51 614.491 621.706 615.033 621.706ZM622.334 622.729C621.81 622.729 621.369 622.637 621.01 622.454C620.652 622.27 620.385 621.999 620.211 621.641C620.036 621.282 619.948 620.845 619.948 620.33V617.236H619.162C618.987 617.236 618.852 617.192 618.756 617.105C618.659 617.009 618.611 616.882 618.611 616.725C618.611 616.559 618.659 616.432 618.756 616.345C618.852 616.257 618.987 616.213 619.162 616.213H619.948V614.863C619.948 614.645 620.005 614.479 620.119 614.365C620.241 614.251 620.407 614.195 620.617 614.195C620.827 614.195 620.989 614.251 621.102 614.365C621.216 614.479 621.273 614.645 621.273 614.863V616.213H622.806C622.981 616.213 623.117 616.257 623.213 616.345C623.309 616.432 623.357 616.559 623.357 616.725C623.357 616.882 623.309 617.009 623.213 617.105C623.117 617.192 622.981 617.236 622.806 617.236H621.273V620.225C621.273 620.688 621.369 621.038 621.561 621.274C621.762 621.51 622.085 621.628 622.531 621.628C622.688 621.628 622.824 621.615 622.937 621.588C623.06 621.553 623.16 621.531 623.239 621.523C623.335 621.523 623.414 621.558 623.475 621.628C623.536 621.689 623.567 621.811 623.567 621.995C623.567 622.126 623.54 622.248 623.488 622.362C623.444 622.475 623.361 622.55 623.239 622.585C623.134 622.62 622.99 622.65 622.806 622.676C622.632 622.711 622.474 622.729 622.334 622.729Z" fill="white"/>
</g>
</g>
</g>
<defs>
<filter id="filter0_d_1844_7476" x="0.5" y="98" width="812" height="699" filterUnits="userSpaceOnUse" color-interpolation-filters="sRGB">
<feFlood flood-opacity="0" result="BackgroundImageFix"/>
<feColorMatrix in="SourceAlpha" type="matrix" values="0 0 0 0 0 0 0 0 0 0 0 0 0 0 0 0 0 0 127 0" result="hardAlpha"/>
<feOffset dx="-19" dy="4"/>
<feGaussianBlur stdDeviation="40"/>
<feComposite in2="hardAlpha" operator="out"/>
<feColorMatrix type="matrix" values="0 0 0 0 0.054902 0 0 0 0 0.231373 0 0 0 0 0.372549 0 0 0 0.12 0"/>
<feBlend mode="normal" in2="BackgroundImageFix" result="effect1_dropShadow_1844_7476"/>
<feBlend mode="normal" in="SourceGraphic" in2="effect1_dropShadow_1844_7476" result="shape"/>
</filter>
<filter id="filter1_di_1844_7476" x="-196.49" y="174" width="947.99" height="49.1583" filterUnits="userSpaceOnUse" color-interpolation-filters="sRGB">
<feFlood flood-opacity="0" result="BackgroundImageFix"/>
<feColorMatrix in="SourceAlpha" type="matrix" values="0 0 0 0 0 0 0 0 0 0 0 0 0 0 0 0 0 0 127 0" result="hardAlpha"/>
<feOffset dy="0.46007"/>
<feColorMatrix type="matrix" values="0 0 0 0 0 0 0 0 0 0 0 0 0 0 0 0 0 0 0.15 0"/>
<feBlend mode="normal" in2="BackgroundImageFix" result="effect1_dropShadow_1844_7476"/>
<feBlend mode="normal" in="SourceGraphic" in2="effect1_dropShadow_1844_7476" result="shape"/>
<feColorMatrix in="SourceAlpha" type="matrix" values="0 0 0 0 0 0 0 0 0 0 0 0 0 0 0 0 0 0 127 0" result="hardAlpha"/>
<feOffset dy="-0.46007"/>
<feComposite in2="hardAlpha" operator="arithmetic" k2="-1" k3="1"/>
<feColorMatrix type="matrix" values="0 0 0 0 0 0 0 0 0 0 0 0 0 0 0 0 0 0 0.05 0"/>
<feBlend mode="normal" in2="shape" result="effect2_innerShadow_1844_7476"/>
</filter>
<filter id="filter2_d_1844_7476" x="141" y="406" width="594" height="307.317" filterUnits="userSpaceOnUse" color-interpolation-filters="sRGB">
<feFlood flood-opacity="0" result="BackgroundImageFix"/>
<feColorMatrix in="SourceAlpha" type="matrix" values="0 0 0 0 0 0 0 0 0 0 0 0 0 0 0 0 0 0 127 0" result="hardAlpha"/>
<feOffset dx="12" dy="12"/>
<feGaussianBlur stdDeviation="20"/>
<feComposite in2="hardAlpha" operator="out"/>
<feColorMatrix type="matrix" values="0 0 0 0 0.054902 0 0 0 0 0.231373 0 0 0 0 0.372549 0 0 0 0.06 0"/>
<feBlend mode="normal" in2="BackgroundImageFix" result="effect1_dropShadow_1844_7476"/>
<feBlend mode="normal" in="SourceGraphic" in2="effect1_dropShadow_1844_7476" result="shape"/>
</filter>
<clipPath id="clip0_1844_7476">
<path d="M751.5 182C751.5 177.582 747.918 174 743.5 174H99.5V713H743.5C747.918 713 751.5 709.418 751.5 705V182Z" fill="white"/>
</clipPath>
</defs>
</svg>
