<svg width="810" height="894" viewBox="0 0 810 894" fill="none" xmlns="http://www.w3.org/2000/svg">
<rect x="199" y="90" width="578" height="706" rx="16" fill="#DDF0FF"/>
<path fill-rule="evenodd" clip-rule="evenodd" d="M541.692 746.991C535.593 746.991 531.072 741.983 531.072 736.549V625.871C531.072 620.438 535.592 615.429 541.692 615.429H651.09C657.189 615.429 661.71 620.438 661.71 625.871V736.549C661.71 741.983 657.189 746.991 651.09 746.991H541.692ZM541.692 752.425C533.069 752.425 526 745.273 526 736.549V625.871C526 617.148 533.069 609.996 541.692 609.996H651.09C659.712 609.996 666.781 617.148 666.781 625.871V736.549C666.781 745.273 659.712 752.425 651.09 752.425H541.692Z" fill="#F0F7FD"/>
<path fill-rule="evenodd" clip-rule="evenodd" d="M683.823 888.567C677.641 888.567 673.066 883.5 673.066 878.01V766.522C673.066 761.032 677.642 755.965 683.823 755.965H794.172C800.353 755.965 804.929 761.032 804.929 766.522V878.01C804.929 883.5 800.353 888.567 794.172 888.567H683.823ZM683.823 894C675.125 894 667.995 886.797 667.995 878.01V766.522C667.995 757.735 675.125 750.531 683.823 750.531H794.172C802.87 750.531 810 757.735 810 766.522V878.01C810 886.797 802.87 894 794.172 894H683.823Z" fill="#F0F7FD"/>
<path fill-rule="evenodd" clip-rule="evenodd" d="M171.692 136.991C165.593 136.991 161.072 131.983 161.072 126.549V15.871C161.072 10.4376 165.592 5.42947 171.692 5.42947H281.09C287.189 5.42947 291.71 10.4376 291.71 15.871V126.549C291.71 131.983 287.189 136.991 281.09 136.991H171.692ZM171.692 142.425C163.069 142.425 156 135.273 156 126.549V15.871C156 7.14764 163.069 -0.00390625 171.692 -0.00390625H281.09C289.712 -0.00390625 296.781 7.14764 296.781 15.871V126.549C296.781 135.273 289.712 142.425 281.09 142.425H171.692Z" fill="#F0F7FD"/>
<path fill-rule="evenodd" clip-rule="evenodd" d="M313.823 278.567C307.641 278.567 303.066 273.5 303.066 268.01V156.522C303.066 151.032 307.642 145.965 313.823 145.965H424.172C430.353 145.965 434.929 151.032 434.929 156.522V268.01C434.929 273.5 430.353 278.567 424.172 278.567H313.823ZM313.823 284C305.125 284 297.995 276.797 297.995 268.01V156.522C297.995 147.735 305.125 140.531 313.823 140.531H424.172C432.87 140.531 440 147.735 440 156.522V268.01C440 276.797 432.87 284 424.172 284H313.823Z" fill="#F0F7FD"/>
<g clip-path="url(#clip0_1844_7437)">
<g filter="url(#filter0_d_1844_7437)">
<g clip-path="url(#clip1_1844_7437)">
<g filter="url(#filter1_d_1844_7437)">
<path d="M125 222.697H839.977V704.999C839.977 709.417 836.396 712.999 831.977 712.999H133C128.582 712.999 125 709.417 125 704.999V222.697Z" fill="white"/>
</g>
<g filter="url(#filter2_d_1844_7437)">
<rect x="241.5" y="334.5" width="420" height="213" rx="9.09646" stroke="#D3E4F1" stroke-dasharray="24 24" shape-rendering="crispEdges"/>
</g>
<g filter="url(#filter3_di_1844_7437)">
<path d="M125 182C125 177.582 128.582 174 133 174H1064.99C1069.41 174 1072.99 177.582 1072.99 182V222.698H125V182Z" fill="#01112D"/>
<path fill-rule="evenodd" clip-rule="evenodd" d="M149.843 203.445C152.892 203.445 155.364 200.973 155.364 197.924C155.364 194.875 152.892 192.403 149.843 192.403C146.794 192.403 144.322 194.875 144.322 197.924C144.322 200.973 146.794 203.445 149.843 203.445Z" fill="#4582F7"/>
<path fill-rule="evenodd" clip-rule="evenodd" d="M168.247 203.445C171.296 203.445 173.768 200.973 173.768 197.924C173.768 194.875 171.296 192.403 168.247 192.403C165.198 192.403 162.727 194.875 162.727 197.924C162.727 200.973 165.198 203.445 168.247 203.445Z" fill="#19418D"/>
<path fill-rule="evenodd" clip-rule="evenodd" d="M186.65 203.445C189.699 203.445 192.171 200.973 192.171 197.924C192.171 194.875 189.699 192.403 186.65 192.403C183.601 192.403 181.129 194.875 181.129 197.924C181.129 200.973 183.601 203.445 186.65 203.445Z" fill="#041C4A"/>
</g>
</g>
</g>
</g>
<g filter="url(#filter4_d_1844_7437)">
<rect x="61" y="362" width="421.14" height="230.83" rx="8" fill="white"/>
<rect x="61.5" y="362.5" width="420.14" height="229.83" rx="7.5" stroke="#DDF0FF"/>
<path d="M98.2111 414.876C97.779 414.876 97.4445 414.757 97.2075 414.52C96.9845 414.27 96.873 413.928 96.873 413.496V402.206H92.7962C92.4338 402.206 92.148 402.109 91.939 401.914C91.7438 401.704 91.6463 401.426 91.6463 401.077C91.6463 400.715 91.7438 400.443 91.939 400.262C92.148 400.067 92.4338 399.969 92.7962 399.969H103.626C103.988 399.969 104.267 400.067 104.462 400.262C104.671 400.443 104.776 400.715 104.776 401.077C104.776 401.426 104.671 401.704 104.462 401.914C104.267 402.109 103.988 402.206 103.626 402.206H99.5491V413.496C99.5491 413.928 99.4376 414.27 99.2146 414.52C98.9916 414.757 98.6571 414.876 98.2111 414.876ZM108.493 414.876C108.075 414.876 107.754 414.764 107.531 414.541C107.308 414.304 107.197 413.97 107.197 413.538V401.119C107.197 400.687 107.308 400.359 107.531 400.136C107.754 399.913 108.075 399.802 108.493 399.802C108.911 399.802 109.231 399.913 109.454 400.136C109.691 400.359 109.81 400.687 109.81 401.119V406.534H109.517C109.824 405.795 110.298 405.238 110.939 404.861C111.594 404.471 112.333 404.276 113.155 404.276C113.977 404.276 114.653 404.429 115.183 404.736C115.713 405.043 116.11 405.51 116.375 406.137C116.64 406.75 116.772 407.531 116.772 408.478V413.538C116.772 413.97 116.66 414.304 116.437 414.541C116.214 414.764 115.894 414.876 115.476 414.876C115.058 414.876 114.73 414.764 114.493 414.541C114.27 414.304 114.159 413.97 114.159 413.538V408.604C114.159 407.809 114.005 407.231 113.699 406.868C113.406 406.506 112.946 406.325 112.319 406.325C111.552 406.325 110.939 406.569 110.479 407.057C110.033 407.531 109.81 408.165 109.81 408.959V413.538C109.81 414.43 109.371 414.876 108.493 414.876ZM124.465 414.918C123.308 414.918 122.312 414.702 121.475 414.27C120.639 413.837 119.991 413.224 119.531 412.43C119.085 411.635 118.862 410.694 118.862 409.607C118.862 408.548 119.078 407.621 119.51 406.827C119.956 406.032 120.562 405.412 121.329 404.966C122.109 404.506 122.994 404.276 123.984 404.276C124.709 404.276 125.357 404.394 125.928 404.631C126.514 404.868 127.009 405.21 127.413 405.656C127.831 406.102 128.145 406.645 128.354 407.287C128.577 407.914 128.688 408.625 128.688 409.419C128.688 409.67 128.598 409.865 128.416 410.005C128.249 410.13 128.005 410.193 127.685 410.193H120.973V408.687H126.848L126.514 409.001C126.514 408.36 126.416 407.823 126.221 407.391C126.04 406.959 125.768 406.632 125.406 406.409C125.057 406.172 124.618 406.053 124.089 406.053C123.503 406.053 123.001 406.192 122.583 406.471C122.179 406.736 121.865 407.119 121.642 407.621C121.433 408.109 121.329 408.694 121.329 409.377V409.524C121.329 410.667 121.594 411.524 122.123 412.095C122.667 412.653 123.461 412.932 124.507 412.932C124.869 412.932 125.273 412.89 125.719 412.806C126.179 412.709 126.611 412.548 127.016 412.325C127.308 412.158 127.566 412.088 127.789 412.116C128.012 412.13 128.186 412.207 128.312 412.346C128.451 412.486 128.535 412.66 128.563 412.869C128.591 413.064 128.549 413.266 128.437 413.475C128.34 413.684 128.165 413.865 127.915 414.019C127.427 414.325 126.862 414.555 126.221 414.709C125.594 414.848 125.009 414.918 124.465 414.918ZM140.385 414.876C140.037 414.876 139.737 414.792 139.486 414.625C139.235 414.444 139.033 414.165 138.88 413.789L135.848 406.053C135.723 405.719 135.681 405.426 135.723 405.175C135.779 404.91 135.911 404.701 136.12 404.548C136.329 404.394 136.608 404.318 136.956 404.318C137.263 404.318 137.514 404.394 137.709 404.548C137.904 404.687 138.071 404.959 138.211 405.363L140.741 412.325H140.26L142.873 405.196C142.985 404.889 143.131 404.666 143.312 404.527C143.507 404.388 143.758 404.318 144.065 404.318C144.371 404.318 144.622 404.394 144.817 404.548C145.013 404.687 145.159 404.903 145.257 405.196L147.828 412.325H147.389L149.94 405.3C150.079 404.924 150.253 404.666 150.462 404.527C150.685 404.388 150.929 404.318 151.194 404.318C151.529 404.318 151.786 404.401 151.968 404.569C152.149 404.736 152.253 404.952 152.281 405.217C152.309 405.468 152.26 405.746 152.135 406.053L149.124 413.789C148.985 414.151 148.783 414.423 148.518 414.604C148.267 414.785 147.967 414.876 147.619 414.876C147.271 414.876 146.964 414.785 146.699 414.604C146.448 414.423 146.253 414.151 146.114 413.789L143.375 406.534H144.567L141.89 413.768C141.751 414.144 141.556 414.423 141.305 414.604C141.054 414.785 140.748 414.876 140.385 414.876ZM159.092 414.918C157.935 414.918 156.939 414.702 156.103 414.27C155.266 413.837 154.618 413.224 154.158 412.43C153.712 411.635 153.489 410.694 153.489 409.607C153.489 408.548 153.705 407.621 154.137 406.827C154.583 406.032 155.19 405.412 155.956 404.966C156.737 404.506 157.622 404.276 158.611 404.276C159.336 404.276 159.984 404.394 160.556 404.631C161.141 404.868 161.636 405.21 162.04 405.656C162.458 406.102 162.772 406.645 162.981 407.287C163.204 407.914 163.315 408.625 163.315 409.419C163.315 409.67 163.225 409.865 163.044 410.005C162.876 410.13 162.632 410.193 162.312 410.193H155.601V408.687H161.476L161.141 409.001C161.141 408.36 161.044 407.823 160.848 407.391C160.667 406.959 160.395 406.632 160.033 406.409C159.685 406.172 159.246 406.053 158.716 406.053C158.131 406.053 157.629 406.192 157.211 406.471C156.806 406.736 156.493 407.119 156.27 407.621C156.061 408.109 155.956 408.694 155.956 409.377V409.524C155.956 410.667 156.221 411.524 156.751 412.095C157.294 412.653 158.089 412.932 159.134 412.932C159.496 412.932 159.901 412.89 160.347 412.806C160.807 412.709 161.239 412.548 161.643 412.325C161.936 412.158 162.193 412.088 162.416 412.116C162.639 412.13 162.814 412.207 162.939 412.346C163.079 412.486 163.162 412.66 163.19 412.869C163.218 413.064 163.176 413.266 163.065 413.475C162.967 413.684 162.793 413.865 162.542 414.019C162.054 414.325 161.49 414.555 160.848 414.709C160.221 414.848 159.636 414.918 159.092 414.918ZM171.281 414.918C170.417 414.918 169.657 414.702 169.002 414.27C168.361 413.837 167.936 413.259 167.727 412.534L167.957 412.012V413.538C167.957 413.97 167.845 414.304 167.622 414.541C167.399 414.764 167.086 414.876 166.681 414.876C166.263 414.876 165.943 414.764 165.72 414.541C165.497 414.304 165.385 413.97 165.385 413.538V401.119C165.385 400.687 165.497 400.359 165.72 400.136C165.943 399.913 166.263 399.802 166.681 399.802C167.099 399.802 167.42 399.913 167.643 400.136C167.88 400.359 167.998 400.687 167.998 401.119V406.555H167.748C167.971 405.872 168.403 405.321 169.044 404.903C169.685 404.485 170.431 404.276 171.281 404.276C172.187 404.276 172.974 404.492 173.643 404.924C174.312 405.356 174.835 405.969 175.211 406.764C175.588 407.544 175.776 408.485 175.776 409.586C175.776 410.674 175.588 411.621 175.211 412.43C174.835 413.224 174.305 413.837 173.622 414.27C172.953 414.702 172.173 414.918 171.281 414.918ZM170.549 412.932C171.065 412.932 171.518 412.806 171.908 412.555C172.298 412.304 172.598 411.935 172.807 411.447C173.03 410.945 173.142 410.325 173.142 409.586C173.142 408.471 172.905 407.642 172.431 407.098C171.957 406.541 171.33 406.262 170.549 406.262C170.033 406.262 169.58 406.388 169.19 406.638C168.8 406.875 168.493 407.245 168.27 407.747C168.061 408.234 167.957 408.848 167.957 409.586C167.957 410.687 168.194 411.524 168.667 412.095C169.141 412.653 169.769 412.932 170.549 412.932ZM181.664 414.918C181.064 414.918 180.43 414.855 179.761 414.73C179.092 414.604 178.493 414.388 177.963 414.081C177.74 413.942 177.58 413.782 177.482 413.601C177.398 413.405 177.364 413.217 177.378 413.036C177.405 412.841 177.475 412.674 177.587 412.534C177.712 412.395 177.865 412.304 178.047 412.262C178.242 412.221 178.451 412.256 178.674 412.367C179.231 412.632 179.754 412.82 180.242 412.932C180.73 413.029 181.211 413.078 181.684 413.078C182.353 413.078 182.848 412.966 183.169 412.743C183.503 412.506 183.671 412.2 183.671 411.823C183.671 411.503 183.559 411.259 183.336 411.092C183.127 410.911 182.806 410.778 182.374 410.694L180.284 410.297C179.419 410.13 178.757 409.816 178.297 409.356C177.851 408.883 177.628 408.276 177.628 407.537C177.628 406.868 177.81 406.29 178.172 405.802C178.548 405.314 179.064 404.938 179.719 404.673C180.374 404.408 181.127 404.276 181.977 404.276C182.59 404.276 183.162 404.346 183.692 404.485C184.235 404.611 184.758 404.813 185.26 405.091C185.469 405.203 185.608 405.349 185.678 405.53C185.761 405.712 185.782 405.9 185.74 406.095C185.699 406.276 185.615 406.443 185.49 406.597C185.364 406.736 185.204 406.827 185.009 406.868C184.827 406.896 184.618 406.855 184.381 406.743C183.949 406.52 183.531 406.36 183.127 406.262C182.737 406.165 182.36 406.116 181.998 406.116C181.315 406.116 180.806 406.234 180.472 406.471C180.151 406.708 179.991 407.022 179.991 407.412C179.991 407.705 180.089 407.949 180.284 408.144C180.479 408.339 180.778 408.471 181.183 408.541L183.273 408.938C184.179 409.106 184.862 409.412 185.322 409.858C185.796 410.304 186.033 410.904 186.033 411.656C186.033 412.674 185.636 413.475 184.841 414.06C184.047 414.632 182.988 414.918 181.664 414.918ZM189.426 414.855C189.008 414.855 188.687 414.73 188.464 414.479C188.241 414.228 188.13 413.879 188.13 413.433V405.76C188.13 405.3 188.241 404.952 188.464 404.715C188.687 404.464 189.008 404.339 189.426 404.339C189.844 404.339 190.165 404.464 190.388 404.715C190.625 404.952 190.743 405.3 190.743 405.76V413.433C190.743 413.879 190.632 414.228 190.409 414.479C190.186 414.73 189.858 414.855 189.426 414.855ZM189.426 402.394C188.938 402.394 188.555 402.276 188.276 402.039C188.011 401.788 187.879 401.447 187.879 401.014C187.879 400.568 188.011 400.227 188.276 399.99C188.555 399.753 188.938 399.635 189.426 399.635C189.928 399.635 190.311 399.753 190.576 399.99C190.841 400.227 190.973 400.568 190.973 401.014C190.973 401.447 190.841 401.788 190.576 402.039C190.311 402.276 189.928 402.394 189.426 402.394ZM198.142 414.918C197.236 414.918 196.476 414.764 195.863 414.458C195.263 414.151 194.817 413.705 194.525 413.12C194.232 412.52 194.086 411.782 194.086 410.904V406.45H192.999C192.664 406.45 192.406 406.367 192.225 406.199C192.044 406.018 191.953 405.774 191.953 405.468C191.953 405.147 192.044 404.903 192.225 404.736C192.406 404.569 192.664 404.485 192.999 404.485H194.086V402.583C194.086 402.15 194.197 401.823 194.42 401.6C194.657 401.377 194.985 401.265 195.403 401.265C195.821 401.265 196.142 401.377 196.365 401.6C196.588 401.823 196.699 402.15 196.699 402.583V404.485H198.915C199.25 404.485 199.508 404.569 199.689 404.736C199.87 404.903 199.961 405.147 199.961 405.468C199.961 405.774 199.87 406.018 199.689 406.199C199.508 406.367 199.25 406.45 198.915 406.45H196.699V410.757C196.699 411.426 196.845 411.928 197.138 412.262C197.431 412.597 197.905 412.764 198.56 412.764C198.797 412.764 199.006 412.743 199.187 412.702C199.368 412.66 199.529 412.632 199.668 412.618C199.835 412.604 199.975 412.66 200.086 412.785C200.198 412.897 200.253 413.134 200.253 413.496C200.253 413.775 200.205 414.026 200.107 414.249C200.023 414.458 199.863 414.604 199.626 414.688C199.445 414.743 199.208 414.792 198.915 414.834C198.623 414.89 198.365 414.918 198.142 414.918ZM206.419 414.918C205.262 414.918 204.266 414.702 203.429 414.27C202.593 413.837 201.945 413.224 201.485 412.43C201.039 411.635 200.816 410.694 200.816 409.607C200.816 408.548 201.032 407.621 201.464 406.827C201.91 406.032 202.516 405.412 203.283 404.966C204.063 404.506 204.948 404.276 205.938 404.276C206.663 404.276 207.311 404.394 207.882 404.631C208.468 404.868 208.963 405.21 209.367 405.656C209.785 406.102 210.099 406.645 210.308 407.287C210.531 407.914 210.642 408.625 210.642 409.419C210.642 409.67 210.552 409.865 210.37 410.005C210.203 410.13 209.959 410.193 209.639 410.193H202.927V408.687H208.802L208.468 409.001C208.468 408.36 208.37 407.823 208.175 407.391C207.994 406.959 207.722 406.632 207.36 406.409C207.011 406.172 206.572 406.053 206.043 406.053C205.457 406.053 204.955 406.192 204.537 406.471C204.133 406.736 203.819 407.119 203.596 407.621C203.387 408.109 203.283 408.694 203.283 409.377V409.524C203.283 410.667 203.548 411.524 204.077 412.095C204.621 412.653 205.415 412.932 206.461 412.932C206.823 412.932 207.227 412.89 207.673 412.806C208.133 412.709 208.565 412.548 208.97 412.325C209.262 412.158 209.52 412.088 209.743 412.116C209.966 412.13 210.14 412.207 210.266 412.346C210.405 412.486 210.489 412.66 210.517 412.869C210.545 413.064 210.503 413.266 210.391 413.475C210.294 413.684 210.119 413.865 209.869 414.019C209.381 414.325 208.816 414.555 208.175 414.709C207.548 414.848 206.963 414.918 206.419 414.918ZM222.088 414.918C221.238 414.918 220.534 414.764 219.977 414.458C219.419 414.137 219.001 413.663 218.722 413.036C218.457 412.409 218.325 411.628 218.325 410.694V405.635C218.325 405.189 218.437 404.861 218.66 404.652C218.883 404.429 219.203 404.318 219.621 404.318C220.039 404.318 220.36 404.429 220.583 404.652C220.82 404.861 220.938 405.189 220.938 405.635V410.736C220.938 411.461 221.085 411.998 221.377 412.346C221.67 412.695 222.137 412.869 222.778 412.869C223.475 412.869 224.047 412.632 224.493 412.158C224.939 411.67 225.162 411.029 225.162 410.235V405.635C225.162 405.189 225.273 404.861 225.496 404.652C225.719 404.429 226.04 404.318 226.458 404.318C226.876 404.318 227.197 404.429 227.42 404.652C227.657 404.861 227.775 405.189 227.775 405.635V413.538C227.775 414.43 227.35 414.876 226.5 414.876C226.095 414.876 225.782 414.764 225.559 414.541C225.336 414.304 225.224 413.97 225.224 413.538V411.949L225.517 412.576C225.224 413.329 224.778 413.907 224.179 414.311C223.594 414.716 222.897 414.918 222.088 414.918ZM234.237 414.918C233.638 414.918 233.004 414.855 232.335 414.73C231.666 414.604 231.066 414.388 230.537 414.081C230.314 413.942 230.154 413.782 230.056 413.601C229.972 413.405 229.938 413.217 229.951 413.036C229.979 412.841 230.049 412.674 230.161 412.534C230.286 412.395 230.439 412.304 230.62 412.262C230.816 412.221 231.025 412.256 231.248 412.367C231.805 412.632 232.328 412.82 232.816 412.932C233.304 413.029 233.784 413.078 234.258 413.078C234.927 413.078 235.422 412.966 235.743 412.743C236.077 412.506 236.244 412.2 236.244 411.823C236.244 411.503 236.133 411.259 235.91 411.092C235.701 410.911 235.38 410.778 234.948 410.694L232.858 410.297C231.993 410.13 231.331 409.816 230.871 409.356C230.425 408.883 230.202 408.276 230.202 407.537C230.202 406.868 230.384 406.29 230.746 405.802C231.122 405.314 231.638 404.938 232.293 404.673C232.948 404.408 233.701 404.276 234.551 404.276C235.164 404.276 235.736 404.346 236.265 404.485C236.809 404.611 237.332 404.813 237.833 405.091C238.042 405.203 238.182 405.349 238.252 405.53C238.335 405.712 238.356 405.9 238.314 406.095C238.272 406.276 238.189 406.443 238.063 406.597C237.938 406.736 237.778 406.827 237.583 406.868C237.401 406.896 237.192 406.855 236.955 406.743C236.523 406.52 236.105 406.36 235.701 406.262C235.311 406.165 234.934 406.116 234.572 406.116C233.889 406.116 233.38 406.234 233.046 406.471C232.725 406.708 232.565 407.022 232.565 407.412C232.565 407.705 232.662 407.949 232.858 408.144C233.053 408.339 233.352 408.471 233.757 408.541L235.847 408.938C236.753 409.106 237.436 409.412 237.896 409.858C238.37 410.304 238.607 410.904 238.607 411.656C238.607 412.674 238.21 413.475 237.415 414.06C236.621 414.632 235.562 414.918 234.237 414.918ZM245.742 414.918C244.585 414.918 243.589 414.702 242.752 414.27C241.916 413.837 241.268 413.224 240.808 412.43C240.362 411.635 240.139 410.694 240.139 409.607C240.139 408.548 240.355 407.621 240.787 406.827C241.233 406.032 241.84 405.412 242.606 404.966C243.387 404.506 244.272 404.276 245.261 404.276C245.986 404.276 246.634 404.394 247.206 404.631C247.791 404.868 248.286 405.21 248.69 405.656C249.108 406.102 249.422 406.645 249.631 407.287C249.854 407.914 249.965 408.625 249.965 409.419C249.965 409.67 249.875 409.865 249.694 410.005C249.526 410.13 249.282 410.193 248.962 410.193H242.251V408.687H248.126L247.791 409.001C247.791 408.36 247.693 407.823 247.498 407.391C247.317 406.959 247.045 406.632 246.683 406.409C246.335 406.172 245.895 406.053 245.366 406.053C244.78 406.053 244.279 406.192 243.861 406.471C243.456 406.736 243.143 407.119 242.92 407.621C242.711 408.109 242.606 408.694 242.606 409.377V409.524C242.606 410.667 242.871 411.524 243.401 412.095C243.944 412.653 244.739 412.932 245.784 412.932C246.146 412.932 246.551 412.89 246.997 412.806C247.457 412.709 247.889 412.548 248.293 412.325C248.586 412.158 248.843 412.088 249.066 412.116C249.289 412.13 249.464 412.207 249.589 412.346C249.728 412.486 249.812 412.66 249.84 412.869C249.868 413.064 249.826 413.266 249.714 413.475C249.617 413.684 249.443 413.865 249.192 414.019C248.704 414.325 248.139 414.555 247.498 414.709C246.871 414.848 246.286 414.918 245.742 414.918ZM255.777 414.918C255.178 414.918 254.544 414.855 253.875 414.73C253.206 414.604 252.606 414.388 252.077 414.081C251.854 413.942 251.694 413.782 251.596 413.601C251.512 413.405 251.477 413.217 251.491 413.036C251.519 412.841 251.589 412.674 251.7 412.534C251.826 412.395 251.979 412.304 252.16 412.262C252.356 412.221 252.565 412.256 252.788 412.367C253.345 412.632 253.868 412.82 254.356 412.932C254.844 413.029 255.324 413.078 255.798 413.078C256.467 413.078 256.962 412.966 257.283 412.743C257.617 412.506 257.784 412.2 257.784 411.823C257.784 411.503 257.673 411.259 257.45 411.092C257.241 410.911 256.92 410.778 256.488 410.694L254.398 410.297C253.533 410.13 252.871 409.816 252.411 409.356C251.965 408.883 251.742 408.276 251.742 407.537C251.742 406.868 251.924 406.29 252.286 405.802C252.662 405.314 253.178 404.938 253.833 404.673C254.488 404.408 255.241 404.276 256.091 404.276C256.704 404.276 257.276 404.346 257.805 404.485C258.349 404.611 258.872 404.813 259.373 405.091C259.582 405.203 259.722 405.349 259.792 405.53C259.875 405.712 259.896 405.9 259.854 406.095C259.812 406.276 259.729 406.443 259.603 406.597C259.478 406.736 259.318 406.827 259.122 406.868C258.941 406.896 258.732 406.855 258.495 406.743C258.063 406.52 257.645 406.36 257.241 406.262C256.851 406.165 256.474 406.116 256.112 406.116C255.429 406.116 254.92 406.234 254.586 406.471C254.265 406.708 254.105 407.022 254.105 407.412C254.105 407.705 254.202 407.949 254.398 408.144C254.593 408.339 254.892 408.471 255.297 408.541L257.387 408.938C258.293 409.106 258.976 409.412 259.436 409.858C259.91 410.304 260.147 410.904 260.147 411.656C260.147 412.674 259.75 413.475 258.955 414.06C258.161 414.632 257.101 414.918 255.777 414.918ZM272.644 414.918C271.571 414.918 270.637 414.702 269.843 414.27C269.048 413.824 268.435 413.196 268.003 412.388C267.571 411.58 267.355 410.632 267.355 409.545C267.355 408.722 267.473 407.99 267.71 407.349C267.961 406.694 268.317 406.144 268.777 405.698C269.237 405.238 269.794 404.889 270.449 404.652C271.104 404.401 271.836 404.276 272.644 404.276C273.104 404.276 273.599 404.339 274.129 404.464C274.672 404.59 275.181 404.799 275.655 405.091C275.878 405.231 276.024 405.398 276.094 405.593C276.164 405.788 276.178 405.99 276.136 406.199C276.094 406.395 276.004 406.569 275.864 406.722C275.739 406.862 275.578 406.952 275.383 406.994C275.188 407.022 274.972 406.973 274.735 406.848C274.429 406.666 274.115 406.534 273.794 406.45C273.474 406.353 273.167 406.304 272.874 406.304C272.414 406.304 272.01 406.381 271.662 406.534C271.313 406.673 271.014 406.882 270.763 407.161C270.526 407.426 270.345 407.761 270.219 408.165C270.094 408.569 270.031 409.036 270.031 409.565C270.031 410.597 270.275 411.412 270.763 412.012C271.265 412.597 271.968 412.89 272.874 412.89C273.167 412.89 273.467 412.848 273.773 412.764C274.094 412.681 274.415 412.548 274.735 412.367C274.972 412.242 275.181 412.2 275.362 412.242C275.558 412.283 275.718 412.381 275.843 412.534C275.969 412.674 276.045 412.848 276.073 413.057C276.101 413.252 276.073 413.447 275.99 413.642C275.92 413.837 275.781 413.998 275.571 414.123C275.111 414.402 274.624 414.604 274.108 414.73C273.592 414.855 273.104 414.918 272.644 414.918ZM282.239 414.918C281.18 414.918 280.26 414.702 279.479 414.27C278.699 413.837 278.092 413.224 277.66 412.43C277.228 411.621 277.012 410.674 277.012 409.586C277.012 408.764 277.131 408.032 277.368 407.391C277.619 406.736 277.974 406.179 278.434 405.719C278.894 405.245 279.444 404.889 280.086 404.652C280.727 404.401 281.445 404.276 282.239 404.276C283.298 404.276 284.218 404.492 284.999 404.924C285.779 405.356 286.386 405.969 286.818 406.764C287.25 407.558 287.466 408.499 287.466 409.586C287.466 410.409 287.34 411.147 287.089 411.803C286.852 412.458 286.504 413.022 286.044 413.496C285.584 413.956 285.034 414.311 284.392 414.562C283.751 414.799 283.033 414.918 282.239 414.918ZM282.239 412.932C282.755 412.932 283.208 412.806 283.598 412.555C283.988 412.304 284.288 411.935 284.497 411.447C284.72 410.945 284.831 410.325 284.831 409.586C284.831 408.471 284.595 407.642 284.121 407.098C283.647 406.541 283.02 406.262 282.239 406.262C281.723 406.262 281.27 406.388 280.88 406.638C280.49 406.875 280.183 407.245 279.96 407.747C279.751 408.234 279.647 408.848 279.647 409.586C279.647 410.687 279.883 411.524 280.357 412.095C280.831 412.653 281.458 412.932 282.239 412.932ZM294.285 414.918C293.226 414.918 292.306 414.702 291.525 414.27C290.745 413.837 290.138 413.224 289.706 412.43C289.274 411.621 289.058 410.674 289.058 409.586C289.058 408.764 289.177 408.032 289.414 407.391C289.665 406.736 290.02 406.179 290.48 405.719C290.94 405.245 291.49 404.889 292.132 404.652C292.773 404.401 293.491 404.276 294.285 404.276C295.344 404.276 296.264 404.492 297.045 404.924C297.825 405.356 298.432 405.969 298.864 406.764C299.296 407.558 299.512 408.499 299.512 409.586C299.512 410.409 299.386 411.147 299.135 411.803C298.899 412.458 298.55 413.022 298.09 413.496C297.63 413.956 297.08 414.311 296.438 414.562C295.797 414.799 295.08 414.918 294.285 414.918ZM294.285 412.932C294.801 412.932 295.254 412.806 295.644 412.555C296.034 412.304 296.334 411.935 296.543 411.447C296.766 410.945 296.878 410.325 296.878 409.586C296.878 408.471 296.641 407.642 296.167 407.098C295.693 406.541 295.066 406.262 294.285 406.262C293.769 406.262 293.316 406.388 292.926 406.638C292.536 406.875 292.229 407.245 292.006 407.747C291.797 408.234 291.693 408.848 291.693 409.586C291.693 410.687 291.93 411.524 292.403 412.095C292.877 412.653 293.505 412.932 294.285 412.932ZM302.965 414.876C302.547 414.876 302.226 414.764 302.003 414.541C301.78 414.304 301.669 413.97 301.669 413.538V401.119C301.669 400.687 301.78 400.359 302.003 400.136C302.226 399.913 302.547 399.802 302.965 399.802C303.383 399.802 303.704 399.913 303.927 400.136C304.164 400.359 304.282 400.687 304.282 401.119V408.834H304.324L307.774 405.196C308.052 404.917 308.296 404.701 308.505 404.548C308.714 404.394 309 404.318 309.363 404.318C309.725 404.318 309.997 404.415 310.178 404.611C310.373 404.792 310.471 405.015 310.471 405.28C310.471 405.544 310.345 405.809 310.094 406.074L306.457 409.921V408.834L310.45 413.141C310.701 413.405 310.812 413.677 310.784 413.956C310.77 414.221 310.659 414.444 310.45 414.625C310.241 414.792 309.976 414.876 309.655 414.876C309.265 414.876 308.951 414.799 308.714 414.646C308.491 414.493 308.241 414.263 307.962 413.956L304.324 410.151H304.282V413.538C304.282 414.43 303.843 414.876 302.965 414.876ZM314.174 414.855C313.756 414.855 313.435 414.73 313.212 414.479C312.989 414.228 312.878 413.879 312.878 413.433V405.76C312.878 405.3 312.989 404.952 313.212 404.715C313.435 404.464 313.756 404.339 314.174 404.339C314.592 404.339 314.913 404.464 315.136 404.715C315.373 404.952 315.491 405.3 315.491 405.76V413.433C315.491 413.879 315.38 414.228 315.157 414.479C314.934 414.73 314.606 414.855 314.174 414.855ZM314.174 402.394C313.686 402.394 313.303 402.276 313.024 402.039C312.759 401.788 312.627 401.447 312.627 401.014C312.627 400.568 312.759 400.227 313.024 399.99C313.303 399.753 313.686 399.635 314.174 399.635C314.676 399.635 315.059 399.753 315.324 399.99C315.589 400.227 315.721 400.568 315.721 401.014C315.721 401.447 315.589 401.788 315.324 402.039C315.059 402.276 314.676 402.394 314.174 402.394ZM323.245 414.918C322.088 414.918 321.092 414.702 320.256 414.27C319.419 413.837 318.771 413.224 318.311 412.43C317.865 411.635 317.642 410.694 317.642 409.607C317.642 408.548 317.858 407.621 318.29 406.827C318.736 406.032 319.343 405.412 320.109 404.966C320.89 404.506 321.775 404.276 322.764 404.276C323.489 404.276 324.137 404.394 324.709 404.631C325.294 404.868 325.789 405.21 326.193 405.656C326.611 406.102 326.925 406.645 327.134 407.287C327.357 407.914 327.468 408.625 327.468 409.419C327.468 409.67 327.378 409.865 327.197 410.005C327.029 410.13 326.785 410.193 326.465 410.193H319.754V408.687H325.629L325.294 409.001C325.294 408.36 325.197 407.823 325.001 407.391C324.82 406.959 324.548 406.632 324.186 406.409C323.838 406.172 323.399 406.053 322.869 406.053C322.284 406.053 321.782 406.192 321.364 406.471C320.959 406.736 320.646 407.119 320.423 407.621C320.214 408.109 320.109 408.694 320.109 409.377V409.524C320.109 410.667 320.374 411.524 320.904 412.095C321.447 412.653 322.242 412.932 323.287 412.932C323.649 412.932 324.054 412.89 324.5 412.806C324.96 412.709 325.392 412.548 325.796 412.325C326.089 412.158 326.346 412.088 326.569 412.116C326.792 412.13 326.967 412.207 327.092 412.346C327.232 412.486 327.315 412.66 327.343 412.869C327.371 413.064 327.329 413.266 327.218 413.475C327.12 413.684 326.946 413.865 326.695 414.019C326.207 414.325 325.643 414.555 325.001 414.709C324.374 414.848 323.789 414.918 323.245 414.918ZM333.28 414.918C332.681 414.918 332.047 414.855 331.378 414.73C330.709 414.604 330.11 414.388 329.58 414.081C329.357 413.942 329.197 413.782 329.099 413.601C329.015 413.405 328.981 413.217 328.994 413.036C329.022 412.841 329.092 412.674 329.204 412.534C329.329 412.395 329.482 412.304 329.664 412.262C329.859 412.221 330.068 412.256 330.291 412.367C330.848 412.632 331.371 412.82 331.859 412.932C332.347 413.029 332.827 413.078 333.301 413.078C333.97 413.078 334.465 412.966 334.786 412.743C335.12 412.506 335.288 412.2 335.288 411.823C335.288 411.503 335.176 411.259 334.953 411.092C334.744 410.911 334.423 410.778 333.991 410.694L331.901 410.297C331.036 410.13 330.374 409.816 329.914 409.356C329.468 408.883 329.245 408.276 329.245 407.537C329.245 406.868 329.427 406.29 329.789 405.802C330.165 405.314 330.681 404.938 331.336 404.673C331.991 404.408 332.744 404.276 333.594 404.276C334.207 404.276 334.779 404.346 335.308 404.485C335.852 404.611 336.375 404.813 336.876 405.091C337.086 405.203 337.225 405.349 337.295 405.53C337.378 405.712 337.399 405.9 337.357 406.095C337.316 406.276 337.232 406.443 337.106 406.597C336.981 406.736 336.821 406.827 336.626 406.868C336.444 406.896 336.235 406.855 335.998 406.743C335.566 406.52 335.148 406.36 334.744 406.262C334.354 406.165 333.977 406.116 333.615 406.116C332.932 406.116 332.423 406.234 332.089 406.471C331.768 406.708 331.608 407.022 331.608 407.412C331.608 407.705 331.705 407.949 331.901 408.144C332.096 408.339 332.395 408.471 332.8 408.541L334.89 408.938C335.796 409.106 336.479 409.412 336.939 409.858C337.413 410.304 337.65 410.904 337.65 411.656C337.65 412.674 337.253 413.475 336.458 414.06C335.664 414.632 334.605 414.918 333.28 414.918Z" fill="#435E74"/>
<rect x="91.709" y="443.709" width="336" height="16" rx="8" fill="#DDF0FF"/>
<rect x="91.709" y="471.709" width="212" height="16" rx="8" fill="#DDF0FF"/>
<rect x="227.859" y="528.118" width="107.333" height="33.5929" rx="1.22901" stroke="#607F98" stroke-width="0.819338"/>
<path d="M266.605 549.533C265.67 549.533 264.87 549.34 264.206 548.956C263.542 548.571 263.031 548.025 262.672 547.317C262.323 546.601 262.148 545.757 262.148 544.787C262.148 544.062 262.248 543.411 262.449 542.834C262.65 542.248 262.939 541.75 263.315 541.339C263.699 540.92 264.167 540.601 264.717 540.382C265.277 540.164 265.906 540.055 266.605 540.055C267.121 540.055 267.615 540.124 268.087 540.264C268.567 540.404 268.982 540.605 269.332 540.867C269.48 540.963 269.577 541.081 269.62 541.221C269.673 541.352 269.681 541.479 269.647 541.601C269.62 541.724 269.563 541.829 269.476 541.916C269.389 541.995 269.275 542.038 269.135 542.047C269.004 542.056 268.86 542.008 268.703 541.903C268.414 541.684 268.095 541.523 267.746 541.418C267.396 541.313 267.029 541.261 266.644 541.261C265.98 541.261 265.421 541.4 264.966 541.68C264.512 541.951 264.167 542.349 263.931 542.873C263.695 543.397 263.577 544.035 263.577 544.787C263.577 545.539 263.695 546.181 263.931 546.714C264.167 547.239 264.512 547.641 264.966 547.92C265.421 548.191 265.98 548.327 266.644 548.327C267.029 548.327 267.396 548.274 267.746 548.169C268.104 548.056 268.44 547.89 268.755 547.671C268.912 547.575 269.052 547.531 269.175 547.54C269.306 547.549 269.415 547.592 269.502 547.671C269.59 547.75 269.647 547.85 269.673 547.973C269.708 548.086 269.703 548.209 269.66 548.34C269.625 548.462 269.542 548.567 269.411 548.654C269.052 548.943 268.628 549.161 268.139 549.31C267.65 549.458 267.138 549.533 266.605 549.533ZM273.005 549.533C272.559 549.533 272.157 549.445 271.799 549.27C271.449 549.096 271.174 548.86 270.973 548.563C270.772 548.265 270.671 547.929 270.671 547.553C270.671 547.081 270.789 546.71 271.025 546.439C271.27 546.159 271.668 545.963 272.218 545.849C272.778 545.727 273.529 545.665 274.473 545.665H275.089V546.478H274.486C273.857 546.478 273.359 546.509 272.992 546.57C272.625 546.631 272.363 546.736 272.205 546.885C272.057 547.024 271.982 547.221 271.982 547.474C271.982 547.807 272.096 548.078 272.323 548.287C272.55 548.488 272.865 548.589 273.267 548.589C273.59 548.589 273.874 548.514 274.119 548.366C274.364 548.209 274.556 547.999 274.696 547.737C274.845 547.474 274.919 547.173 274.919 546.832V545.325C274.919 544.826 274.814 544.468 274.604 544.25C274.394 544.031 274.049 543.922 273.569 543.922C273.289 543.922 272.996 543.957 272.69 544.027C272.393 544.097 272.083 544.215 271.759 544.381C271.611 544.451 271.484 544.472 271.379 544.446C271.274 544.42 271.191 544.363 271.13 544.276C271.069 544.18 271.034 544.079 271.025 543.974C271.025 543.861 271.052 543.751 271.104 543.647C271.165 543.542 271.266 543.463 271.406 543.411C271.79 543.227 272.17 543.096 272.546 543.017C272.922 542.939 273.276 542.899 273.608 542.899C274.193 542.899 274.674 542.991 275.05 543.175C275.434 543.358 275.719 543.638 275.902 544.014C276.086 544.389 276.177 544.874 276.177 545.469V548.838C276.177 549.048 276.125 549.214 276.02 549.336C275.915 549.45 275.762 549.506 275.561 549.506C275.369 549.506 275.216 549.45 275.102 549.336C274.989 549.214 274.932 549.048 274.932 548.838V547.986H275.05C274.98 548.309 274.849 548.589 274.657 548.825C274.473 549.052 274.242 549.227 273.962 549.349C273.682 549.471 273.363 549.533 273.005 549.533ZM278.656 549.506C278.447 549.506 278.285 549.45 278.171 549.336C278.058 549.214 278.001 549.048 278.001 548.838V543.594C278.001 543.376 278.058 543.21 278.171 543.096C278.285 542.982 278.442 542.926 278.643 542.926C278.853 542.926 279.01 542.982 279.115 543.096C279.229 543.21 279.286 543.376 279.286 543.594V544.617L279.142 544.381C279.334 543.891 279.635 543.524 280.046 543.279C280.457 543.026 280.929 542.899 281.462 542.899C281.969 542.899 282.388 542.995 282.72 543.188C283.061 543.371 283.315 543.655 283.481 544.04C283.647 544.416 283.73 544.892 283.73 545.469V548.838C283.73 549.048 283.673 549.214 283.559 549.336C283.446 549.45 283.284 549.506 283.074 549.506C282.856 549.506 282.69 549.45 282.576 549.336C282.463 549.214 282.406 549.048 282.406 548.838V545.547C282.406 544.997 282.297 544.595 282.078 544.341C281.868 544.088 281.536 543.961 281.082 543.961C280.549 543.961 280.12 544.127 279.797 544.459C279.482 544.791 279.325 545.237 279.325 545.796V548.838C279.325 549.284 279.102 549.506 278.656 549.506ZM288.373 549.533C287.717 549.533 287.149 549.397 286.669 549.126C286.197 548.847 285.83 548.458 285.567 547.96C285.305 547.453 285.174 546.858 285.174 546.177C285.174 545.67 285.248 545.215 285.397 544.813C285.546 544.403 285.755 544.057 286.026 543.778C286.306 543.498 286.642 543.284 287.036 543.135C287.438 542.978 287.883 542.899 288.373 542.899C288.679 542.899 288.998 542.947 289.33 543.043C289.671 543.131 289.985 543.279 290.274 543.489C290.387 543.559 290.457 543.647 290.483 543.751C290.518 543.848 290.523 543.948 290.497 544.053C290.479 544.158 290.431 544.25 290.352 544.328C290.282 544.398 290.195 544.442 290.09 544.459C289.985 544.468 289.872 544.437 289.749 544.368C289.54 544.219 289.325 544.114 289.107 544.053C288.888 543.983 288.679 543.948 288.478 543.948C288.163 543.948 287.883 544 287.639 544.105C287.403 544.201 287.202 544.346 287.036 544.538C286.87 544.722 286.743 544.953 286.655 545.233C286.577 545.512 286.537 545.831 286.537 546.19C286.537 546.906 286.704 547.47 287.036 547.881C287.376 548.283 287.857 548.484 288.478 548.484C288.679 548.484 288.888 548.453 289.107 548.392C289.325 548.331 289.54 548.226 289.749 548.078C289.872 548.008 289.985 547.981 290.09 547.999C290.195 548.016 290.278 548.064 290.339 548.143C290.409 548.213 290.453 548.3 290.47 548.405C290.497 548.501 290.492 548.602 290.457 548.707C290.422 548.812 290.348 548.899 290.234 548.969C289.955 549.17 289.649 549.314 289.317 549.402C288.993 549.489 288.679 549.533 288.373 549.533ZM294.548 549.533C293.849 549.533 293.246 549.402 292.739 549.139C292.24 548.868 291.852 548.488 291.572 547.999C291.301 547.501 291.166 546.911 291.166 546.229C291.166 545.565 291.301 544.984 291.572 544.486C291.843 543.987 292.214 543.598 292.686 543.319C293.158 543.039 293.696 542.899 294.299 542.899C294.744 542.899 295.142 542.974 295.492 543.122C295.841 543.262 296.138 543.472 296.383 543.751C296.637 544.022 296.824 544.354 296.947 544.748C297.078 545.141 297.143 545.582 297.143 546.072C297.143 546.22 297.1 546.334 297.012 546.413C296.925 546.483 296.794 546.517 296.619 546.517H292.214V545.705H296.252L296.029 545.888C296.029 545.451 295.964 545.08 295.832 544.774C295.71 544.468 295.522 544.236 295.269 544.079C295.024 543.913 294.718 543.83 294.351 543.83C293.94 543.83 293.591 543.926 293.302 544.118C293.023 544.311 292.809 544.577 292.66 544.918C292.511 545.259 292.437 545.657 292.437 546.111V546.19C292.437 546.959 292.616 547.54 292.975 547.933C293.342 548.318 293.87 548.51 294.561 548.51C294.823 548.51 295.098 548.475 295.387 548.405C295.684 548.335 295.964 548.217 296.226 548.051C296.374 547.964 296.505 547.925 296.619 547.933C296.741 547.942 296.838 547.981 296.907 548.051C296.986 548.121 297.034 548.209 297.052 548.313C297.069 548.418 297.052 548.528 296.999 548.641C296.947 548.746 296.855 548.842 296.724 548.93C296.427 549.131 296.082 549.284 295.688 549.388C295.295 549.485 294.915 549.533 294.548 549.533ZM300.645 549.533C299.963 549.533 299.448 549.336 299.098 548.943C298.757 548.541 298.587 547.964 298.587 547.212V540.749C298.587 540.531 298.644 540.365 298.757 540.251C298.871 540.138 299.033 540.081 299.242 540.081C299.452 540.081 299.614 540.138 299.727 540.251C299.85 540.365 299.911 540.531 299.911 540.749V547.134C299.911 547.571 299.998 547.898 300.173 548.117C300.357 548.327 300.619 548.431 300.96 548.431C301.038 548.431 301.108 548.431 301.169 548.431C301.231 548.423 301.292 548.414 301.353 548.405C301.458 548.397 301.532 548.427 301.576 548.497C301.62 548.558 301.641 548.689 301.641 548.89C301.641 549.074 301.602 549.218 301.523 549.323C301.445 549.419 301.318 549.48 301.143 549.506C301.065 549.515 300.982 549.52 300.894 549.52C300.807 549.528 300.724 549.533 300.645 549.533Z" fill="#607F98"/>
<rect x="343.279" y="527.709" width="108.153" height="34.4122" rx="1.63868" fill="#607F98"/>
<path d="M377.837 549.506C377.662 549.506 377.522 549.467 377.417 549.388C377.313 549.31 377.251 549.205 377.234 549.074C377.216 548.943 377.243 548.794 377.313 548.628L380.865 540.658C380.953 540.448 381.062 540.299 381.193 540.212C381.333 540.124 381.486 540.081 381.652 540.081C381.809 540.081 381.953 540.124 382.084 540.212C382.224 540.299 382.338 540.448 382.425 540.658L385.978 548.628C386.057 548.794 386.087 548.947 386.07 549.087C386.052 549.218 385.995 549.323 385.899 549.402C385.803 549.471 385.668 549.506 385.493 549.506C385.301 549.506 385.148 549.458 385.034 549.362C384.92 549.266 384.82 549.118 384.732 548.917L383.815 546.793L384.431 547.16H378.846L379.449 546.793L378.545 548.917C378.457 549.126 378.361 549.279 378.256 549.375C378.152 549.463 378.012 549.506 377.837 549.506ZM381.626 541.68L379.646 546.373L379.318 546.059H383.946L383.644 546.373L381.652 541.68H381.626ZM390.153 549.533C389.497 549.533 388.929 549.397 388.448 549.126C387.976 548.847 387.609 548.458 387.347 547.96C387.085 547.453 386.954 546.858 386.954 546.177C386.954 545.67 387.028 545.215 387.177 544.813C387.325 544.403 387.535 544.057 387.806 543.778C388.086 543.498 388.422 543.284 388.815 543.135C389.217 542.978 389.663 542.899 390.153 542.899C390.458 542.899 390.777 542.947 391.109 543.043C391.45 543.131 391.765 543.279 392.053 543.489C392.167 543.559 392.237 543.647 392.263 543.751C392.298 543.848 392.302 543.948 392.276 544.053C392.259 544.158 392.211 544.25 392.132 544.328C392.062 544.398 391.975 544.442 391.87 544.459C391.765 544.468 391.651 544.437 391.529 544.368C391.319 544.219 391.105 544.114 390.887 544.053C390.668 543.983 390.458 543.948 390.257 543.948C389.943 543.948 389.663 544 389.418 544.105C389.182 544.201 388.981 544.346 388.815 544.538C388.649 544.722 388.523 544.953 388.435 545.233C388.357 545.512 388.317 545.831 388.317 546.19C388.317 546.906 388.483 547.47 388.815 547.881C389.156 548.283 389.637 548.484 390.257 548.484C390.458 548.484 390.668 548.453 390.887 548.392C391.105 548.331 391.319 548.226 391.529 548.078C391.651 548.008 391.765 547.981 391.87 547.999C391.975 548.016 392.058 548.064 392.119 548.143C392.189 548.213 392.233 548.3 392.25 548.405C392.276 548.501 392.272 548.602 392.237 548.707C392.202 548.812 392.128 548.899 392.014 548.969C391.734 549.17 391.428 549.314 391.096 549.402C390.773 549.489 390.458 549.533 390.153 549.533ZM396.144 549.533C395.488 549.533 394.92 549.397 394.44 549.126C393.968 548.847 393.601 548.458 393.339 547.96C393.076 547.453 392.945 546.858 392.945 546.177C392.945 545.67 393.02 545.215 393.168 544.813C393.317 544.403 393.526 544.057 393.797 543.778C394.077 543.498 394.413 543.284 394.807 543.135C395.209 542.978 395.655 542.899 396.144 542.899C396.45 542.899 396.769 542.947 397.101 543.043C397.442 543.131 397.756 543.279 398.045 543.489C398.158 543.559 398.228 543.647 398.255 543.751C398.289 543.848 398.294 543.948 398.268 544.053C398.25 544.158 398.202 544.25 398.123 544.328C398.054 544.398 397.966 544.442 397.861 544.459C397.756 544.468 397.643 544.437 397.52 544.368C397.311 544.219 397.097 544.114 396.878 544.053C396.66 543.983 396.45 543.948 396.249 543.948C395.934 543.948 395.655 544 395.41 544.105C395.174 544.201 394.973 544.346 394.807 544.538C394.641 544.722 394.514 544.953 394.427 545.233C394.348 545.512 394.309 545.831 394.309 546.19C394.309 546.906 394.475 547.47 394.807 547.881C395.148 548.283 395.628 548.484 396.249 548.484C396.45 548.484 396.66 548.453 396.878 548.392C397.097 548.331 397.311 548.226 397.52 548.078C397.643 548.008 397.756 547.981 397.861 547.999C397.966 548.016 398.049 548.064 398.11 548.143C398.18 548.213 398.224 548.3 398.241 548.405C398.268 548.501 398.263 548.602 398.228 548.707C398.193 548.812 398.119 548.899 398.005 548.969C397.726 549.17 397.42 549.314 397.088 549.402C396.764 549.489 396.45 549.533 396.144 549.533ZM402.319 549.533C401.62 549.533 401.017 549.402 400.51 549.139C400.012 548.868 399.623 548.488 399.343 547.999C399.072 547.501 398.937 546.911 398.937 546.229C398.937 545.565 399.072 544.984 399.343 544.486C399.614 543.987 399.985 543.598 400.457 543.319C400.929 543.039 401.467 542.899 402.07 542.899C402.516 542.899 402.913 542.974 403.263 543.122C403.612 543.262 403.909 543.472 404.154 543.751C404.408 544.022 404.596 544.354 404.718 544.748C404.849 545.141 404.915 545.582 404.915 546.072C404.915 546.22 404.871 546.334 404.783 546.413C404.696 546.483 404.565 546.517 404.39 546.517H399.985V545.705H404.023L403.8 545.888C403.8 545.451 403.735 545.08 403.604 544.774C403.481 544.468 403.293 544.236 403.04 544.079C402.795 543.913 402.489 543.83 402.122 543.83C401.711 543.83 401.362 543.926 401.073 544.118C400.794 544.311 400.58 544.577 400.431 544.918C400.283 545.259 400.208 545.657 400.208 546.111V546.19C400.208 546.959 400.387 547.54 400.746 547.933C401.113 548.318 401.642 548.51 402.332 548.51C402.594 548.51 402.869 548.475 403.158 548.405C403.455 548.335 403.735 548.217 403.997 548.051C404.145 547.964 404.277 547.925 404.39 547.933C404.513 547.942 404.609 547.981 404.679 548.051C404.757 548.121 404.805 548.209 404.823 548.313C404.84 548.418 404.823 548.528 404.77 548.641C404.718 548.746 404.626 548.842 404.495 548.93C404.198 549.131 403.853 549.284 403.459 549.388C403.066 549.485 402.686 549.533 402.319 549.533ZM407.013 551.866C406.804 551.866 406.642 551.809 406.528 551.696C406.415 551.582 406.358 551.416 406.358 551.198V543.594C406.358 543.376 406.415 543.21 406.528 543.096C406.642 542.982 406.799 542.926 407 542.926C407.21 542.926 407.372 542.982 407.485 543.096C407.599 543.21 407.656 543.376 407.656 543.594V544.735L407.512 544.459C407.651 543.987 407.927 543.612 408.338 543.332C408.748 543.043 409.233 542.899 409.793 542.899C410.361 542.899 410.855 543.035 411.274 543.306C411.702 543.577 412.03 543.957 412.257 544.446C412.493 544.936 412.611 545.526 412.611 546.216C412.611 546.889 412.493 547.479 412.257 547.986C412.03 548.484 411.707 548.868 411.287 549.139C410.868 549.402 410.369 549.533 409.793 549.533C409.242 549.533 408.761 549.393 408.351 549.113C407.94 548.833 407.665 548.462 407.525 547.999H407.682V551.198C407.682 551.416 407.621 551.582 407.499 551.696C407.385 551.809 407.223 551.866 407.013 551.866ZM409.465 548.51C409.832 548.51 410.151 548.423 410.422 548.248C410.693 548.073 410.903 547.815 411.051 547.474C411.2 547.134 411.274 546.714 411.274 546.216C411.274 545.464 411.108 544.896 410.776 544.512C410.453 544.127 410.016 543.935 409.465 543.935C409.107 543.935 408.788 544.022 408.508 544.197C408.237 544.363 408.027 544.617 407.879 544.957C407.73 545.298 407.656 545.718 407.656 546.216C407.656 546.959 407.822 547.527 408.154 547.92C408.486 548.313 408.923 548.51 409.465 548.51ZM416.766 549.533C416.242 549.533 415.8 549.441 415.442 549.257C415.084 549.074 414.817 548.803 414.642 548.445C414.468 548.086 414.38 547.649 414.38 547.134V544.04H413.594C413.419 544.04 413.283 543.996 413.187 543.909C413.091 543.813 413.043 543.686 413.043 543.529C413.043 543.362 413.091 543.236 413.187 543.148C413.283 543.061 413.419 543.017 413.594 543.017H414.38V541.667C414.38 541.449 414.437 541.282 414.551 541.169C414.673 541.055 414.839 540.998 415.049 540.998C415.258 540.998 415.42 541.055 415.534 541.169C415.647 541.282 415.704 541.449 415.704 541.667V543.017H417.238C417.413 543.017 417.548 543.061 417.644 543.148C417.741 543.236 417.789 543.362 417.789 543.529C417.789 543.686 417.741 543.813 417.644 543.909C417.548 543.996 417.413 544.04 417.238 544.04H415.704V547.029C415.704 547.492 415.8 547.842 415.993 548.078C416.194 548.313 416.517 548.431 416.963 548.431C417.12 548.431 417.255 548.418 417.369 548.392C417.491 548.357 417.592 548.335 417.671 548.327C417.767 548.327 417.845 548.362 417.907 548.431C417.968 548.493 417.998 548.615 417.998 548.799C417.998 548.93 417.972 549.052 417.92 549.166C417.876 549.279 417.793 549.353 417.671 549.388C417.566 549.423 417.422 549.454 417.238 549.48C417.063 549.515 416.906 549.533 416.766 549.533Z" fill="white"/>
</g>
<defs>
<filter id="filter0_d_1844_7437" x="81" y="134" width="842.977" height="667" filterUnits="userSpaceOnUse" color-interpolation-filters="sRGB">
<feFlood flood-opacity="0" result="BackgroundImageFix"/>
<feColorMatrix in="SourceAlpha" type="matrix" values="0 0 0 0 0 0 0 0 0 0 0 0 0 0 0 0 0 0 127 0" result="hardAlpha"/>
<feOffset dx="20" dy="24"/>
<feGaussianBlur stdDeviation="32"/>
<feComposite in2="hardAlpha" operator="out"/>
<feColorMatrix type="matrix" values="0 0 0 0 0 0 0 0 0 0 0 0 0 0 0 0 0 0 0.06 0"/>
<feBlend mode="normal" in2="BackgroundImageFix" result="effect1_dropShadow_1844_7437"/>
<feBlend mode="normal" in="SourceGraphic" in2="effect1_dropShadow_1844_7437" result="shape"/>
</filter>
<filter id="filter1_d_1844_7437" x="9.89527" y="178.426" width="856.644" height="631.969" filterUnits="userSpaceOnUse" color-interpolation-filters="sRGB">
<feFlood flood-opacity="0" result="BackgroundImageFix"/>
<feColorMatrix in="SourceAlpha" type="matrix" values="0 0 0 0 0 0 0 0 0 0 0 0 0 0 0 0 0 0 127 0" result="hardAlpha"/>
<feOffset dx="-44.271" dy="26.5626"/>
<feGaussianBlur stdDeviation="35.4168"/>
<feComposite in2="hardAlpha" operator="out"/>
<feColorMatrix type="matrix" values="0 0 0 0 0 0 0 0 0 0 0 0 0 0 0 0 0 0 0.06 0"/>
<feBlend mode="normal" in2="BackgroundImageFix" result="effect1_dropShadow_1844_7437"/>
<feBlend mode="normal" in="SourceGraphic" in2="effect1_dropShadow_1844_7437" result="shape"/>
</filter>
<filter id="filter2_d_1844_7437" x="198.776" y="295.614" width="543.835" height="336.835" filterUnits="userSpaceOnUse" color-interpolation-filters="sRGB">
<feFlood flood-opacity="0" result="BackgroundImageFix"/>
<feColorMatrix in="SourceAlpha" type="matrix" values="0 0 0 0 0 0 0 0 0 0 0 0 0 0 0 0 0 0 127 0" result="hardAlpha"/>
<feOffset dx="19.1929" dy="23.0315"/>
<feGaussianBlur stdDeviation="30.7087"/>
<feComposite in2="hardAlpha" operator="out"/>
<feColorMatrix type="matrix" values="0 0 0 0 0 0 0 0 0 0 0 0 0 0 0 0 0 0 0.1 0"/>
<feBlend mode="normal" in2="BackgroundImageFix" result="effect1_dropShadow_1844_7437"/>
<feBlend mode="normal" in="SourceGraphic" in2="effect1_dropShadow_1844_7437" result="shape"/>
</filter>
<filter id="filter3_di_1844_7437" x="125" y="174" width="947.99" height="49.1582" filterUnits="userSpaceOnUse" color-interpolation-filters="sRGB">
<feFlood flood-opacity="0" result="BackgroundImageFix"/>
<feColorMatrix in="SourceAlpha" type="matrix" values="0 0 0 0 0 0 0 0 0 0 0 0 0 0 0 0 0 0 127 0" result="hardAlpha"/>
<feOffset dy="0.46007"/>
<feColorMatrix type="matrix" values="0 0 0 0 0 0 0 0 0 0 0 0 0 0 0 0 0 0 0.15 0"/>
<feBlend mode="normal" in2="BackgroundImageFix" result="effect1_dropShadow_1844_7437"/>
<feBlend mode="normal" in="SourceGraphic" in2="effect1_dropShadow_1844_7437" result="shape"/>
<feColorMatrix in="SourceAlpha" type="matrix" values="0 0 0 0 0 0 0 0 0 0 0 0 0 0 0 0 0 0 127 0" result="hardAlpha"/>
<feOffset dy="-0.46007"/>
<feComposite in2="hardAlpha" operator="arithmetic" k2="-1" k3="1"/>
<feColorMatrix type="matrix" values="0 0 0 0 0 0 0 0 0 0 0 0 0 0 0 0 0 0 0.05 0"/>
<feBlend mode="normal" in2="shape" result="effect2_innerShadow_1844_7437"/>
</filter>
<filter id="filter4_d_1844_7437" x="0.192913" y="305.031" width="581.141" height="390.829" filterUnits="userSpaceOnUse" color-interpolation-filters="sRGB">
<feFlood flood-opacity="0" result="BackgroundImageFix"/>
<feColorMatrix in="SourceAlpha" type="matrix" values="0 0 0 0 0 0 0 0 0 0 0 0 0 0 0 0 0 0 127 0" result="hardAlpha"/>
<feOffset dx="19.1929" dy="23.0315"/>
<feGaussianBlur stdDeviation="40"/>
<feComposite in2="hardAlpha" operator="out"/>
<feColorMatrix type="matrix" values="0 0 0 0 0.055625 0 0 0 0 0.231771 0 0 0 0 0.370833 0 0 0 0.12 0"/>
<feBlend mode="normal" in2="BackgroundImageFix" result="effect1_dropShadow_1844_7437"/>
<feBlend mode="normal" in="SourceGraphic" in2="effect1_dropShadow_1844_7437" result="shape"/>
</filter>
<clipPath id="clip0_1844_7437">
<rect width="652" height="539" fill="white" transform="translate(125 174)"/>
</clipPath>
<clipPath id="clip1_1844_7437">
<rect x="125" y="174" width="714.977" height="539" rx="8" fill="white"/>
</clipPath>
</defs>
</svg>
