<svg width="56" height="51" viewBox="0 0 56 51" fill="none" xmlns="http://www.w3.org/2000/svg">
<path fill-rule="evenodd" clip-rule="evenodd" d="M3.09417 26.3893C1.8915 26.3893 1.00008 27.276 1.00008 28.238V47.8338C1.00008 48.7958 1.89148 49.6825 3.09417 49.6825H24.6657C25.8684 49.6825 26.7598 48.7958 26.7598 47.8338V28.238C26.7598 27.276 25.8683 26.3893 24.6657 26.3893H3.09417ZM3.09417 25.4273C1.39397 25.4273 7.24792e-05 26.6935 7.24792e-05 28.238V47.8338C7.24792e-05 49.3783 1.39397 50.6445 3.09417 50.6445H24.6657C26.3659 50.6445 27.7598 49.3783 27.7598 47.8338V28.238C27.7598 26.6935 26.3659 25.4273 24.6657 25.4273H3.09417Z" fill="url(#paint0_linear_2208_2891)" fill-opacity="0.6"/>
<path fill-rule="evenodd" clip-rule="evenodd" d="M31.1219 1.32613C29.903 1.32613 29.0009 2.2232 29.0009 3.1953V22.9345C29.0009 23.9065 29.9031 24.8036 31.1219 24.8036H52.8809C54.0998 24.8036 55.0019 23.9064 55.0019 22.9345V3.1953C55.0019 2.2232 54.0998 1.32613 52.8809 1.32613H31.1219ZM31.1219 0.364143C29.4069 0.364143 28.0009 1.63945 28.0009 3.1953V22.9345C28.0009 24.4902 29.4069 25.7656 31.1219 25.7656H52.8809C54.5959 25.7656 56.002 24.4902 56.002 22.9345V3.1953C56.002 1.63945 54.5959 0.364143 52.8809 0.364143H31.1219Z" fill="url(#paint1_linear_2208_2891)" fill-opacity="0.8"/>
<defs>
<linearGradient id="paint0_linear_2208_2891" x1="57.0002" y1="0.876572" x2="-0.493501" y2="53.1089" gradientUnits="userSpaceOnUse">
<stop stop-color="#4582F7"/>
<stop offset="1" stop-color="#4582F7" stop-opacity="0"/>
</linearGradient>
<linearGradient id="paint1_linear_2208_2891" x1="70.0021" y1="-10.8593" x2="22.6679" y2="32.704" gradientUnits="userSpaceOnUse">
<stop stop-color="#4582F7"/>
<stop offset="1" stop-color="#4582F7" stop-opacity="0"/>
</linearGradient>
</defs>
</svg>
