<svg width="133" height="127" viewBox="0 0 133 127" fill="none" xmlns="http://www.w3.org/2000/svg">
<path d="M129 57.9866C129 61.846 125.786 65.0098 121.867 65.0098H72.1334C68.2136 65.0098 65 61.846 65 57.9866V9.02299C65 5.16381 68.2136 2 72.1334 2H121.867C125.786 2 129 5.16381 129 9.02299V57.9866Z" fill="#F0F7FD"/>
<path d="M64.0001 119.06C64.0001 122.948 60.7865 126.134 56.8667 126.134H7.13346C3.21363 126.134 0 122.948 0 119.06V69.7382C0 65.851 3.21363 62.6641 7.13346 62.6641H56.8667C60.7865 62.6641 64.0001 65.851 64.0001 69.7382V119.06Z" fill="#F0F7FD"/>
<mask id="path-3-inside-1_2429_2844" fill="white">
<path d="M133 109H78V55H115C124.941 55 133 63.0589 133 73V109Z"/>
</mask>
<path d="M133 109H78H133ZM78 45H115C130.464 45 143 57.536 143 73H123C123 68.5817 119.418 65 115 65H78V45ZM115 45C130.464 45 143 57.536 143 73V109H123V73C123 68.5817 119.418 65 115 65V45ZM78 109V55V109Z" fill="#F0F7FD" mask="url(#path-3-inside-1_2429_2844)"/>
<mask id="path-5-inside-2_2429_2844" fill="white">
<path d="M75 54H20V0H57C66.9411 0 75 8.05888 75 18V54Z"/>
</mask>
<path d="M75 54H20H75ZM20 -10H57C72.464 -10 85 2.53603 85 18H65C65 13.5817 61.4183 10 57 10H20V-10ZM57 -10C72.464 -10 85 2.53603 85 18V54H65V18C65 13.5817 61.4183 10 57 10V-10ZM20 54V0V54Z" fill="#F0F7FD" mask="url(#path-5-inside-2_2429_2844)"/>
</svg>
