<svg width="38" height="38" viewBox="0 0 38 38" fill="none" xmlns="http://www.w3.org/2000/svg">
<g id="Layer 2">
<g id="01.Add">
<path id="Vector" d="M28.8897 0.662109H9.109C6.87174 0.668474 4.72793 1.56004 3.14594 3.14203C1.56395 4.72402 0.672381 6.86783 0.666016 9.10509L0.666016 28.8858C0.672381 31.1231 1.56395 33.2669 3.14594 34.8489C4.72793 36.4308 6.87174 37.3224 9.109 37.3288H28.8897C31.127 37.3224 33.2708 36.4308 34.8528 34.8489C36.4348 33.2669 37.3263 31.1231 37.3327 28.8858V9.10509C37.3263 6.86783 36.4348 4.72402 34.8528 3.14203C33.2708 1.56004 31.127 0.668474 28.8897 0.662109ZM26.5281 20.5755H20.9629C20.9201 20.5752 20.8776 20.5834 20.8379 20.5996C20.7983 20.6159 20.7623 20.6399 20.732 20.6702C20.7017 20.7005 20.6777 20.7365 20.6614 20.7761C20.6452 20.8158 20.637 20.8583 20.6373 20.9011V26.4735C20.6373 26.9079 20.4647 27.3245 20.1575 27.6317C19.8504 27.9389 19.4338 28.1115 18.9994 28.1115C18.5649 28.1115 18.1483 27.9389 17.8412 27.6317C17.534 27.3245 17.3614 26.9079 17.3614 26.4735V20.9011C17.3617 20.8583 17.3535 20.8158 17.3373 20.7761C17.321 20.7365 17.297 20.7005 17.2667 20.6702C17.2364 20.6399 17.2004 20.6159 17.1608 20.5996C17.1211 20.5834 17.0786 20.5752 17.0358 20.5755H11.4706C11.2555 20.5755 11.0425 20.5331 10.8438 20.4508C10.6451 20.3685 10.4645 20.2478 10.3124 20.0957C10.1603 19.9437 10.0397 19.7631 9.95736 19.5644C9.87505 19.3656 9.83268 19.1526 9.83268 18.9376C9.83268 18.7225 9.87505 18.5095 9.95736 18.3107C10.0397 18.112 10.1603 17.9314 10.3124 17.7794C10.4645 17.6273 10.6451 17.5066 10.8438 17.4243C11.0425 17.342 11.2555 17.2996 11.4706 17.2996H17.0358C17.0786 17.2999 17.1211 17.2917 17.1608 17.2755C17.2004 17.2592 17.2364 17.2352 17.2667 17.2049C17.297 17.1746 17.321 17.1386 17.3373 17.099C17.3535 17.0593 17.3617 17.0168 17.3614 16.974V11.4088C17.3614 10.9744 17.534 10.5578 17.8412 10.2506C18.1483 9.94345 18.5649 9.77088 18.9994 9.77088C19.4338 9.77088 19.8504 9.94345 20.1575 10.2506C20.4647 10.5578 20.6373 10.9744 20.6373 11.4088V16.974C20.636 17.0174 20.6435 17.0607 20.6593 17.1012C20.6751 17.1417 20.6989 17.1786 20.7293 17.2097C20.7597 17.2407 20.7961 17.2654 20.8362 17.2821C20.8764 17.2988 20.9195 17.3072 20.9629 17.3068H26.5281C26.9625 17.3068 27.3791 17.4794 27.6863 17.7866C27.9935 18.0938 28.166 18.5104 28.166 18.9448C28.166 19.3792 27.9935 19.7958 27.6863 20.103C27.3791 20.4102 26.9625 20.5827 26.5281 20.5827V20.5755Z" fill="#A7AEBC"/>
</g>
</g>
</svg>
