<svg width="34" height="38" viewBox="0 0 34 38" fill="none" xmlns="http://www.w3.org/2000/svg">
<g id="Group 3">
<path id="Vector" fill-rule="evenodd" clip-rule="evenodd" d="M33.499 32.7447C33.5126 35.2622 31.4898 37.3121 28.9831 37.3256C28.7968 37.3271 28.6088 37.3166 28.424 37.2939C26.0977 36.9485 24.3936 34.9167 24.4506 32.5576V5.43414C24.395 3.07199 26.1037 1.04028 28.4315 0.697847C30.9216 0.405246 33.1773 2.19407 33.4688 4.6935C33.4899 4.87753 33.5004 5.06157 33.4989 5.24703V32.7446L33.499 32.7447Z" fill="#A7AEBC"/>
<path id="Vector_2" fill-rule="evenodd" clip-rule="evenodd" d="M5.02489 28.2497C7.52406 28.2497 9.54979 30.283 9.54979 32.7914C9.54979 35.2999 7.52406 37.3331 5.02489 37.3331C2.52573 37.3331 0.5 35.2999 0.5 32.7914C0.5 30.283 2.52573 28.2497 5.02489 28.2497ZM16.93 14.4858C14.4189 14.6245 12.4712 16.7377 12.5299 19.2613V31.4594C12.5299 34.7703 13.9815 36.7795 16.108 37.2078C18.5621 37.7071 20.953 36.1157 21.4504 33.6526C21.512 33.3509 21.5421 33.0448 21.5405 32.7371V19.0502C21.545 16.5327 19.5163 14.4888 17.0082 14.4844C16.9826 14.4844 16.9556 14.4844 16.93 14.4859V14.4858Z" fill="#A7AEBC"/>
</g>
</svg>
