<svg width="40" height="40" viewBox="0 0 40 40" fill="none" xmlns="http://www.w3.org/2000/svg">
<path opacity="0.979" fill-rule="evenodd" clip-rule="evenodd" d="M7.72282 3.33334C15.8825 3.33334 24.0423 3.33334 32.202 3.33334C33.3506 3.69055 33.9909 4.4718 34.1226 5.67709C34.1551 6.82706 34.166 7.97724 34.1551 9.12761C24.6933 9.12761 15.2315 9.12761 5.76969 9.12761C5.75884 7.97724 5.7697 6.82706 5.80224 5.67709C5.93397 4.4718 6.57416 3.69055 7.72282 3.33334ZM8.63427 5.54689C12.6708 5.53603 16.7073 5.54689 20.7436 5.57944C21.3108 5.71403 21.4736 6.05041 21.2319 6.58855C21.1291 6.68889 21.0097 6.76484 20.8739 6.81642C16.7506 6.85982 12.6273 6.85982 8.50407 6.81642C8.0093 6.61248 7.88995 6.27611 8.14599 5.8073C8.29282 5.67717 8.45558 5.59037 8.63427 5.54689ZM25.4312 5.54689C25.8044 5.50724 26.1408 5.59405 26.4403 5.8073C26.6721 6.26176 26.5528 6.59813 26.0822 6.81642C25.8218 6.85982 25.5614 6.85982 25.3009 6.81642C24.8062 6.61248 24.6868 6.27611 24.9429 5.8073C25.0897 5.67717 25.2524 5.59037 25.4312 5.54689ZM28.0353 5.54689C28.4227 5.49755 28.7699 5.58435 29.077 5.8073C29.3257 6.26148 29.2172 6.59786 28.7515 6.81642C28.4694 6.85982 28.1872 6.85982 27.9051 6.81642C27.3892 6.52057 27.3241 6.15164 27.7098 5.70965C27.828 5.66037 27.9364 5.60612 28.0353 5.54689ZM30.7046 5.54689C31.1201 5.48024 31.4782 5.58875 31.7788 5.87241C31.971 6.54946 31.7106 6.87498 30.9976 6.84897C30.3597 6.90555 30.0775 6.62343 30.1512 6.00261C30.2727 5.76067 30.4571 5.60877 30.7046 5.54689Z" fill="#4582F7"/>
<path opacity="0.974" fill-rule="evenodd" clip-rule="evenodd" d="M5.76969 10.3647C15.2315 10.3647 24.6933 10.3647 34.1551 10.3647C34.166 16.3109 34.1551 22.2571 34.1226 28.2032C34.0754 29.0963 33.6739 29.7799 32.9181 30.254C32.5914 30.428 32.2442 30.5366 31.8765 30.5795C28.2741 30.6121 24.6716 30.623 21.0692 30.6121C21.2144 29.1563 20.7369 27.9519 19.6369 26.9988C22.6968 26.9771 25.7567 26.9554 28.8166 26.9337C30.7391 26.552 31.8351 25.3909 32.1043 23.4506C32.1631 22.0815 32.1414 20.7143 32.0392 19.3491C31.553 17.6041 30.4136 16.595 28.6213 16.3217C28.3112 14.7667 27.378 13.8335 25.8218 13.5222C23.2827 13.5114 20.7437 13.5006 18.2046 13.4897C15.5546 13.4798 12.9071 13.5123 10.2619 13.5873C8.87114 14.0015 8.05734 14.9238 7.82048 16.3543C7.80962 17.0053 7.79878 17.6564 7.78792 18.3074C7.78143 19.0912 7.81399 19.8725 7.88558 20.6511C8.29022 22.0105 9.19082 22.8243 10.5874 23.0925C13.1265 23.1142 15.6655 23.136 18.2046 23.1577C16.4615 23.7662 15.4849 24.9924 15.2749 26.836C13.989 27.7589 13.4031 29.0176 13.5171 30.6121C11.5616 30.6415 9.60847 30.609 7.65772 30.5144C6.53284 30.1493 5.91435 29.3788 5.80225 28.2032C5.76969 22.2571 5.75884 16.3109 5.76969 10.3647Z" fill="#4582F7"/>
<path opacity="0.981" fill-rule="evenodd" clip-rule="evenodd" d="M17.8764 36.6667C17.4858 36.6667 17.0952 36.6667 16.7045 36.6667C15.8264 36.4072 15.2296 35.8429 14.9142 34.974C14.8084 33.1537 14.7868 31.3308 14.8491 29.5052C15.0413 28.5317 15.6055 27.8807 16.5418 27.5521C16.4124 26.3313 16.8356 25.3656 17.8113 24.655C18.1194 24.4944 18.4449 24.3859 18.7879 24.3294C22.0648 24.3078 25.3417 24.286 28.6186 24.2643C29.0487 24.1164 29.32 23.8234 29.4324 23.3854C29.4758 22.2135 29.4758 21.0417 29.4324 19.8698C29.3092 19.4825 29.0597 19.2112 28.6837 19.056C28.2502 19.0234 27.8162 19.0126 27.3816 19.0234C27.4463 19.7323 27.327 20.405 27.0236 21.0417C26.723 21.4142 26.3432 21.6638 25.8842 21.7904C20.7627 21.8338 15.6412 21.8338 10.5196 21.7904C9.89562 21.6222 9.45076 21.2425 9.18501 20.651C9.11174 19.8624 9.07919 19.0703 9.08736 18.2747C9.07851 17.4999 9.11106 16.7296 9.18501 15.9635C9.44439 15.4003 9.86756 15.0205 10.4545 14.8242C15.6195 14.7808 20.7844 14.7808 25.9493 14.8242C26.6546 15.0087 27.0995 15.4536 27.284 16.1589C27.3612 16.6332 27.3937 17.1106 27.3816 17.5912C28.2679 17.4698 29.0925 17.6326 29.8556 18.0794C30.3577 18.4732 30.6724 18.9832 30.7996 19.6094C30.843 20.9766 30.843 22.3438 30.7996 23.7109C30.4997 24.8788 29.751 25.5408 28.5535 25.6966C25.2983 25.7183 22.0431 25.74 18.7879 25.7617C18.3799 25.8876 18.1303 26.1589 18.0392 26.5755C17.9958 26.901 17.9958 27.2266 18.0392 27.5521C19.0562 27.9179 19.6422 28.6341 19.797 29.7005C19.8404 31.2847 19.8404 32.8689 19.797 34.4531C19.6057 35.588 18.9654 36.3259 17.8764 36.6667Z" fill="#4582F7"/>
</svg>
