<svg width="40" height="40" viewBox="0 0 40 40" fill="none" xmlns="http://www.w3.org/2000/svg">
<path opacity="0.985" fill-rule="evenodd" clip-rule="evenodd" d="M18.5996 3.33334C19.5067 3.33334 20.4138 3.33334 21.321 3.33334C27.5247 4.10535 31.9469 7.32149 34.5876 12.9818C35.2244 14.5396 35.6264 16.1476 35.7936 17.806C35.7936 18.7131 35.7936 19.6202 35.7936 20.5274C35.0216 26.7311 31.8055 31.1533 26.1452 33.794C24.5874 34.4308 22.9793 34.8328 21.321 35C20.4138 35 19.5067 35 18.5996 35C12.3958 34.228 7.97363 31.0119 5.33301 25.3516C4.69617 23.7938 4.29415 22.1857 4.12695 20.5274C4.12695 19.6202 4.12695 18.7131 4.12695 17.806C4.89896 11.6022 8.1151 7.18002 13.7754 4.5394C15.3332 3.90256 16.9413 3.50054 18.5996 3.33334ZM18.9089 7.91017C21.5231 7.73392 23.9353 8.3421 26.1452 9.73471C20.9395 14.9404 15.734 20.1459 10.5283 25.3516C8.42217 21.9127 8.13354 18.3255 9.66243 14.5899C11.5548 10.7209 14.6369 8.49434 18.9089 7.91017ZM29.3613 12.9818C31.4983 16.4064 31.7972 19.9937 30.2581 23.7435C28.4855 27.4092 25.5889 29.6049 21.5684 30.3304C18.7591 30.6898 16.1615 30.1125 13.7754 28.5986C18.9831 23.4012 24.1784 18.1956 29.3613 12.9818Z" fill="#4582F7"/>
</svg>
