<svg width="40" height="40" viewBox="0 0 40 40" fill="none" xmlns="http://www.w3.org/2000/svg">
<path opacity="0.973" fill-rule="evenodd" clip-rule="evenodd" d="M22.2338 3.33333C23.3841 3.33333 24.5342 3.33333 25.6844 3.33333C25.909 3.94832 26.1043 4.57767 26.2704 5.22138C26.5362 5.37708 26.8183 5.45303 27.1167 5.44924C27.5508 5.18882 27.9848 4.9284 28.4188 4.66798C28.549 4.62458 28.6792 4.62458 28.8095 4.66798C29.5563 5.34963 30.2832 6.05494 30.9905 6.7839C31.0853 6.97049 31.107 7.16581 31.0556 7.36984C30.8386 7.71707 30.6215 8.0643 30.4045 8.41153C30.2818 8.5687 30.2384 8.74231 30.2743 8.93237C30.3682 9.09836 30.4441 9.27198 30.5022 9.45321C31.0845 9.62594 31.6704 9.7887 32.26 9.9415C32.3507 10.0177 32.405 10.1154 32.4228 10.2345C32.4662 11.2762 32.4662 12.3178 32.4228 13.3595C32.3686 13.5006 32.2709 13.5983 32.1298 13.6525C31.609 13.7827 31.0881 13.9129 30.5673 14.0431C30.4155 14.2711 30.307 14.5206 30.2418 14.7918C30.4955 15.2774 30.7668 15.7549 31.0556 16.2241C31.099 16.376 31.099 16.528 31.0556 16.6799C30.3286 17.4069 29.6016 18.1339 28.8746 18.8609C28.7852 18.8871 28.6985 18.9196 28.6141 18.9586C28.0566 18.6634 27.5032 18.3597 26.954 18.0471C26.7094 18.1539 26.4599 18.2407 26.2052 18.3075C26.0985 18.8518 25.9792 19.3943 25.8472 19.9351C25.7929 20.0762 25.6953 20.1739 25.5542 20.2281C24.4908 20.2715 23.4274 20.2715 22.364 20.2281C22.223 20.1739 22.1253 20.0762 22.0711 19.9351C21.9409 19.4143 21.8107 18.8934 21.6804 18.3726C21.4538 18.2391 21.2151 18.1306 20.9643 18.0471C20.4151 18.3597 19.8617 18.6634 19.3041 18.9586C19.2198 18.9196 19.133 18.8871 19.0437 18.8609C18.3167 18.1339 17.5897 17.4069 16.8627 16.6799C16.8192 16.5062 16.8192 16.3327 16.8627 16.159C17.1493 15.7103 17.4206 15.2545 17.6765 14.7918C17.598 14.5456 17.5004 14.3069 17.3835 14.0757C16.8579 13.9198 16.3262 13.7788 15.7884 13.6525C15.6473 13.5983 15.5497 13.5006 15.4955 13.3595C15.452 12.2962 15.452 11.2327 15.4955 10.1694C15.5257 10.0762 15.58 10.0003 15.6582 9.9415C16.2478 9.7887 16.8338 9.62594 17.4161 9.45321C17.5119 9.22893 17.5987 9.00107 17.6765 8.7696C17.4138 8.29873 17.1426 7.83215 16.8627 7.36984C16.8112 7.16581 16.8329 6.97049 16.9278 6.7839C17.635 6.05494 18.362 5.34963 19.1088 4.66798C19.239 4.62458 19.3692 4.62458 19.4994 4.66798C19.9335 4.9284 20.3675 5.18882 20.8015 5.44924C21.126 5.45562 21.419 5.35797 21.6804 5.15627C21.8056 4.52387 21.9901 3.91622 22.2338 3.33333ZM23.4708 7.23963C26.2308 7.23303 27.891 8.57853 28.4514 11.2762C28.5526 13.5813 27.5435 15.1764 25.424 16.0614C23.1624 16.6496 21.372 15.9877 20.0528 14.0757C19.0218 12.0049 19.293 10.1277 20.8666 8.44408C21.6332 7.81102 22.5014 7.40953 23.4708 7.23963Z" fill="#4582F7"/>
<path opacity="0.979" fill-rule="evenodd" clip-rule="evenodd" d="M23.7347 7.95573C26.1813 8.08023 27.5268 9.36063 27.7712 11.7969C27.6445 13.7355 26.6462 14.9617 24.7764 15.4754C22.4833 15.7777 20.9751 14.8337 20.2516 12.6433C19.9362 10.5282 20.7501 9.0416 22.693 8.1836C23.0449 8.08619 23.3922 8.01024 23.7347 7.95573Z" fill="#4582F7"/>
<path opacity="0.984" fill-rule="evenodd" clip-rule="evenodd" d="M34.0212 20.0001C35.3779 19.849 36.1592 20.4458 36.365 21.7905C36.3427 22.2699 36.1799 22.6931 35.8767 23.0601C33.522 25.4147 31.1674 27.7693 28.8128 30.124C28.476 30.4226 28.0854 30.6179 27.6409 30.7099C24.2554 30.7316 20.87 30.7533 17.4845 30.775C17.182 30.7962 16.8999 30.8831 16.6381 31.0354C16.1282 31.4152 15.6181 31.795 15.1081 32.1748C13.3351 29.816 11.5881 27.4397 9.86719 25.0458C10.3041 24.1531 10.9769 23.5021 11.8854 23.0926C14.1916 22.0575 16.5788 21.8188 19.047 22.3765C19.4094 22.4925 19.7567 22.6445 20.0887 22.8322C22.3674 22.8539 24.646 22.8756 26.9247 22.8973C28.198 23.442 28.5343 24.3426 27.9339 25.5992C27.6775 25.9494 27.3411 26.1773 26.9247 26.2828C24.646 26.3044 22.3674 26.3262 20.0887 26.3479C19.6546 26.5866 19.6546 26.8253 20.0887 27.064C22.4133 27.127 24.7354 27.1053 27.0549 26.9989C28.1854 26.6713 28.8255 25.9226 28.9755 24.7528C30.4621 23.2662 31.9487 21.7796 33.4352 20.2931C33.6365 20.1924 33.8319 20.0948 34.0212 20.0001Z" fill="#4582F7"/>
<path opacity="0.969" fill-rule="evenodd" clip-rule="evenodd" d="M11.1648 36.6668C11.0997 36.6668 11.0346 36.6668 10.9695 36.6668C8.82439 33.6911 6.65422 30.7288 4.45898 27.78C5.83872 26.7366 7.22763 25.7058 8.62571 24.6875C10.8407 27.6408 13.0325 30.6139 15.2013 33.6069C13.8772 34.6591 12.5318 35.6791 11.1648 36.6668ZM8.23508 26.3802C9.34598 26.4537 9.72576 27.018 9.37442 28.073C8.61355 28.8149 7.9625 28.7281 7.42127 27.8125C7.29854 27.102 7.56981 26.6246 8.23508 26.3802Z" fill="#4582F7"/>
<path opacity="0.798" fill-rule="evenodd" clip-rule="evenodd" d="M8.36759 27.0964C8.82868 27.1551 8.93719 27.383 8.69311 27.78C8.23801 27.9105 8.05355 27.7477 8.13972 27.2917C8.21427 27.2177 8.29022 27.1526 8.36759 27.0964Z" fill="#4582F7"/>
</svg>
