<svg width="40" height="40" viewBox="0 0 40 40" fill="none" xmlns="http://www.w3.org/2000/svg">
<path opacity="0.99" fill-rule="evenodd" clip-rule="evenodd" d="M12.1484 3.24219C17.6706 3.20626 23.1915 3.24532 28.7109 3.35938C33.6763 4.18446 36.3195 7.11415 36.6406 12.1484C36.6927 17.3568 36.6927 22.5651 36.6406 27.7734C36.5492 30.8081 35.3122 33.2431 32.9297 35.0781C31.3534 36.0583 29.6347 36.5791 27.7734 36.6406C22.5651 36.6927 17.3568 36.6927 12.1484 36.6406C9.1136 36.5491 6.67867 35.3121 4.84375 32.9297C3.86356 31.3532 3.34272 29.6345 3.28125 27.7734C3.22917 22.5651 3.22917 17.3568 3.28125 12.1484C3.75079 6.69194 6.70652 3.72319 12.1484 3.24219ZM15.3516 11.0547C16.2327 10.973 16.7536 11.3637 16.9141 12.2266C16.8774 12.5058 16.7863 12.7663 16.6406 13.0078C15.3255 14.3229 14.0104 15.638 12.6953 16.9531C12.2005 17.3177 11.7057 17.3177 11.2109 16.9531C10.7031 16.4453 10.1953 15.9375 9.6875 15.4297C9.25281 14.4009 9.57836 13.7759 10.6641 13.5547C11.1682 13.5724 11.5588 13.7938 11.8359 14.2188C11.888 14.2709 11.9401 14.2709 11.9922 14.2188C12.9297 13.2813 13.8672 12.3438 14.8047 11.4063C14.9813 11.2666 15.1635 11.1494 15.3516 11.0547ZM20.1172 13.5547C23.2684 13.5416 26.4194 13.5547 29.5703 13.5938C30.3956 13.9823 30.617 14.5942 30.2344 15.4297C30.0173 15.688 29.7439 15.8573 29.4141 15.9375C26.3672 15.9896 23.3203 15.9896 20.2734 15.9375C19.3722 15.6063 19.0988 14.9943 19.4531 14.1016C19.6438 13.8708 19.8652 13.6885 20.1172 13.5547ZM15.4297 22.6953C16.2891 22.6566 16.7839 23.0602 16.9141 23.9063C16.888 24.1807 16.797 24.4281 16.6406 24.6484C15.2995 25.9896 13.9584 27.3307 12.6172 28.6719C12.1745 28.9323 11.7318 28.9323 11.2891 28.6719C10.7552 28.1381 10.2213 27.6041 9.6875 27.0703C9.28844 26.0716 9.61399 25.4466 10.6641 25.1953C11.147 25.2545 11.5376 25.4758 11.8359 25.8594C11.9141 25.9115 11.9922 25.9115 12.0703 25.8594C13.0599 24.8698 14.0495 23.8802 15.0391 22.8906C15.1809 22.8315 15.311 22.7664 15.4297 22.6953ZM20.1953 25.1953C23.2944 25.1823 26.3934 25.1953 29.4922 25.2344C30.2229 25.4845 30.5224 25.9923 30.3906 26.7578C30.2144 27.1685 29.9148 27.442 29.4922 27.5781C26.3932 27.6302 23.2943 27.6302 20.1953 27.5781C19.2748 27.1863 19.0534 26.5483 19.5313 25.6641C19.7399 25.4764 19.9613 25.3202 20.1953 25.1953Z" fill="#4582F7"/>
</svg>
