<svg width="44" height="44" viewBox="0 0 44 44" fill="none" xmlns="http://www.w3.org/2000/svg">
<g id="Component 315">
<path id="Vector" d="M35.9676 3.6665H8.03109C5.62157 3.6665 3.66602 5.62206 3.66602 8.03158V35.9681C3.66602 38.3776 5.62157 40.3332 8.03109 40.3332H35.9676C38.3771 40.3332 40.3327 38.3776 40.3327 35.9681V8.03158C40.3327 5.62206 38.3771 3.6665 35.9676 3.6665ZM32.4755 16.7617H30.7295C28.8613 16.7617 28.1105 17.1982 28.1105 18.5078V21.1268H32.4755L31.6025 25.4919H28.1105V38.5871H23.7454V25.4919H20.2533V21.1268H23.7454V18.5078C23.7454 15.0157 25.4914 12.3967 28.9835 12.3967C31.5152 12.3967 32.4755 13.2697 32.4755 13.2697V16.7617Z" fill="#A7AEBC"/>
</g>
</svg>
