<svg width="56" height="56" viewBox="0 0 56 56" fill="none" xmlns="http://www.w3.org/2000/svg">
<path fill-rule="evenodd" clip-rule="evenodd" d="M3.09437 27.0128C1.89171 27.0128 1.00029 26.0253 1.00029 24.9538V3.13022C1.00029 2.05886 1.89169 1.07136 3.09437 1.07136H24.6657C25.8684 1.07136 26.7598 2.05886 26.7598 3.13022V24.9538C26.7598 26.0253 25.8684 27.0128 24.6657 27.0128H3.09437ZM3.09437 28.0841C1.39418 28.0841 0.000293732 26.674 0.000293732 24.9538V3.13022C0.000293732 1.41014 1.39418 0 3.09437 0H24.6657C26.3659 0 27.7598 1.41014 27.7598 3.13022V24.9538C27.7598 26.674 26.3659 28.0841 24.6657 28.0841H3.09437Z" fill="url(#paint0_linear_2005_1066)" fill-opacity="0.6"/>
<path fill-rule="evenodd" clip-rule="evenodd" d="M31.1201 54.9289C29.9013 54.9289 28.9991 53.9298 28.9991 52.8472V30.864C28.9991 29.7815 29.9013 28.7823 31.1201 28.7823H52.879C54.0978 28.7823 55 29.7815 55 30.864V52.8472C55 53.9298 54.0979 54.9289 52.879 54.9289H31.1201ZM31.1201 56.0002C29.4051 56.0002 27.9991 54.5799 27.9991 52.8472V30.864C27.9991 29.1314 29.4051 27.7109 31.1201 27.7109H52.879C54.594 27.7109 56 29.1314 56 30.864V52.8472C56 54.5799 54.594 56.0002 52.879 56.0002H31.1201Z" fill="url(#paint1_linear_2005_1066)" fill-opacity="0.8"/>
<defs>
<linearGradient id="paint0_linear_2005_1066" x1="57" y1="55.4259" x2="-6.0138" y2="4.02291" gradientUnits="userSpaceOnUse">
<stop stop-color="#4582F7"/>
<stop offset="1" stop-color="#4582F7" stop-opacity="0"/>
</linearGradient>
<linearGradient id="paint1_linear_2005_1066" x1="70" y1="68.4997" x2="18.0503" y2="25.5695" gradientUnits="userSpaceOnUse">
<stop stop-color="#4582F7"/>
<stop offset="1" stop-color="#4582F7" stop-opacity="0"/>
</linearGradient>
</defs>
</svg>
