<svg width="181" height="85" viewBox="0 0 181 85" fill="none" xmlns="http://www.w3.org/2000/svg">
<path d="M70.0563 34.9173C70.0563 36.062 69.1786 37.0004 68.1079 37.0004H54.5245C53.4539 37.0004 52.5762 36.062 52.5762 34.9173V20.3936C52.5762 19.249 53.4539 18.3105 54.5245 18.3105H68.1079C69.1786 18.3105 70.0563 19.249 70.0563 20.3936V34.9173Z" fill="#07BFDD"/>
<path d="M87.7574 16.6067C87.7574 17.7515 86.8797 18.6899 85.8091 18.6899H72.2257C71.1551 18.6899 70.2773 17.7515 70.2773 16.6067V2.08316C70.2773 0.938449 71.1551 0 72.2257 0H85.8091C86.8797 0 87.7574 0.938449 87.7574 2.08316V16.6067Z" fill="#007FFF"/>
<path d="M35.1558 34.9173C35.1558 36.062 34.278 37.0005 33.2076 37.0005H19.624C18.5534 37.0005 17.6758 36.062 17.6758 34.9173V20.3936C17.6758 19.249 18.5534 18.3105 19.624 18.3105H33.2076C34.278 18.3105 35.1558 19.249 35.1558 20.3936V34.9173Z" fill="#1DA5F8"/>
<path d="M17.4801 16.6067C17.4801 17.7515 16.6024 18.69 15.5318 18.69H1.94831C0.877701 18.69 0 17.7549 0 16.6067V2.08315C0 0.938448 0.877701 0 1.94831 0H15.5318C16.6024 0 17.4801 0.938448 17.4801 2.08315V16.6067Z" fill="#8CC936"/>
<path d="M28.3486 62.3301L23.8963 73.7383L18.5227 62.3301H15.4281L10.4311 73.9964L5.87486 62.3301H0L9.17735 83.9973L11.0074 84.0002L16.9185 71.1985L22.8585 84.0085H24.6885L33.902 62.3301H28.3486Z" fill="#D4D4D4"/>
<path d="M52.9955 74.5116L38.5249 74.5005C38.8836 75.8939 39.5719 76.9682 40.5817 77.7259C41.5934 78.4837 42.8481 78.8612 44.343 78.8612C46.3682 78.8612 48.2813 78.1229 50.0825 76.6434L52.4084 80.7347C49.9686 82.9276 47.2218 84.0213 44.1741 84.0184C40.9322 84.0157 38.2422 82.911 36.1087 80.7014C33.9742 78.492 32.9102 75.7579 32.9102 72.4965C32.9129 69.2655 33.948 66.5398 36.0147 64.3191C38.0814 62.0986 40.6386 60.9883 43.689 60.9883C46.5443 60.9911 48.873 61.9709 50.6723 63.9278C52.4734 65.8847 53.3722 68.3162 53.3695 71.2224C53.3722 72.2883 53.2448 73.3875 52.9955 74.5116ZM40.3577 67.0338C39.4698 67.8332 38.8601 68.9158 38.5249 70.2787L47.9227 70.2842C47.8965 68.9213 47.453 67.8388 46.594 67.0366C45.734 66.2344 44.6962 65.8347 43.4758 65.8347C42.2871 65.8347 41.2456 66.2344 40.3577 67.0338Z" fill="#D4D4D4"/>
<path d="M74.3071 64.2785C76.1769 66.4575 77.1109 69.2082 77.1082 72.5279C77.1055 75.8477 76.1688 78.5957 74.2972 80.7747C72.4256 82.9508 70.0319 84.0389 67.1215 84.0389C64.2111 84.0362 62.0071 82.9397 60.5122 80.7441L60.5095 83.5004L55.3535 83.4977L55.3743 54L60.9873 54.0028L60.9792 63.6262C62.4488 61.8775 64.502 61.0059 67.1341 61.0059C70.0472 61.0087 72.4382 62.0996 74.3071 64.2785ZM69.8918 76.9025C70.9035 75.7922 71.4103 74.3183 71.413 72.4808C71.413 70.6738 70.9017 69.2138 69.8756 68.1007C68.8504 66.9876 67.5885 66.4325 66.0935 66.4297C64.6528 66.4297 63.4243 66.9543 62.4127 68.0063C61.4001 69.0583 60.8934 70.5627 60.8906 72.5168C60.8906 74.5015 61.4028 76.0087 62.428 77.0302C63.4532 78.0544 64.6736 78.5652 66.0854 78.568C67.6092 78.568 68.8793 78.0156 69.8918 76.9025Z" fill="#D4D4D4"/>
<path d="M110.398 64.3502C112.558 66.5597 113.637 69.2799 113.635 72.5108C113.633 75.7418 112.55 78.4675 110.387 80.6909C108.225 82.9143 105.602 84.0217 102.527 84.019C99.4501 84.0162 96.8514 82.9114 94.7305 80.702C92.6123 78.4925 91.5527 75.7584 91.5527 72.497C91.5554 69.266 92.6222 66.5458 94.7594 64.3391C96.8957 62.1324 99.5016 61.0304 102.578 61.0332C105.631 61.0332 108.235 62.1379 110.398 64.3502ZM98.7519 68.2084C97.752 69.3493 97.2543 70.7926 97.2515 72.5414C97.2515 74.2901 97.7493 75.7196 98.7465 76.8326C99.7437 77.9457 101.018 78.5008 102.57 78.5036C104.095 78.5036 105.364 77.9429 106.377 76.816C107.389 75.689 107.895 74.2679 107.898 72.5497C107.9 70.8315 107.394 69.3937 106.382 68.2362C105.369 67.0787 104.102 66.5014 102.578 66.4986C101.025 66.4986 99.7482 67.0676 98.7519 68.2084Z" fill="#D4D4D4"/>
<path d="M115.789 83.2421L121.211 83.2448L121.221 67.8174L125.6 67.8201L125.602 62.886L121.224 62.8834L121.226 62.6174C121.226 61.4231 121.522 60.5799 122.111 60.0825C122.701 59.5851 123.611 59.3378 124.843 59.3378C125.118 59.3378 125.412 59.3537 125.722 59.383L125.725 54.4462C125.008 54.2733 124.258 54.1856 123.481 54.1856C121.099 54.1829 119.222 54.8425 117.856 56.1618C116.489 57.4811 115.804 59.4628 115.804 62.104L115.789 83.2421Z" fill="#D4D4D4"/>
<path d="M127.531 83.2421L132.954 83.2448L132.964 67.8174L137.342 67.8201L137.345 62.886L132.966 62.8834L132.968 62.6174C132.968 61.4231 133.264 60.5799 133.853 60.0825C134.443 59.5851 135.354 59.3378 136.585 59.3378C136.86 59.3378 137.154 59.3537 137.465 59.383L137.467 54.4462C136.75 54.2733 136 54.1856 135.223 54.1856C132.841 54.1829 130.965 54.8425 129.598 56.1618C128.231 57.4811 127.547 59.4628 127.547 62.104L127.531 83.2421Z" fill="#D4D4D4"/>
<path d="M84.7906 66.4368L84.7861 75.4079C84.7861 76.6542 85.0896 77.5341 85.6993 78.0532C86.3099 78.5723 87.252 78.8332 88.5266 78.8332C89.0252 78.8332 89.5807 78.7887 90.1904 78.6999L90.1877 83.724C89.2167 84.0487 88.1915 84.2125 87.112 84.2098C84.6452 84.207 82.704 83.5186 81.2913 82.139C79.8794 80.7595 79.1731 78.6916 79.1758 75.9353L79.1803 66.4313L79.183 61.3628L79.1857 54.0293L84.7987 54.0321L84.796 61.3655L84.7906 66.4368Z" fill="#D4D4D4"/>
<path d="M86.2625 62.3828L91.0128 62.3856L91.0101 67.4541L86.2598 67.4512L86.2625 62.3828Z" fill="#D4D4D4"/>
<path d="M158.953 74.5886L144.482 74.5775C144.841 75.9709 145.529 77.0451 146.539 77.8029C147.551 78.5607 148.805 78.9381 150.3 78.9381C152.325 78.9381 154.238 78.1998 156.04 76.7204L158.366 80.8118C155.926 83.0046 153.179 84.0983 150.131 84.0955C146.889 84.0927 144.199 82.988 142.066 80.7785C139.931 78.569 138.867 75.8349 138.867 72.5734C138.87 69.3425 139.903 66.6167 141.969 64.3934C144.036 62.1728 146.593 61.0625 149.643 61.0625C152.499 61.0653 154.827 62.0451 156.627 64.002C158.429 65.9589 159.327 68.3904 159.324 71.2966C159.329 72.3652 159.205 73.4617 158.953 74.5886ZM146.317 67.1108C145.43 67.9103 144.82 68.9927 144.485 70.3556L153.882 70.3612C153.857 68.9983 153.413 67.9158 152.554 67.1136C151.694 66.3114 150.656 65.9117 149.436 65.9117C148.244 65.9117 147.205 66.3114 146.317 67.1108Z" fill="#D4D4D4"/>
<path d="M180.629 74.6022L166.159 74.5911C166.516 75.9846 167.205 77.0588 168.215 77.8166C169.227 78.5744 170.481 78.9518 171.976 78.9518C174.001 78.9518 175.914 78.2135 177.716 76.734L180.042 80.8255C177.601 83.0182 174.855 84.1119 171.808 84.1092C168.565 84.1063 165.876 83.0016 163.742 80.7922C161.608 78.5827 160.543 75.8486 160.543 72.5871C160.546 69.3562 161.579 66.6304 163.646 64.4071C165.712 62.1865 168.269 61.0762 171.319 61.0762C174.175 61.079 176.504 62.0588 178.302 64.0157C180.104 65.9726 181.002 68.4041 181.001 71.3103C181.005 72.3789 180.879 73.4754 180.629 74.6022ZM167.991 67.1245C167.104 67.9239 166.494 69.0064 166.159 70.3693L175.556 70.3749C175.53 69.012 175.087 67.9294 174.227 67.1272C173.368 66.3251 172.329 65.9254 171.11 65.9254C169.92 65.9254 168.879 66.3251 167.991 67.1245Z" fill="#D4D4D4"/>
</svg>
