<svg width="44" height="44" viewBox="0 0 44 44" fill="none" xmlns="http://www.w3.org/2000/svg">
<path d="M36.2903 16.6023L29.1612 8.9375C28.573 8.30506 27.9763 7.98438 27.3879 7.98438C26.58 7.98438 25.6366 8.64505 25.6366 10.5071V13.1166C20.4571 13.3593 15.6202 15.6431 11.931 19.6093C8.02361 23.8101 5.87146 29.3955 5.87109 35.3365C5.87109 35.7634 6.12501 36.1425 6.50158 36.2776C6.59772 36.312 6.69614 36.3286 6.79363 36.3286C7.07825 36.3286 7.35375 36.1866 7.5314 35.9324C11.8875 29.6982 18.4458 26.014 25.6366 25.7231V28.2924C25.6366 30.1544 26.58 30.8152 27.3879 30.8152H27.3881C27.9764 30.8152 28.5731 30.4945 29.1612 29.8621L36.2902 22.1971C36.9831 21.4524 37.3647 20.4589 37.3647 19.3997C37.3647 18.3407 36.9831 17.3472 36.2903 16.6023Z" fill="#A7AEBC"/>
</svg>
