<svg width="40" height="40" viewBox="0 0 40 40" fill="none" xmlns="http://www.w3.org/2000/svg">
<path opacity="0.992" fill-rule="evenodd" clip-rule="evenodd" d="M6.45898 3.33333C12.2533 3.33333 18.0475 3.33333 23.8418 3.33333C25.5404 3.74075 26.5712 4.80412 26.9342 6.52343C26.9668 8.99729 26.9777 11.4713 26.9668 13.9453C25.5297 14.3773 24.1083 14.8547 22.7025 15.3776C22.4803 14.9165 22.1222 14.6236 21.6283 14.4987C17.3097 14.4553 12.9911 14.4553 8.67253 14.4987C7.71324 14.8079 7.37687 15.448 7.66341 16.4193C7.88991 16.8197 8.22629 17.0693 8.67253 17.168C11.7975 17.1896 14.9225 17.2114 18.0475 17.2331C17.1717 18.0411 16.6508 19.0285 16.485 20.1953C16.2772 20.1064 16.0602 20.0521 15.834 20.0325C13.5119 19.9891 11.1899 19.9891 8.86784 20.0325C7.87063 20.1836 7.44745 20.7587 7.59831 21.7578C7.73937 22.2461 8.05404 22.5607 8.54232 22.7018C11.0814 22.7452 13.6204 22.7452 16.1595 22.7018C16.2909 22.6725 16.4103 22.6183 16.5176 22.5391C16.5393 23.9062 16.561 25.2734 16.5827 26.6406C16.7157 28.754 17.3559 30.6963 18.5033 32.4674C14.3776 32.5314 10.2544 32.5096 6.13346 32.4023C4.62019 31.9202 3.68703 30.9111 3.33398 29.375C3.33398 21.7144 3.33398 14.0538 3.33398 6.39322C3.7754 4.75821 4.81706 3.73825 6.45898 3.33333ZM8.54232 8.93229C10.6258 8.92144 12.7091 8.93229 14.7923 8.96484C15.7639 9.40509 16.0134 10.1104 15.541 11.0807C15.2587 11.4118 14.9007 11.5962 14.4668 11.6341C12.468 11.6962 10.4715 11.6745 8.47721 11.569C7.50588 11.0643 7.29972 10.3373 7.85872 9.38802C8.06406 9.19195 8.29193 9.04004 8.54232 8.93229Z" fill="#4582F7"/>
<path opacity="0.986" fill-rule="evenodd" clip-rule="evenodd" d="M36.6661 19.9349C36.6661 22.3221 36.6661 24.7092 36.6661 27.0964C36.353 29.1749 35.4958 30.9979 34.0945 32.5651C32.4705 34.3254 30.5717 35.6926 28.3979 36.6667C28.1158 36.6667 27.8336 36.6667 27.5515 36.6667C20.3275 33.2409 17.6257 27.5768 19.4461 19.6745C19.6165 19.374 19.8661 19.1678 20.1948 19.056C22.7857 18.1525 25.3899 17.2954 28.0073 16.4844C30.6633 17.3299 33.3109 18.2089 35.95 19.1211C36.2731 19.3245 36.5118 19.5958 36.6661 19.9349ZM31.7833 22.0833C33.0203 22.3437 33.4 23.0598 32.9226 24.2318C31.4578 26.174 29.9929 28.1163 28.5281 30.0586C27.9696 30.4724 27.4054 30.4941 26.8354 30.1237C25.8046 29.0929 24.7737 28.062 23.7429 27.0313C23.2747 26.0046 23.5677 25.2993 24.6218 24.9154C24.9691 24.8665 25.2946 24.9316 25.5984 25.1107C26.2178 25.741 26.8472 26.3594 27.4864 26.9661C28.6458 25.427 29.8177 23.897 31.0021 22.3763C31.2495 22.219 31.5099 22.1214 31.7833 22.0833Z" fill="#4582F7"/>
</svg>
