<svg width="40" height="40" viewBox="0 0 40 40" fill="none" xmlns="http://www.w3.org/2000/svg">
<path opacity="0.986" fill-rule="evenodd" clip-rule="evenodd" d="M18.8544 3.33693C22.8271 3.24347 25.6601 4.97378 27.3532 8.5278C28.6987 12.391 27.8675 15.6989 24.8596 18.4515C22.2354 20.3594 19.3855 20.7666 16.3099 19.6729C12.4688 17.8109 10.7555 14.7406 11.1699 10.4617C12.1233 6.33562 14.6847 3.96065 18.8544 3.33693Z" fill="#F9F9F9"/>
<path opacity="0.984" fill-rule="evenodd" clip-rule="evenodd" d="M13.0489 19.5215C17.3491 22.5995 21.6409 22.5995 25.9243 19.5215C27.4947 20.2295 28.801 21.2642 29.8429 22.6258C25.8718 24.0551 24.2602 26.8541 25.0083 31.0228C25.3557 32.1767 25.9494 33.1777 26.7894 34.0254C20.0138 36.5519 13.6695 35.7377 7.75623 31.5826C6.78503 30.6821 6.46269 29.5795 6.78931 28.2747C7.35542 24.255 9.44194 21.3373 13.0489 19.5215Z" fill="#F9F9F9"/>
<path opacity="0.929" fill-rule="evenodd" clip-rule="evenodd" d="M30.6545 23.9994C33.8359 23.8399 35.8206 25.2988 36.6087 28.376C36.8877 30.6845 36.0565 32.4656 34.115 33.7196C31.3514 34.9719 29.0274 34.4121 27.143 32.0402C25.9104 29.9018 26.0122 27.8322 27.4483 25.8315C28.3354 24.888 29.4041 24.2773 30.6545 23.9994ZM30.858 25.7297C31.6868 25.6431 32.4672 25.7958 33.199 26.1877C31.6214 27.7654 30.0438 29.343 28.4661 30.9206C27.6957 29.3246 27.9162 27.8827 29.1277 26.5949C29.6582 26.1939 30.235 25.9055 30.858 25.7297ZM34.4204 27.46C35.3136 29.2654 34.9744 30.809 33.4026 32.0911C32.1981 32.7909 30.9767 32.8248 29.7384 32.1929C31.3196 30.6287 32.8802 29.0511 34.4204 27.46Z" fill="#F9F9F9"/>
</svg>
