<svg width="44" height="44" viewBox="0 0 44 44" fill="none" xmlns="http://www.w3.org/2000/svg">
<g id="Component 323">
<path id="Vector" d="M30.7108 3.66675C28.067 3.66675 25.6703 4.70835 23.9295 6.39178H11.5724C9.58487 6.39178 7.46621 7.45264 6.06025 8.81855C4.65509 10.1845 3.68926 12.2003 3.68926 14.133L3.66602 32.449C3.66602 34.2399 4.59677 36.3504 5.8123 37.6762L23.9914 19.9582C24.1596 20.1777 24.3174 20.3988 24.4889 20.6195C24.9892 21.2636 25.4915 21.8402 25.9781 22.4317L24.3835 23.9938L37.2845 36.5117C37.8915 35.4505 38.5258 34.0043 38.5258 32.7563L38.5552 18.4096C39.578 16.8616 40.3327 15.1918 40.3327 13.0198C40.3327 7.86239 36.0165 3.66675 30.7108 3.66675ZM30.7108 6.74126C34.2725 6.74126 37.169 9.55689 37.1698 13.0183C37.1698 15.2126 36.0118 16.7028 34.4099 18.7651C33.2134 20.3046 31.8009 22.1243 30.7123 24.5993C29.6238 22.1243 28.209 20.3046 27.0133 18.7651C25.4106 16.7028 24.2533 15.2126 24.2533 13.0183C24.2533 9.55689 27.1499 6.74126 30.7108 6.74126ZM30.7108 11.164C29.6151 11.164 28.7257 12.0278 28.7257 13.0936C28.7257 14.1595 29.6151 15.0248 30.7108 15.0248C31.8073 15.0248 32.6975 14.1595 32.6975 13.0936C32.6975 12.0278 31.8065 11.164 30.7108 11.164ZM13.9558 12.5739C14.9896 12.5739 15.9313 12.9569 16.6383 13.5862L15.6883 14.4916C15.2234 14.0998 14.6183 13.8619 13.9558 13.8619C12.4919 13.8619 11.3043 15.0163 11.3043 16.4393C11.3043 17.8623 12.4919 19.0152 13.9558 19.0152C15.2689 19.0152 16.3947 18.0872 16.6057 16.8686H13.9558V15.5792H17.8284L17.8501 15.665C17.9025 15.9149 17.9322 16.1725 17.9322 16.4378C17.9322 18.5726 16.152 20.3031 13.9558 20.3031C11.7596 20.3031 9.98015 18.5742 9.97936 16.4393C9.97936 14.3037 11.7596 12.5739 13.9558 12.5739ZM22.1241 26.1901L8.45604 39.5426C9.17885 39.8943 10.4206 40.3118 11.5957 40.3334L30.6411 40.3108C32.1414 40.3108 33.7823 39.7183 35.07 38.7743L22.1241 26.1901Z" fill="#A7AEBC"/>
</g>
</svg>
