<svg width="44" height="44" viewBox="0 0 44 44" fill="none" xmlns="http://www.w3.org/2000/svg">
<g id="Component 315">
<path id="Vector" d="M22.3349 40.3332C12.0415 40.3332 3.66602 32.1099 3.66602 21.9998C3.66602 11.8897 12.0415 3.6665 22.3349 3.6665C26.9982 3.6665 31.4617 5.36346 34.9076 8.446L35.5353 9.00957L29.3789 15.0563L28.8083 14.5768C27.0013 13.0574 24.703 12.2198 22.3349 12.2198C16.8442 12.2198 12.3744 16.6069 12.3744 21.9998C12.3744 27.3927 16.8442 31.7799 22.3349 31.7799C26.2944 31.7799 29.4233 29.7934 30.8974 26.4088H21.5233V18.1544L39.8245 18.1794L39.9608 18.8114C40.915 23.2609 40.151 29.8058 36.2835 34.4888C33.0816 38.3653 28.3898 40.3332 22.3349 40.3332Z" fill="#A7AEBC"/>
</g>
</svg>
