<svg width="44" height="44" viewBox="0 0 44 44" fill="none" xmlns="http://www.w3.org/2000/svg">
<g id="Component 315">
<path id="Vector" d="M32.2202 15.4057C31.9735 15.1684 31.6275 15.0606 31.2888 15.1157C30.9495 15.1706 30.6565 15.3815 30.4991 15.6842C29.9578 16.7254 29.2703 17.6822 28.4614 18.5281C28.542 17.9171 28.5826 17.3024 28.5826 16.6861C28.5826 15.5035 28.4225 14.2865 28.1067 13.0686C27.0682 9.06812 24.3451 5.68497 20.6358 3.78668C20.3128 3.62146 19.928 3.62726 19.6103 3.80214C19.2926 3.9771 19.0845 4.29786 19.056 4.65665C18.7668 8.2921 16.8756 11.5996 13.8644 13.7331C13.8245 13.7615 13.785 13.7903 13.7454 13.819C13.6634 13.8783 13.5862 13.9345 13.514 13.9816C13.5027 13.9891 13.4915 13.9966 13.4805 14.0045C11.5867 15.347 10.0241 17.1367 8.96136 19.1805C7.8815 21.2594 7.33398 23.4903 7.33398 25.8109C7.33398 26.9932 7.49405 28.2101 7.80976 29.4283C9.47582 35.849 15.3115 40.3334 22.0011 40.3334C30.0881 40.3334 36.6673 33.8186 36.6673 25.8109C36.6673 21.8621 35.088 18.1668 32.2202 15.4057Z" fill="#A7AEBC"/>
</g>
</svg>
