<svg width="44" height="44" viewBox="0 0 44 44" fill="none" xmlns="http://www.w3.org/2000/svg">
<g id="Component 325">
<path id="Vector" d="M30.8848 16.4037V12.4905C31.4275 12.2483 31.8872 11.8643 32.2104 11.3828C32.5336 10.9014 32.707 10.3424 32.7106 9.77072V9.67859C32.7083 8.87941 32.3747 8.11356 31.7825 7.54832C31.1904 6.98308 30.3879 6.66438 29.5504 6.66184H29.4538C28.6165 6.66438 27.8142 6.98289 27.2221 7.54783C26.6301 8.11277 26.2963 8.87827 26.2936 9.67722V9.76934C26.2962 10.3377 26.467 10.8939 26.7861 11.3738C27.1053 11.8537 27.5599 12.2379 28.0978 12.4822L28.1165 12.4905V16.412C26.5485 16.6406 25.072 17.2622 23.8381 18.2132L23.8554 18.1995L12.5749 9.81884C12.7896 9.05112 12.7187 8.23609 12.3741 7.5127C12.0295 6.78932 11.4326 6.20237 10.6852 5.85194C9.93781 5.5015 9.08615 5.40927 8.27545 5.59098C7.46475 5.77269 6.7452 6.21707 6.23948 6.84838C5.73376 7.47968 5.47319 8.25881 5.50218 9.05293C5.53118 9.84705 5.84795 10.607 6.39849 11.2032C6.94903 11.7994 7.69925 12.1949 8.52124 12.3223C9.34323 12.4498 10.1861 12.3012 10.9061 11.902L10.8888 11.9102L21.9806 20.1479C21 21.5506 20.4793 23.2 20.4848 24.8861C20.4848 26.7327 21.0972 28.4446 22.1376 29.8457L22.1189 29.8182L18.744 33.0399C18.4738 32.9567 18.192 32.9126 17.9082 32.9092H17.9053C17.3259 32.9092 16.7594 33.0732 16.2777 33.3804C15.7959 33.6875 15.4204 34.1241 15.1986 34.6349C14.9769 35.1457 14.9189 35.7077 15.0319 36.25C15.145 36.7922 15.424 37.2903 15.8337 37.6813C16.2434 38.0722 16.7654 38.3384 17.3337 38.4463C17.902 38.5541 18.4911 38.4988 19.0264 38.2872C19.5617 38.0756 20.0193 37.7173 20.3412 37.2577C20.6631 36.798 20.8349 36.2575 20.8349 35.7046C20.831 35.4265 20.7824 35.1506 20.6908 34.8865L20.698 34.9057L24.0369 31.7199C25.1252 32.5122 26.3885 33.0573 27.7308 33.3137C29.0731 33.5701 30.459 33.531 31.7831 33.1994C33.1071 32.8678 34.3345 32.2525 35.3718 31.4002C36.4092 30.5479 37.2291 29.4811 37.7694 28.2809C38.3096 27.0808 38.5558 25.7788 38.4894 24.4742C38.4229 23.1696 38.0455 21.8966 37.3859 20.7521C36.7263 19.6075 35.8018 18.6216 34.6827 17.8693C33.5637 17.117 32.2795 16.6181 30.928 16.4106L30.8761 16.4037H30.8848ZM29.4956 29.2985C28.5825 29.296 27.6906 29.0355 26.9326 28.5497C26.1746 28.0638 25.5844 27.3746 25.2367 26.569C24.889 25.7633 24.7992 24.8774 24.9788 24.0232C25.1584 23.1689 25.5993 22.3846 26.2458 21.7693C26.8923 21.1539 27.7154 20.7352 28.6111 20.566C29.5069 20.3967 30.4351 20.4845 31.2786 20.8183C32.122 21.1521 32.8429 21.7169 33.3501 22.4414C33.8574 23.1659 34.1283 24.0176 34.1286 24.8889V24.8916C34.1288 25.4707 34.0093 26.0442 33.7772 26.5793C33.545 27.1144 33.2046 27.6006 32.7754 28.0101C32.3462 28.4196 31.8367 28.7444 31.2759 28.9659C30.7151 29.1875 30.1141 29.3014 29.5071 29.3012L29.4956 29.2985Z" fill="#A7AEBC"/>
</g>
</svg>
