<svg width="44" height="44" viewBox="0 0 44 44" fill="none" xmlns="http://www.w3.org/2000/svg">
<g id="Component 323">
<path id="Vector" d="M14.4994 3.6665C8.52435 3.6665 3.66602 8.52484 3.66602 14.4998V29.4998C3.66602 35.4748 8.52435 40.3332 14.4994 40.3332H29.4994C35.4744 40.3332 40.3327 35.4748 40.3327 29.4998V14.4998C40.3327 8.52484 35.4744 3.6665 29.4994 3.6665H14.4994ZM31.9994 10.3332C32.916 10.3332 33.666 11.0832 33.666 11.9998C33.666 12.9165 32.916 13.6665 31.9994 13.6665C31.0827 13.6665 30.3327 12.9165 30.3327 11.9998C30.3327 11.0832 31.0827 10.3332 31.9994 10.3332ZM21.9994 12.8332C27.0577 12.8332 31.166 16.9415 31.166 21.9998C31.166 27.0582 27.0577 31.1665 21.9994 31.1665C16.941 31.1665 12.8327 27.0582 12.8327 21.9998C12.8327 16.9415 16.941 12.8332 21.9994 12.8332ZM21.9994 14.4998C17.866 14.4998 14.4994 17.8665 14.4994 21.9998C14.4994 26.1332 17.866 29.4998 21.9994 29.4998C26.1327 29.4998 29.4994 26.1332 29.4994 21.9998C29.4994 17.8665 26.1327 14.4998 21.9994 14.4998Z" fill="#A7AEBC"/>
</g>
</svg>
