<svg width="44" height="44" viewBox="0 0 44 44" fill="none" xmlns="http://www.w3.org/2000/svg">
<g id="Component 321">
<path id="Vector" d="M32.9994 3.6665C28.9918 3.6665 25.7233 6.89203 25.666 10.8853C25.666 10.9225 25.666 10.9626 25.666 10.9998C25.666 13.704 27.1298 16.053 29.3098 17.3248C30.3926 17.9579 31.6559 18.3332 32.9994 18.3332C37.0441 18.3332 40.3327 15.0446 40.3327 10.9998C40.3327 6.95505 37.0441 3.6665 32.9994 3.6665ZM24.2452 11.6186L16.7514 15.3769C18.496 16.8894 19.6418 19.0665 19.7764 21.5186L27.3619 17.7144C25.5915 16.2277 24.4199 14.0621 24.2452 11.6186ZM10.9993 14.6665C6.95456 14.6665 3.66602 17.955 3.66602 21.9998C3.66602 26.0446 6.95456 29.3332 10.9993 29.3332C12.5033 29.3332 13.8897 28.8748 15.0556 28.0957C17.0236 26.7808 18.3327 24.5465 18.3327 21.9998C18.3327 19.3673 16.9319 17.0613 14.8494 15.7665C13.7264 15.0675 12.4145 14.6665 10.9993 14.6665ZM19.7764 22.4811C19.6418 24.9303 18.516 27.1303 16.7744 28.6457L24.2452 32.3811C24.4199 29.9376 25.5715 27.7748 27.3389 26.2853L19.7764 22.4811ZM32.9994 25.6665C31.4869 25.6665 30.0889 26.1392 28.9202 26.9269C26.9637 28.2446 25.666 30.4647 25.666 32.9998C25.666 33.0113 25.666 33.0113 25.666 33.0228C25.6345 33.0256 25.6059 33.0428 25.5744 33.0457L25.666 33.0915C25.7147 37.0933 28.9861 40.3332 32.9994 40.3332C37.0441 40.3332 40.3327 37.0446 40.3327 32.9998C40.3327 28.955 37.0441 25.6665 32.9994 25.6665Z" fill="#A7AEBC"/>
</g>
</svg>
