<svg width="44" height="44" viewBox="0 0 44 44" fill="none" xmlns="http://www.w3.org/2000/svg">
<g id="Component 322">
<path id="Vector" d="M35.9676 3.6665H8.0311C5.62157 3.6665 3.66602 5.62206 3.66602 8.03158V35.9681C3.66602 38.3776 5.62157 40.3332 8.0311 40.3332H35.9676C38.3771 40.3332 40.3327 38.3776 40.3327 35.9681V8.03158C40.3327 5.62206 38.3771 3.6665 35.9676 3.6665ZM15.0152 17.6348V34.2221H9.77713V17.6348H15.0152ZM9.77713 12.807C9.77713 11.5848 10.8247 10.6506 12.3962 10.6506C13.9676 10.6506 14.9541 11.5848 15.0152 12.807C15.0152 14.0292 14.0374 15.0157 12.3962 15.0157C10.8247 15.0157 9.77713 14.0292 9.77713 12.807ZM34.2216 34.2221H28.9835C28.9835 34.2221 28.9835 26.1379 28.9835 25.4919C28.9835 23.7459 28.1105 21.9998 25.9279 21.9649H25.8581C23.7454 21.9649 22.8724 23.7633 22.8724 25.4919C22.8724 26.2863 22.8724 34.2221 22.8724 34.2221H17.6343V17.6348H22.8724V19.8697C22.8724 19.8697 24.5573 17.6348 27.9446 17.6348C31.4105 17.6348 34.2216 20.0181 34.2216 24.8459V34.2221Z" fill="#A7AEBC"/>
</g>
</svg>
