<svg width="24" height="28" viewBox="0 0 24 28" fill="none" xmlns="http://www.w3.org/2000/svg">
<g id="Lock">
<path id="Lock_2" fill-rule="evenodd" clip-rule="evenodd" d="M19.3669 7.92917V9.97362C21.6633 10.6904 23.3366 12.7693 23.3366 15.2524V21.8349C23.3366 24.9089 20.7881 27.4012 17.6462 27.4012H6.36165C3.2184 27.4012 0.669922 24.9089 0.669922 21.8349V15.2524C0.669922 12.7693 2.34452 10.6904 4.63964 9.97362V7.92917C4.65319 3.95421 7.94547 0.734497 11.9829 0.734497C16.0746 0.734497 19.3669 3.95421 19.3669 7.92917ZM12.0105 3.05351C14.7608 3.05351 16.9963 5.23973 16.9963 7.92946V9.68639H7.01107V7.90296C7.02462 5.22648 9.26012 3.05351 12.0105 3.05351ZM13.1894 20.0084C13.1894 20.6576 12.661 21.1744 11.9971 21.1744C11.3468 21.1744 10.8184 20.6576 10.8184 20.0084V17.0669C10.8184 16.4309 11.3468 15.9142 11.9971 15.9142C12.661 15.9142 13.1894 16.4309 13.1894 17.0669V20.0084Z" fill="#007FFF"/>
</g>
</svg>
