<svg width="40" height="40" viewBox="0 0 40 40" fill="none" xmlns="http://www.w3.org/2000/svg">
<path opacity="0.986" fill-rule="evenodd" clip-rule="evenodd" d="M18.8925 3.33333C19.6303 3.33333 20.3682 3.33333 21.106 3.33333C24.6032 3.8682 27.1097 5.73452 28.6256 8.93229C29.9718 12.3768 29.5595 15.5885 27.3886 18.5677C25.0328 21.321 22.0489 22.4603 18.4368 21.9857C14.8822 21.2561 12.4408 19.2053 11.1125 15.8333C9.93369 11.8568 10.8343 8.43877 13.8144 5.57942C15.2969 4.34975 16.9896 3.60105 18.8925 3.33333ZM19.7388 8.02083C21.4737 8.05325 22.5696 8.8996 23.0266 10.5599C23.1747 11.4536 22.9903 12.2674 22.4732 13.0013C23.311 13.6886 23.8427 14.5675 24.0683 15.638C24.1117 15.9852 24.1117 16.3325 24.0683 16.6797C23.9489 16.9727 23.7427 17.1788 23.4498 17.2982C21.2605 17.4044 19.0687 17.4261 16.8743 17.3633C16.4142 17.3342 16.0996 17.1063 15.9302 16.6797C15.8146 15.5512 16.1184 14.553 16.8417 13.6849C17.0739 13.4527 17.3017 13.2249 17.5253 13.0013C16.6974 11.6519 16.7517 10.339 17.6881 9.0625C18.2665 8.4966 18.9501 8.14938 19.7388 8.02083Z" fill="#4582F7"/>
<path opacity="0.994" fill-rule="evenodd" clip-rule="evenodd" d="M36.6673 14.1414C36.6673 20.8255 36.6673 27.5095 36.6673 34.1935C36.2984 35.4739 35.4738 36.2985 34.1934 36.6675C24.7316 36.6675 15.2697 36.6675 5.80794 36.6675C4.52756 36.2985 3.70291 35.4739 3.33398 34.1935C3.33398 27.5095 3.33398 20.8255 3.33398 14.1414C3.69109 12.8621 4.51574 12.0483 5.80794 11.7C6.74085 11.6675 7.67401 11.6566 8.60742 11.6675C8.40056 16.4519 10.3103 20.1086 14.3366 22.6375C18.1128 24.6773 21.8888 24.6773 25.6647 22.6375C29.691 20.1086 31.6007 16.4519 31.3939 11.6675C32.3273 11.6566 33.2605 11.6675 34.1934 11.7C35.4855 12.0483 36.3102 12.8621 36.6673 14.1414ZM11.6673 27.2925C17.2229 27.2816 22.7785 27.2925 28.334 27.325C29.2353 27.5325 29.5065 28.0642 29.1478 28.9201C28.9353 29.1728 28.6641 29.3139 28.334 29.3433C22.7785 29.3867 17.2229 29.3867 11.6673 29.3433C10.766 29.1358 10.4948 28.6041 10.8535 27.7482C11.079 27.5002 11.3503 27.3482 11.6673 27.2925ZM13.7507 31.4592C17.9174 31.4483 22.0841 31.4592 26.2507 31.4917C27.152 31.6992 27.4232 32.2309 27.0645 33.0868C26.852 33.3395 26.5807 33.4806 26.2507 33.5099C22.084 33.5534 17.9173 33.5534 13.7507 33.5099C12.8493 33.3024 12.5781 32.7707 12.9368 31.9149C13.1624 31.6668 13.4337 31.5149 13.7507 31.4592Z" fill="#4582F7"/>
<path opacity="0.948" fill-rule="evenodd" clip-rule="evenodd" d="M19.3359 13.0869C20.5465 12.8946 21.484 13.2983 22.1484 14.2978C20.6901 14.3499 19.2318 14.3499 17.7734 14.2978C18.1484 13.7009 18.6693 13.2973 19.3359 13.0869Z" fill="#4582F7"/>
</svg>
