<svg width="293" height="34" viewBox="0 0 293 34" fill="none" xmlns="http://www.w3.org/2000/svg">
<path d="M123.884 9.65454L118.955 22.1919L113.006 9.65454H109.58L104.048 22.4756L99.0039 9.65454H92.5L102.66 33.4664L104.686 33.4695L111.23 19.4008L117.806 33.4787H119.832L130.032 9.65454H123.884Z" fill="#17449C"/>
<path d="M151.17 23.043L135.15 23.0308C135.547 24.5621 136.309 25.7427 137.427 26.5754C138.547 27.4082 139.936 27.8231 141.591 27.8231C143.833 27.8231 145.951 27.0117 147.945 25.3858L150.52 29.8821C147.819 32.292 144.778 33.4939 141.404 33.4908C137.815 33.4878 134.837 32.2737 132.475 29.8455C130.112 27.4174 128.934 24.4127 128.934 20.8284C128.937 17.2776 130.083 14.2821 132.371 11.8417C134.659 9.40134 137.49 8.18115 140.867 8.18115C144.028 8.1842 146.606 9.26102 148.598 11.4116C150.592 13.5622 151.587 16.2344 151.584 19.4282C151.587 20.5996 151.446 21.8076 151.17 23.043ZM137.179 14.8251C136.196 15.7036 135.521 16.8933 135.15 18.3911L145.554 18.3972C145.525 16.8994 145.034 15.7097 144.083 14.8281C143.131 13.9465 141.982 13.5073 140.631 13.5073C139.315 13.5073 138.162 13.9465 137.179 14.8251Z" fill="#17449C"/>
<path d="M174.762 11.7959C176.832 14.1905 177.866 17.2135 177.863 20.8618C177.86 24.5102 176.823 27.5302 174.751 29.9248C172.679 32.3163 170.029 33.5121 166.807 33.5121C163.585 33.5091 161.145 32.3041 159.49 29.8912L159.487 32.9203L153.779 32.9173L153.802 0.5L160.016 0.50305L160.007 11.079C161.634 9.15721 163.907 8.19937 166.821 8.19937C170.046 8.20242 172.693 9.40125 174.762 11.7959ZM169.874 25.6694C170.994 24.4492 171.555 22.8294 171.558 20.81C171.558 18.8241 170.992 17.2196 169.856 15.9964C168.721 14.7731 167.324 14.163 165.669 14.16C164.074 14.16 162.714 14.7365 161.594 15.8926C160.473 17.0488 159.912 18.7021 159.909 20.8496C159.909 23.0307 160.476 24.6871 161.611 25.8097C162.746 26.9353 164.097 27.4966 165.66 27.4997C167.347 27.4997 168.753 26.8926 169.874 25.6694Z" fill="#17449C"/>
<path d="M214.718 11.8753C217.109 14.3035 218.304 17.2929 218.302 20.8436C218.299 24.3944 217.1 27.3899 214.706 29.8334C212.312 32.2768 209.409 33.4939 206.004 33.4909C202.598 33.4878 199.721 32.2737 197.373 29.8456C195.028 27.4174 193.855 24.4127 193.855 20.8284C193.858 17.2777 195.039 14.2882 197.405 11.8631C199.77 9.43797 202.655 8.22694 206.061 8.22999C209.441 8.22999 212.324 9.44407 214.718 11.8753ZM201.825 16.1154C200.718 17.3692 200.167 18.9554 200.164 20.8772C200.164 22.799 200.715 24.37 201.819 25.5932C202.923 26.8165 204.334 27.4265 206.052 27.4296C207.74 27.4296 209.145 26.8134 210.266 25.5749C211.387 24.3364 211.947 22.7746 211.95 20.8864C211.953 18.9981 211.392 17.418 210.272 16.1459C209.151 14.8739 207.748 14.2394 206.061 14.2363C204.342 14.2363 202.928 14.8617 201.825 16.1154Z" fill="#17449C"/>
<path d="M220.686 32.6369L226.689 32.6398L226.7 15.6855L231.547 15.6884L231.55 10.266L226.703 10.2631L226.705 9.97076C226.705 8.65826 227.033 7.73162 227.685 7.18499C228.338 6.63836 229.346 6.36651 230.709 6.36651C231.014 6.36651 231.339 6.38405 231.683 6.4162L231.686 0.990824C230.892 0.800819 230.062 0.704355 229.201 0.704355C226.564 0.701431 224.487 1.42637 222.974 2.87626C221.461 4.32614 220.703 6.50389 220.703 9.40659L220.686 32.6369Z" fill="#17449C"/>
<path d="M233.686 32.6369L239.689 32.6398L239.7 15.6855L244.547 15.6884L244.55 10.266L239.703 10.2631L239.705 9.97076C239.705 8.65826 240.033 7.73162 240.685 7.18499C241.338 6.63836 242.346 6.36651 243.709 6.36651C244.014 6.36651 244.339 6.38405 244.683 6.4162L244.686 0.990824C243.892 0.800819 243.062 0.704355 242.201 0.704355C239.564 0.701431 237.487 1.42637 235.974 2.87626C234.461 4.32614 233.703 6.50389 233.703 9.40659L233.686 32.6369Z" fill="#17449C"/>
<path d="M186.37 14.1693L186.365 24.0283C186.365 25.398 186.701 26.365 187.376 26.9354C188.052 27.5059 189.095 27.7926 190.506 27.7926C191.058 27.7926 191.673 27.7438 192.348 27.6462L192.345 33.1675C191.27 33.5244 190.135 33.7044 188.94 33.7014C186.209 33.6983 184.06 32.9418 182.496 31.4257C180.933 29.9096 180.151 27.637 180.154 24.6079L180.159 14.1632L180.162 8.59301L180.165 0.533691L186.379 0.536742L186.376 8.59606L186.37 14.1693Z" fill="#17449C"/>
<path d="M187.997 9.7124L193.256 9.71545L193.253 15.2856L187.994 15.2825L187.997 9.7124Z" fill="#17449C"/>
<path d="M268.472 23.1252L252.452 23.113C252.849 24.6443 253.611 25.8248 254.729 26.6576C255.85 27.4904 257.238 27.9052 258.893 27.9052C261.135 27.9052 263.253 27.0938 265.248 25.4679L267.823 29.9643C265.121 32.3742 262.08 33.5761 258.706 33.573C255.117 33.57 252.139 32.3559 249.777 29.9277C247.414 27.4995 246.236 24.4948 246.236 20.9105C246.239 17.3598 247.383 14.3642 249.67 11.9208C251.958 9.48044 254.789 8.26025 258.166 8.26025C261.327 8.2633 263.905 9.34012 265.897 11.4907C267.892 13.6413 268.886 16.3135 268.883 19.5073C268.889 20.6817 268.751 21.8867 268.472 23.1252ZM254.484 14.9072C253.502 15.7858 252.826 16.9754 252.455 18.4732L262.859 18.4793C262.831 16.9815 262.339 15.7919 261.388 14.9103C260.436 14.0287 259.287 13.5894 257.936 13.5894C256.617 13.5894 255.467 14.0287 254.484 14.9072Z" fill="#17449C"/>
<path d="M292.469 23.1405L276.449 23.1283C276.845 24.6597 277.607 25.8402 278.725 26.673C279.846 27.5058 281.234 27.9206 282.889 27.9206C285.131 27.9206 287.249 27.1092 289.244 25.4833L291.819 29.9797C289.117 32.3895 286.077 33.5914 282.703 33.5884C279.113 33.5853 276.136 32.3712 273.773 29.9431C271.411 27.5149 270.232 24.5102 270.232 20.9259C270.235 17.3752 271.379 14.3796 273.667 11.9362C275.954 9.49582 278.785 8.27563 282.162 8.27563C285.324 8.27869 287.902 9.3555 289.893 11.5061C291.888 13.6567 292.882 16.3289 292.88 19.5227C292.885 20.6971 292.745 21.9021 292.469 23.1405ZM278.478 14.9226C277.495 15.8011 276.82 16.9908 276.449 18.4886L286.853 18.4947C286.824 16.9969 286.333 15.8072 285.381 14.9256C284.43 14.0441 283.28 13.6048 281.93 13.6048C280.613 13.6048 279.461 14.0441 278.478 14.9226Z" fill="#17449C"/>
<path d="M63.4435 31.642C63.4435 32.663 62.6549 33.4999 61.693 33.4999H49.4888C48.5269 33.4999 47.7383 32.663 47.7383 31.642V18.6885C47.7383 17.6676 48.5269 16.8306 49.4888 16.8306H61.693C62.6549 16.8306 63.4435 17.6676 63.4435 18.6885V31.642Z" fill="#07BFDD"/>
<path d="M79.3458 15.3114C79.3458 16.3324 78.5572 17.1694 77.5953 17.1694H65.3911C64.4292 17.1694 63.6406 16.3324 63.6406 15.3114V2.35795C63.6406 1.337 64.4292 0.5 65.3911 0.5H77.5953C78.5572 0.5 79.3458 1.337 79.3458 2.35795V15.3114Z" fill="#007FFF"/>
<path d="M32.086 31.642C32.086 32.663 31.2974 33.5 30.3356 33.5H18.1313C17.1694 33.5 16.3809 32.663 16.3809 31.642V18.6885C16.3809 17.6676 17.1694 16.8306 18.1313 16.8306H30.3356C31.2974 16.8306 32.086 17.6676 32.086 18.6885V31.642Z" fill="#1DA5F8"/>
<path d="M16.2052 15.3124C16.2052 16.3334 15.4166 17.1704 14.4547 17.1704H2.25048C1.28858 17.1704 0.5 16.3364 0.5 15.3124V2.35892C0.5 1.33797 1.28858 0.500977 2.25048 0.500977H14.4547C15.4166 0.500977 16.2052 1.33797 16.2052 2.35892V15.3124Z" fill="#8CC936"/>
</svg>
