<svg width="44" height="44" viewBox="0 0 44 44" fill="none" xmlns="http://www.w3.org/2000/svg">
<path d="M28.897 27.616L33.3974 20.1741C34.0421 19.1575 34.4114 17.9349 34.4114 16.626C34.4114 16.4466 34.4052 16.2738 34.3927 16.101L39.4126 24.2206C39.4314 24.2472 39.4376 24.2671 39.4564 24.2937L39.5503 24.4466L39.544 24.4532C40.0385 25.3103 40.3264 26.3137 40.3327 27.3834C40.3327 30.4798 37.9667 32.9914 35.0499 32.9914C33.2597 32.9914 31.6887 32.0479 30.731 30.606L30.7247 30.6127L30.6934 30.5595C30.6684 30.5196 30.6434 30.4731 30.6121 30.4333M28.4777 26.925L31.3569 22.1608C31.2004 22.2539 31.0377 22.3469 30.8687 22.4266C30.8562 22.4333 30.8437 22.4399 30.8374 22.4399C30.6809 22.513 30.5244 22.5794 30.3617 22.6392C30.3304 22.6525 30.3054 22.6592 30.2741 22.6725C30.2303 22.6858 30.1802 22.7057 30.1364 22.719C30.0738 22.7389 30.0049 22.7588 29.9361 22.7788C29.8985 22.7921 29.861 22.7987 29.8234 22.812L29.6732 22.8519L29.5793 22.8718C29.5042 22.8917 29.4228 22.905 29.3414 22.9183C29.3164 22.925 29.2851 22.925 29.2601 22.9316C29.185 22.9449 29.1161 22.9515 29.041 22.9582C29.0285 22.9582 29.0097 22.9648 28.9972 22.9648L28.7343 22.9848C28.7093 22.9848 28.6905 22.9848 28.6655 22.9914C28.5716 22.998 28.4839 22.998 28.39 22.998C28.2899 22.998 28.1897 22.998 28.0896 22.9914C28.0583 22.9914 28.0207 22.9848 27.9895 22.9848C27.9269 22.9781 27.858 22.9781 27.7954 22.9715C27.7579 22.9648 27.714 22.9648 27.6765 22.9582C27.6202 22.9515 27.5576 22.9449 27.5012 22.9316C27.4574 22.925 27.4199 22.9183 27.376 22.9117C27.3197 22.905 27.2696 22.8917 27.2133 22.8784C27.1695 22.8718 27.1257 22.8585 27.0881 22.8519C27.038 22.8386 26.988 22.8253 26.9316 22.812C26.8878 22.7987 26.844 22.7854 26.8002 22.7788C26.7501 22.7655 26.7 22.7522 26.65 22.7323L26.5185 22.6924C26.4685 22.6791 26.4246 22.6592 26.3808 22.6392C26.337 22.626 26.2932 22.606 26.2494 22.5861C26.2056 22.5662 26.1618 22.5462 26.1179 22.5329L25.9865 22.4731C25.9427 22.4532 25.9051 22.4333 25.8613 22.4133C25.8175 22.3934 25.7737 22.3668 25.7299 22.3469C25.6986 22.327 25.661 22.307 25.6297 22.2937L25.6235 22.2804C25.5796 22.2539 25.5358 22.2339 25.492 22.2073C25.4607 22.1874 25.4232 22.1675 25.3919 22.1475C25.3418 22.121 25.298 22.0877 25.2479 22.0612C25.2229 22.0479 25.2041 22.0279 25.1791 22.0147C25.0476 21.9283 24.9224 21.8353 24.8035 21.7422C24.6721 21.6359 24.5406 21.523 24.4154 21.41C24.4029 21.3967 24.3904 21.3901 24.3779 21.3768C24.3215 21.3236 24.2715 21.2705 24.2214 21.2173C24.2089 21.204 24.1963 21.1907 24.1776 21.1774L24.0273 21.018C24.0148 21.0047 24.0023 20.9848 23.9835 20.9715C23.9335 20.9183 23.8896 20.8585 23.8396 20.8054C23.8271 20.7921 23.8145 20.7721 23.802 20.7588C23.7582 20.699 23.7081 20.6392 23.6643 20.5794C23.6518 20.5662 23.6393 20.5529 23.633 20.5329C23.5892 20.4731 23.5454 20.4067 23.5016 20.3469C23.4953 20.3336 23.4828 20.3203 23.4765 20.307C23.4327 20.2406 23.3889 20.1741 23.3451 20.101C23.3388 20.0944 23.3326 20.0811 23.3263 20.0745L23.1949 19.8552L23.1886 19.8485C22.7818 19.111 22.5126 18.2804 22.4125 17.3967C22.4125 17.3834 22.4125 17.3701 22.4062 17.3569L19.9714 13.7024H19.9651C19.0325 12.101 17.3738 11.0313 15.4647 11.0313H15.4397C13.5368 11.0313 11.8719 12.101 10.9455 13.7024H10.9393L6.04453 21.8153C6.90831 21.3037 7.89727 21.018 8.94882 21.018C12.0159 21.018 14.5508 23.4698 14.9076 26.6193L17.6554 30.7123H17.6617C18.6194 32.0944 20.1654 32.998 21.9117 32.998H21.9368C23.6831 32.998 25.2229 32.101 26.1868 30.7123H26.1931L26.2369 30.6392C26.3433 30.4798 26.4434 30.3137 26.5436 30.1343L28.4777 26.9316V26.925ZM23.101 16.6127C23.101 19.7157 25.467 22.2273 28.39 22.2273C31.3131 22.2273 33.6791 19.7157 33.6791 16.6127C33.6791 13.5097 31.3131 10.998 28.39 10.998C25.467 10.998 23.101 13.5097 23.101 16.6127ZM3.66602 27.3901C3.66602 30.4864 6.03201 32.998 8.94882 32.998C11.8656 32.998 14.2316 30.4864 14.2316 27.3901C14.2316 24.2937 11.8656 21.7821 8.94882 21.7821C6.03201 21.7821 3.66602 24.2937 3.66602 27.3901Z" fill="#A7AEBC"/>
</svg>
