<svg width="40" height="40" viewBox="0 0 40 40" fill="none" xmlns="http://www.w3.org/2000/svg">
<path opacity="0.987" fill-rule="evenodd" clip-rule="evenodd" d="M5.77423 4.47276C15.2581 4.45516 24.7419 4.47276 34.2256 4.52544C35.3572 4.84905 36.1123 5.56908 36.4912 6.68564C36.6436 8.5765 36.6963 10.4733 36.6493 12.3759C25.5498 12.3759 14.4501 12.3759 3.35059 12.3759C3.30361 10.4733 3.3563 8.5765 3.50865 6.68564C3.90655 5.5675 4.66178 4.82987 5.77423 4.47276ZM8.514 7.95015C9.43003 7.96332 9.71106 8.38483 9.357 9.21466C9.04477 9.54743 8.69356 9.60012 8.30324 9.37272C7.84886 8.8175 7.91915 8.34331 8.514 7.95015ZM12.9398 7.95015C13.7456 7.93045 14.0793 8.31686 13.9408 9.10928C13.4842 9.67125 13.0275 9.67125 12.571 9.10928C12.43 8.63088 12.5529 8.24447 12.9398 7.95015ZM17.4709 7.95015C18.0765 7.88334 18.4277 8.14678 18.5247 8.74047C18.4731 9.2135 18.2097 9.47694 17.7344 9.53079C16.8072 9.12446 16.7194 8.59758 17.4709 7.95015Z" fill="#4582F7"/>
<path opacity="0.986" fill-rule="evenodd" clip-rule="evenodd" d="M3.35229 14.0625C14.4518 14.0625 25.5514 14.0625 36.651 14.0625C36.6686 20.3149 36.651 26.5672 36.5983 32.8194C36.3078 34.1986 35.4824 35.0592 34.122 35.4011C24.6732 35.4713 15.2246 35.4713 5.77593 35.4011C4.47444 35.0126 3.68412 34.1521 3.40498 32.8194C3.35229 26.5672 3.33472 20.3149 3.35229 14.0625ZM24.2167 18.0668C24.4789 18.0455 24.7249 18.0982 24.9543 18.2248C25.7797 19.0502 26.6052 19.8758 27.4306 20.7012C27.5356 21.0918 27.4654 21.4431 27.2199 21.7549C26.4615 22.5485 25.6712 23.3037 24.8489 24.0205C23.9521 24.1427 23.6183 23.7739 23.8478 22.914C24.1657 22.6138 24.4643 22.2977 24.7435 21.9657C20.81 21.8779 16.876 21.8252 12.9415 21.8076C12.3522 21.2631 12.3873 20.7714 13.0468 20.3323C16.9457 20.2973 20.8446 20.2621 24.7435 20.227C24.2697 19.8593 23.9184 19.4026 23.6898 18.8571C23.726 18.4894 23.9016 18.226 24.2167 18.0668ZM15.2597 24.8108C16.221 24.8674 16.4844 25.3241 16.05 26.1807C15.7866 26.4441 15.5232 26.7076 15.2597 26.971C19.1586 27.0061 23.0575 27.0413 26.9564 27.0764C27.616 27.5155 27.6511 28.0072 27.0618 28.5516C23.1273 28.5692 19.1933 28.6219 15.2597 28.7097C15.539 29.0417 15.8376 29.3579 16.1554 29.6581C16.3849 30.518 16.0512 30.8868 15.1544 30.7645C14.3321 30.0478 13.5418 29.2925 12.7834 28.499C12.5379 28.1871 12.4677 27.8358 12.5727 27.4452C13.4573 26.5429 14.353 25.6648 15.2597 24.8108Z" fill="#4582F7"/>
</svg>
