<svg width="44" height="44" viewBox="0 0 44 44" fill="none" xmlns="http://www.w3.org/2000/svg">
<g id="Component 324">
<path id="Vector" d="M21.9994 3.6665C11.8904 3.6665 3.66602 11.8909 3.66602 21.9998C3.66602 29.8785 8.66191 36.6109 15.6515 39.1989C15.4502 37.4041 15.4818 34.4649 15.814 33.0418C16.1251 31.705 17.8237 24.523 17.8237 24.523C17.8237 24.523 17.3109 23.4961 17.3109 21.9794C17.3109 19.5959 18.6918 17.8176 20.4115 17.8176C21.8741 17.8176 22.5794 18.9157 22.5794 20.2314C22.5794 21.7026 21.6441 23.9002 21.1596 25.9369C20.7555 27.6434 22.0152 29.0349 23.6973 29.0349C26.7432 29.0349 29.0845 25.8229 29.0845 21.1871C29.0845 17.084 26.1368 14.2147 21.9269 14.2147C17.0512 14.2147 14.1892 17.8723 14.1892 21.6525C14.1892 23.125 14.7561 24.7043 15.4646 25.5638C15.6043 25.7339 15.6248 25.8822 15.5833 26.0549C15.4534 26.596 15.1647 27.7601 15.1074 27.9987C15.0329 28.3131 14.8589 28.3784 14.5346 28.2274C12.3937 27.2308 11.0556 24.1019 11.0556 21.5879C11.0556 16.1823 14.9828 11.2169 22.3797 11.2169C28.3251 11.2169 32.945 15.4526 32.945 21.1153C32.945 27.0218 29.2203 31.7749 24.0519 31.7749C22.3151 31.7749 20.683 30.8726 20.1248 29.8067C20.1248 29.8067 19.2653 33.0787 19.0563 33.8809C18.6956 35.2681 17.1518 38.1422 16.3768 39.4476C18.1497 40.0203 20.0383 40.3332 21.9994 40.3332C32.1087 40.3332 40.3327 32.1092 40.3327 21.9998C40.3327 11.8909 32.1087 3.6665 21.9994 3.6665Z" fill="#A7AEBC"/>
</g>
</svg>
