<svg width="40" height="40" viewBox="0 0 40 40" fill="none" xmlns="http://www.w3.org/2000/svg">
<path opacity="0.97" fill-rule="evenodd" clip-rule="evenodd" d="M8.94625 4.96107C10.5921 4.92468 12.2327 4.96374 13.8681 5.07826C14.6647 5.73243 14.7688 6.48763 14.1806 7.34389C14.0111 7.46781 13.8287 7.57198 13.6337 7.65639C12.2796 7.68243 10.9254 7.70847 9.57125 7.73451C8.66961 7.88107 8.08367 8.38889 7.81344 9.25795C7.80947 10.7464 7.75738 12.2308 7.65719 13.7111C7.34546 14.3422 6.83765 14.6157 6.13375 14.5314C5.57919 14.3674 5.20158 14.0158 5.00094 13.4767C4.92844 11.8592 4.95449 10.2446 5.07906 8.63295C5.70165 6.69499 6.99071 5.47103 8.94625 4.96107Z" fill="#4582F7"/>
<path opacity="0.969" fill-rule="evenodd" clip-rule="evenodd" d="M26.2896 4.96056C33.0819 3.90129 35.9596 6.76588 34.9225 13.5543C34.6696 14.3258 34.1357 14.6513 33.3209 14.5309C32.6828 14.4137 32.3053 14.0361 32.1881 13.3981C32.1621 12.0439 32.136 10.6897 32.11 9.33556C31.8632 8.38579 31.2512 7.85197 30.274 7.734C28.9459 7.70796 27.6178 7.68191 26.2896 7.65587C25.5754 7.36069 25.276 6.82684 25.3912 6.05431C25.4903 5.51393 25.7897 5.14936 26.2896 4.96056Z" fill="#4582F7"/>
<path opacity="0.991" fill-rule="evenodd" clip-rule="evenodd" d="M12.4619 9.72496C17.4619 9.71191 22.4619 9.72496 27.4619 9.76402C28.789 10.1016 29.6614 10.9219 30.079 12.225C30.1935 14.3303 30.2326 16.4397 30.1962 18.5531C31.9673 18.54 33.7381 18.5531 35.5087 18.5921C36.2542 18.8965 36.6448 19.4564 36.6806 20.2718C36.6533 20.9626 36.3148 21.4183 35.665 21.639C25.1702 21.6911 14.6754 21.6911 4.18061 21.639C3.53536 21.4358 3.22286 20.9931 3.24311 20.3109C3.27514 19.4978 3.69181 19.029 4.49311 18.9046C6.23771 18.8656 7.98249 18.8525 9.72749 18.8656C9.691 16.6481 9.73006 14.4346 9.84467 12.225C10.2762 10.9208 11.1487 10.0875 12.4619 9.72496Z" fill="#4582F7"/>
<path opacity="0.994" fill-rule="evenodd" clip-rule="evenodd" d="M9.72504 23.7109C16.5479 23.7109 23.3709 23.7109 30.1938 23.7109C30.2283 25.0434 30.1893 26.3716 30.0766 27.6953C29.6589 28.9984 28.7866 29.8187 27.4594 30.1562C22.4594 30.2084 17.4594 30.2084 12.4594 30.1562C11.1322 29.8187 10.2599 28.9984 9.84223 27.6953C9.72957 26.3716 9.69051 25.0434 9.72504 23.7109Z" fill="#4582F7"/>
<path opacity="0.97" fill-rule="evenodd" clip-rule="evenodd" d="M6.13335 25.3531C6.83625 25.3071 7.34406 25.5935 7.65679 26.2124C7.75691 27.6667 7.80899 29.1251 7.81304 30.5874C7.99241 31.3399 8.44812 31.8477 9.18023 32.1109C10.6616 32.2089 12.146 32.261 13.6334 32.2671C14.4641 32.6556 14.7375 33.2936 14.4537 34.1812C14.3051 34.564 14.0316 34.8114 13.6334 34.9234C6.73645 35.9953 3.88489 33.0916 5.07866 26.2124C5.28302 25.7337 5.63458 25.4473 6.13335 25.3531Z" fill="#4582F7"/>
<path opacity="0.97" fill-rule="evenodd" clip-rule="evenodd" d="M33.3983 25.3516C34.1575 25.3689 34.6653 25.7335 34.9217 26.4453C35.908 33.2454 33.0043 36.0709 26.2108 34.9219C25.371 34.4423 25.1496 33.7522 25.5467 32.8516C25.7383 32.5921 25.9857 32.3968 26.2889 32.2656C27.6431 32.2396 28.9973 32.2135 30.3514 32.1875C31.2531 32.0409 31.839 31.5331 32.1092 30.6641C32.1132 29.1756 32.1653 27.6912 32.2655 26.2109C32.5139 25.743 32.8914 25.4565 33.3983 25.3516Z" fill="#4582F7"/>
</svg>
