<svg width="24" height="28" viewBox="0 0 24 28" fill="none" xmlns="http://www.w3.org/2000/svg">
<g id="Shield Done">
<path id="Shield Done_2" fill-rule="evenodd" clip-rule="evenodd" d="M11.6407 27.286C11.7884 27.3632 11.9535 27.4024 12.1186 27.4011C12.2837 27.3998 12.4474 27.3593 12.5964 27.2808L17.3536 24.7378C18.7026 24.0187 19.7591 23.2146 20.5832 22.2784C22.3752 20.2388 23.3538 17.6356 23.3363 14.9513L23.28 6.09714C23.2746 5.07731 22.6048 4.16731 21.6141 3.83652L12.7642 0.867249C12.2313 0.686818 11.6474 0.690741 11.1239 0.876402L2.30758 3.95158C1.32232 4.29544 0.664585 5.21198 0.669955 6.23312L0.726332 15.0808C0.743782 17.769 1.75589 20.3604 3.57741 22.3791C4.40965 23.3022 5.47545 24.0945 6.83925 24.8018L11.6407 27.286ZM10.3808 16.8794C10.5795 17.0703 10.8372 17.1644 11.0949 17.1618C11.3526 17.1605 11.609 17.0638 11.805 16.8703L17.0038 11.745C17.3944 11.3593 17.3904 10.7395 16.9957 10.3591C16.5997 9.97858 15.9621 9.98119 15.5715 10.3669L11.0801 14.794L9.24117 13.0263C8.84518 12.6458 8.20892 12.6497 7.81697 13.0354C7.42635 13.4212 7.43038 14.0409 7.82636 14.4214L10.3808 16.8794Z" fill="#007FFF"/>
</g>
</svg>
