<svg width="44" height="44" viewBox="0 0 44 44" fill="none" xmlns="http://www.w3.org/2000/svg">
<g id="Component 320">
<g id="Group 3465810">
<path id="Vector" d="M9.42112 32.1217C9.95945 32.1217 10.5637 32.1217 11.2276 32.1217V17.4249C10.225 18.4774 9.693 19.7508 9.42112 20.7066V32.1217ZM19.3566 16.4407C18.7469 16.1084 17.7742 15.6889 16.6469 15.5606V32.1207C17.5285 32.1207 18.4353 32.1207 19.3566 32.1207V16.4407ZM13.034 32.1217C13.8858 32.1217 14.7953 32.1217 15.7437 32.1217V15.5311C14.6842 15.5627 13.7828 15.773 13.034 16.1179V32.1217ZM4.00177 22.5899C2.93776 23.532 2.19531 25.0609 2.19531 26.8369C2.19531 28.5046 2.91338 29.9777 4.00177 30.943V22.5899ZM37.4166 20.5531C36.1124 20.5531 35.3546 21.1009 35.3546 21.1009C35.3546 21.1009 34.5968 12.1758 26.9807 12.1758C22.5495 12.1758 20.8117 15.019 20.2598 16.2735V32.1207C28.2308 32.1207 36.7862 32.1207 36.7862 32.1207C36.7862 32.1207 42.0872 32.0218 42.0872 26.3868C42.0872 22.0494 38.7209 20.5531 37.4166 20.5531ZM7.61467 21.6929C7.2579 21.6393 6.85415 21.6004 6.40344 21.6004C6.20202 21.6004 6.00512 21.6393 5.80822 21.6772V31.9472C6.19028 32.0565 6.5859 32.1217 6.99235 32.1217C7.12874 32.1217 7.34732 32.1217 7.61467 32.1217V21.6929Z" fill="#A7AEBC"/>
</g>
</g>
</svg>
