<svg width="28" height="26" viewBox="0 0 28 26" fill="none" xmlns="http://www.w3.org/2000/svg">
<g id="Star">
<path id="Star_2" d="M21.8908 16.16C21.5455 16.4947 21.3869 16.9786 21.4655 17.4533L22.6507 24.0127C22.7507 24.5687 22.5161 25.1313 22.0508 25.4526C21.5949 25.7859 20.9883 25.8259 20.491 25.5592L14.5863 22.4795C14.381 22.3702 14.153 22.3115 13.9197 22.3049H13.5584C13.4331 22.3235 13.3104 22.3635 13.1984 22.4248L7.29241 25.5192C7.00045 25.6659 6.66982 25.7179 6.34585 25.6659C5.5566 25.5166 5.02999 24.7646 5.15931 23.9714L6.34585 17.4119C6.42451 16.9333 6.26586 16.4467 5.92056 16.1067L1.10642 11.4404C0.703799 11.0498 0.563815 10.4632 0.747794 9.9339C0.926442 9.40594 1.38239 9.02064 1.933 8.93398L8.55894 7.97273C9.06289 7.92073 9.50551 7.61409 9.73215 7.1608L12.6518 1.17464C12.7212 1.04131 12.8105 0.918657 12.9185 0.814666L13.0385 0.72134C13.1011 0.652013 13.1731 0.594684 13.2531 0.548021L13.3984 0.494693L13.6251 0.401367H14.1863C14.6876 0.453363 15.1289 0.753338 15.3595 1.2013L18.3179 7.1608C18.5312 7.59676 18.9458 7.8994 19.4244 7.97273L26.0504 8.93398C26.6103 9.01397 27.0783 9.40061 27.2636 9.9339C27.4382 10.4685 27.2876 11.0551 26.8769 11.4404L21.8908 16.16Z" fill="#007FFF"/>
<path id="Vector" d="M10 15.3217L12.1464 17.4682L17.8791 11.7354" stroke="#F0F7FD" stroke-width="1.99981" stroke-linecap="round" stroke-linejoin="round"/>
</g>
</svg>
