<svg width="140" height="34" viewBox="0 0 140 34" fill="none" xmlns="http://www.w3.org/2000/svg">
<g id="logo-white 1" clip-path="url(#clip0_1844_7999)">
<path id="Vector" d="M36.7917 12.0508H50.9671V14.6662H45.3933V29.3685H42.3284V14.6662H36.7793V12.0508H36.7917ZM50.3616 16.8294H52.9816V19.2492H53.0311C53.1176 18.907 53.2782 18.577 53.5131 18.2593C53.7479 17.9415 54.0321 17.636 54.3658 17.3793C54.6995 17.1105 55.0703 16.9027 55.4781 16.7316C55.8859 16.5727 56.3061 16.4872 56.7263 16.4872C57.0477 16.4872 57.2825 16.4994 57.4061 16.5116C57.5296 16.5238 57.6532 16.5483 57.7892 16.5605V19.2248C57.5914 19.1881 57.3937 19.1637 57.1836 19.1392C56.9735 19.1148 56.7758 19.1025 56.578 19.1025C56.1084 19.1025 55.6635 19.2003 55.2433 19.3836C54.8231 19.567 54.4647 19.848 54.1557 20.2025C53.8467 20.5691 53.5996 21.0091 53.4142 21.5468C53.2288 22.0846 53.1423 22.6956 53.1423 23.3923V29.3563H50.3492V16.8294H50.3616ZM70.6299 29.3685H67.8863V27.6209H67.8369C67.4908 28.2564 66.9841 28.7575 66.3044 29.1363C65.6246 29.5152 64.9325 29.7107 64.2281 29.7107C62.5597 29.7107 61.3485 29.3074 60.607 28.4886C59.8655 27.6698 59.4947 26.4354 59.4947 24.7855V16.8294H62.2878V24.5166C62.2878 25.6166 62.4979 26.3987 62.9304 26.8509C63.3506 27.3031 63.9562 27.5353 64.7224 27.5353C65.3157 27.5353 65.7977 27.4498 66.1931 27.2665C66.5886 27.0831 66.9099 26.8509 67.1448 26.5454C67.3919 26.2521 67.565 25.8854 67.6762 25.4699C67.7874 25.0544 67.8369 24.6022 67.8369 24.1133V16.8416H70.6299V29.3685ZM75.3881 25.3477C75.4746 26.1543 75.7835 26.7165 76.315 27.0465C76.8587 27.3642 77.5014 27.5353 78.2553 27.5353C78.5148 27.5353 78.8114 27.5109 79.1451 27.4742C79.4788 27.4376 79.8001 27.352 80.0844 27.242C80.381 27.132 80.6158 26.9609 80.8135 26.7409C80.9989 26.5209 81.0854 26.2399 81.0731 25.8854C81.0607 25.531 80.9248 25.2377 80.6776 25.0177C80.4304 24.7855 80.1215 24.6144 79.7383 24.4677C79.3552 24.3333 78.9227 24.2111 78.4283 24.1133C77.934 24.0156 77.4396 23.9056 76.9329 23.7956C76.4138 23.6856 75.9071 23.5389 75.4251 23.38C74.9431 23.2212 74.5106 23.0012 74.1275 22.7201C73.7443 22.4512 73.4354 22.0968 73.2129 21.669C72.9781 21.2413 72.8669 20.7158 72.8669 20.0803C72.8669 19.3959 73.0399 18.8337 73.3736 18.3693C73.7073 17.9048 74.1398 17.5382 74.6465 17.2571C75.1656 16.976 75.7341 16.7805 76.3644 16.6583C76.9947 16.5483 77.6003 16.4872 78.1688 16.4872C78.8238 16.4872 79.4541 16.5605 80.0473 16.6949C80.6405 16.8294 81.1843 17.0493 81.6663 17.3671C82.1483 17.6726 82.5438 18.0759 82.8651 18.5648C83.1864 19.0537 83.3842 19.6525 83.4707 20.3491H80.554C80.4181 19.6892 80.1215 19.237 79.6395 19.017C79.1575 18.7848 78.6013 18.6748 77.9834 18.6748C77.7856 18.6748 77.5508 18.687 77.2789 18.7237C77.007 18.7603 76.7599 18.8214 76.5127 18.907C76.2779 18.9925 76.0801 19.127 75.9071 19.2981C75.7465 19.4692 75.6599 19.6892 75.6599 19.9703C75.6599 20.3125 75.7835 20.5813 76.0183 20.7891C76.2532 20.9969 76.5621 21.168 76.9453 21.3146C77.3284 21.4491 77.7609 21.5713 78.2553 21.669C78.7496 21.7668 79.2563 21.8768 79.7754 21.9868C80.2821 22.0968 80.7765 22.2434 81.2708 22.4023C81.7652 22.5612 82.1977 22.7812 82.5808 23.0623C82.964 23.3434 83.2729 23.6856 83.5078 24.1011C83.7426 24.5166 83.8662 25.0422 83.8662 25.6532C83.8662 26.3987 83.6931 27.022 83.3471 27.5475C83.001 28.0608 82.5561 28.4886 82.0123 28.8064C81.4686 29.1241 80.8506 29.3685 80.1832 29.5152C79.5159 29.6618 78.8485 29.7352 78.1935 29.7352C77.3902 29.7352 76.6486 29.6496 75.9689 29.4663C75.2892 29.283 74.696 29.0141 74.2016 28.6597C73.7073 28.2931 73.3118 27.8409 73.0275 27.3031C72.7433 26.7654 72.595 26.1176 72.5703 25.3721H75.3881V25.3477ZM84.6077 16.8294H86.721V13.0652H89.5141V16.8294H92.0353V18.8948H89.5141V25.5921C89.5141 25.8854 89.5265 26.1299 89.5512 26.3498C89.5759 26.5576 89.6377 26.7409 89.7242 26.8876C89.8107 27.0342 89.9467 27.1442 90.132 27.2176C90.3174 27.2909 90.5522 27.3276 90.8736 27.3276C91.0713 27.3276 91.2691 27.3276 91.4668 27.3153C91.6645 27.3031 91.8623 27.2787 92.06 27.2298V29.3685C91.751 29.4052 91.4421 29.4296 91.1578 29.4663C90.8612 29.503 90.5646 29.5152 90.2556 29.5152C89.5141 29.5152 88.9209 29.4419 88.476 29.3074C88.0311 29.173 87.6727 28.9652 87.4255 28.6964C87.1659 28.4275 87.0053 28.0975 86.9064 27.6942C86.8199 27.2909 86.7581 26.8265 86.7458 26.3132V18.9192H84.6324V16.8294H84.6077ZM94.0127 16.8294H96.6575V18.5281H96.7069C97.1024 17.7949 97.6462 17.2816 98.3506 16.9638C99.0551 16.646 99.8089 16.4872 100.637 16.4872C101.638 16.4872 102.503 16.6583 103.245 17.0127C103.986 17.3549 104.604 17.8315 105.099 18.4426C105.593 19.0537 105.951 19.7625 106.198 20.5691C106.446 21.3757 106.569 22.2434 106.569 23.1601C106.569 24.0033 106.458 24.8222 106.236 25.6043C106.013 26.3987 105.679 27.0954 105.234 27.7064C104.79 28.3175 104.221 28.7941 103.529 29.1608C102.837 29.5274 102.034 29.7107 101.094 29.7107C100.686 29.7107 100.279 29.6741 99.8707 29.6007C99.4629 29.5274 99.0674 29.4052 98.6967 29.2463C98.3259 29.0874 97.9675 28.8797 97.6585 28.623C97.3372 28.3664 97.0777 28.0731 96.8552 27.7431H96.8058V34.0005H94.0127V16.8294ZM103.776 23.1112C103.776 22.549 103.702 21.999 103.554 21.4613C103.405 20.9235 103.183 20.4591 102.886 20.0436C102.59 19.6281 102.219 19.2981 101.786 19.0537C101.341 18.8092 100.835 18.6748 100.266 18.6748C99.0921 18.6748 98.2023 19.0781 97.6091 19.8847C97.0159 20.6913 96.7193 21.7668 96.7193 23.1112C96.7193 23.7467 96.7934 24.3333 96.9541 24.8711C97.1147 25.4088 97.3372 25.8732 97.6585 26.2643C97.9675 26.6554 98.3383 26.9609 98.7708 27.1809C99.2034 27.4131 99.7101 27.5231 100.279 27.5231C100.921 27.5231 101.453 27.3887 101.898 27.132C102.342 26.8754 102.701 26.5332 102.985 26.1299C103.269 25.7143 103.479 25.2499 103.603 24.7244C103.714 24.1989 103.776 23.6611 103.776 23.1112ZM108.707 12.0508H111.5V14.6662H108.707V12.0508ZM108.707 16.8294H111.5V29.3685H108.707V16.8294ZM113.997 12.0508H116.79V29.3685H113.997V12.0508ZM125.354 29.7107C124.341 29.7107 123.439 29.5396 122.648 29.2097C121.857 28.8797 121.19 28.4153 120.633 27.8409C120.09 27.2542 119.669 26.5576 119.385 25.751C119.101 24.9444 118.953 24.0522 118.953 23.0867C118.953 22.1335 119.101 21.2535 119.385 20.4469C119.669 19.6403 120.09 18.9437 120.633 18.357C121.177 17.7704 121.857 17.3182 122.648 16.9882C123.439 16.6583 124.341 16.4872 125.354 16.4872C126.368 16.4872 127.27 16.6583 128.061 16.9882C128.852 17.3182 129.519 17.7826 130.076 18.357C130.619 18.9437 131.04 19.6403 131.324 20.4469C131.608 21.2535 131.756 22.1335 131.756 23.0867C131.756 24.0522 131.608 24.9444 131.324 25.751C131.04 26.5576 130.619 27.2542 130.076 27.8409C129.532 28.4275 128.852 28.8797 128.061 29.2097C127.27 29.5396 126.368 29.7107 125.354 29.7107ZM125.354 27.5231C125.972 27.5231 126.516 27.3887 126.974 27.132C127.431 26.8754 127.802 26.5332 128.098 26.1176C128.395 25.7021 128.605 25.2255 128.753 24.7C128.889 24.1744 128.963 23.6367 128.963 23.0867C128.963 22.549 128.889 22.0235 128.753 21.4857C128.617 20.948 128.395 20.4836 128.098 20.068C127.802 19.6525 127.431 19.3225 126.974 19.0659C126.516 18.8092 125.972 18.6748 125.354 18.6748C124.737 18.6748 124.193 18.8092 123.736 19.0659C123.278 19.3225 122.907 19.6647 122.611 20.068C122.314 20.4836 122.104 20.948 121.956 21.4857C121.82 22.0235 121.746 22.549 121.746 23.0867C121.746 23.6367 121.82 24.1744 121.956 24.7C122.092 25.2255 122.314 25.7021 122.611 26.1176C122.907 26.5332 123.278 26.8754 123.736 27.132C124.193 27.4009 124.737 27.5231 125.354 27.5231ZM132.572 16.8294H134.685V13.0652H137.478V16.8294H140V18.8948H137.478V25.5921C137.478 25.8854 137.491 26.1299 137.516 26.3498C137.54 26.5576 137.602 26.7409 137.689 26.8876C137.775 27.0342 137.911 27.1442 138.096 27.2176C138.282 27.2909 138.517 27.3276 138.838 27.3276C139.036 27.3276 139.233 27.3276 139.431 27.3153C139.629 27.3031 139.827 27.2787 140.024 27.2298V29.3685C139.715 29.4052 139.406 29.4296 139.122 29.4663C138.826 29.503 138.529 29.5152 138.22 29.5152C137.478 29.5152 136.885 29.4419 136.44 29.3074C135.995 29.173 135.637 28.9652 135.39 28.6964C135.13 28.4275 134.97 28.0975 134.871 27.6942C134.784 27.2909 134.722 26.8265 134.71 26.3132V18.9192H132.597V16.8294H132.572Z" fill="white"/>
<path id="Vector_2" d="M33.5293 12.0503H20.7256L16.7708 0L12.8037 12.0503L0 12.0381L10.369 19.4932L6.40184 31.5313L16.7708 24.0884L27.1275 31.5313L23.1727 19.4932L33.5293 12.0503Z" fill="#00B67A"/>
<path id="Vector_3" d="M24.0612 22.2176L23.1714 19.4922L16.7695 24.0874L24.0612 22.2176Z" fill="#005128"/>
</g>
<defs>
<clipPath id="clip0_1844_7999">
<rect width="140" height="34" fill="white"/>
</clipPath>
</defs>
</svg>
