<svg width="36" height="44" viewBox="0 0 36 44" fill="none" xmlns="http://www.w3.org/2000/svg">
<g id="Component 315">
<path id="Vector" d="M40.3327 10.8035C38.981 11.3943 37.5322 11.791 36.009 11.971C37.5636 11.0539 38.7581 9.60229 39.3182 7.87498C37.8665 8.72176 36.2519 9.33785 34.5402 9.66981C33.1685 8.22944 31.2139 7.33203 29.0506 7.33203C24.8956 7.33203 21.5264 10.646 21.5264 14.7364C21.5264 15.3159 21.595 15.8814 21.7236 16.4243C15.471 16.1149 9.93001 13.1666 6.21791 8.68518C5.56922 9.78234 5.20058 11.0539 5.20058 12.4099C5.20058 14.9783 6.52654 17.2458 8.5469 18.5764C7.31239 18.537 6.15218 18.2023 5.13771 17.6481C5.13771 17.679 5.13771 17.71 5.13771 17.7409C5.13771 21.3306 7.73247 24.321 11.1702 25.0046C10.5416 25.1734 9.87572 25.2634 9.18988 25.2634C8.70407 25.2634 8.23256 25.2184 7.77248 25.1284C8.73265 28.0682 11.5103 30.2147 14.7995 30.2738C12.2276 32.2599 8.98413 33.4414 5.45777 33.4414C4.84909 33.4414 4.25184 33.4077 3.66602 33.3373C6.99234 35.4416 10.9473 36.6654 15.1967 36.6654C29.0335 36.6654 36.6006 25.3816 36.6006 15.5972C36.6006 15.2765 36.592 14.953 36.5806 14.6379C38.0494 13.5942 39.3239 12.2889 40.3327 10.8035Z" fill="#A7AEBC"/>
</g>
</svg>
