<svg width="44" height="44" viewBox="0 0 44 44" fill="none" xmlns="http://www.w3.org/2000/svg">
<g id="Component 322">
<path id="Vector" d="M34.7437 5.50001C29.3338 5.49354 26.3517 8.64317 24.5183 14.7808C25.4771 14.4121 26.4389 13.9562 27.3105 13.9562C29.1439 13.9562 29.754 14.6643 29.4925 16.8633C29.4053 18.2376 28.8824 20.4559 27.3105 23.0202C25.7385 25.494 24.372 26.1957 23.5876 26.1957C22.6289 26.1957 21.9005 24.7632 21.1161 20.9151C20.8546 19.8156 20.2445 17.3418 19.5442 12.6724C18.9341 8.36831 16.9045 6.05297 14.0252 6.32784C12.805 6.41838 11.3452 7.59869 8.90166 9.79761C7.15541 11.4468 5.49943 12.6368 3.66602 14.286L5.41227 16.611C7.06825 15.421 8.03009 14.9618 8.29156 14.9618C9.51176 14.9618 10.6448 16.9764 11.781 21.0994C12.7397 24.8538 13.7856 28.6081 14.7474 32.3624C16.2291 36.4854 18.0625 38.5 20.1574 38.5C23.6468 38.5 27.8334 35.2049 32.8076 28.427C37.6915 22.0146 40.1474 16.7048 40.3218 12.9505C40.4961 8.00613 38.5817 5.59055 34.7437 5.50001Z" fill="#A7AEBC"/>
</g>
</svg>
