<svg width="44" height="44" viewBox="0 0 44 44" fill="none" xmlns="http://www.w3.org/2000/svg">
<g id="Component 321">
<path id="Vector" d="M39.3092 13.5782C38.9702 11.8142 37.3552 10.5297 35.481 10.1286C32.6763 9.56779 27.4857 9.16675 21.8697 9.16675C16.2571 9.16675 10.9834 9.56779 8.17541 10.1286C6.30453 10.5297 4.6862 11.7328 4.34724 13.5782C4.00497 15.5834 3.66602 18.3907 3.66602 22.0001C3.66602 25.6095 4.00497 28.4167 4.43032 30.422C4.7726 32.1859 6.3876 33.4705 8.25849 33.8715C11.236 34.4324 16.3402 34.8334 21.9561 34.8334C27.5721 34.8334 32.6763 34.4324 35.6538 33.8715C37.5247 33.4705 39.1397 32.2674 39.482 30.422C39.8209 28.4167 40.2463 25.528 40.3327 22.0001C40.1599 18.3907 39.7345 15.5834 39.3092 13.5782ZM17.2773 27.6147V16.3855L27.6552 22.0001L17.2773 27.6147Z" fill="#A7AEBC"/>
</g>
</svg>
